<?xml version="1.0" standalone="no"?>
<!DOCTYPE svg PUBLIC "-//W3C//DTD SVG 1.1//EN" "http://www.w3.org/Graphics/SVG/1.1/DTD/svg11.dtd" >
<svg>
<metadata>
Created by FontForge 20090622 at Fri May 10 20:29:06 2019
 By deploy user
Copyright (C)2015 Commercial Type.
</metadata>
<defs>
<font id="DrukText-Medium" horiz-adv-x="500" >
  <font-face 
    font-family="Druk Text Medium"
    font-weight="500"
    font-stretch="normal"
    units-per-em="1000"
    panose-1="0 0 0 0 0 0 0 0 0 0"
    ascent="813"
    descent="-187"
    x-height="546"
    cap-height="744"
    bbox="-42 -224 1390 1125"
    underline-thickness="91"
    underline-position="69"
    unicode-range="U+0020-U+FB02"
  />
<missing-glyph 
 />
    <glyph glyph-name="f_t" unicode="ft" horiz-adv-x="641" 
d="M233 0h-126v439h-85v107h85v105q0 106 111 106h94v-101h-42q-22 0 -29.5 -8t-7.5 -31v-71h160v178h126v-178h92v-107h-92v-303q0 -16 5.5 -22.5t21.5 -6.5h65v-107h-133q-41 0 -63 21.5t-22 61.5v356h-160v-439z" />
    <glyph glyph-name="f_f_t" unicode="fft" horiz-adv-x="927" 
d="M233 0h-126v439h-85v107h85v105q0 106 111 106h105v-101h-53q-22 0 -29.5 -8t-7.5 -31v-71h160v105q0 106 111 106h94v-101h-42q-22 0 -29.5 -8t-7.5 -31v-71h160v178h126v-178h92v-107h-92v-303q0 -16 5.5 -22.5t21.5 -6.5h65v-107h-133q-41 0 -63 21.5t-22 61.5v356
h-160v-439h-126v439h-160v-439z" />
    <glyph glyph-name="f_f" unicode="ff" horiz-adv-x="632" 
d="M233 0h-126v439h-85v107h85v105q0 106 111 106h105v-101h-53q-22 0 -29.5 -8t-7.5 -31v-71h160v105q0 106 111 106h105v-101h-53q-22 0 -29.5 -8t-7.5 -31v-71h90v-107h-90v-439h-126v439h-160v-439z" />
    <glyph glyph-name="f_i" unicode="fi" horiz-adv-x="573" 
d="M317 757v-101h-47q-22 0 -29.5 -8t-7.5 -31v-71h84v-107h-84v-439h-126v439h-85v107h85v105q0 106 111 106h99zM520 728v-127h-127v127h127zM520 546v-546h-127v546h127z" />
    <glyph glyph-name="f_l" unicode="fl" horiz-adv-x="573" 
d="M317 757v-101h-47q-22 0 -29.5 -8t-7.5 -31v-71h84v-107h-84v-439h-126v439h-85v107h85v105q0 106 111 106h99zM520 757v-757h-127v757h127z" />
    <glyph glyph-name="emdash.alt" unicode="&#x2014;&#x2014;" horiz-adv-x="1436" 
d="M1390 344v-87h-1344v87h1344z" />
    <glyph glyph-name=".notdef" 
 />
    <glyph glyph-name=".null" horiz-adv-x="0" 
 />
    <glyph glyph-name="nonmarkingreturn" horiz-adv-x="333" 
 />
    <glyph glyph-name="space" unicode=" " horiz-adv-x="150" 
 />
    <glyph glyph-name="exclam" unicode="!" horiz-adv-x="236" 
d="M47 744h142l-43 -538h-58zM187 154v-154h-140v154h140z" />
    <glyph glyph-name="quotedbl" unicode="&#x22;" horiz-adv-x="377" 
d="M330 744v-244h-112v244h112zM159 744v-244h-112v244h112z" />
    <glyph glyph-name="numbersign" unicode="#" horiz-adv-x="515" 
d="M290 328l17 126h-83l-17 -126h83zM247 0l32 240h-83l-32 -240h-92l31 240h-83l12 88h83l16 126h-83l12 88h83l26 202h93l-27 -202h83l27 202h93l-27 -202h84l-12 -88h-83l-17 -126h83l-12 -88h-82l-32 -240h-93z" />
    <glyph glyph-name="dollar" unicode="$" horiz-adv-x="484" 
d="M167 581q0 -26 11 -44.5t39 -44.5v157q-27 -4 -38.5 -19t-11.5 -44v-5zM321 179q0 34 -11.5 55.5t-41.5 48.5v-183q53 10 53 72v7zM268 -75h-51v67q-92 3 -134 47t-42 127v103h124v-94q0 -66 52 -75v226l-79 66q-50 42 -74 83t-24 98v18q0 154 177 160v61h51v-61
q90 -2 129.5 -42t39.5 -118v-79h-120v62q0 35 -10.5 52.5t-38.5 22.5v-201l84 -73q54 -46 76 -88.5t22 -101.5v-15q0 -81 -46 -128t-136 -50v-67z" />
    <glyph glyph-name="percent" unicode="%" horiz-adv-x="759" 
d="M322 494q0 -64 -34 -98t-99 -34h-13q-66 0 -100 34t-34 98v123q0 64 34 98t100 34h13q65 0 99 -34t34 -98v-123zM522 744h86l-369 -744h-86zM182 445q43 0 43 50v121q0 51 -43 51t-43 -51v-121q0 -50 43 -50zM717 128q0 -64 -34 -98t-99 -34h-13q-66 0 -100 34t-34 98
v123q0 64 34 98t100 34h13q65 0 99 -34t34 -98v-123zM577 79q43 0 43 50v121q0 51 -43 51t-43 -51v-121q0 -50 43 -50z" />
    <glyph glyph-name="ampersand" unicode="&#x26;" horiz-adv-x="594" 
d="M532 -18q-75 5 -121 51q-57 -42 -140 -42h-8q-104 0 -166.5 54.5t-62.5 149.5v17q0 67 33.5 112t92.5 83q-26 43 -37.5 63.5t-23.5 55t-12 65.5v12q0 69 42.5 108.5t127.5 39.5h16q87 0 126 -40.5t39 -107.5v-4q0 -59 -32.5 -106.5t-100.5 -96.5l112 -182q14 89 14 211
h120q-2 -176 -59 -305q8 -6 16.5 -10.5t15 -6.5t16 -4t13.5 -3t15 -2t13 -1zM213 596q0 -51 46 -126q32 38 43.5 63.5t11.5 57.5v4q0 62 -50 62q-51 0 -51 -59v-2zM284 93q38 0 67 17l-142 220q-46 -54 -46 -108v-5q0 -55 33 -89.5t88 -34.5z" />
    <glyph glyph-name="quotesingle" unicode="'" horiz-adv-x="209" 
d="M162 744v-244h-115v244h115z" />
    <glyph glyph-name="parenleft" unicode="(" horiz-adv-x="282" 
d="M45 344q0 249 136 464h85q-103 -210 -103 -461q0 -229 107 -478h-85q-140 225 -140 475z" />
    <glyph glyph-name="parenright" unicode=")" horiz-adv-x="282" 
d="M237 344q0 -250 -140 -475h-85q107 249 107 478q0 251 -103 461h85q136 -215 136 -464z" />
    <glyph glyph-name="asterisk" unicode="*" horiz-adv-x="435" 
d="M173 757h90l-14 -123l107 70l39 -76l-126 -49l126 -48l-39 -77l-107 71l14 -125h-90l13 125l-106 -71l-40 77l127 48l-127 49l40 76l106 -70z" />
    <glyph glyph-name="plus" unicode="+" horiz-adv-x="463" 
d="M423 262h-141v-153h-101v153h-141v90h141v152h101v-152h141v-90z" />
    <glyph glyph-name="comma" unicode="," horiz-adv-x="228" 
d="M146 -140h-83q33 66 41 140h-60v154h140v-118q0 -97 -38 -176z" />
    <glyph glyph-name="hyphen" unicode="-" horiz-adv-x="331" 
d="M46 357h239v-112h-239v112z" />
    <glyph glyph-name="period" unicode="." horiz-adv-x="228" 
d="M184 154v-154h-140v154h140z" />
    <glyph glyph-name="slash" unicode="/" horiz-adv-x="290" 
d="M260 808l-142 -939h-98l142 939h98z" />
    <glyph glyph-name="zero" unicode="0" horiz-adv-x="495" 
d="M441 558v-372q0 -195 -181 -195h-23q-183 0 -183 195v372q0 194 181 194h24q182 0 182 -194zM307 186v371q0 79 -60 79q-59 0 -59 -79v-371q0 -78 60 -78q59 0 59 78z" />
    <glyph glyph-name="one" unicode="1" horiz-adv-x="320" 
d="M131 558h-106v103q70 0 96 17.5t37 65.5h104v-744h-131v558z" />
    <glyph glyph-name="two" unicode="2" horiz-adv-x="470" 
d="M430 0h-394v56q0 71 23 127.5t88 140.5l80 105q34 46 45 72t11 66v14q0 33 -11.5 47.5t-39.5 14.5q-27 0 -38.5 -15t-11.5 -47v-95h-125v107q0 158 162 158h20q96 0 137.5 -42t41.5 -125v-12q0 -64 -19.5 -109t-64.5 -98l-85 -97q-97 -106 -97 -156h152v132h126v-244z
" />
    <glyph glyph-name="three" unicode="3" horiz-adv-x="457" 
d="M172 520h-121v73q0 77 36 117.5t127 40.5h12q96 0 135 -38t39 -120v-62q0 -50 -18.5 -80.5t-45.5 -40.5q74 -21 74 -105v-145q0 -79 -43 -124t-131 -45h-21q-94 0 -132 43t-38 123v113h126v-102q0 -62 54 -62q51 0 51 62v125q0 27 -9.5 37.5t-36.5 10.5h-81v116h73
q27 0 37 10.5t10 39.5v77q0 30 -11 44.5t-38 14.5q-26 0 -37 -14.5t-11 -44.5v-64z" />
    <glyph glyph-name="four" unicode="4" horiz-adv-x="472" 
d="M25 273q154 330 212 474h125v-464h88v-108h-88v-175h-126v175h-211v98zM236 283v257l-112 -257h112z" />
    <glyph glyph-name="five" unicode="5" horiz-adv-x="456" 
d="M181 340h-125v404h347v-119h-222v-152q6 11 17.5 24t39 27t60.5 14h5q55 0 82.5 -35.5t27.5 -97.5v-245q0 -74 -42 -121.5t-128 -47.5h-23q-172 0 -172 156v118h127v-105q0 -55 52 -55t52 55v209q0 55 -48 55q-50 0 -50 -55v-29z" />
    <glyph glyph-name="six" unicode="6" horiz-adv-x="472" 
d="M307 475h5q58 0 87.5 -38.5t29.5 -99.5v-171q0 -77 -44.5 -126t-130.5 -49h-24q-177 0 -177 175v417q0 76 40 122t127 46h24q91 0 129.5 -41.5t38.5 -120.5v-58h-132v46q0 32 -11 46t-36 14q-47 0 -47 -60v-165q8 12 20.5 24t40.5 25.5t60 13.5zM186 169q0 -64 55 -64
t55 64v130q0 66 -55 66t-55 -64v-132z" />
    <glyph glyph-name="seven" unicode="7" horiz-adv-x="435" 
d="M42 744h355v-109q-2 -8 -7.5 -32l-18.5 -78.5l-30 -126.5q-54 -236 -54 -340v-58h-146v45q0 104 67 313q78 243 78 281h-123v-112h-121v217z" />
    <glyph glyph-name="eight" unicode="8" horiz-adv-x="469" 
d="M416 589v-63q0 -90 -74 -125q84 -33 84 -128v-112q0 -170 -180 -170h-26q-97 0 -137 45t-40 125v112q0 95 80 128q-71 33 -71 125v63q0 80 38.5 121t133.5 41h20q91 0 131.5 -41.5t40.5 -120.5zM291 519v61q0 34 -13.5 49t-43.5 15q-56 0 -56 -64v-60q0 -67 57 -67
q56 0 56 66zM293 174v95q0 69 -59 69q-58 0 -58 -69v-95q0 -69 59 -69q58 0 58 69z" />
    <glyph glyph-name="nine" unicode="9" horiz-adv-x="472" 
d="M286 573q0 64 -56 64q-54 0 -54 -64v-130q0 -66 55 -66t55 64v132zM174 267h-5q-61 0 -93.5 40t-32.5 107v162q0 83 39.5 129t135.5 46h24q177 0 177 -175v-417q0 -168 -167 -168h-25q-95 0 -131 40.5t-36 119.5v60h132v-48q0 -30 10.5 -44t36.5 -14q25 0 36 14.5
t11 45.5v165q-39 -63 -112 -63z" />
    <glyph glyph-name="colon" unicode=":" horiz-adv-x="238" 
d="M189 452v-154h-140v154h140zM189 154v-154h-140v154h140z" />
    <glyph glyph-name="semicolon" unicode=";" horiz-adv-x="238" 
d="M151 -140h-83q33 66 41 140h-60v154h140v-118q0 -97 -38 -176zM189 452v-154h-140v154h140z" />
    <glyph glyph-name="less" unicode="&#x3c;" horiz-adv-x="422" 
d="M372 119l-327 135v100l327 135v-98l-225 -87l225 -88v-97z" />
    <glyph glyph-name="equal" unicode="=" horiz-adv-x="463" 
d="M45 419h373v-87h-373v87zM45 261h373v-87h-373v87z" />
    <glyph glyph-name="greater" unicode="&#x3e;" horiz-adv-x="422" 
d="M50 119v99l225 88l-225 87v96l327 -135v-100z" />
    <glyph glyph-name="question" unicode="?" horiz-adv-x="430" 
d="M252 206h-104v65q0 49 8.5 74.5t36.5 62.5l36 48q18 25 23.5 44.5t5.5 52.5v29q0 33 -11 46.5t-37 13.5q-24 0 -35 -14t-11 -46v-95h-122v102q0 164 154 164h27q165 0 165 -158v-50q0 -74 -52 -139l-43 -53q-26 -32 -33.5 -50.5t-7.5 -55.5v-41zM270 154v-154h-140v154
h140z" />
    <glyph glyph-name="at" unicode="@" horiz-adv-x="758" 
d="M598 16l52 -60q-26 -33 -93.5 -64t-165.5 -31h-8q-51 0 -93 7.5t-89.5 33.5t-80 69.5t-54 121.5t-21.5 184v50q0 398 343 398h16q160 0 234.5 -83t74.5 -252v-50q0 -168 -45.5 -235t-127.5 -67h-2q-89 0 -114 61q-36 -61 -106 -61h-4q-49 0 -78.5 37t-25.5 100l16 236
q9 131 103 131h5q66 0 99 -57l4 53h121l-26 -387q-3 -36 26 -36q66 0 66 223v53q0 143 -55 200t-165 57h-16q-120 0 -185 -76t-65 -247v-47q0 -67 9.5 -120.5t24.5 -88.5t37.5 -60.5t43 -38.5t47 -21t44 -9.5t39.5 -1.5h8q73 0 126.5 24.5t80.5 53.5zM413 182l14 209
q4 57 -41 57q-36 0 -40 -55l-14 -209q-4 -54 38 -54q40 0 43 52z" />
    <glyph glyph-name="A" unicode="A" horiz-adv-x="464" 
d="M202 415l-26 -167h100l-27 167q-19 118 -23 178q-5 -49 -24 -178zM316 0l-22 137h-136l-21 -137h-117l125 744h166l133 -744h-128z" />
    <glyph glyph-name="B" unicode="B" horiz-adv-x="488" 
d="M55 0v744h226q84 0 119 -34.5t35 -110.5v-66q0 -100 -69 -126q80 -29 80 -135v-109q0 -77 -41.5 -120t-123.5 -43h-226zM245 644h-59v-197h60q33 0 46.5 17t13.5 54v59q0 37 -13.5 52t-47.5 15zM246 340h-60v-235h62q35 0 49 16t14 56v90q0 39 -15 56t-50 17z" />
    <glyph glyph-name="C" unicode="C" horiz-adv-x="480" 
d="M244 108q59 0 59 80v121h129v-128q0 -84 -42.5 -137t-133.5 -53h-24q-92 0 -136 50.5t-44 140.5v379q0 190 176 190h24q96 0 138 -46.5t42 -142.5v-90h-129v84q0 41 -13.5 60.5t-45.5 19.5q-58 0 -58 -80v-367q0 -81 58 -81z" />
    <glyph glyph-name="D" unicode="D" horiz-adv-x="487" 
d="M55 0v744h210q90 0 129 -39.5t39 -131.5v-398q0 -91 -39.5 -133t-128.5 -42h-210zM188 638v-525h47q35 0 49.5 19t14.5 59v369q0 41 -14 59.5t-48 18.5h-49z" />
    <glyph glyph-name="E" unicode="E" horiz-adv-x="422" 
d="M55 744h327v-116h-197v-184h164v-119h-164v-206h203v-119h-333v744z" />
    <glyph glyph-name="F" unicode="F" horiz-adv-x="414" 
d="M55 0v744h327v-116h-197v-184h165v-119h-165v-325h-130z" />
    <glyph glyph-name="G" unicode="G" horiz-adv-x="486" 
d="M203 -10h-7q-67 0 -105.5 49t-38.5 126v397q0 189 180 189h21q97 0 136 -47.5t39 -136.5v-49h-128v42q0 76 -57 76t-57 -76v-372q0 -82 62 -82q63 0 63 81v139h-72v114h195v-440h-81q-5 23 -24 73q-9 -18 -21.5 -34t-41.5 -32.5t-63 -16.5z" />
    <glyph glyph-name="H" unicode="H" horiz-adv-x="499" 
d="M55 0v744h133v-295h123v295h133v-744h-133v324h-123v-324h-133z" />
    <glyph glyph-name="I" unicode="I" horiz-adv-x="243" 
d="M188 744v-744h-133v744h133z" />
    <glyph glyph-name="J" unicode="J" horiz-adv-x="453" 
d="M41 328h127v-154q0 -35 11 -49.5t37 -14.5h3q25 0 35.5 15.5t10.5 48.5v570h134v-579q0 -171 -164 -171h-35q-79 0 -119 38t-40 124v172z" />
    <glyph glyph-name="K" unicode="K" horiz-adv-x="475" 
d="M187 0h-132v744h132v-331l134 331h130l-142 -347l156 -397h-136l-142 356v-356z" />
    <glyph glyph-name="L" unicode="L" horiz-adv-x="400" 
d="M55 744h133v-622h182v-122h-315v744z" />
    <glyph glyph-name="M" unicode="M" horiz-adv-x="630" 
d="M420 361l-72 -361h-70l-70 354q-24 123 -43 234q3 -125 3 -258v-330h-113v744h178l51 -265q11 -57 33 -193q26 165 32 193l51 265h175v-744h-116v330q0 92 4 258q-19 -106 -43 -227z" />
    <glyph glyph-name="N" unicode="N" horiz-adv-x="502" 
d="M291 416q34 -106 46 -157q-5 72 -5 197v288h115v-744h-115l-120 351q-32 91 -48 160q7 -72 7 -200v-311h-116v744h130z" />
    <glyph glyph-name="O" unicode="O" horiz-adv-x="497" 
d="M445 553v-360q0 -202 -186 -202h-20q-187 0 -187 202v359q0 200 186 200h20q187 0 187 -199zM311 192v359q0 85 -63 85q-62 0 -62 -85v-359q0 -84 63 -84q62 0 62 84z" />
    <glyph glyph-name="P" unicode="P" horiz-adv-x="467" 
d="M268 300h-80v-300h-133v744h213q83 0 122 -36t39 -123v-122q0 -163 -161 -163zM188 638v-227h47q35 0 48.5 16.5t13.5 62.5v70q0 45 -13.5 61.5t-48.5 16.5h-47z" />
    <glyph glyph-name="Q" unicode="Q" horiz-adv-x="497" 
d="M198 -155v149q-146 20 -146 199v359q0 200 186 200h20q187 0 187 -199v-360q0 -175 -141 -199l67 -149h-173zM311 192v359q0 85 -63 85q-62 0 -62 -85v-359q0 -84 63 -84q62 0 62 84z" />
    <glyph glyph-name="R" unicode="R" horiz-adv-x="484" 
d="M186 644v-208h55q61 0 61 74v64q0 38 -13.5 54t-47.5 16h-55zM186 330v-330h-131v744h234q73 0 108.5 -34t35.5 -107v-81q0 -53 -22 -82t-53 -38q75 -29 75 -123v-189q0 -56 12 -85v-5h-130q-13 22 -13 85v172q0 39 -14 56t-47 17h-55z" />
    <glyph glyph-name="S" unicode="S" horiz-adv-x="461" 
d="M218 -8q-87 0 -133 39t-46 111v126h130v-102q0 -61 60 -61q59 0 59 72v8q0 35 -12.5 58.5t-43.5 51.5l-97 87q-47 42 -69 83.5t-22 100.5v21q0 165 181 165h21q83 0 127.5 -36t44.5 -108v-98h-128v72q0 63 -54 63q-57 0 -57 -60v-7q0 -31 11.5 -52t43.5 -50l96 -88
q53 -48 74.5 -89.5t21.5 -104.5v-21q0 -82 -45.5 -131.5t-140.5 -49.5h-22z" />
    <glyph glyph-name="T" unicode="T" horiz-adv-x="434" 
d="M151 0v626h-121v118h374v-118h-120v-626h-133z" />
    <glyph glyph-name="U" unicode="U" horiz-adv-x="491" 
d="M256 -9h-22q-181 0 -181 183v570h134v-568q0 -69 58 -69q59 0 59 69v568h134v-570q0 -183 -182 -183z" />
    <glyph glyph-name="V" unicode="V" horiz-adv-x="457" 
d="M147 0l-125 744h134l76 -551l76 551h127l-123 -744h-165z" />
    <glyph glyph-name="W" unicode="W" horiz-adv-x="717" 
d="M388 257q-26 162 -29 207q-4 -36 -29 -207l-40 -257h-143l-124 744h131l48 -341q18 -128 27 -218q4 55 27 218l48 341h115l49 -341q22 -155 27 -218q4 47 27 218l48 341h124l-124 -744h-143z" />
    <glyph glyph-name="X" unicode="X" horiz-adv-x="461" 
d="M143 0h-131l134 394l-120 350h136l72 -247l72 247h131l-118 -353l130 -391h-133l-86 273z" />
    <glyph glyph-name="Y" unicode="Y" horiz-adv-x="422" 
d="M146 0v285l-134 459h132l70 -297l70 297h126l-131 -462v-282h-133z" />
    <glyph glyph-name="Z" unicode="Z" horiz-adv-x="440" 
d="M406 0h-367v101l214 530h-204v113h347v-98l-217 -531h227v-115z" />
    <glyph glyph-name="bracketleft" unicode="[" horiz-adv-x="258" 
d="M50 -130v938h186v-86h-81v-766h81v-86h-186z" />
    <glyph glyph-name="backslash" unicode="\" horiz-adv-x="290" 
d="M270 -131h-98l-142 939h98z" />
    <glyph glyph-name="bracketright" unicode="]" horiz-adv-x="258" 
d="M22 -130v86h81v766h-81v86h186v-938h-186z" />
    <glyph glyph-name="asciicircum" unicode="^" horiz-adv-x="357" 
d="M239 400l-62 233l-59 -233h-96l100 344h114l99 -344h-96z" />
    <glyph glyph-name="underscore" unicode="_" horiz-adv-x="441" 
d="M28 -111v91h385v-91h-385z" />
    <glyph glyph-name="grave" unicode="`" horiz-adv-x="400" 
d="M281 601h-109l-53 152h114z" />
    <glyph glyph-name="a" unicode="a" horiz-adv-x="446" 
d="M41 122v62q0 52 21 81t72 52l112 52q19 10 19 32v4q0 28 -11.5 41t-39.5 13h-2q-49 0 -49 -55v-37h-115v52q0 65 35 101t121 36h16q90 0 128 -34t38 -103v-278q0 -17 6 -23.5t23 -6.5h15v-111h-102q-51 0 -60 62q-41 -66 -111 -66h-3q-51 0 -82 35.5t-31 90.5zM265 153
v127q-2 -1 -29 -17t-37 -23q-34 -23 -34 -65v-27q0 -55 47 -55q24 0 38.5 17t14.5 43z" />
    <glyph glyph-name="b" unicode="b" horiz-adv-x="462" 
d="M53 757h127v-270q43 63 113 63h4q56 0 87 -34.5t31 -95.5v-277q0 -67 -36.5 -107.5t-98.5 -40.5h-2q-82 0 -121 75q-10 -39 -14 -70h-90v757zM234 96q52 0 52 69v212q0 74 -52 74q-54 0 -54 -74v-211q0 -70 54 -70z" />
    <glyph glyph-name="c" unicode="c" horiz-adv-x="442" 
d="M233 -10h-16q-87 0 -128.5 42t-41.5 117v240q0 167 171 167h16q90 0 127.5 -39.5t37.5 -117.5v-54h-122v44q0 35 -11 50t-40 15q-27 0 -39 -15.5t-12 -49.5v-229q0 -67 50 -67q52 0 52 67v63h122v-74q0 -71 -40 -115t-126 -44z" />
    <glyph glyph-name="d" unicode="d" horiz-adv-x="462" 
d="M228 96q54 0 54 70v214q0 70 -54 70q-52 0 -52 -70v-214q0 -70 52 -70zM282 757h127v-757h-127v62q-32 -67 -108 -67h-2q-57 0 -90.5 38.5t-33.5 104.5v276q0 62 30.5 99t86.5 37h3q77 0 114 -59v266z" />
    <glyph glyph-name="e" unicode="e" horiz-adv-x="441" 
d="M170 400v-55h107v55q0 61 -54 61q-53 0 -53 -61zM397 147q0 -157 -169 -157h-18q-79 0 -121 40.5t-42 116.5v252q0 76 42 116.5t124 40.5h20q164 0 164 -161v-138h-227v-103q0 -61 53 -61q52 0 52 60v48h122v-54z" />
    <glyph glyph-name="f" unicode="f" horiz-adv-x="346" 
d="M323 757v-101h-53q-22 0 -29.5 -8t-7.5 -31v-71h90v-107h-90v-439h-126v439h-85v107h85v105q0 106 111 106h105z" />
    <glyph glyph-name="g" unicode="g" horiz-adv-x="465" 
d="M229 95q26 0 40 19t14 52v213q0 70 -56 70q-51 0 -51 -70v-214q0 -70 53 -70zM242 -197h-28q-89 0 -125 32t-36 98v28h123v-9q0 -28 11 -40t40 -12h4q29 0 40.5 12.5t11.5 41.5v106q-14 -24 -42.5 -44t-69.5 -20q-58 0 -90.5 39t-32.5 109v248q0 158 120 158
q73 0 117 -64v60h127v-601q0 -142 -170 -142z" />
    <glyph glyph-name="h" unicode="h" horiz-adv-x="467" 
d="M53 0v757h127v-271q4 7 11.5 15.5t21 20.5t35 20t46.5 8h4q56 0 87 -32.5t31 -85.5v-432h-128v383q0 66 -53 66q-55 0 -55 -70v-379h-127z" />
    <glyph glyph-name="i" unicode="i" horiz-adv-x="233" 
d="M180 728v-127h-127v127h127zM180 546v-546h-127v546h127z" />
    <glyph glyph-name="j" unicode="j" horiz-adv-x="234" 
d="M181 728v-127h-127v127h127zM-42 -75h64q18 0 25 8t7 27v586h127v-629q0 -50 -24 -77t-69 -27h-130v112z" />
    <glyph glyph-name="k" unicode="k" horiz-adv-x="455" 
d="M180 0h-127v757h127v-432l123 221h136l-140 -243l152 -303h-138l-133 268v-268z" />
    <glyph glyph-name="l" unicode="l" horiz-adv-x="233" 
d="M180 757v-757h-127v757h127z" />
    <glyph glyph-name="m" unicode="m" horiz-adv-x="697" 
d="M180 0h-127v546h125v-63q7 12 17.5 24.5t37.5 27.5t59 15h4q80 0 106 -64q51 64 124 64h4q56 0 85.5 -32t29.5 -86v-432h-127v383q0 66 -53 66q-26 0 -39.5 -17.5t-13.5 -48.5v-383h-127v383q0 66 -52 66q-53 0 -53 -70v-379z" />
    <glyph glyph-name="n" unicode="n" horiz-adv-x="467" 
d="M53 0v546h125v-63q7 12 18 24.5t38.5 28t59.5 15.5h4q56 0 87 -33t31 -86v-432h-128v383q0 66 -53 66q-55 0 -55 -70v-379h-127z" />
    <glyph glyph-name="o" unicode="o" horiz-adv-x="459" 
d="M219 -10q-88 0 -130 43.5t-42 121.5v236q0 165 172 165h21q84 0 128 -43t44 -122v-236q0 -76 -44.5 -120.5t-127.5 -44.5h-21zM229 93q55 0 55 67v226q0 67 -55 67q-54 0 -54 -67v-226q0 -67 54 -67z" />
    <glyph glyph-name="p" unicode="p" horiz-adv-x="462" 
d="M234 96q52 0 52 70v214q0 70 -52 70q-54 0 -54 -70v-212q0 -72 54 -72zM53 546h127v-60q43 64 116 64h1q59 0 88.5 -36t29.5 -97v-275q0 -67 -34 -106.5t-87 -39.5h-3q-77 0 -111 52v-235h-127v733z" />
    <glyph glyph-name="q" unicode="q" horiz-adv-x="462" 
d="M324 546h85v-733h-127v249q-13 -23 -43.5 -44t-72.5 -21h-2q-52 0 -84 40.5t-32 100.5v266q0 63 32 104.5t94 41.5h3q80 0 126 -75q16 42 21 71zM228 96q54 0 54 72v210q0 72 -54 72q-52 0 -52 -72v-210q0 -72 52 -72z" />
    <glyph glyph-name="r" unicode="r" horiz-adv-x="417" 
d="M180 389v-389h-127v546h125v-62q42 66 105 66h4q97 0 97 -116v-147h-121v102q0 32 -9.5 45.5t-31.5 13.5q-42 0 -42 -59z" />
    <glyph glyph-name="s" unicode="s" horiz-adv-x="407" 
d="M191 -10q-159 0 -159 134v68h118v-51q0 -55 51 -55q50 0 50 51v1q0 23 -9 37t-34 30l-82 56q-45 30 -67 65t-22 87v5q0 137 158 137h19q85 0 119.5 -31.5t34.5 -95.5v-51h-114v35q0 29 -11.5 40t-39.5 11q-45 0 -45 -42q0 -33 37 -60l95 -68q46 -32 65.5 -66t19.5 -88v-5
q0 -64 -39 -104t-125 -40h-20z" />
    <glyph glyph-name="t" unicode="t" horiz-adv-x="353" 
d="M323 0h-133q-41 0 -63 21.5t-22 61.5v356h-83v107h83v178h126v-178h92v-107h-92v-303q0 -16 5.5 -22.5t21.5 -6.5h65v-107z" />
    <glyph glyph-name="u" unicode="u" horiz-adv-x="461" 
d="M408 546v-546h-124v64q-13 -24 -45.5 -46t-69.5 -22h-6q-50 0 -80.5 32t-30.5 80v438h128v-392q0 -60 49 -60q52 0 52 64v388h127z" />
    <glyph glyph-name="v" unicode="v" horiz-adv-x="413" 
d="M133 0l-117 546h128l65 -391l66 391h122l-113 -546h-151z" />
    <glyph glyph-name="w" unicode="w" horiz-adv-x="640" 
d="M321 337q-4 -26 -30 -148l-41 -189h-119l-115 546h126l33 -198q22 -133 26 -163q8 50 32 164l39 197h106l41 -197q20 -99 30 -164q2 17 26 163l34 198h115l-110 -546h-121l-41 189z" />
    <glyph glyph-name="x" unicode="x" horiz-adv-x="412" 
d="M130 0h-123l119 285l-117 261h132l67 -177l67 177h123l-111 -262l118 -284h-126l-74 189z" />
    <glyph glyph-name="y" unicode="y" horiz-adv-x="417" 
d="M35 -187v107h72q18 0 26 5.5t10 19.5l2 13q3 24 -9 76l-120 512h129l67 -375l65 375h123l-139 -641q-10 -47 -33.5 -69.5t-68.5 -22.5h-124z" />
    <glyph glyph-name="z" unicode="z" horiz-adv-x="385" 
d="M351 0h-316v95l168 347h-159v104h300v-90l-172 -350h179v-106z" />
    <glyph glyph-name="braceleft" unicode="{" horiz-adv-x="277" 
d="M255 -131h-61q-137 0 -137 106q0 35 28 138.5t28 133.5q0 25 -10.5 35t-35.5 10h-32v98h28q27 0 38.5 9.5t11.5 30.5q0 30 -28 133t-28 139q0 106 137 106h61v-86h-41q-47 0 -47 -42q0 -20 24.5 -117t24.5 -133t-16 -57.5t-56 -31.5q40 -11 56 -33.5t16 -60.5
q0 -36 -24.5 -133t-24.5 -117q0 -42 47 -42h41v-86z" />
    <glyph glyph-name="bar" unicode="|" horiz-adv-x="215" 
d="M155 808v-939h-95v939h95z" />
    <glyph glyph-name="braceright" unicode="}" horiz-adv-x="277" 
d="M83 -131h-61v86h41q47 0 47 42q0 20 -24.5 117t-24.5 133q0 38 16 60.5t56 33.5q-72 18 -72 89q0 36 24.5 133t24.5 117q0 42 -47 42h-41v86h61q137 0 137 -106q0 -36 -28 -139t-28 -133q0 -21 11.5 -30.5t38.5 -9.5h28v-98h-32q-25 0 -35.5 -10t-10.5 -35
q0 -30 28 -133.5t28 -138.5q0 -106 -137 -106z" />
    <glyph glyph-name="asciitilde" unicode="~" horiz-adv-x="401" 
d="M113 501q31 0 51.5 -12.5t49.5 -43.5l39.5 -41.5t12.5 -6.5q12 0 12 18v86h91v-111q0 -104 -81 -104q-31 0 -52 12.5t-49 43.5q-42 45 -47 47q-2 1 -5 1q-12 0 -12 -18v-86h-91v111q0 104 81 104z" />
    <glyph glyph-name="exclamdown" unicode="&#xa1;" horiz-adv-x="234" 
d="M189 -198h-140l42 538h57zM51 392v154h138v-154h-138z" />
    <glyph glyph-name="cent" unicode="&#xa2;" horiz-adv-x="451" 
d="M255 -76h-51v66q-157 9 -157 170v227q0 161 157 168v61h51v-61q153 -5 153 -156v-52h-111v35q0 36 -8.5 53t-33.5 21v-365q24 5 32 21.5t8 51.5v60h113v-77q0 -61 -35 -107t-118 -50v-66zM162 164q0 -34 9.5 -51.5t32.5 -21.5v365q-24 -5 -33 -21.5t-9 -52.5v-218z" />
    <glyph glyph-name="sterling" unicode="&#xa3;" horiz-adv-x="535" 
d="M495 241v-241h-463v68q99 53 99 157q0 24 -8 96h-91v97h78q-9 76 -9 127v36q1 84 41.5 127t136.5 43h22q95 0 130.5 -41.5t35.5 -116.5v-91h-124v69q0 36 -12 52t-41 16t-41 -16t-12 -52v-58q0 -49 3 -95h163v-97h-157q3 -36 3 -66q0 -96 -66 -148h188v134h124z" />
    <glyph glyph-name="yen" unicode="&#xa5;" horiz-adv-x="458" 
d="M165 0v215h-134v75h134v53h-134v75h112l-117 326h131l75 -245l74 245h118l-108 -326h114v-75h-134v-53h136v-75h-136v-215h-131z" />
    <glyph glyph-name="brokenbar" unicode="&#xa6;" horiz-adv-x="215" 
d="M155 808v-396h-95v396h95zM155 312v-443h-95v443h95z" />
    <glyph glyph-name="section" unicode="&#xa7;" horiz-adv-x="516" 
d="M229 248l82 -58q42 16 42 59v5q0 27 -14.5 44.5t-58.5 47.5l-82 55q-40 -15 -40 -55v-5q0 -27 15 -45.5t56 -47.5zM257 -195h-19q-165 0 -165 152v97h129v-77q0 -33 11.5 -47.5t38.5 -14.5q47 0 47 63v6q0 42 -13 61t-64 54l-95 66q-52 36 -73.5 71t-21.5 88v15
q0 93 100 117q-44 50 -44 129v15q0 151 173 151h18q94 0 131 -36t37 -111v-76h-127v62q0 28 -10.5 41t-39.5 13q-27 0 -38 -12.5t-11 -38.5v-5q0 -29 14.5 -50t53.5 -47l91 -62q64 -43 84 -74.5t20 -86.5v-15q0 -51 -29.5 -79t-71.5 -38q32 -30 42.5 -62t10.5 -86v-15
q0 -168 -179 -168z" />
    <glyph glyph-name="dieresis" unicode="&#xa8;" horiz-adv-x="400" 
d="M337 717v-116h-116v116h116zM181 717v-116h-117v116h117z" />
    <glyph glyph-name="copyright" unicode="&#xa9;" horiz-adv-x="685" 
d="M633 251q0 -130 -73 -196t-202 -66h-32q-129 0 -201.5 66t-72.5 196v244q0 128 72.5 194t202.5 66h30q129 0 202.5 -66.5t73.5 -193.5v-244zM328 59h28q96 0 146 48.5t50 145.5v240q0 192 -196 192h-28q-101 0 -148 -48t-47 -144v-240q0 -194 195 -194zM307 252
q0 -48 37 -48q36 0 36 48v81h105v-88q0 -59 -32.5 -96t-101.5 -37h-16q-70 0 -103.5 37t-33.5 101v244q0 138 136 138h16q134 0 134 -130v-64h-106v54q0 27 -8 38t-27 11q-20 0 -28 -11t-8 -39v-239z" />
    <glyph glyph-name="ordfeminine" unicode="&#xaa;" horiz-adv-x="369" 
d="M302 647v-207q0 -16 15 -16h14v-78h-83q-32 0 -35 44q-9 -17 -31.5 -32t-49.5 -15h-1q-39 0 -62.5 26t-23.5 64v48q0 37 17.5 58.5t55.5 38.5l82 33q14 6 14 25v6q0 36 -40 36h-1q-39 0 -39 -39v-26h-85v35q0 100 118 100h11q67 0 95.5 -25t28.5 -76zM214 545
q-2 -1 -13 -7l-21 -11t-15 -9q-16 -11 -23 -21.5t-7 -28.5v-12q0 -40 38 -40q19 0 30 12.5t11 31.5v85z" />
    <glyph glyph-name="guillemotleft" unicode="&#xab;" horiz-adv-x="416" 
d="M143 286l68 -167h-102l-61 139v56l59 139h103zM312 286l66 -167h-104l-68 167l68 167h104z" />
    <glyph glyph-name="registered" unicode="&#xae;" horiz-adv-x="451" 
d="M409 485q0 -80 -45 -122.5t-129 -42.5h-19q-84 0 -129 42.5t-45 122.5v102q0 163 174 163h19q174 0 174 -163v-102zM360 577q0 70 -28.5 99.5t-97.5 29.5h-17q-69 0 -97.5 -29.5t-28.5 -99.5v-82q0 -66 29 -98.5t97 -32.5h17q68 0 97 32.5t29 98.5v82zM206 509v-104h-59
v262h99q33 0 47.5 -14.5t14.5 -46.5v-20q0 -40 -31 -46q31 -10 31 -45v-54q0 -22 6 -32v-4h-60q-5 7 -5 29v49q0 26 -22 26h-21zM206 620v-64h20q23 0 23 28v8q0 16 -5.5 22t-17.5 6h-20z" />
    <glyph glyph-name="macron" unicode="&#xaf;" horiz-adv-x="400" 
d="M86 615v92h226v-92h-226z" />
    <glyph glyph-name="degree" unicode="&#xb0;" horiz-adv-x="392" 
d="M196 755q71 0 114.5 -43t43.5 -108t-43.5 -109t-114.5 -44t-114.5 44t-43.5 109t43.5 108t114.5 43zM196 535q30 0 48 19t18 50q0 30 -18 49t-48 19t-48 -19t-18 -49q0 -31 18 -50t48 -19z" />
    <glyph glyph-name="acute" unicode="&#xb4;" horiz-adv-x="400" 
d="M119 601l48 152h114l-53 -152h-109z" />
    <glyph glyph-name="paragraph" unicode="&#xb6;" horiz-adv-x="470" 
d="M178 0v341h-12q-75 0 -106.5 35.5t-31.5 115.5v108q0 76 31.5 110t106.5 34h294v-86h-47v-658h-86v658h-63v-658h-86z" />
    <glyph glyph-name="periodcentered" unicode="&#xb7;" horiz-adv-x="228" 
d="M184 389v-154h-140v154h140z" />
    <glyph glyph-name="cedilla" unicode="&#xb8;" horiz-adv-x="400" 
d="M108 -216v72h69q28 0 28 20t-28 20h-50v104h74v-47h9q45 0 71 -21t26 -62v-3q0 -83 -110 -83h-89z" />
    <glyph glyph-name="ordmasculine" unicode="&#xba;" horiz-adv-x="368" 
d="M188 343h-7q-130 0 -130 125v155q0 125 130 125h7q129 0 129 -125v-155q0 -125 -129 -125zM184 668q-42 0 -42 -48v-147q0 -48 42 -48t42 48v147q0 48 -42 48z" />
    <glyph glyph-name="guillemotright" unicode="&#xbb;" horiz-adv-x="417" 
d="M104 286l-66 167h104l68 -167l-67 -167h-105zM274 286l-68 167h102l61 -139v-56l-59 -139h-103z" />
    <glyph glyph-name="onequarter" unicode="&#xbc;" horiz-adv-x="670" 
d="M484 744h87l-431 -744h-86zM96 626h-67v71q42 0 60 11t25 37h71v-397h-89v278zM358 149q130 221 144 248h85v-236h60v-78h-60v-83h-88v83h-141v66zM499 161v126l-72 -126h72z" />
    <glyph glyph-name="onehalf" unicode="&#xbd;" horiz-adv-x="703" 
d="M529 330q-18 0 -25.5 -9.5t-7.5 -31.5v-34h-86v41q0 48 24.5 75.5t88.5 27.5h12q122 0 122 -101v-4q0 -35 -12.5 -57.5t-42.5 -47.5l-59 -47q-64 -50 -64 -68h100v58h87v-132h-266v41q0 37 12.5 64.5t59.5 73.5q32 29 56 53q22 20 29 32t7 28v1q0 37 -35 37zM484 744h87
l-431 -744h-86zM96 626h-67v71q42 0 60 11t25 37h71v-397h-89v278z" />
    <glyph glyph-name="threequarters" unicode="&#xbe;" horiz-adv-x="742" 
d="M127 623h-84v26q0 45 22 71.5t88 26.5h10q124 0 124 -94v-16q0 -55 -46 -67q52 -14 52 -70v-54q0 -46 -30 -74.5t-92 -28.5h-16q-66 0 -91.5 26.5t-25.5 74.5v42h87v-30q0 -35 38 -35q37 0 37 35v32q0 16 -6.5 22t-23.5 6h-58v78h53q18 0 24 6.5t6 22.5v20
q0 17 -7.5 25.5t-27.5 8.5q-33 0 -33 -34v-20zM430 149q130 221 144 248h85v-236h60v-78h-60v-83h-88v83h-141v66zM571 161v126l-72 -126h72zM557 744h87l-431 -744h-86z" />
    <glyph glyph-name="questiondown" unicode="&#xbf;" horiz-adv-x="443" 
d="M187 340h111v-65q0 -49 -9 -74.5t-39 -62.5l-38 -48q-20 -25 -25.5 -44.5t-5.5 -52.5v-29q0 -33 11.5 -46.5t39.5 -13.5q26 0 37.5 14t11.5 46v95h130v-102q0 -164 -164 -164h-29q-176 0 -176 158v50q0 74 56 139l46 53q28 32 35.5 50.5t7.5 55.5v41zM168 392v154h149
v-154h-149z" />
    <glyph glyph-name="Agrave" unicode="&#xc0;" horiz-adv-x="464" 
d="M202 415l-26 -167h100l-27 167q-19 118 -23 178q-5 -49 -24 -178zM316 0l-22 137h-136l-21 -137h-117l125 744h166l133 -744h-128zM284 792h-112l-51 127h116z" />
    <glyph glyph-name="Aacute" unicode="&#xc1;" horiz-adv-x="464" 
d="M202 415l-26 -167h100l-27 167q-19 118 -23 178q-5 -49 -24 -178zM316 0l-22 137h-136l-21 -137h-117l125 744h166l133 -744h-128zM171 792l47 127h116l-51 -127h-112z" />
    <glyph glyph-name="Acircumflex" unicode="&#xc2;" horiz-adv-x="464" 
d="M202 415l-26 -167h100l-27 167q-19 118 -23 178q-5 -49 -24 -178zM316 0l-22 137h-136l-21 -137h-117l125 744h166l133 -744h-128zM291 919l78 -129h-104l-38 66l-38 -66h-103l78 129h127z" />
    <glyph glyph-name="Atilde" unicode="&#xc3;" horiz-adv-x="464" 
d="M202 415l-26 -167h100l-27 167q-19 118 -23 178q-5 -49 -24 -178zM316 0l-22 137h-136l-21 -137h-117l125 744h166l133 -744h-128zM358 924v-63q0 -31 -14 -48t-37 -17h-1q-25 0 -78 22q-34 14 -40 14q-8 0 -8 -11v-29h-83v63q0 31 14 48t37 17h1q25 0 78 -22
q34 -14 40 -14q8 0 8 11v29h83z" />
    <glyph glyph-name="Adieresis" unicode="&#xc4;" horiz-adv-x="464" 
d="M202 415l-26 -167h100l-27 167q-19 118 -23 178q-5 -49 -24 -178zM316 0l-22 137h-136l-21 -137h-117l125 744h166l133 -744h-128zM366 908v-116h-117v116h117zM207 908v-116h-118v116h118z" />
    <glyph glyph-name="Aring" unicode="&#xc5;" horiz-adv-x="464" 
d="M202 415l-26 -167h100l-27 167q-19 118 -23 178q-5 -49 -24 -178zM316 0l-22 137h-136l-21 -137h-117l125 744h166l133 -744h-128zM227 787q-44 0 -70.5 25t-26.5 66t26.5 66t70.5 25t70.5 -25t26.5 -66t-26.5 -66t-70.5 -25zM227 838q18 0 29 11t11 29t-11 29t-29 11
t-28.5 -11t-10.5 -29t10.5 -29t28.5 -11z" />
    <glyph glyph-name="AE" unicode="&#xc6;" horiz-adv-x="650" 
d="M299 254v388l-100 -388h100zM299 0v144h-129l-37 -144h-126l200 744h404v-116h-182v-184h149v-119h-149v-206h188v-119h-318z" />
    <glyph glyph-name="Ccedilla" unicode="&#xc7;" horiz-adv-x="480" 
d="M239 -216h-89v72h69q28 0 28 20t-28 20h-50v103q-117 30 -117 183v379q0 190 176 190h24q96 0 138 -46.5t42 -142.5v-90h-129v84q0 41 -13.5 60.5t-45.5 19.5q-58 0 -58 -80v-367q0 -81 58 -81q59 0 59 80v121h129v-128q0 -84 -42.5 -137t-133.5 -53h-13v-38h9
q45 0 71 -21t26 -62v-3q0 -83 -110 -83z" />
    <glyph glyph-name="Egrave" unicode="&#xc8;" horiz-adv-x="422" 
d="M55 744h327v-116h-197v-184h164v-119h-164v-206h203v-119h-333v744zM275 792h-112l-51 127h116z" />
    <glyph glyph-name="Eacute" unicode="&#xc9;" horiz-adv-x="422" 
d="M55 744h327v-116h-197v-184h164v-119h-164v-206h203v-119h-333v744zM162 792l47 127h116l-51 -127h-112z" />
    <glyph glyph-name="Ecircumflex" unicode="&#xca;" horiz-adv-x="422" 
d="M55 744h327v-116h-197v-184h164v-119h-164v-206h203v-119h-333v744zM282 919l78 -129h-104l-38 66l-38 -66h-103l78 129h127z" />
    <glyph glyph-name="Edieresis" unicode="&#xcb;" horiz-adv-x="422" 
d="M55 744h327v-116h-197v-184h164v-119h-164v-206h203v-119h-333v744zM357 908v-116h-117v116h117zM198 908v-116h-118v116h118z" />
    <glyph glyph-name="Igrave" unicode="&#xcc;" horiz-adv-x="243" 
d="M188 744v-744h-133v744h133zM178 792h-112l-51 127h116z" />
    <glyph glyph-name="Iacute" unicode="&#xcd;" horiz-adv-x="243" 
d="M188 744v-744h-133v744h133zM65 792l47 127h116l-51 -127h-112z" />
    <glyph glyph-name="Icircumflex" unicode="&#xce;" horiz-adv-x="243" 
d="M188 744v-744h-133v744h133zM185 919l78 -129h-104l-38 66l-38 -66h-103l78 129h127z" />
    <glyph glyph-name="Idieresis" unicode="&#xcf;" horiz-adv-x="243" 
d="M188 744v-744h-133v744h133zM260 908v-116h-117v116h117zM101 908v-116h-118v116h118z" />
    <glyph glyph-name="Eth" unicode="&#xd0;" horiz-adv-x="503" 
d="M251 113q35 0 49.5 19t14.5 59v369q0 41 -14 59.5t-48 18.5h-49v-204h63v-103h-63v-218h47zM71 0v331h-53v103h53v310h210q90 0 129 -39.5t39 -131.5v-398q0 -91 -39.5 -133t-128.5 -42h-210z" />
    <glyph glyph-name="Ntilde" unicode="&#xd1;" horiz-adv-x="502" 
d="M291 416q34 -106 46 -157q-5 72 -5 197v288h115v-744h-115l-120 351q-32 91 -48 160q7 -72 7 -200v-311h-116v744h130zM382 924v-63q0 -31 -14 -48t-37 -17h-1q-25 0 -78 22q-34 14 -40 14q-8 0 -8 -11v-29h-83v63q0 31 14 48t37 17h1q25 0 78 -22q34 -14 40 -14
q8 0 8 11v29h83z" />
    <glyph glyph-name="Ograve" unicode="&#xd2;" horiz-adv-x="497" 
d="M445 553v-360q0 -202 -186 -202h-20q-187 0 -187 202v359q0 200 186 200h20q187 0 187 -199zM311 192v359q0 85 -63 85q-62 0 -62 -85v-359q0 -84 63 -84q62 0 62 84zM305 792h-112l-51 127h116z" />
    <glyph glyph-name="Oacute" unicode="&#xd3;" horiz-adv-x="497" 
d="M445 553v-360q0 -202 -186 -202h-20q-187 0 -187 202v359q0 200 186 200h20q187 0 187 -199zM311 192v359q0 85 -63 85q-62 0 -62 -85v-359q0 -84 63 -84q62 0 62 84zM192 792l47 127h116l-51 -127h-112z" />
    <glyph glyph-name="Ocircumflex" unicode="&#xd4;" horiz-adv-x="497" 
d="M445 553v-360q0 -202 -186 -202h-20q-187 0 -187 202v359q0 200 186 200h20q187 0 187 -199zM311 192v359q0 85 -63 85q-62 0 -62 -85v-359q0 -84 63 -84q62 0 62 84zM312 919l78 -129h-104l-38 66l-38 -66h-103l78 129h127z" />
    <glyph glyph-name="Otilde" unicode="&#xd5;" horiz-adv-x="497" 
d="M445 553v-360q0 -202 -186 -202h-20q-187 0 -187 202v359q0 200 186 200h20q187 0 187 -199zM311 192v359q0 85 -63 85q-62 0 -62 -85v-359q0 -84 63 -84q62 0 62 84zM379 924v-63q0 -31 -14 -48t-37 -17h-1q-25 0 -78 22q-34 14 -40 14q-8 0 -8 -11v-29h-83v63
q0 31 14 48t37 17h1q25 0 78 -22q34 -14 40 -14q8 0 8 11v29h83z" />
    <glyph glyph-name="Odieresis" unicode="&#xd6;" horiz-adv-x="497" 
d="M445 553v-360q0 -202 -186 -202h-20q-187 0 -187 202v359q0 200 186 200h20q187 0 187 -199zM311 192v359q0 85 -63 85q-62 0 -62 -85v-359q0 -84 63 -84q62 0 62 84zM387 908v-116h-117v116h117zM228 908v-116h-118v116h118z" />
    <glyph glyph-name="multiply" unicode="&#xd7;" horiz-adv-x="438" 
d="M334 122l-115 116l-113 -116l-65 60l115 119l-116 116l65 66l114 -116l112 116l66 -62l-115 -118l116 -118z" />
    <glyph glyph-name="Oslash" unicode="&#xd8;" horiz-adv-x="495" 
d="M239 -9q-78 0 -121 39l-15 -30h-77l44 90q-18 42 -18 103v359q0 200 186 200h18q80 0 121 -38l14 30h77l-43 -91q18 -43 18 -100v-360q0 -202 -186 -202h-18zM180 450q0 -74 -3 -156l134 294q-13 50 -64 50q-67 0 -67 -87v-101zM248 106q67 0 67 86v103q0 75 3 156
l-134 -293q12 -52 64 -52z" />
    <glyph glyph-name="Ugrave" unicode="&#xd9;" horiz-adv-x="491" 
d="M256 -9h-22q-181 0 -181 183v570h134v-568q0 -69 58 -69q59 0 59 69v568h134v-570q0 -183 -182 -183zM302 792h-112l-51 127h116z" />
    <glyph glyph-name="Uacute" unicode="&#xda;" horiz-adv-x="491" 
d="M256 -9h-22q-181 0 -181 183v570h134v-568q0 -69 58 -69q59 0 59 69v568h134v-570q0 -183 -182 -183zM189 792l47 127h116l-51 -127h-112z" />
    <glyph glyph-name="Ucircumflex" unicode="&#xdb;" horiz-adv-x="491" 
d="M256 -9h-22q-181 0 -181 183v570h134v-568q0 -69 58 -69q59 0 59 69v568h134v-570q0 -183 -182 -183zM309 919l78 -129h-104l-38 66l-38 -66h-103l78 129h127z" />
    <glyph glyph-name="Udieresis" unicode="&#xdc;" horiz-adv-x="491" 
d="M256 -9h-22q-181 0 -181 183v570h134v-568q0 -69 58 -69q59 0 59 69v568h134v-570q0 -183 -182 -183zM384 908v-116h-117v116h117zM225 908v-116h-118v116h118z" />
    <glyph glyph-name="Yacute" unicode="&#xdd;" horiz-adv-x="422" 
d="M146 0v285l-134 459h132l70 -297l70 297h126l-131 -462v-282h-133zM157 792l47 127h116l-51 -127h-112z" />
    <glyph glyph-name="Thorn" unicode="&#xde;" horiz-adv-x="474" 
d="M285 169h-99v-169h-131v744h131v-158h99q78 0 114.5 -36.5t36.5 -114.5v-107q0 -159 -151 -159zM186 480v-200h58q32 0 46 16.5t14 56.5v57q0 39 -14 54.5t-46 15.5h-58z" />
    <glyph glyph-name="germandbls" unicode="&#xdf;" horiz-adv-x="466" 
d="M349 445q72 -19 72 -112v-193q0 -72 -33.5 -106t-107.5 -34h-55v115h28q23 0 31 10t8 33v160q0 25 -8 35.5t-31 10.5h-28v113h25q21 0 29.5 11.5t8.5 37.5v75q0 63 -52 63h-4q-52 0 -52 -62v-602h-127v609q0 158 170 158h20q90 0 127.5 -39.5t37.5 -113.5v-72
q0 -42 -17.5 -66t-41.5 -31z" />
    <glyph glyph-name="agrave" unicode="&#xe0;" horiz-adv-x="446" 
d="M41 122v62q0 52 21 81t72 52l112 52q19 10 19 32v4q0 28 -11.5 41t-39.5 13h-2q-49 0 -49 -55v-37h-115v52q0 65 35 101t121 36h16q90 0 128 -34t38 -103v-278q0 -17 6 -23.5t23 -6.5h15v-111h-102q-51 0 -60 62q-41 -66 -111 -66h-3q-51 0 -82 35.5t-31 90.5zM269 601
h-109l-53 152h114zM265 153v127q-2 -1 -29 -17t-37 -23q-34 -23 -34 -65v-27q0 -55 47 -55q24 0 38.5 17t14.5 43z" />
    <glyph glyph-name="aacute" unicode="&#xe1;" horiz-adv-x="446" 
d="M41 122v62q0 52 21 81t72 52l112 52q19 10 19 32v4q0 28 -11.5 41t-39.5 13h-2q-49 0 -49 -55v-37h-115v52q0 65 35 101t121 36h16q90 0 128 -34t38 -103v-278q0 -17 6 -23.5t23 -6.5h15v-111h-102q-51 0 -60 62q-41 -66 -111 -66h-3q-51 0 -82 35.5t-31 90.5zM157 601
l48 152h114l-53 -152h-109zM265 153v127q-2 -1 -29 -17t-37 -23q-34 -23 -34 -65v-27q0 -55 47 -55q24 0 38.5 17t14.5 43z" />
    <glyph glyph-name="acircumflex" unicode="&#xe2;" horiz-adv-x="446" 
d="M41 122v62q0 52 21 81t72 52l112 52q19 10 19 32v4q0 28 -11.5 41t-39.5 13h-2q-49 0 -49 -55v-37h-115v52q0 65 35 101t121 36h16q90 0 128 -34t38 -103v-278q0 -17 6 -23.5t23 -6.5h15v-111h-102q-51 0 -60 62q-41 -66 -111 -66h-3q-51 0 -82 35.5t-31 90.5zM276 753
l73 -152h-97l-38 86l-38 -86h-96l73 152h123zM265 153v127q-2 -1 -29 -17t-37 -23q-34 -23 -34 -65v-27q0 -55 47 -55q24 0 38.5 17t14.5 43z" />
    <glyph glyph-name="atilde" unicode="&#xe3;" horiz-adv-x="446" 
d="M41 122v62q0 52 21 81t72 52l112 52q19 10 19 32v4q0 28 -11.5 41t-39.5 13h-2q-49 0 -49 -55v-37h-115v52q0 65 35 101t121 36h16q90 0 128 -34t38 -103v-278q0 -17 6 -23.5t23 -6.5h15v-111h-102q-51 0 -60 62q-41 -66 -111 -66h-3q-51 0 -82 35.5t-31 90.5zM340 742
v-73q0 -31 -14 -48t-38 -17h-1q-30 0 -75 27q-34 21 -38 21q-7 0 -7 -12v-39h-78v73q0 31 14 48t38 17h1q30 0 75 -27q34 -21 38 -21q7 0 7 12v39h78zM265 153v127q-2 -1 -29 -17t-37 -23q-34 -23 -34 -65v-27q0 -55 47 -55q24 0 38.5 17t14.5 43z" />
    <glyph glyph-name="adieresis" unicode="&#xe4;" horiz-adv-x="446" 
d="M41 122v62q0 52 21 81t72 52l112 52q19 10 19 32v4q0 28 -11.5 41t-39.5 13h-2q-49 0 -49 -55v-37h-115v52q0 65 35 101t121 36h16q90 0 128 -34t38 -103v-278q0 -17 6 -23.5t23 -6.5h15v-111h-102q-51 0 -60 62q-41 -66 -111 -66h-3q-51 0 -82 35.5t-31 90.5zM265 153
v127q-2 -1 -29 -17t-37 -23q-34 -23 -34 -65v-27q0 -55 47 -55q24 0 38.5 17t14.5 43zM196 717v-116h-117v116h117zM352 717v-116h-116v116h116z" />
    <glyph glyph-name="aring" unicode="&#xe5;" horiz-adv-x="446" 
d="M41 122v62q0 52 21 81t72 52l112 52q19 10 19 32v4q0 28 -11.5 41t-39.5 13h-2q-49 0 -49 -55v-37h-115v52q0 65 35 101t121 36h16q90 0 128 -34t38 -103v-278q0 -17 6 -23.5t23 -6.5h15v-111h-102q-51 0 -60 62q-41 -66 -111 -66h-3q-51 0 -82 35.5t-31 90.5zM213 597
q-44 0 -70.5 25t-26.5 66t26.5 66t70.5 25t70.5 -25t26.5 -66t-26.5 -66t-70.5 -25zM265 153v127q-2 -1 -29 -17t-37 -23q-34 -23 -34 -65v-27q0 -55 47 -55q24 0 38.5 17t14.5 43zM213 648q18 0 29 11t11 29t-11 29t-29 11t-28.5 -11t-10.5 -29t10.5 -29t28.5 -11z" />
    <glyph glyph-name="ae" unicode="&#xe6;" horiz-adv-x="656" 
d="M613 147q0 -77 -44 -117t-124 -40h-18q-52 0 -90.5 19.5t-53.5 51.5q-15 -27 -45 -48.5t-73 -21.5h-3q-56 0 -89 35.5t-33 90.5v58q0 52 21 81t72 52l111 52q19 10 19 32v14q0 27 -11.5 40t-39.5 13h-2q-48 0 -48 -54v-47h-115v61q0 65 34 101t116 36h16q87 0 118 -42
q29 42 102 42h19q74 0 117.5 -39.5t43.5 -121.5v-138h-227v-103q0 -61 54 -61q50 0 50 60v48h123v-54zM263 148v123l-65 -40q-34 -26 -34 -65v-23q0 -55 46 -55q24 0 38.5 17t14.5 43zM386 400v-55h106v55q0 61 -52 61q-54 0 -54 -61z" />
    <glyph glyph-name="ccedilla" unicode="&#xe7;" horiz-adv-x="442" 
d="M224 -216h-89v72h69q28 0 28 20t-28 20h-50v101q-107 27 -107 152v240q0 167 171 167h16q90 0 127.5 -39.5t37.5 -117.5v-54h-122v44q0 35 -11 50t-40 15q-27 0 -39 -15.5t-12 -49.5v-229q0 -67 50 -67q52 0 52 67v63h122v-74q0 -71 -40 -115t-126 -44h-5v-37h9
q45 0 71 -21t26 -62v-3q0 -83 -110 -83z" />
    <glyph glyph-name="egrave" unicode="&#xe8;" horiz-adv-x="441" 
d="M170 400v-55h107v55q0 61 -54 61q-53 0 -53 -61zM397 147q0 -157 -169 -157h-18q-79 0 -121 40.5t-42 116.5v252q0 76 42 116.5t124 40.5h20q164 0 164 -161v-138h-227v-103q0 -61 53 -61q52 0 52 60v48h122v-54zM277 601h-109l-53 152h114z" />
    <glyph glyph-name="eacute" unicode="&#xe9;" horiz-adv-x="441" 
d="M170 400v-55h107v55q0 61 -54 61q-53 0 -53 -61zM397 147q0 -157 -169 -157h-18q-79 0 -121 40.5t-42 116.5v252q0 76 42 116.5t124 40.5h20q164 0 164 -161v-138h-227v-103q0 -61 53 -61q52 0 52 60v48h122v-54zM167 601l48 152h114l-53 -152h-109z" />
    <glyph glyph-name="ecircumflex" unicode="&#xea;" horiz-adv-x="441" 
d="M170 400v-55h107v55q0 61 -54 61q-53 0 -53 -61zM397 147q0 -157 -169 -157h-18q-79 0 -121 40.5t-42 116.5v252q0 76 42 116.5t124 40.5h20q164 0 164 -161v-138h-227v-103q0 -61 53 -61q52 0 52 60v48h122v-54zM284 753l73 -152h-97l-38 86l-38 -86h-96l73 152h123z
" />
    <glyph glyph-name="edieresis" unicode="&#xeb;" horiz-adv-x="441" 
d="M170 400v-55h107v55q0 61 -54 61q-53 0 -53 -61zM397 147q0 -157 -169 -157h-18q-79 0 -121 40.5t-42 116.5v252q0 76 42 116.5t124 40.5h20q164 0 164 -161v-138h-227v-103q0 -61 53 -61q52 0 52 60v48h122v-54zM359 717v-116h-116v116h116zM203 717v-116h-117v116h117z
" />
    <glyph glyph-name="igrave" unicode="&#xec;" horiz-adv-x="233" 
d="M170 601h-109l-48 152h114zM180 546v-546h-127v546h127z" />
    <glyph glyph-name="iacute" unicode="&#xed;" horiz-adv-x="233" 
d="M62 601l43 152h114l-48 -152h-109zM180 546v-546h-127v546h127z" />
    <glyph glyph-name="icircumflex" unicode="&#xee;" horiz-adv-x="233" 
d="M180 753l68 -152h-96l-36 88l-36 -88h-95l68 152h127zM180 546v-546h-127v546h127z" />
    <glyph glyph-name="idieresis" unicode="&#xef;" horiz-adv-x="233" 
d="M243 717v-116h-108v116h108zM97 717v-116h-109v116h109zM180 546v-546h-127v546h127z" />
    <glyph glyph-name="eth" unicode="&#xf0;" horiz-adv-x="461" 
d="M222 -10q-94 0 -134 46.5t-40 118.5v247q0 68 30 106t80 38h2q66 0 113 -51l-73 113l-107 -44v73l69 28l-60 92h133l33 -48l100 41v-73l-62 -25l51 -76q32 -48 44 -90t12 -115v-216q0 -69 -43 -117t-131 -48h-17zM231 93q54 0 54 67v227q0 65 -54 65q-27 0 -41 -17.5
t-14 -47.5v-227q0 -67 55 -67z" />
    <glyph glyph-name="ntilde" unicode="&#xf1;" horiz-adv-x="467" 
d="M53 0v546h125v-63q7 12 18 24.5t38.5 28t59.5 15.5h4q56 0 87 -33t31 -86v-432h-128v383q0 66 -53 66q-55 0 -55 -70v-379h-127zM359 742v-73q0 -31 -14 -48t-38 -17h-1q-30 0 -75 27q-34 21 -38 21q-7 0 -7 -12v-39h-78v73q0 31 14 48t38 17h1q30 0 75 -27
q34 -21 38 -21q7 0 7 12v39h78z" />
    <glyph glyph-name="ograve" unicode="&#xf2;" horiz-adv-x="459" 
d="M219 -10q-88 0 -130 43.5t-42 121.5v236q0 165 172 165h21q84 0 128 -43t44 -122v-236q0 -76 -44.5 -120.5t-127.5 -44.5h-21zM229 93q55 0 55 67v226q0 67 -55 67q-54 0 -54 -67v-226q0 -67 54 -67zM283 601h-109l-53 152h114z" />
    <glyph glyph-name="oacute" unicode="&#xf3;" horiz-adv-x="459" 
d="M219 -10q-88 0 -130 43.5t-42 121.5v236q0 165 172 165h21q84 0 128 -43t44 -122v-236q0 -76 -44.5 -120.5t-127.5 -44.5h-21zM229 93q55 0 55 67v226q0 67 -55 67q-54 0 -54 -67v-226q0 -67 54 -67zM173 601l48 152h114l-53 -152h-109z" />
    <glyph glyph-name="ocircumflex" unicode="&#xf4;" horiz-adv-x="459" 
d="M219 -10q-88 0 -130 43.5t-42 121.5v236q0 165 172 165h21q84 0 128 -43t44 -122v-236q0 -76 -44.5 -120.5t-127.5 -44.5h-21zM229 93q55 0 55 67v226q0 67 -55 67q-54 0 -54 -67v-226q0 -67 54 -67zM290 753l73 -152h-97l-38 86l-38 -86h-96l73 152h123z" />
    <glyph glyph-name="otilde" unicode="&#xf5;" horiz-adv-x="459" 
d="M219 -10q-88 0 -130 43.5t-42 121.5v236q0 165 172 165h21q84 0 128 -43t44 -122v-236q0 -76 -44.5 -120.5t-127.5 -44.5h-21zM229 93q55 0 55 67v226q0 67 -55 67q-54 0 -54 -67v-226q0 -67 54 -67zM354 742v-73q0 -31 -14 -48t-38 -17h-1q-30 0 -75 27q-34 21 -38 21
q-7 0 -7 -12v-39h-78v73q0 31 14 48t38 17h1q30 0 75 -27q34 -21 38 -21q7 0 7 12v39h78z" />
    <glyph glyph-name="odieresis" unicode="&#xf6;" horiz-adv-x="459" 
d="M219 -10q-88 0 -130 43.5t-42 121.5v236q0 165 172 165h21q84 0 128 -43t44 -122v-236q0 -76 -44.5 -120.5t-127.5 -44.5h-21zM229 93q55 0 55 67v226q0 67 -55 67q-54 0 -54 -67v-226q0 -67 54 -67zM365 717v-116h-116v116h116zM209 717v-116h-117v116h117z" />
    <glyph glyph-name="divide" unicode="&#xf7;" horiz-adv-x="459" 
d="M294 539v-127h-129v127h129zM40 354h379v-94h-379v94zM294 198v-128h-129v128h129z" />
    <glyph glyph-name="oslash" unicode="&#xf8;" horiz-adv-x="455" 
d="M218 -10q-72 0 -113 36l-16 -26h-64l42 67q-20 37 -20 88v236q0 78 42.5 121.5t126.5 43.5h21q71 0 111 -35l16 25h66l-42 -67q20 -38 20 -88v-236q0 -75 -45 -120t-124 -45h-21zM165 361q0 -62 -2 -146l119 208q-14 31 -55 31q-62 0 -62 -72v-21zM227 92q63 0 63 72v21
q0 70 2 146l-120 -206q14 -33 55 -33z" />
    <glyph glyph-name="ugrave" unicode="&#xf9;" horiz-adv-x="461" 
d="M408 546v-546h-124v64q-13 -24 -45.5 -46t-69.5 -22h-6q-50 0 -80.5 32t-30.5 80v438h128v-392q0 -60 49 -60q52 0 52 64v388h127zM283 601h-109l-53 152h114z" />
    <glyph glyph-name="uacute" unicode="&#xfa;" horiz-adv-x="461" 
d="M408 546v-546h-124v64q-13 -24 -45.5 -46t-69.5 -22h-6q-50 0 -80.5 32t-30.5 80v438h128v-392q0 -60 49 -60q52 0 52 64v388h127zM175 601l48 152h114l-53 -152h-109z" />
    <glyph glyph-name="ucircumflex" unicode="&#xfb;" horiz-adv-x="461" 
d="M408 546v-546h-124v64q-13 -24 -45.5 -46t-69.5 -22h-6q-50 0 -80.5 32t-30.5 80v438h128v-392q0 -60 49 -60q52 0 52 64v388h127zM290 753l73 -152h-97l-38 86l-38 -86h-96l73 152h123z" />
    <glyph glyph-name="udieresis" unicode="&#xfc;" horiz-adv-x="461" 
d="M408 546v-546h-124v64q-13 -24 -45.5 -46t-69.5 -22h-6q-50 0 -80.5 32t-30.5 80v438h128v-392q0 -60 49 -60q52 0 52 64v388h127zM365 717v-116h-116v116h116zM209 717v-116h-117v116h117z" />
    <glyph glyph-name="yacute" unicode="&#xfd;" horiz-adv-x="417" 
d="M35 -187v107h72q18 0 26 5.5t10 19.5l2 13q3 24 -9 76l-120 512h129l67 -375l65 375h123l-139 -641q-10 -47 -33.5 -69.5t-68.5 -22.5h-124zM155 601l48 152h114l-53 -152h-109z" />
    <glyph glyph-name="thorn" unicode="&#xfe;" horiz-adv-x="462" 
d="M234 96q52 0 52 70v211q0 74 -52 74q-54 0 -54 -74v-209q0 -72 54 -72zM415 142q0 -67 -34 -106.5t-87 -39.5h-3q-77 0 -111 52v-235h-127v944h127v-270q43 63 113 63h4q56 0 87 -34.5t31 -95.5v-278z" />
    <glyph glyph-name="ydieresis" unicode="&#xff;" horiz-adv-x="417" 
d="M35 -187v107h72q18 0 26 5.5t10 19.5l2 13q3 24 -9 76l-120 512h129l67 -375l65 375h123l-139 -641q-10 -47 -33.5 -69.5t-68.5 -22.5h-124zM346 717v-116h-116v116h116zM190 717v-116h-117v116h117z" />
    <glyph glyph-name="Amacron" unicode="&#x100;" horiz-adv-x="464" 
d="M202 415l-26 -167h100l-27 167q-19 118 -23 178q-5 -49 -24 -178zM316 0l-22 137h-136l-21 -137h-117l125 744h166l133 -744h-128zM114 804v92h226v-92h-226z" />
    <glyph glyph-name="amacron" unicode="&#x101;" horiz-adv-x="446" 
d="M41 122v62q0 52 21 81t72 52l112 52q19 10 19 32v4q0 28 -11.5 41t-39.5 13h-2q-49 0 -49 -55v-37h-115v52q0 65 35 101t121 36h16q90 0 128 -34t38 -103v-278q0 -17 6 -23.5t23 -6.5h15v-111h-102q-51 0 -60 62q-41 -66 -111 -66h-3q-51 0 -82 35.5t-31 90.5zM102 615
v92h226v-92h-226zM265 153v127q-2 -1 -29 -17t-37 -23q-34 -23 -34 -65v-27q0 -55 47 -55q24 0 38.5 17t14.5 43z" />
    <glyph glyph-name="Abreve" unicode="&#x102;" horiz-adv-x="464" 
d="M202 415l-26 -167h100l-27 167q-19 118 -23 178q-5 -49 -24 -178zM316 0l-22 137h-136l-21 -137h-117l125 744h166l133 -744h-128zM226 789q-121 0 -121 117v7h91v-5q0 -41 31 -41t31 41v5h91v-7q0 -117 -121 -117h-2z" />
    <glyph glyph-name="abreve" unicode="&#x103;" horiz-adv-x="446" 
d="M41 122v62q0 52 21 81t72 52l112 52q19 10 19 32v4q0 28 -11.5 41t-39.5 13h-2q-49 0 -49 -55v-37h-115v52q0 65 35 101t121 36h16q90 0 128 -34t38 -103v-278q0 -17 6 -23.5t23 -6.5h15v-111h-102q-51 0 -60 62q-41 -66 -111 -66h-3q-51 0 -82 35.5t-31 90.5zM212 598
q-120 0 -120 117v13h91v-11q0 -41 30 -41t30 41v11h91v-13q0 -117 -120 -117h-2zM265 153v127q-2 -1 -29 -17t-37 -23q-34 -23 -34 -65v-27q0 -55 47 -55q24 0 38.5 17t14.5 43z" />
    <glyph glyph-name="Aogonek" unicode="&#x104;" horiz-adv-x="464" 
d="M202 415l-26 -167h100l-27 167q-19 118 -23 178q-5 -49 -24 -178zM316 0l-22 137h-136l-21 -137h-117l125 744h166l133 -744h-128zM295 -120v5q0 30 21.5 56.5t66.5 58.5h61q-45 -60 -45 -84v-2q0 -25 32 -25h25v-76h-65q-96 0 -96 67z" />
    <glyph glyph-name="aogonek" unicode="&#x105;" horiz-adv-x="446" 
d="M281 -120v5q0 30 21.5 56.5t66.5 58.5h-41q-51 0 -60 62q-41 -66 -111 -66h-3q-51 0 -82 35.5t-31 90.5v62q0 52 21 81t72 52l112 52q19 10 19 32v4q0 28 -11.5 41t-39.5 13h-2q-49 0 -49 -55v-37h-115v52q0 65 35 101t121 36h16q90 0 128 -34t38 -103v-278
q0 -17 6 -23.5t23 -6.5h15v-111q-45 -60 -45 -84v-2q0 -25 32 -25h25v-76h-65q-96 0 -96 67zM265 153v127q-2 -1 -29 -17t-37 -23q-34 -23 -34 -65v-27q0 -55 47 -55q24 0 38.5 17t14.5 43z" />
    <glyph glyph-name="Cacute" unicode="&#x106;" horiz-adv-x="480" 
d="M244 108q59 0 59 80v121h129v-128q0 -84 -42.5 -137t-133.5 -53h-24q-92 0 -136 50.5t-44 140.5v379q0 190 176 190h24q96 0 138 -46.5t42 -142.5v-90h-129v84q0 41 -13.5 60.5t-45.5 19.5q-58 0 -58 -80v-367q0 -81 58 -81zM184 792l47 127h116l-51 -127h-112z" />
    <glyph glyph-name="cacute" unicode="&#x107;" horiz-adv-x="442" 
d="M233 -10h-16q-87 0 -128.5 42t-41.5 117v240q0 167 171 167h16q90 0 127.5 -39.5t37.5 -117.5v-54h-122v44q0 35 -11 50t-40 15q-27 0 -39 -15.5t-12 -49.5v-229q0 -67 50 -67q52 0 52 67v63h122v-74q0 -71 -40 -115t-126 -44zM170 601l48 152h114l-53 -152h-109z" />
    <glyph glyph-name="Ccircumflex" unicode="&#x108;" horiz-adv-x="480" 
d="M244 108q59 0 59 80v121h129v-128q0 -84 -42.5 -137t-133.5 -53h-24q-92 0 -136 50.5t-44 140.5v379q0 190 176 190h24q96 0 138 -46.5t42 -142.5v-90h-129v84q0 41 -13.5 60.5t-45.5 19.5q-58 0 -58 -80v-367q0 -81 58 -81zM304 919l78 -129h-104l-38 66l-38 -66h-103
l78 129h127z" />
    <glyph glyph-name="ccircumflex" unicode="&#x109;" horiz-adv-x="442" 
d="M233 -10h-16q-87 0 -128.5 42t-41.5 117v240q0 167 171 167h16q90 0 127.5 -39.5t37.5 -117.5v-54h-122v44q0 35 -11 50t-40 15q-27 0 -39 -15.5t-12 -49.5v-229q0 -67 50 -67q52 0 52 67v63h122v-74q0 -71 -40 -115t-126 -44zM287 753l73 -152h-97l-38 86l-38 -86h-96
l73 152h123z" />
    <glyph glyph-name="Cdotaccent" unicode="&#x10a;" horiz-adv-x="480" 
d="M244 108q59 0 59 80v121h129v-128q0 -84 -42.5 -137t-133.5 -53h-24q-92 0 -136 50.5t-44 140.5v379q0 190 176 190h24q96 0 138 -46.5t42 -142.5v-90h-129v84q0 41 -13.5 60.5t-45.5 19.5q-58 0 -58 -80v-367q0 -81 58 -81zM304 919v-127h-128v127h128z" />
    <glyph glyph-name="cdotaccent" unicode="&#x10b;" horiz-adv-x="442" 
d="M233 -10h-16q-87 0 -128.5 42t-41.5 117v240q0 167 171 167h16q90 0 127.5 -39.5t37.5 -117.5v-54h-122v44q0 35 -11 50t-40 15q-27 0 -39 -15.5t-12 -49.5v-229q0 -67 50 -67q52 0 52 67v63h122v-74q0 -71 -40 -115t-126 -44zM284 728v-127h-128v127h128z" />
    <glyph glyph-name="Ccaron" unicode="&#x10c;" horiz-adv-x="480" 
d="M244 108q59 0 59 80v121h129v-128q0 -84 -42.5 -137t-133.5 -53h-24q-92 0 -136 50.5t-44 140.5v379q0 190 176 190h24q96 0 138 -46.5t42 -142.5v-90h-129v84q0 41 -13.5 60.5t-45.5 19.5q-58 0 -58 -80v-367q0 -81 58 -81zM175 792l-77 127h104l38 -66l38 66h103
l-77 -127h-129z" />
    <glyph glyph-name="ccaron" unicode="&#x10d;" horiz-adv-x="442" 
d="M233 -10h-16q-87 0 -128.5 42t-41.5 117v240q0 167 171 167h16q90 0 127.5 -39.5t37.5 -117.5v-54h-122v44q0 35 -11 50t-40 15q-27 0 -39 -15.5t-12 -49.5v-229q0 -67 50 -67q52 0 52 67v63h122v-74q0 -71 -40 -115t-126 -44zM164 601l-74 152h95l39 -86l39 86h94
l-74 -152h-119z" />
    <glyph glyph-name="Dcaron" unicode="&#x10e;" horiz-adv-x="487" 
d="M55 0v744h210q90 0 129 -39.5t39 -131.5v-398q0 -91 -39.5 -133t-128.5 -42h-210zM188 638v-525h47q35 0 49.5 19t14.5 59v369q0 41 -14 59.5t-48 18.5h-49zM160 792l-77 127h104l38 -66l38 66h103l-77 -127h-129z" />
    <glyph glyph-name="dcaron" unicode="&#x10f;" horiz-adv-x="462" 
d="M228 96q54 0 54 70v214q0 70 -54 70q-52 0 -52 -70v-214q0 -70 52 -70zM282 757h127v-757h-127v62q-32 -67 -108 -67h-2q-57 0 -90.5 38.5t-33.5 104.5v276q0 62 30.5 99t86.5 37h3q77 0 114 -59v266zM452 601l12 156h96l-17 -156h-91z" />
    <glyph glyph-name="Dcroat" unicode="&#x110;" horiz-adv-x="503" 
d="M251 113q35 0 49.5 19t14.5 59v369q0 41 -14 59.5t-48 18.5h-49v-204h63v-103h-63v-218h47zM71 0v331h-53v103h53v310h210q90 0 129 -39.5t39 -131.5v-398q0 -91 -39.5 -133t-128.5 -42h-210z" />
    <glyph glyph-name="dcroat" unicode="&#x111;" horiz-adv-x="462" 
d="M282 757h127v-67h57v-85h-57v-605h-127v62q-32 -67 -108 -67h-2q-57 0 -90.5 38.5t-33.5 104.5v276q0 62 30.5 99t86.5 37h3q77 0 114 -59v114h-113v85h113v67zM228 96q54 0 54 70v214q0 70 -54 70q-52 0 -52 -70v-214q0 -70 52 -70z" />
    <glyph glyph-name="Emacron" unicode="&#x112;" horiz-adv-x="422" 
d="M55 744h327v-116h-197v-184h164v-119h-164v-206h203v-119h-333v744zM105 804v92h226v-92h-226z" />
    <glyph glyph-name="emacron" unicode="&#x113;" horiz-adv-x="441" 
d="M170 400v-55h107v55q0 61 -54 61q-53 0 -53 -61zM397 147q0 -157 -169 -157h-18q-79 0 -121 40.5t-42 116.5v252q0 76 42 116.5t124 40.5h20q164 0 164 -161v-138h-227v-103q0 -61 53 -61q52 0 52 60v48h122v-54zM109 615v92h226v-92h-226z" />
    <glyph glyph-name="Ebreve" unicode="&#x114;" horiz-adv-x="422" 
d="M55 744h327v-116h-197v-184h164v-119h-164v-206h203v-119h-333v744zM217 789q-121 0 -121 117v7h91v-5q0 -41 31 -41t31 41v5h91v-7q0 -117 -121 -117h-2z" />
    <glyph glyph-name="ebreve" unicode="&#x115;" horiz-adv-x="441" 
d="M170 400v-55h107v55q0 61 -54 61q-53 0 -53 -61zM397 147q0 -157 -169 -157h-18q-79 0 -121 40.5t-42 116.5v252q0 76 42 116.5t124 40.5h20q164 0 164 -161v-138h-227v-103q0 -61 53 -61q52 0 52 60v48h122v-54zM221 598q-120 0 -120 117v13h91v-11q0 -41 30 -41t30 41
v11h91v-13q0 -117 -120 -117h-2z" />
    <glyph glyph-name="Edotaccent" unicode="&#x116;" horiz-adv-x="422" 
d="M55 744h327v-116h-197v-184h164v-119h-164v-206h203v-119h-333v744zM282 919v-127h-128v127h128z" />
    <glyph glyph-name="edotaccent" unicode="&#x117;" horiz-adv-x="441" 
d="M170 400v-55h107v55q0 61 -54 61q-53 0 -53 -61zM397 147q0 -157 -169 -157h-18q-79 0 -121 40.5t-42 116.5v252q0 76 42 116.5t124 40.5h20q164 0 164 -161v-138h-227v-103q0 -61 53 -61q52 0 52 60v48h122v-54zM286 728v-127h-128v127h128z" />
    <glyph glyph-name="Eogonek" unicode="&#x118;" horiz-adv-x="422" 
d="M181 -120v5q0 30 21.5 56.5t66.5 58.5h-214v744h327v-116h-197v-184h164v-119h-164v-206h203v-119h-58q-45 -60 -45 -84v-2q0 -25 32 -25h25v-76h-65q-96 0 -96 67z" />
    <glyph glyph-name="eogonek" unicode="&#x119;" horiz-adv-x="441" 
d="M170 401v-55h107v55q0 61 -54 61q-53 0 -53 -61zM355 -110v-77h-66q-97 0 -97 67v5q0 51 79 108q-19 -3 -43 -3h-18q-79 0 -121 40.5t-42 116.5v252q0 75 42 116t124 41h20q164 0 164 -161v-137h-227v-105q0 -61 53 -61q52 0 52 60v50h122v-55q0 -71 -43 -132
q-4 -5 -13.5 -18l-14 -19t-11.5 -16.5t-10 -17t-5.5 -14t-2.5 -14.5v-2q0 -24 33 -24h25z" />
    <glyph glyph-name="Ecaron" unicode="&#x11a;" horiz-adv-x="422" 
d="M55 744h327v-116h-197v-184h164v-119h-164v-206h203v-119h-333v744zM153 792l-77 127h104l38 -66l38 66h103l-77 -127h-129z" />
    <glyph glyph-name="ecaron" unicode="&#x11b;" horiz-adv-x="441" 
d="M170 400v-55h107v55q0 61 -54 61q-53 0 -53 -61zM397 147q0 -157 -169 -157h-18q-79 0 -121 40.5t-42 116.5v252q0 76 42 116.5t124 40.5h20q164 0 164 -161v-138h-227v-103q0 -61 53 -61q52 0 52 60v48h122v-54zM162 601l-74 152h95l39 -86l39 86h94l-74 -152h-119z" />
    <glyph glyph-name="Gcircumflex" unicode="&#x11c;" horiz-adv-x="486" 
d="M203 -10h-7q-67 0 -105.5 49t-38.5 126v397q0 189 180 189h21q97 0 136 -47.5t39 -136.5v-49h-128v42q0 76 -57 76t-57 -76v-372q0 -82 62 -82q63 0 63 81v139h-72v114h195v-440h-81q-5 23 -24 73q-9 -18 -21.5 -34t-41.5 -32.5t-63 -16.5zM307 919l78 -129h-104l-38 66
l-38 -66h-103l78 129h127z" />
    <glyph glyph-name="gcircumflex" unicode="&#x11d;" horiz-adv-x="465" 
d="M229 95q26 0 40 19t14 52v213q0 70 -56 70q-51 0 -51 -70v-214q0 -70 53 -70zM242 -197h-28q-89 0 -125 32t-36 98v28h123v-9q0 -28 11 -40t40 -12h4q29 0 40.5 12.5t11.5 41.5v106q-14 -24 -42.5 -44t-69.5 -20q-58 0 -90.5 39t-32.5 109v248q0 158 120 158
q73 0 117 -64v60h127v-601q0 -142 -170 -142zM288 753l73 -152h-97l-38 86l-38 -86h-96l73 152h123z" />
    <glyph glyph-name="Gbreve" unicode="&#x11e;" horiz-adv-x="486" 
d="M203 -10h-7q-67 0 -105.5 49t-38.5 126v397q0 189 180 189h21q97 0 136 -47.5t39 -136.5v-49h-128v42q0 76 -57 76t-57 -76v-372q0 -82 62 -82q63 0 63 81v139h-72v114h195v-440h-81q-5 23 -24 73q-9 -18 -21.5 -34t-41.5 -32.5t-63 -16.5zM242 789q-121 0 -121 117v7h91
v-5q0 -41 31 -41t31 41v5h91v-7q0 -117 -121 -117h-2z" />
    <glyph glyph-name="gbreve" unicode="&#x11f;" horiz-adv-x="465" 
d="M229 95q26 0 40 19t14 52v213q0 70 -56 70q-51 0 -51 -70v-214q0 -70 53 -70zM242 -197h-28q-89 0 -125 32t-36 98v28h123v-9q0 -28 11 -40t40 -12h4q29 0 40.5 12.5t11.5 41.5v106q-14 -24 -42.5 -44t-69.5 -20q-58 0 -90.5 39t-32.5 109v248q0 158 120 158
q73 0 117 -64v60h127v-601q0 -142 -170 -142zM223 598q-120 0 -120 117v13h91v-11q0 -41 30 -41t30 41v11h91v-13q0 -117 -120 -117h-2z" />
    <glyph glyph-name="Gdotaccent" unicode="&#x120;" horiz-adv-x="486" 
d="M203 -10h-7q-67 0 -105.5 49t-38.5 126v397q0 189 180 189h21q97 0 136 -47.5t39 -136.5v-49h-128v42q0 76 -57 76t-57 -76v-372q0 -82 62 -82q63 0 63 81v139h-72v114h195v-440h-81q-5 23 -24 73q-9 -18 -21.5 -34t-41.5 -32.5t-63 -16.5zM307 919v-127h-128v127h128z
" />
    <glyph glyph-name="gdotaccent" unicode="&#x121;" horiz-adv-x="465" 
d="M229 95q26 0 40 19t14 52v213q0 70 -56 70q-51 0 -51 -70v-214q0 -70 53 -70zM242 -197h-28q-89 0 -125 32t-36 98v28h123v-9q0 -28 11 -40t40 -12h4q29 0 40.5 12.5t11.5 41.5v106q-14 -24 -42.5 -44t-69.5 -20q-58 0 -90.5 39t-32.5 109v248q0 158 120 158
q73 0 117 -64v60h127v-601q0 -142 -170 -142zM291 728v-127h-128v127h128z" />
    <glyph glyph-name="uni0122" unicode="&#x122;" horiz-adv-x="486" 
d="M203 -10h-7q-67 0 -105.5 49t-38.5 126v397q0 189 180 189h21q97 0 136 -47.5t39 -136.5v-49h-128v42q0 76 -57 76t-57 -76v-372q0 -82 62 -82q63 0 63 81v139h-72v114h195v-440h-81q-5 23 -24 73q-9 -18 -21.5 -34t-41.5 -32.5t-63 -16.5zM283 -224h-73q17 38 24 74h-54
v106h126v-66q0 -68 -23 -114z" />
    <glyph glyph-name="uni0123" unicode="&#x123;" horiz-adv-x="465" 
d="M229 95q26 0 40 19t14 52v213q0 70 -56 70q-51 0 -51 -70v-214q0 -70 53 -70zM242 -197h-28q-89 0 -125 32t-36 98v28h123v-9q0 -28 11 -40t40 -12h4q29 0 40.5 12.5t11.5 41.5v106q-14 -24 -42.5 -44t-69.5 -20q-58 0 -90.5 39t-32.5 109v248q0 158 120 158
q73 0 117 -64v60h127v-601q0 -142 -170 -142zM187 781h73q-17 -38 -24 -74h54v-106h-126v66q0 68 23 114z" />
    <glyph glyph-name="Hcircumflex" unicode="&#x124;" horiz-adv-x="499" 
d="M55 0v744h133v-295h123v295h133v-744h-133v324h-123v-324h-133zM313 919l78 -129h-104l-38 66l-38 -66h-103l78 129h127z" />
    <glyph glyph-name="hcircumflex" unicode="&#x125;" horiz-adv-x="467" 
d="M53 0v757h127v-271q4 7 11.5 15.5t21 20.5t35 20t46.5 8h4q56 0 87 -32.5t31 -85.5v-432h-128v383q0 66 -53 66q-55 0 -55 -70v-379h-127zM264 970l73 -152h-97l-38 86l-38 -86h-96l73 152h123z" />
    <glyph glyph-name="Hbar" unicode="&#x126;" horiz-adv-x="509" 
d="M316 554h-123v-105h123v105zM60 0v554h-55v87h55v103h133v-103h123v103h133v-103h55v-87h-55v-554h-133v324h-123v-324h-133z" />
    <glyph glyph-name="hbar" unicode="&#x127;" horiz-adv-x="467" 
d="M53 0v605h-57v85h57v67h127v-67h113v-85h-113v-119q4 7 11.5 15.5t21 20.5t35 20t46.5 8h4q56 0 87 -32.5t31 -85.5v-432h-128v383q0 66 -53 66q-55 0 -55 -70v-379h-127z" />
    <glyph glyph-name="Itilde" unicode="&#x128;" horiz-adv-x="243" 
d="M188 744v-744h-133v744h133zM252 924v-63q0 -31 -14 -48t-37 -17h-1q-25 0 -78 22q-34 14 -40 14q-8 0 -8 -11v-29h-83v63q0 31 14 48t37 17h1q25 0 78 -22q34 -14 40 -14q8 0 8 11v29h83z" />
    <glyph glyph-name="itilde" unicode="&#x129;" horiz-adv-x="233" 
d="M234 742v-73q0 -65 -47 -65h-1q-28 0 -71 28q-31 20 -35 20q-7 0 -7 -12v-39h-74v73q0 65 47 65h1q28 0 71 -28q31 -20 35 -20q7 0 7 12v39h74zM180 546v-546h-127v546h127z" />
    <glyph glyph-name="Imacron" unicode="&#x12a;" horiz-adv-x="243" 
d="M188 744v-744h-133v744h133zM8 804v92h226v-92h-226z" />
    <glyph glyph-name="imacron" unicode="&#x12b;" horiz-adv-x="233" 
d="M10 615v92h213v-92h-213zM180 546v-546h-127v546h127z" />
    <glyph glyph-name="Ibreve" unicode="&#x12c;" horiz-adv-x="243" 
d="M188 744v-744h-133v744h133zM120 789q-121 0 -121 117v7h91v-5q0 -41 31 -41t31 41v5h91v-7q0 -117 -121 -117h-2z" />
    <glyph glyph-name="ibreve" unicode="&#x12d;" horiz-adv-x="233" 
d="M115 598q-118 0 -118 117v12h90v-10q0 -41 29 -41t29 41v10h90v-12q0 -117 -118 -117h-2zM180 546v-546h-127v546h127z" />
    <glyph glyph-name="Iogonek" unicode="&#x12e;" horiz-adv-x="243" 
d="M39 -120v5q0 30 21.5 56.5t66.5 58.5h-72v744h133v-744q-45 -60 -45 -84v-2q0 -25 32 -25h25v-76h-65q-96 0 -96 67z" />
    <glyph glyph-name="iogonek" unicode="&#x12f;" horiz-adv-x="233" 
d="M31 -120v5q0 30 21.5 56.5t66.5 58.5h-66v546h127v-546q-45 -60 -45 -84v-2q0 -25 32 -25h25v-76h-65q-96 0 -96 67zM180 728v-127h-127v127h127z" />
    <glyph glyph-name="Idotaccent" unicode="&#x130;" horiz-adv-x="243" 
d="M188 744v-744h-133v744h133zM185 919v-127h-128v127h128z" />
    <glyph glyph-name="dotlessi" unicode="&#x131;" horiz-adv-x="233" 
d="M180 546v-546h-127v546h127z" />
    <glyph glyph-name="IJ" unicode="&#x132;" horiz-adv-x="696" 
d="M188 744v-744h-133v744h133zM284 328h127v-154q0 -35 11 -49.5t37 -14.5h3q25 0 35.5 15.5t10.5 48.5v570h134v-579q0 -171 -164 -171h-35q-79 0 -119 38t-40 124v172z" />
    <glyph glyph-name="ij" unicode="&#x133;" horiz-adv-x="467" 
d="M180 728v-127h-127v127h127zM180 546v-546h-127v546h127zM414 728v-127h-127v127h127zM191 -75h64q18 0 25 8t7 27v586h127v-629q0 -50 -24 -77t-69 -27h-130v112z" />
    <glyph glyph-name="Jcircumflex" unicode="&#x134;" horiz-adv-x="453" 
d="M41 328h127v-154q0 -35 11 -49.5t37 -14.5h3q25 0 35.5 15.5t10.5 48.5v570h134v-579q0 -171 -164 -171h-35q-79 0 -119 38t-40 124v172zM394 919l78 -129h-104l-38 66l-38 -66h-103l78 129h127z" />
    <glyph glyph-name="jcircumflex" unicode="&#x135;" horiz-adv-x="234" 
d="M181 753l68 -152h-96l-36 88l-36 -88h-95l68 152h127zM-42 -75h64q18 0 25 8t7 27v586h127v-629q0 -50 -24 -77t-69 -27h-130v112z" />
    <glyph glyph-name="uni0136" unicode="&#x136;" horiz-adv-x="475" 
d="M187 0h-132v744h132v-331l134 331h130l-142 -347l156 -397h-136l-142 356v-356zM298 -224h-73q17 38 24 74h-54v106h126v-66q0 -68 -23 -114z" />
    <glyph glyph-name="uni0137" unicode="&#x137;" horiz-adv-x="455" 
d="M180 0h-127v757h127v-432l123 221h136l-140 -243l152 -303h-138l-133 268v-268zM286 -224h-73q17 38 24 74h-54v106h126v-66q0 -68 -23 -114z" />
    <glyph glyph-name="Lacute" unicode="&#x139;" horiz-adv-x="400" 
d="M55 744h133v-622h182v-122h-315v744zM65 792l47 127h116l-51 -127h-112z" />
    <glyph glyph-name="lacute" unicode="&#x13a;" horiz-adv-x="233" 
d="M180 757v-757h-127v757h127zM61 805l47 127h116l-51 -127h-112z" />
    <glyph glyph-name="uni013B" unicode="&#x13b;" horiz-adv-x="400" 
d="M55 744h133v-622h182v-122h-315v744zM253 -224h-73q17 38 24 74h-54v106h126v-66q0 -68 -23 -114z" />
    <glyph glyph-name="uni013C" unicode="&#x13c;" horiz-adv-x="233" 
d="M180 757v-757h-127v757h127zM156 -224h-73q17 38 24 74h-54v106h126v-66q0 -68 -23 -114z" />
    <glyph glyph-name="Lcaron" unicode="&#x13d;" horiz-adv-x="400" 
d="M55 744h133v-622h182v-122h-315v744zM231 588l12 156h96l-17 -156h-91z" />
    <glyph glyph-name="lcaron" unicode="&#x13e;" horiz-adv-x="233" 
d="M180 757v-757h-127v757h127zM223 601l12 156h96l-17 -156h-91z" />
    <glyph glyph-name="Ldot" unicode="&#x13f;" horiz-adv-x="429" 
d="M55 744h133v-622h182v-122h-315v744zM406 465v-154h-140v154h140z" />
    <glyph glyph-name="ldot" unicode="&#x140;" horiz-adv-x="403" 
d="M180 757v-757h-127v757h127zM388 441v-154h-140v154h140z" />
    <glyph glyph-name="Lslash" unicode="&#x141;" horiz-adv-x="415" 
d="M70 744h133v-312l130 78v-103l-130 -75v-210h182v-122h-315v255l-66 -38v96l66 39v392z" />
    <glyph glyph-name="lslash" unicode="&#x142;" horiz-adv-x="275" 
d="M201 757v-241l65 34v-93l-65 -34v-423h-127v357l-65 -33v91l65 34v308h127z" />
    <glyph glyph-name="Nacute" unicode="&#x143;" horiz-adv-x="502" 
d="M291 416q34 -106 46 -157q-5 72 -5 197v288h115v-744h-115l-120 351q-32 91 -48 160q7 -72 7 -200v-311h-116v744h130zM195 792l47 127h116l-51 -127h-112z" />
    <glyph glyph-name="nacute" unicode="&#x144;" horiz-adv-x="467" 
d="M53 0v546h125v-63q7 12 18 24.5t38.5 28t59.5 15.5h4q56 0 87 -33t31 -86v-432h-128v383q0 66 -53 66q-55 0 -55 -70v-379h-127zM178 601l48 152h114l-53 -152h-109z" />
    <glyph glyph-name="uni0145" unicode="&#x145;" horiz-adv-x="502" 
d="M291 416q34 -106 46 -157q-5 72 -5 197v288h115v-744h-115l-120 351q-32 91 -48 160q7 -72 7 -200v-311h-116v744h130zM291 -224h-73q17 38 24 74h-54v106h126v-66q0 -68 -23 -114z" />
    <glyph glyph-name="uni0146" unicode="&#x146;" horiz-adv-x="467" 
d="M53 0v546h125v-63q7 12 18 24.5t38.5 28t59.5 15.5h4q56 0 87 -33t31 -86v-432h-128v383q0 66 -53 66q-55 0 -55 -70v-379h-127zM274 -224h-73q17 38 24 74h-54v106h126v-66q0 -68 -23 -114z" />
    <glyph glyph-name="Ncaron" unicode="&#x147;" horiz-adv-x="502" 
d="M291 416q34 -106 46 -157q-5 72 -5 197v288h115v-744h-115l-120 351q-32 91 -48 160q7 -72 7 -200v-311h-116v744h130zM186 792l-77 127h104l38 -66l38 66h103l-77 -127h-129z" />
    <glyph glyph-name="ncaron" unicode="&#x148;" horiz-adv-x="467" 
d="M53 0v546h125v-63q7 12 18 24.5t38.5 28t59.5 15.5h4q56 0 87 -33t31 -86v-432h-128v383q0 66 -53 66q-55 0 -55 -70v-379h-127zM173 601l-74 152h95l39 -86l39 86h94l-74 -152h-119z" />
    <glyph glyph-name="napostrophe" unicode="&#x149;" horiz-adv-x="612" 
d="M198 0v546h125v-63q7 12 18 24.5t38.5 28t59.5 15.5h4q56 0 87 -33t31 -86v-432h-128v383q0 66 -53 66q-55 0 -55 -70v-379h-127zM105 457h-83q31 74 39 141h-61v146h141v-105q0 -89 -36 -182z" />
    <glyph glyph-name="Eng" unicode="&#x14a;" horiz-adv-x="502" 
d="M267 -188v105h34q19 0 26 8.5t7 28.5v46l-164 472v-472h-115v744h128l148 -449v449h116v-816q0 -61 -23.5 -88.5t-82.5 -27.5h-74z" />
    <glyph glyph-name="eng" unicode="&#x14b;" horiz-adv-x="467" 
d="M256 -75q18 0 25 8t7 27v423q0 66 -53 66q-55 0 -55 -70v-379h-127v546h125v-63q7 12 18 24.5t38.5 27.5t59.5 15h4q57 0 87.5 -32t30.5 -86v-515q0 -50 -24 -77t-69 -27h-132v112h65z" />
    <glyph glyph-name="Omacron" unicode="&#x14c;" horiz-adv-x="497" 
d="M445 553v-360q0 -202 -186 -202h-20q-187 0 -187 202v359q0 200 186 200h20q187 0 187 -199zM311 192v359q0 85 -63 85q-62 0 -62 -85v-359q0 -84 63 -84q62 0 62 84zM135 804v92h226v-92h-226z" />
    <glyph glyph-name="omacron" unicode="&#x14d;" horiz-adv-x="459" 
d="M219 -10q-88 0 -130 43.5t-42 121.5v236q0 165 172 165h21q84 0 128 -43t44 -122v-236q0 -76 -44.5 -120.5t-127.5 -44.5h-21zM229 93q55 0 55 67v226q0 67 -55 67q-54 0 -54 -67v-226q0 -67 54 -67zM115 615v92h226v-92h-226z" />
    <glyph glyph-name="Obreve" unicode="&#x14e;" horiz-adv-x="497" 
d="M445 553v-360q0 -202 -186 -202h-20q-187 0 -187 202v359q0 200 186 200h20q187 0 187 -199zM311 192v359q0 85 -63 85q-62 0 -62 -85v-359q0 -84 63 -84q62 0 62 84zM247 789q-121 0 -121 117v7h91v-5q0 -41 31 -41t31 41v5h91v-7q0 -117 -121 -117h-2z" />
    <glyph glyph-name="obreve" unicode="&#x14f;" horiz-adv-x="459" 
d="M219 -10q-88 0 -130 43.5t-42 121.5v236q0 165 172 165h21q84 0 128 -43t44 -122v-236q0 -76 -44.5 -120.5t-127.5 -44.5h-21zM229 93q55 0 55 67v226q0 67 -55 67q-54 0 -54 -67v-226q0 -67 54 -67zM227 598q-120 0 -120 117v13h91v-11q0 -41 30 -41t30 41v11h91v-13
q0 -117 -120 -117h-2z" />
    <glyph glyph-name="Ohungarumlaut" unicode="&#x150;" horiz-adv-x="497" 
d="M445 553v-360q0 -202 -186 -202h-20q-187 0 -187 202v359q0 200 186 200h20q187 0 187 -199zM311 192v359q0 85 -63 85q-62 0 -62 -85v-359q0 -84 63 -84q62 0 62 84zM268 792l45 127h99l-48 -127h-96zM132 792l42 127h98l-43 -127h-97z" />
    <glyph glyph-name="ohungarumlaut" unicode="&#x151;" horiz-adv-x="459" 
d="M219 -10q-88 0 -130 43.5t-42 121.5v236q0 165 172 165h21q84 0 128 -43t44 -122v-236q0 -76 -44.5 -120.5t-127.5 -44.5h-21zM229 93q55 0 55 67v226q0 67 -55 67q-54 0 -54 -67v-226q0 -67 54 -67zM253 601l47 152h100l-51 -152h-96zM116 601l43 152h99l-45 -152h-97z
" />
    <glyph glyph-name="OE" unicode="&#x152;" horiz-adv-x="653" 
d="M620 0h-398q-89 0 -128.5 42t-39.5 133v398q0 92 39 131.5t129 39.5h392v-116h-182v-184h149v-119h-149v-206h188v-119zM299 119v509h-49q-34 0 -48 -18.5t-14 -59.5v-353q0 -40 14.5 -59t49.5 -19h47z" />
    <glyph glyph-name="oe" unicode="&#x153;" horiz-adv-x="683" 
d="M411 400v-55h107v55q0 61 -53 61q-54 0 -54 -61zM228 93q55 0 55 67v226q0 67 -55 67q-53 0 -53 -67v-226q0 -67 53 -67zM231 -10h-21q-81 0 -122 44t-41 121v236q0 78 42 121.5t123 43.5h21q79 0 114 -41q37 41 113 41h19q73 0 116 -39.5t43 -121.5v-138h-227v-103
q0 -61 54 -61q25 0 38 16.5t13 43.5v48h122v-54q0 -76 -42.5 -116.5t-118.5 -40.5h-18q-79 0 -113 48q-39 -48 -115 -48z" />
    <glyph glyph-name="Racute" unicode="&#x154;" horiz-adv-x="484" 
d="M186 644v-208h55q61 0 61 74v64q0 38 -13.5 54t-47.5 16h-55zM186 330v-330h-131v744h234q73 0 108.5 -34t35.5 -107v-81q0 -53 -22 -82t-53 -38q75 -29 75 -123v-189q0 -56 12 -85v-5h-130q-13 22 -13 85v172q0 39 -14 56t-47 17h-55zM183 792l47 127h116l-51 -127h-112
z" />
    <glyph glyph-name="racute" unicode="&#x155;" horiz-adv-x="417" 
d="M180 389v-389h-127v546h125v-62q42 66 105 66h4q97 0 97 -116v-147h-121v102q0 32 -9.5 45.5t-31.5 13.5q-42 0 -42 -59zM164 601l48 152h114l-53 -152h-109z" />
    <glyph glyph-name="uni0156" unicode="&#x156;" horiz-adv-x="484" 
d="M186 644v-208h55q61 0 61 74v64q0 38 -13.5 54t-47.5 16h-55zM186 330v-330h-131v744h234q73 0 108.5 -34t35.5 -107v-81q0 -53 -22 -82t-53 -38q75 -29 75 -123v-189q0 -56 12 -85v-5h-130q-13 22 -13 85v172q0 39 -14 56t-47 17h-55zM285 -224h-73q17 38 24 74h-54v106
h126v-66q0 -68 -23 -114z" />
    <glyph glyph-name="uni0157" unicode="&#x157;" horiz-adv-x="417" 
d="M180 389v-389h-127v546h125v-62q42 66 105 66h4q97 0 97 -116v-147h-121v102q0 32 -9.5 45.5t-31.5 13.5q-42 0 -42 -59zM156 -224h-73q17 38 24 74h-54v106h126v-66q0 -68 -23 -114z" />
    <glyph glyph-name="Rcaron" unicode="&#x158;" horiz-adv-x="484" 
d="M186 644v-208h55q61 0 61 74v64q0 38 -13.5 54t-47.5 16h-55zM186 330v-330h-131v744h234q73 0 108.5 -34t35.5 -107v-81q0 -53 -22 -82t-53 -38q75 -29 75 -123v-189q0 -56 12 -85v-5h-130q-13 22 -13 85v172q0 39 -14 56t-47 17h-55zM174 792l-77 127h104l38 -66l38 66
h103l-77 -127h-129z" />
    <glyph glyph-name="rcaron" unicode="&#x159;" horiz-adv-x="417" 
d="M180 389v-389h-127v546h125v-62q42 66 105 66h4q97 0 97 -116v-147h-121v102q0 32 -9.5 45.5t-31.5 13.5q-42 0 -42 -59zM157 601l-74 152h95l39 -86l39 86h94l-74 -152h-119z" />
    <glyph glyph-name="Sacute" unicode="&#x15a;" horiz-adv-x="461" 
d="M218 -8q-87 0 -133 39t-46 111v126h130v-102q0 -61 60 -61q59 0 59 72v8q0 35 -12.5 58.5t-43.5 51.5l-97 87q-47 42 -69 83.5t-22 100.5v21q0 165 181 165h21q83 0 127.5 -36t44.5 -108v-98h-128v72q0 63 -54 63q-57 0 -57 -60v-7q0 -31 11.5 -52t43.5 -50l96 -88
q53 -48 74.5 -89.5t21.5 -104.5v-21q0 -82 -45.5 -131.5t-140.5 -49.5h-22zM180 792l47 127h116l-51 -127h-112z" />
    <glyph glyph-name="sacute" unicode="&#x15b;" horiz-adv-x="407" 
d="M191 -10q-159 0 -159 134v68h118v-51q0 -55 51 -55q50 0 50 51v1q0 23 -9 37t-34 30l-82 56q-45 30 -67 65t-22 87v5q0 137 158 137h19q85 0 119.5 -31.5t34.5 -95.5v-51h-114v35q0 29 -11.5 40t-39.5 11q-45 0 -45 -42q0 -33 37 -60l95 -68q46 -32 65.5 -66t19.5 -88v-5
q0 -64 -39 -104t-125 -40h-20zM148 601l48 152h114l-53 -152h-109z" />
    <glyph glyph-name="Scircumflex" unicode="&#x15c;" horiz-adv-x="461" 
d="M218 -8q-87 0 -133 39t-46 111v126h130v-102q0 -61 60 -61q59 0 59 72v8q0 35 -12.5 58.5t-43.5 51.5l-97 87q-47 42 -69 83.5t-22 100.5v21q0 165 181 165h21q83 0 127.5 -36t44.5 -108v-98h-128v72q0 63 -54 63q-57 0 -57 -60v-7q0 -31 11.5 -52t43.5 -50l96 -88
q53 -48 74.5 -89.5t21.5 -104.5v-21q0 -82 -45.5 -131.5t-140.5 -49.5h-22zM300 919l78 -129h-104l-38 66l-38 -66h-103l78 129h127z" />
    <glyph glyph-name="scircumflex" unicode="&#x15d;" horiz-adv-x="407" 
d="M191 -10q-159 0 -159 134v68h118v-51q0 -55 51 -55q50 0 50 51v1q0 23 -9 37t-34 30l-82 56q-45 30 -67 65t-22 87v5q0 137 158 137h19q85 0 119.5 -31.5t34.5 -95.5v-51h-114v35q0 29 -11.5 40t-39.5 11q-45 0 -45 -42q0 -33 37 -60l95 -68q46 -32 65.5 -66t19.5 -88v-5
q0 -64 -39 -104t-125 -40h-20zM265 753l73 -152h-97l-38 86l-38 -86h-96l73 152h123z" />
    <glyph glyph-name="uni015E" unicode="&#x15e;" horiz-adv-x="461" 
d="M146 -216v72h69q28 0 28 20t-28 20h-50v100q-61 11 -93.5 49t-32.5 97v126h130v-102q0 -61 60 -61q59 0 59 72v8q0 35 -12.5 58.5t-43.5 51.5l-97 87q-47 42 -69 83.5t-22 100.5v21q0 165 181 165h21q83 0 127.5 -36t44.5 -108v-98h-128v72q0 63 -54 63q-57 0 -57 -60v-7
q0 -31 11.5 -52t43.5 -50l96 -88q53 -48 74.5 -89.5t21.5 -104.5v-21q0 -82 -45.5 -131.5t-140.5 -49.5h-1v-39h9q45 0 71 -21t26 -62v-3q0 -83 -110 -83h-89z" />
    <glyph glyph-name="uni015F" unicode="&#x15f;" horiz-adv-x="407" 
d="M113 -216v72h69q28 0 28 20t-28 20h-50v100q-100 23 -100 128v68h118v-51q0 -55 51 -55q50 0 50 51v1q0 23 -9 37t-34 30l-82 56q-45 30 -67 65t-22 87v5q0 137 158 137h19q85 0 119.5 -31.5t34.5 -95.5v-51h-114v35q0 29 -11.5 40t-39.5 11q-45 0 -45 -42q0 -33 37 -60
l95 -68q46 -32 65.5 -66t19.5 -88v-5q0 -64 -39 -104t-125 -40h-5v-37h9q45 0 71 -21t26 -62v-3q0 -83 -110 -83h-89z" />
    <glyph glyph-name="Scaron" unicode="&#x160;" horiz-adv-x="461" 
d="M218 -8q-87 0 -133 39t-46 111v126h130v-102q0 -61 60 -61q59 0 59 72v8q0 35 -12.5 58.5t-43.5 51.5l-97 87q-47 42 -69 83.5t-22 100.5v21q0 165 181 165h21q83 0 127.5 -36t44.5 -108v-98h-128v72q0 63 -54 63q-57 0 -57 -60v-7q0 -31 11.5 -52t43.5 -50l96 -88
q53 -48 74.5 -89.5t21.5 -104.5v-21q0 -82 -45.5 -131.5t-140.5 -49.5h-22zM171 792l-77 127h104l38 -66l38 66h103l-77 -127h-129z" />
    <glyph glyph-name="scaron" unicode="&#x161;" horiz-adv-x="407" 
d="M191 -10q-159 0 -159 134v68h118v-51q0 -55 51 -55q50 0 50 51v1q0 23 -9 37t-34 30l-82 56q-45 30 -67 65t-22 87v5q0 137 158 137h19q85 0 119.5 -31.5t34.5 -95.5v-51h-114v35q0 29 -11.5 40t-39.5 11q-45 0 -45 -42q0 -33 37 -60l95 -68q46 -32 65.5 -66t19.5 -88v-5
q0 -64 -39 -104t-125 -40h-20zM143 601l-74 152h95l39 -86l39 86h94l-74 -152h-119z" />
    <glyph glyph-name="Tcommaaccent" unicode="&#x162;" horiz-adv-x="434" 
d="M151 0v626h-121v118h374v-118h-120v-626h-133zM257 -224h-73q17 38 24 74h-54v106h126v-66q0 -68 -23 -114z" />
    <glyph glyph-name="tcommaaccent" unicode="&#x163;" horiz-adv-x="353" 
d="M323 0h-133q-41 0 -63 21.5t-22 61.5v356h-83v107h83v178h126v-178h92v-107h-92v-303q0 -16 5.5 -22.5t21.5 -6.5h65v-107zM265 -224h-73q17 38 24 74h-54v106h126v-66q0 -68 -23 -114z" />
    <glyph glyph-name="Tcaron" unicode="&#x164;" horiz-adv-x="434" 
d="M151 0v626h-121v118h374v-118h-120v-626h-133zM152 792l-77 127h104l38 -66l38 66h103l-77 -127h-129z" />
    <glyph glyph-name="tcaron" unicode="&#x165;" horiz-adv-x="353" 
d="M323 0h-133q-41 0 -63 21.5t-22 61.5v356h-83v107h83v178h126v-178h92v-107h-92v-303q0 -16 5.5 -22.5t21.5 -6.5h65v-107zM274 601l12 156h96l-17 -156h-91z" />
    <glyph glyph-name="Tbar" unicode="&#x166;" horiz-adv-x="434" 
d="M63 369v93h88v164h-121v118h374v-118h-120v-164h87v-93h-87v-369h-133v369h-88z" />
    <glyph glyph-name="tbar" unicode="&#x167;" horiz-adv-x="363" 
d="M328 107v-107h-133q-41 0 -63 21.5t-22 61.5v166h-83v96h83v94h-83v107h83v178h126v-178h92v-107h-92v-94h92v-96h-92v-113q0 -16 5.5 -22.5t21.5 -6.5h65z" />
    <glyph glyph-name="Utilde" unicode="&#x168;" horiz-adv-x="491" 
d="M256 -9h-22q-181 0 -181 183v570h134v-568q0 -69 58 -69q59 0 59 69v568h134v-570q0 -183 -182 -183zM376 924v-63q0 -31 -14 -48t-37 -17h-1q-25 0 -78 22q-34 14 -40 14q-8 0 -8 -11v-29h-83v63q0 31 14 48t37 17h1q25 0 78 -22q34 -14 40 -14q8 0 8 11v29h83z" />
    <glyph glyph-name="utilde" unicode="&#x169;" horiz-adv-x="461" 
d="M408 546v-546h-124v64q-13 -24 -45.5 -46t-69.5 -22h-6q-50 0 -80.5 32t-30.5 80v438h128v-392q0 -60 49 -60q52 0 52 64v388h127zM356 742v-73q0 -31 -14 -48t-38 -17h-1q-30 0 -75 27q-34 21 -38 21q-7 0 -7 -12v-39h-78v73q0 31 14 48t38 17h1q30 0 75 -27
q34 -21 38 -21q7 0 7 12v39h78z" />
    <glyph glyph-name="Umacron" unicode="&#x16a;" horiz-adv-x="491" 
d="M256 -9h-22q-181 0 -181 183v570h134v-568q0 -69 58 -69q59 0 59 69v568h134v-570q0 -183 -182 -183zM132 804v92h226v-92h-226z" />
    <glyph glyph-name="umacron" unicode="&#x16b;" horiz-adv-x="461" 
d="M408 546v-546h-124v64q-13 -24 -45.5 -46t-69.5 -22h-6q-50 0 -80.5 32t-30.5 80v438h128v-392q0 -60 49 -60q52 0 52 64v388h127zM117 615v92h226v-92h-226z" />
    <glyph glyph-name="Ubreve" unicode="&#x16c;" horiz-adv-x="491" 
d="M256 -9h-22q-181 0 -181 183v570h134v-568q0 -69 58 -69q59 0 59 69v568h134v-570q0 -183 -182 -183zM244 789q-121 0 -121 117v7h91v-5q0 -41 31 -41t31 41v5h91v-7q0 -117 -121 -117h-2z" />
    <glyph glyph-name="ubreve" unicode="&#x16d;" horiz-adv-x="461" 
d="M408 546v-546h-124v64q-13 -24 -45.5 -46t-69.5 -22h-6q-50 0 -80.5 32t-30.5 80v438h128v-392q0 -60 49 -60q52 0 52 64v388h127zM227 598q-120 0 -120 117v13h91v-11q0 -41 30 -41t30 41v11h91v-13q0 -117 -120 -117h-2z" />
    <glyph glyph-name="Uring" unicode="&#x16e;" horiz-adv-x="491" 
d="M256 -9h-22q-181 0 -181 183v570h134v-568q0 -69 58 -69q59 0 59 69v568h134v-570q0 -183 -182 -183zM245 778q-44 0 -70.5 25t-26.5 66t26.5 66t70.5 25t70.5 -25t26.5 -66t-26.5 -66t-70.5 -25zM245 829q18 0 29 11t11 29t-11 29t-29 11t-28.5 -11t-10.5 -29t10.5 -29
t28.5 -11z" />
    <glyph glyph-name="uring" unicode="&#x16f;" horiz-adv-x="461" 
d="M408 546v-546h-124v64q-13 -24 -45.5 -46t-69.5 -22h-6q-50 0 -80.5 32t-30.5 80v438h128v-392q0 -60 49 -60q52 0 52 64v388h127zM228 597q-44 0 -70.5 25t-26.5 66t26.5 66t70.5 25t70.5 -25t26.5 -66t-26.5 -66t-70.5 -25zM228 648q18 0 29 11t11 29t-11 29t-29 11
t-28.5 -11t-10.5 -29t10.5 -29t28.5 -11z" />
    <glyph glyph-name="Uhungarumlaut" unicode="&#x170;" horiz-adv-x="491" 
d="M256 -9h-22q-181 0 -181 183v570h134v-568q0 -69 58 -69q59 0 59 69v568h134v-570q0 -183 -182 -183zM265 792l45 127h99l-48 -127h-96zM129 792l42 127h98l-43 -127h-97z" />
    <glyph glyph-name="uhungarumlaut" unicode="&#x171;" horiz-adv-x="461" 
d="M408 546v-546h-124v64q-13 -24 -45.5 -46t-69.5 -22h-6q-50 0 -80.5 32t-30.5 80v438h128v-392q0 -60 49 -60q52 0 52 64v388h127zM253 601l47 152h100l-51 -152h-96zM116 601l43 152h99l-45 -152h-97z" />
    <glyph glyph-name="Uogonek" unicode="&#x172;" horiz-adv-x="491" 
d="M371 -188h-65q-96 0 -96 67v5q0 51 78 109q-20 -2 -32 -2h-22q-181 0 -181 183v570h134v-568q0 -69 58 -69q59 0 59 69v568h134v-570q0 -55 -15 -89t-52 -74q-57 -62 -57 -96v-2q0 -25 32 -25h25v-76z" />
    <glyph glyph-name="uogonek" unicode="&#x173;" horiz-adv-x="461" 
d="M259 -120v5q0 30 21.5 56.5t66.5 58.5h-63v64q-13 -24 -45.5 -46t-69.5 -22h-6q-50 0 -80.5 32t-30.5 80v438h128v-392q0 -60 49 -60q52 0 52 64v388h127v-546q-45 -60 -45 -84v-2q0 -25 32 -25h25v-76h-65q-96 0 -96 67z" />
    <glyph glyph-name="Wcircumflex" unicode="&#x174;" horiz-adv-x="717" 
d="M388 257q-26 162 -29 207q-4 -36 -29 -207l-40 -257h-143l-124 744h131l48 -341q18 -128 27 -218q4 55 27 218l48 341h115l49 -341q21 -158 27 -215q4 47 27 215l48 341h124l-124 -744h-143zM424 919l78 -129h-104l-38 66l-38 -66h-103l78 129h127z" />
    <glyph glyph-name="wcircumflex" unicode="&#x175;" horiz-adv-x="640" 
d="M321 337q-4 -26 -30 -148l-41 -189h-119l-115 546h126l33 -198q22 -133 26 -163q8 50 32 164l39 197h106l41 -197q20 -99 30 -164q2 17 26 163l34 198h115l-110 -546h-121l-41 189zM383 753l73 -152h-97l-38 86l-38 -86h-96l73 152h123z" />
    <glyph glyph-name="Ycircumflex" unicode="&#x176;" horiz-adv-x="422" 
d="M146 0v285l-134 459h132l70 -297l70 297h126l-131 -462v-282h-133zM277 919l78 -129h-104l-38 66l-38 -66h-103l78 129h127z" />
    <glyph glyph-name="ycircumflex" unicode="&#x177;" horiz-adv-x="417" 
d="M35 -187v107h72q18 0 26 5.5t10 19.5l2 13q3 24 -9 76l-120 512h129l67 -375l65 375h123l-139 -641q-10 -47 -33.5 -69.5t-68.5 -22.5h-124zM271 753l73 -152h-97l-38 86l-38 -86h-96l73 152h123z" />
    <glyph glyph-name="Ydieresis" unicode="&#x178;" horiz-adv-x="422" 
d="M146 0v285l-134 459h132l70 -297l70 297h126l-131 -462v-282h-133zM352 908v-116h-117v116h117zM193 908v-116h-118v116h118z" />
    <glyph glyph-name="Zacute" unicode="&#x179;" horiz-adv-x="440" 
d="M406 0h-367v101l214 530h-204v113h347v-98l-217 -531h227v-115zM167 792l47 127h116l-51 -127h-112z" />
    <glyph glyph-name="zacute" unicode="&#x17a;" horiz-adv-x="385" 
d="M351 0h-316v95l168 347h-159v104h300v-90l-172 -350h179v-106zM138 601l48 152h114l-53 -152h-109z" />
    <glyph glyph-name="Zdotaccent" unicode="&#x17b;" horiz-adv-x="440" 
d="M406 0h-367v101l214 530h-204v113h347v-98l-217 -531h227v-115zM287 919v-127h-128v127h128z" />
    <glyph glyph-name="zdotaccent" unicode="&#x17c;" horiz-adv-x="385" 
d="M351 0h-316v95l168 347h-159v104h300v-90l-172 -350h179v-106zM258 728v-127h-128v127h128z" />
    <glyph glyph-name="Zcaron" unicode="&#x17d;" horiz-adv-x="440" 
d="M406 0h-367v101l214 530h-204v113h347v-98l-217 -531h227v-115zM158 792l-77 127h104l38 -66l38 66h103l-77 -127h-129z" />
    <glyph glyph-name="zcaron" unicode="&#x17e;" horiz-adv-x="385" 
d="M351 0h-316v95l168 347h-159v104h300v-90l-172 -350h179v-106zM133 601l-74 152h95l39 -86l39 86h94l-74 -152h-119z" />
    <glyph glyph-name="uni0192" unicode="&#x192;" horiz-adv-x="385" 
d="M346 372h-107l-34 -560h-125l33 560h-84v106h91l9 155q4 60 31 85.5t91 25.5h95v-103h-49q-25 0 -34 -9t-11 -35l-7 -119h101v-106z" />
    <glyph glyph-name="Aringacute" unicode="&#x1fa;" horiz-adv-x="464" 
d="M202 415l-26 -167h100l-27 167q-19 118 -23 178q-5 -49 -24 -178zM316 0l-22 137h-136l-21 -137h-117l125 744h166l133 -744h-128zM227 787q-44 0 -70.5 25t-26.5 66t26.5 66t70.5 25t70.5 -25t26.5 -66t-26.5 -66t-70.5 -25zM227 838q18 0 29 11t11 29t-11 29t-29 11
t-28.5 -11t-10.5 -29t10.5 -29t28.5 -11zM171 998l47 127h116l-51 -127h-112z" />
    <glyph glyph-name="aringacute" unicode="&#x1fb;" horiz-adv-x="446" 
d="M41 122v62q0 52 21 81t72 52l112 52q19 10 19 32v4q0 28 -11.5 41t-39.5 13h-2q-49 0 -49 -55v-37h-115v52q0 65 35 101t121 36h16q90 0 128 -34t38 -103v-278q0 -17 6 -23.5t23 -6.5h15v-111h-102q-51 0 -60 62q-41 -66 -111 -66h-3q-51 0 -82 35.5t-31 90.5zM213 597
q-44 0 -70.5 25t-26.5 66t26.5 66t70.5 25t70.5 -25t26.5 -66t-26.5 -66t-70.5 -25zM158 808l48 152h114l-53 -152h-109zM265 153v127q-2 -1 -29 -17t-37 -23q-34 -23 -34 -65v-27q0 -55 47 -55q24 0 38.5 17t14.5 43zM213 648q18 0 29 11t11 29t-11 29t-29 11t-28.5 -11
t-10.5 -29t10.5 -29t28.5 -11z" />
    <glyph glyph-name="AEacute" unicode="&#x1fc;" horiz-adv-x="650" 
d="M299 254v388l-100 -388h100zM299 0v144h-129l-37 -144h-126l200 744h404v-116h-182v-184h149v-119h-149v-206h188v-119h-318zM353 792l47 127h116l-51 -127h-112z" />
    <glyph glyph-name="aeacute" unicode="&#x1fd;" horiz-adv-x="656" 
d="M613 147q0 -77 -44 -117t-124 -40h-18q-52 0 -90.5 19.5t-53.5 51.5q-15 -27 -45 -48.5t-73 -21.5h-3q-56 0 -89 35.5t-33 90.5v58q0 52 21 81t72 52l111 52q19 10 19 32v14q0 27 -11.5 40t-39.5 13h-2q-48 0 -48 -54v-47h-115v61q0 65 34 101t116 36h16q87 0 118 -42
q29 42 102 42h19q74 0 117.5 -39.5t43.5 -121.5v-138h-227v-103q0 -61 54 -61q50 0 50 60v48h123v-54zM274 601l48 152h114l-53 -152h-109zM263 148v123l-65 -40q-34 -26 -34 -65v-23q0 -55 46 -55q24 0 38.5 17t14.5 43zM386 400v-55h106v55q0 61 -52 61q-54 0 -54 -61z
" />
    <glyph glyph-name="Oslashacute" unicode="&#x1fe;" horiz-adv-x="495" 
d="M239 -9q-78 0 -121 39l-15 -30h-77l44 90q-18 42 -18 103v359q0 200 186 200h18q80 0 121 -38l14 30h77l-43 -91q18 -43 18 -100v-360q0 -202 -186 -202h-18zM180 450q0 -74 -3 -156l134 294q-13 50 -64 50q-67 0 -67 -87v-101zM248 106q67 0 67 86v103q0 75 3 156
l-134 -293q12 -52 64 -52zM191 792l47 127h116l-51 -127h-112z" />
    <glyph glyph-name="oslashacute" unicode="&#x1ff;" horiz-adv-x="455" 
d="M218 -10q-72 0 -113 36l-16 -26h-64l42 67q-20 37 -20 88v236q0 78 42.5 121.5t126.5 43.5h21q71 0 111 -35l16 25h66l-42 -67q20 -38 20 -88v-236q0 -75 -45 -120t-124 -45h-21zM165 361q0 -62 -2 -146l119 208q-14 31 -55 31q-62 0 -62 -72v-21zM227 92q63 0 63 72v21
q0 70 2 146l-120 -206q14 -33 55 -33zM172 601l48 152h114l-53 -152h-109z" />
    <glyph glyph-name="uni0218" unicode="&#x218;" horiz-adv-x="461" 
d="M218 -8q-87 0 -133 39t-46 111v126h130v-102q0 -61 60 -61q59 0 59 72v8q0 35 -12.5 58.5t-43.5 51.5l-97 87q-47 42 -69 83.5t-22 100.5v21q0 165 181 165h21q83 0 127.5 -36t44.5 -108v-98h-128v72q0 63 -54 63q-57 0 -57 -60v-7q0 -31 11.5 -52t43.5 -50l96 -88
q53 -48 74.5 -89.5t21.5 -104.5v-21q0 -82 -45.5 -131.5t-140.5 -49.5h-22zM276 -224h-73q17 38 24 74h-54v106h126v-66q0 -68 -23 -114z" />
    <glyph glyph-name="uni0219" unicode="&#x219;" horiz-adv-x="407" 
d="M191 -10q-159 0 -159 134v68h118v-51q0 -55 51 -55q50 0 50 51v1q0 23 -9 37t-34 30l-82 56q-45 30 -67 65t-22 87v5q0 137 158 137h19q85 0 119.5 -31.5t34.5 -95.5v-51h-114v35q0 29 -11.5 40t-39.5 11q-45 0 -45 -42q0 -33 37 -60l95 -68q46 -32 65.5 -66t19.5 -88v-5
q0 -64 -39 -104t-125 -40h-20zM243 -224h-73q17 38 24 74h-54v106h126v-66q0 -68 -23 -114z" />
    <glyph glyph-name="uni021A" unicode="&#x21a;" horiz-adv-x="434" 
d="M151 0v626h-121v118h374v-118h-120v-626h-133zM257 -224h-73q17 38 24 74h-54v106h126v-66q0 -68 -23 -114z" />
    <glyph glyph-name="uni021B" unicode="&#x21b;" horiz-adv-x="353" 
d="M323 0h-133q-41 0 -63 21.5t-22 61.5v356h-83v107h83v178h126v-178h92v-107h-92v-303q0 -16 5.5 -22.5t21.5 -6.5h65v-107zM265 -224h-73q17 38 24 74h-54v106h126v-66q0 -68 -23 -114z" />
    <glyph glyph-name="uni0237" unicode="&#x237;" horiz-adv-x="234" 
d="M-42 -75h64q18 0 25 8t7 27v586h127v-629q0 -50 -24 -77t-69 -27h-130v112z" />
    <glyph glyph-name="circumflex" unicode="&#x2c6;" horiz-adv-x="400" 
d="M261 753l73 -152h-97l-38 86l-38 -86h-96l73 152h123z" />
    <glyph glyph-name="caron" unicode="&#x2c7;" horiz-adv-x="400" 
d="M140 601l-74 152h95l39 -86l39 86h94l-74 -152h-119z" />
    <glyph glyph-name="breve" unicode="&#x2d8;" horiz-adv-x="400" 
d="M201 598q-120 0 -120 117v13h91v-11q0 -41 30 -41t30 41v11h91v-13q0 -117 -120 -117h-2z" />
    <glyph glyph-name="dotaccent" unicode="&#x2d9;" horiz-adv-x="400" 
d="M263 728v-127h-128v127h128z" />
    <glyph glyph-name="ring" unicode="&#x2da;" horiz-adv-x="400" 
d="M200 597q-44 0 -70.5 25t-26.5 66t26.5 66t70.5 25t70.5 -25t26.5 -66t-26.5 -66t-70.5 -25zM200 648q18 0 29 11t11 29t-11 29t-29 11t-28.5 -11t-10.5 -29t10.5 -29t28.5 -11z" />
    <glyph glyph-name="ogonek" unicode="&#x2db;" horiz-adv-x="400" 
d="M120 -120v5q0 30 21.5 56.5t66.5 58.5h61q-45 -60 -45 -84v-2q0 -25 32 -25h25v-76h-65q-96 0 -96 67z" />
    <glyph glyph-name="tilde" unicode="&#x2dc;" horiz-adv-x="400" 
d="M325 742v-73q0 -31 -14 -48t-38 -17h-1q-30 0 -75 27q-34 21 -38 21q-7 0 -7 -12v-39h-78v73q0 31 14 48t38 17h1q30 0 75 -27q34 -21 38 -21q7 0 7 12v39h78z" />
    <glyph glyph-name="hungarumlaut" unicode="&#x2dd;" horiz-adv-x="400" 
d="M195 601l47 152h100l-51 -152h-96zM58 601l43 152h99l-45 -152h-97z" />
    <glyph glyph-name="Wgrave" unicode="&#x1e80;" horiz-adv-x="717" 
d="M388 257q-26 162 -29 207q-4 -36 -29 -207l-40 -257h-143l-124 744h131l48 -341q18 -128 27 -218q4 55 27 218l48 341h115l49 -341q21 -158 27 -215q4 47 27 215l48 341h124l-124 -744h-143zM417 792h-112l-51 127h116z" />
    <glyph glyph-name="wgrave" unicode="&#x1e81;" horiz-adv-x="640" 
d="M321 337q-4 -26 -30 -148l-41 -189h-119l-115 546h126l33 -198q22 -133 26 -163q8 50 32 164l39 197h106l41 -197q20 -99 30 -164q2 17 26 163l34 198h115l-110 -546h-121l-41 189zM376 601h-109l-53 152h114z" />
    <glyph glyph-name="Wacute" unicode="&#x1e82;" horiz-adv-x="717" 
d="M388 257q-26 162 -29 207q-4 -36 -29 -207l-40 -257h-143l-124 744h131l48 -341q18 -128 27 -218q4 55 27 218l48 341h115l49 -341q21 -158 27 -215q4 47 27 215l48 341h124l-124 -744h-143zM304 792l47 127h116l-51 -127h-112z" />
    <glyph glyph-name="wacute" unicode="&#x1e83;" horiz-adv-x="640" 
d="M321 337q-4 -26 -30 -148l-41 -189h-119l-115 546h126l33 -198q22 -133 26 -163q8 50 32 164l39 197h106l41 -197q20 -99 30 -164q2 17 26 163l34 198h115l-110 -546h-121l-41 189zM273 601l48 152h114l-53 -152h-109z" />
    <glyph glyph-name="Wdieresis" unicode="&#x1e84;" horiz-adv-x="717" 
d="M388 257q-26 162 -29 207q-4 -36 -29 -207l-40 -257h-143l-124 744h131l48 -341q18 -128 27 -218q4 55 27 218l48 341h115l49 -341q21 -158 27 -215q4 47 27 215l48 341h124l-124 -744h-143zM340 908v-116h-118v116h118zM499 908v-116h-117v116h117z" />
    <glyph glyph-name="wdieresis" unicode="&#x1e85;" horiz-adv-x="640" 
d="M321 337q-4 -26 -30 -148l-41 -189h-119l-115 546h126l33 -198q22 -133 26 -163q8 50 32 164l39 197h106l41 -197q20 -99 30 -164q2 17 26 163l34 198h115l-110 -546h-121l-41 189zM458 717v-116h-116v116h116zM302 717v-116h-117v116h117z" />
    <glyph glyph-name="Ygrave" unicode="&#x1ef2;" horiz-adv-x="422" 
d="M146 0v285l-134 459h132l70 -297l70 297h126l-131 -462v-282h-133zM270 792h-112l-51 127h116z" />
    <glyph glyph-name="ygrave" unicode="&#x1ef3;" horiz-adv-x="417" 
d="M35 -187v107h72q18 0 26 5.5t10 19.5l2 13q3 24 -9 76l-120 512h129l67 -375l65 375h123l-139 -641q-10 -47 -33.5 -69.5t-68.5 -22.5h-124zM264 601h-109l-53 152h114z" />
    <glyph glyph-name="uni2009" unicode="&#x2009;" horiz-adv-x="46" 
 />
    <glyph glyph-name="endash" unicode="&#x2013;" horiz-adv-x="505" 
d="M46 344h413v-87h-413v87z" />
    <glyph glyph-name="emdash" unicode="&#x2014;" horiz-adv-x="764" 
d="M46 344h672v-87h-672v87z" />
    <glyph glyph-name="quoteleft" unicode="&#x2018;" horiz-adv-x="229" 
d="M80 744h83q-31 -74 -39 -141h61v-146h-141v105q0 89 36 182z" />
    <glyph glyph-name="quoteright" unicode="&#x2019;" horiz-adv-x="229" 
d="M149 457h-83q31 74 39 141h-61v146h141v-105q0 -89 -36 -182z" />
    <glyph glyph-name="quotesinglbase" unicode="&#x201a;" horiz-adv-x="229" 
d="M149 -141h-83q31 74 39 141h-61v146h141v-105q0 -89 -36 -182z" />
    <glyph glyph-name="quotedblleft" unicode="&#x201c;" horiz-adv-x="421" 
d="M272 744h83q-31 -74 -39 -141h61v-146h-141v105q0 89 36 182zM80 744h83q-31 -74 -39 -141h61v-146h-141v105q0 89 36 182z" />
    <glyph glyph-name="quotedblright" unicode="&#x201d;" horiz-adv-x="421" 
d="M341 457h-83q31 74 39 141h-61v146h141v-105q0 -89 -36 -182zM149 457h-83q31 74 39 141h-61v146h141v-105q0 -89 -36 -182z" />
    <glyph glyph-name="quotedblbase" unicode="&#x201e;" horiz-adv-x="421" 
d="M341 -141h-83q31 74 39 141h-61v146h141v-105q0 -89 -36 -182zM149 -141h-83q31 74 39 141h-61v146h141v-105q0 -89 -36 -182z" />
    <glyph glyph-name="dagger" unicode="&#x2020;" horiz-adv-x="357" 
d="M118 0v487h-83v113h83v144h121v-144h83v-113h-83v-487h-121z" />
    <glyph glyph-name="daggerdbl" unicode="&#x2021;" horiz-adv-x="367" 
d="M244 0h-121v149h-83v113h83v225h-83v113h83v144h121v-144h83v-113h-83v-225h83v-113h-83v-149z" />
    <glyph glyph-name="bullet" unicode="&#x2022;" horiz-adv-x="326" 
d="M163 207q-53 0 -88 34.5t-35 87.5t35 87.5t88 34.5t87.5 -34.5t34.5 -87.5t-34.5 -87.5t-87.5 -34.5z" />
    <glyph glyph-name="ellipsis" unicode="&#x2026;" horiz-adv-x="684" 
d="M184 154v-154h-140v154h140zM412 154v-154h-140v154h140zM640 154v-154h-140v154h140z" />
    <glyph glyph-name="perthousand" unicode="&#x2030;" horiz-adv-x="1100" 
d="M1058 128q0 -64 -34 -98t-99 -34h-13q-66 0 -100 34t-34 98v123q0 64 34 98t100 34h13q65 0 99 -34t34 -98v-123zM918 79q43 0 43 50v121q0 51 -43 51t-43 -51v-121q0 -50 43 -50zM322 494q0 -64 -34 -98t-99 -34h-13q-66 0 -100 34t-34 98v123q0 64 34 98t100 34h13
q65 0 99 -34t34 -98v-123zM522 744h86l-369 -744h-86zM182 445q43 0 43 50v121q0 51 -43 51t-43 -51v-121q0 -50 43 -50zM717 128q0 -64 -34 -98t-99 -34h-13q-66 0 -100 34t-34 98v123q0 64 34 98t100 34h13q65 0 99 -34t34 -98v-123zM577 79q43 0 43 50v121q0 51 -43 51
t-43 -51v-121q0 -50 43 -50z" />
    <glyph glyph-name="uni2032" unicode="&#x2032;" horiz-adv-x="208" 
d="M180 744l-41 -244h-111l38 244h114z" />
    <glyph glyph-name="uni2033" unicode="&#x2033;" horiz-adv-x="374" 
d="M346 744l-44 -244h-110l41 244h113zM177 744l-39 -244h-110l36 244h113z" />
    <glyph glyph-name="guilsinglleft" unicode="&#x2039;" horiz-adv-x="257" 
d="M144 286l75 -167h-105l-66 139v56l66 139h105z" />
    <glyph glyph-name="guilsinglright" unicode="&#x203a;" horiz-adv-x="257" 
d="M113 286l-75 167h105l66 -139v-56l-66 -139h-105z" />
    <glyph glyph-name="fraction" unicode="&#x2044;" horiz-adv-x="545" 
d="M444 744h87l-431 -744h-86z" />
    <glyph glyph-name="Euro" unicode="&#x20ac;" horiz-adv-x="525" 
d="M276 -9q-93 0 -137.5 50t-44.5 141v101h-70v75h70v53h-70v75h70v75q0 190 178 190h24q98 0 140 -46.5t42 -142.5v-33h-129v30q0 77 -61 77q-60 0 -60 -77v-73h170v-75h-170v-53h172v-75h-172v-97q0 -78 60 -78q61 0 61 77v54h129v-58q0 -85 -43 -137.5t-135 -52.5h-24z
" />
    <glyph glyph-name="trademark" unicode="&#x2122;" horiz-adv-x="565" 
d="M219 676h-53v-261h-83v261h-53v68h189v-68zM254 415v329h100l34 -172l34 172h95v-329h-68v205l-44 -205h-39l-45 205v-205h-67z" />
    <glyph glyph-name="onethird" unicode="&#x2153;" horiz-adv-x="703" 
d="M484 744h87l-431 -744h-86zM498 275h-84v26q0 45 22 71.5t88 26.5h10q124 0 124 -94v-16q0 -55 -46 -67q52 -14 52 -70v-54q0 -46 -30 -74.5t-92 -28.5h-16q-66 0 -91.5 26.5t-25.5 74.5v42h87v-30q0 -35 38 -35q37 0 37 35v32q0 16 -6.5 22t-23.5 6h-58v78h53
q18 0 24 6.5t6 22.5v20q0 17 -7.5 25.5t-27.5 8.5q-33 0 -33 -34v-20zM96 626h-67v71q42 0 60 11t25 37h71v-397h-89v278z" />
    <glyph glyph-name="twothirds" unicode="&#x2154;" horiz-adv-x="795" 
d="M303 348h-266v41q0 37 12.5 64.5t59.5 73.5q31 28 56 53q22 20 29 32t7 28v1q0 37 -35 37q-18 0 -25.5 -9.5t-7.5 -31.5v-34h-86v41q0 48 24.5 75.5t88.5 27.5h12q122 0 122 -101v-4q0 -35 -12.5 -57.5t-42.5 -47.5l-59 -47q-64 -50 -64 -68h100v58h87v-132zM590 275h-84
v26q0 45 22 71.5t88 26.5h10q124 0 124 -94v-16q0 -55 -46 -67q52 -14 52 -70v-54q0 -46 -30 -74.5t-92 -28.5h-16q-66 0 -91.5 26.5t-25.5 74.5v42h87v-30q0 -35 38 -35q37 0 37 35v32q0 16 -6.5 22t-23.5 6h-58v78h53q18 0 24 6.5t6 22.5v20q0 17 -7.5 25.5t-27.5 8.5
q-33 0 -33 -34v-20zM576 744h87l-431 -744h-86z" />
    <glyph glyph-name="oneeighth" unicode="&#x215b;" horiz-adv-x="710" 
d="M96 626h-67v71q42 0 60 11t25 37h71v-397h-89v278zM485 744h87l-431 -744h-86zM501 135q0 39 39 39q40 0 40 -39v-27q0 -38 -40 -38q-39 0 -39 38v27zM579 294v-17q0 -37 -38 -37q-39 0 -39 37v17q0 37 38 37q39 0 39 -37zM550 -5q121 0 121 109v25q0 59 -53 79
q18 6 33 25.5t15 53.5v18q0 94 -119 94h-14q-118 0 -118 -94v-18q0 -35 15 -54t33 -25q-53 -19 -53 -79v-25q0 -54 28 -81.5t93 -27.5h19z" />
    <glyph glyph-name="threeeighths" unicode="&#x215c;" horiz-adv-x="780" 
d="M127 623h-84v26q0 45 22 71.5t88 26.5h10q124 0 124 -94v-16q0 -55 -46 -67q52 -14 52 -70v-54q0 -46 -30 -74.5t-92 -28.5h-16q-66 0 -91.5 26.5t-25.5 74.5v42h87v-30q0 -35 38 -35q37 0 37 35v32q0 16 -6.5 22t-23.5 6h-58v78h53q18 0 24 6.5t6 22.5v20
q0 17 -7.5 25.5t-27.5 8.5q-33 0 -33 -34v-20zM571 135q0 39 39 39q40 0 40 -39v-27q0 -38 -40 -38q-39 0 -39 38v27zM649 294v-17q0 -37 -38 -37q-39 0 -39 37v17q0 37 38 37q39 0 39 -37zM620 -5q121 0 121 109v25q0 59 -53 79q18 6 33 25.5t15 53.5v18q0 94 -119 94h-14
q-118 0 -118 -94v-18q0 -35 15 -54t33 -25q-53 -19 -53 -79v-25q0 -54 28 -81.5t93 -27.5h19zM557 744h87l-431 -744h-86z" />
    <glyph glyph-name="fiveeighths" unicode="&#x215d;" horiz-adv-x="785" 
d="M576 135q0 39 39 39q40 0 40 -39v-27q0 -38 -40 -38q-39 0 -39 38v27zM654 294v-17q0 -37 -38 -37q-39 0 -39 37v17q0 37 38 37q39 0 39 -37zM625 -5q121 0 121 109v25q0 59 -53 79q18 6 33 25.5t15 53.5v18q0 94 -119 94h-14q-118 0 -118 -94v-18q0 -35 15 -54t33 -25
q-53 -19 -53 -79v-25q0 -54 28 -81.5t93 -27.5h19zM562 744h87l-431 -744h-86zM136 522h-87v222h238v-78h-151v-71q28 37 77 37h3q39 0 59 -24t20 -65v-94q0 -49 -29.5 -77.5t-91.5 -28.5h-15q-116 0 -116 97v45h90v-33q0 -33 33 -33t33 33v74q0 34 -32 34q-31 0 -31 -34v-4
z" />
    <glyph glyph-name="seveneighths" unicode="&#x215e;" horiz-adv-x="732" 
d="M508 744h87l-431 -744h-86zM523 135q0 39 39 39q40 0 40 -39v-27q0 -38 -40 -38q-39 0 -39 38v27zM601 294v-17q0 -37 -38 -37q-39 0 -39 37v17q0 37 38 37q39 0 39 -37zM572 -5q121 0 121 109v25q0 59 -53 79q18 6 33 25.5t15 53.5v18q0 94 -119 94h-14q-118 0 -118 -94
v-18q0 -35 15 -54t33 -25q-53 -19 -53 -79v-25q0 -54 28 -81.5t93 -27.5h19zM38 743h240v-69q-2 -9 -7 -24.5l-14 -45l-18 -61.5q-31 -102 -31 -174v-22h-108v20q0 37 10 69.5t38 95.5q56 127 56 139h-84v-57h-82v129z" />
    <glyph glyph-name="minus" unicode="&#x2212;" horiz-adv-x="453" 
d="M40 354h373v-94h-373v94z" />
    <glyph glyph-name="uni24C5" unicode="&#x24c5;" horiz-adv-x="685" 
d="M633 251q0 -130 -73 -196t-202 -66h-32q-129 0 -201.5 66t-72.5 196v244q0 128 72.5 194t202.5 66h30q129 0 202.5 -66.5t73.5 -193.5v-244zM328 59h28q96 0 146 48.5t50 145.5v240q0 192 -196 192h-28q-101 0 -148 -48t-47 -144v-240q0 -194 195 -194zM381 318h-62v-198
h-102v506h164q112 0 112 -112v-83q0 -113 -112 -113zM319 541v-138h31q22 0 31.5 9t9.5 32v57q0 23 -9 31.5t-32 8.5h-31z" />
    <glyph glyph-name="cent.tab" unicode="&#xe459;" 
d="M281 -76h-51v66q-172 7 -172 185v197q0 83 38 131.5t134 51.5v61h51v-61q95 -2 131.5 -46.5t36.5 -124.5v-37h-114v19q0 43 -11.5 63t-42.5 24v-359q30 5 41 24.5t11 61.5v44h116v-62q0 -164 -168 -172v-66zM176 180q0 -41 12 -61.5t42 -24.5v359q-31 -4 -42.5 -24
t-11.5 -63v-186z" />
    <glyph glyph-name="E.alt" unicode="&#xe484;" horiz-adv-x="413" 
d="M55 744h316v-116h-186v-184h177v-119h-177v-206h191v-119h-321v744z" />
    <glyph glyph-name="F.alt" unicode="&#xe485;" horiz-adv-x="401" 
d="M55 0v744h311v-116h-181v-184h174v-119h-174v-325h-130z" />
    <glyph glyph-name="J.alt" unicode="&#xe489;" horiz-adv-x="319" 
d="M25 0v122h65q23 0 31.5 10t8.5 32v580h134v-625q0 -119 -113 -119h-126z" />
    <glyph glyph-name="a.alt" unicode="&#xe4c0;" horiz-adv-x="438" 
d="M386 419v-278q0 -95 14 -134v-7h-123q-7 20 -10 62q-41 -66 -110 -66h-3q-50 0 -81.5 35t-31.5 91v62q0 52 21 81t72 52l112 52q19 10 19 32v4q0 28 -11.5 41t-39.5 13h-2q-49 0 -49 -55v-37h-115v52q0 64 35 100.5t121 36.5h16q89 0 127.5 -34t38.5 -103zM265 280
q-2 -1 -29 -17t-37 -23q-34 -23 -34 -65v-27q0 -55 47 -55q24 0 38.5 17t14.5 43v127z" />
    <glyph glyph-name="r.alt" unicode="&#xe4d1;" horiz-adv-x="356" 
d="M179 546v-78q37 82 110 82h4q21 0 37 -4v-140q-40 9 -63 9h-3q-43 0 -63 -14.5t-20 -49.5v-351h-128v546h126z" />
    <glyph glyph-name="idotaccent" horiz-adv-x="233" 
d="M180 728v-127h-127v127h127zM180 546v-546h-127v546h127z" />
    <glyph glyph-name="space_uni0326" horiz-adv-x="400" 
d="M240 -224h-73q17 38 24 74h-54v106h126v-66q0 -68 -23 -114z" />
    <glyph glyph-name="zero.num" horiz-adv-x="348" 
d="M177 343h-7q-127 0 -127 126v154q0 125 127 125h7q128 0 128 -125v-154q0 -126 -128 -126zM173 668q-38 0 -38 -47v-148q0 -48 38 -48q40 0 40 48v148q0 47 -40 47z" />
    <glyph glyph-name="one.num" horiz-adv-x="237" 
d="M96 626h-67v71q42 0 60 11t25 37h71v-397h-89v278z" />
    <glyph glyph-name="two.num" horiz-adv-x="340" 
d="M303 348h-266v41q0 37 12.5 64.5t59.5 73.5q31 28 56 53q22 20 29 32t7 28v1q0 37 -35 37q-18 0 -25.5 -9.5t-7.5 -31.5v-34h-86v41q0 48 24.5 75.5t88.5 27.5h12q122 0 122 -101v-4q0 -35 -12.5 -57.5t-42.5 -47.5l-59 -47q-64 -50 -64 -68h100v58h87v-132z" />
    <glyph glyph-name="three.num" horiz-adv-x="332" 
d="M127 623h-84v26q0 45 22 71.5t88 26.5h10q124 0 124 -94v-16q0 -55 -46 -67q52 -14 52 -70v-54q0 -46 -30 -74.5t-92 -28.5h-16q-66 0 -91.5 26.5t-25.5 74.5v42h87v-30q0 -35 38 -35q37 0 37 35v32q0 16 -6.5 22t-23.5 6h-58v78h53q18 0 24 6.5t6 22.5v20
q0 17 -7.5 25.5t-27.5 8.5q-33 0 -33 -34v-20z" />
    <glyph glyph-name="four.num" horiz-adv-x="339" 
d="M27 497q130 221 144 248h85v-236h60v-78h-60v-83h-88v83h-141v66zM168 509v126l-72 -126h72z" />
    <glyph glyph-name="five.num" horiz-adv-x="335" 
d="M136 522h-87v222h238v-78h-151v-71q28 37 77 37h3q39 0 59 -24t20 -65v-94q0 -49 -29.5 -77.5t-91.5 -28.5h-15q-116 0 -116 97v45h90v-33q0 -33 33 -33t33 33v74q0 34 -32 34q-31 0 -31 -34v-4z" />
    <glyph glyph-name="six.num" horiz-adv-x="338" 
d="M215 602h3q40 0 61 -24.5t21 -61.5v-62q0 -49 -29.5 -80t-89.5 -31h-17q-121 0 -121 113v177q0 114 114 114h16q65 0 90 -26.5t25 -78.5v-16h-91v10q0 19 -7 28.5t-25 9.5q-31 0 -31 -38v-72q25 38 81 38zM135 458q0 -39 36 -39q37 0 37 39v35q0 41 -37 41q-36 0 -36 -40
v-36z" />
    <glyph glyph-name="seven.num" horiz-adv-x="315" 
d="M38 744h240v-69q-2 -9 -7 -24.5l-14 -45l-18 -61.5q-31 -102 -31 -174v-22h-108v20q0 37 10 69.5t38 95.5q56 127 56 139h-84v-57h-82v129z" />
    <glyph glyph-name="eight.num" horiz-adv-x="339" 
d="M300 452q0 -109 -121 -109h-19q-65 0 -93 27.5t-28 81.5v25q0 60 53 79q-18 6 -33 25t-15 54v18q0 94 118 94h14q119 0 119 -94v-18q0 -34 -15 -53.5t-33 -25.5q53 -20 53 -79v-25zM208 625v17q0 37 -39 37q-38 0 -38 -37v-17q0 -37 39 -37q38 0 38 37zM169 522
q-39 0 -39 -39v-27q0 -38 39 -38q40 0 40 38v27q0 39 -40 39z" />
    <glyph glyph-name="nine.num" horiz-adv-x="338" 
d="M203 632q0 40 -37 40q-36 0 -36 -40v-35q0 -41 36 -41q37 0 37 40v36zM126 488h-3q-43 0 -64 26t-21 67v57q0 49 28.5 79t90.5 30h16q122 0 122 -113v-177q0 -114 -114 -114h-17q-64 0 -89 26t-25 77v18h91v-10q0 -19 6.5 -28t24.5 -9q32 0 32 37v72q-28 -38 -78 -38z
" />
    <glyph glyph-name="zero.den" horiz-adv-x="348" 
d="M177 -5h-7q-127 0 -127 126v154q0 125 127 125h7q128 0 128 -125v-154q0 -126 -128 -126zM173 320q-38 0 -38 -47v-148q0 -48 38 -48q40 0 40 48v148q0 47 -40 47z" />
    <glyph glyph-name="one.den" horiz-adv-x="237" 
d="M96 278h-67v71q42 0 60 11t25 37h71v-397h-89v278z" />
    <glyph glyph-name="two.den" horiz-adv-x="340" 
d="M166 330q-18 0 -25.5 -9.5t-7.5 -31.5v-34h-86v41q0 48 24.5 75.5t88.5 27.5h12q122 0 122 -101v-4q0 -35 -12.5 -57.5t-42.5 -47.5l-59 -47q-64 -50 -64 -68h100v58h87v-132h-266v41q0 37 12.5 64.5t59.5 73.5l56 53q22 20 29 32t7 28v1q0 37 -35 37z" />
    <glyph glyph-name="three.den" horiz-adv-x="332" 
d="M127 275h-84v26q0 45 22 71.5t88 26.5h10q124 0 124 -94v-16q0 -55 -46 -67q52 -14 52 -70v-54q0 -46 -30 -74.5t-92 -28.5h-16q-66 0 -91.5 26.5t-25.5 74.5v42h87v-30q0 -35 38 -35q37 0 37 35v32q0 16 -6.5 22t-23.5 6h-58v78h53q18 0 24 6.5t6 22.5v20
q0 17 -7.5 25.5t-27.5 8.5q-33 0 -33 -34v-20z" />
    <glyph glyph-name="four.den" horiz-adv-x="339" 
d="M27 149q130 221 144 248h85v-236h60v-78h-60v-83h-88v83h-141v66zM168 161v126l-72 -126h72z" />
    <glyph glyph-name="five.den" horiz-adv-x="335" 
d="M136 174h-87v222h238v-78h-151v-71q28 37 77 37h3q39 0 59 -24t20 -65v-94q0 -49 -29.5 -77.5t-91.5 -28.5h-15q-116 0 -116 97v45h90v-33q0 -33 33 -33t33 33v74q0 34 -32 34q-31 0 -31 -34v-4z" />
    <glyph glyph-name="six.den" horiz-adv-x="338" 
d="M215 254h3q40 0 61 -24.5t21 -61.5v-62q0 -49 -29.5 -80t-89.5 -31h-17q-121 0 -121 113v177q0 114 114 114h16q65 0 90 -26.5t25 -78.5v-16h-91v10q0 19 -7 28.5t-25 9.5q-31 0 -31 -38v-72q25 38 81 38zM135 110q0 -39 36 -39q37 0 37 39v35q0 41 -37 41q-36 0 -36 -40
v-36z" />
    <glyph glyph-name="seven.den" horiz-adv-x="315" 
d="M38 396h240v-69q-2 -9 -7 -24.5l-14 -45l-18 -61.5q-31 -102 -31 -174v-22h-108v20q0 37 10 69.5t38 95.5q56 127 56 139h-84v-57h-82v129z" />
    <glyph glyph-name="eight.den" horiz-adv-x="339" 
d="M130 135v-27q0 -38 39 -38q40 0 40 38v27q0 39 -40 39q-39 0 -39 -39zM208 277v17q0 37 -39 37q-38 0 -38 -37v-17q0 -37 39 -37q38 0 38 37zM179 -5h-19q-65 0 -93 27.5t-28 81.5v25q0 60 53 79q-18 6 -33 25t-15 54v18q0 94 118 94h14q119 0 119 -94v-18
q0 -34 -15 -53.5t-33 -25.5q53 -20 53 -79v-25q0 -109 -121 -109z" />
    <glyph glyph-name="nine.den" horiz-adv-x="338" 
d="M203 284q0 40 -37 40q-36 0 -36 -40v-35q0 -41 36 -41q37 0 37 40v36zM126 140h-3q-43 0 -64 26t-21 67v57q0 49 28.5 79t90.5 30h16q122 0 122 -113v-177q0 -114 -114 -114h-17q-64 0 -89 26t-25 77v18h91v-10q0 -19 6.5 -28t24.5 -9q32 0 32 37v72q-28 -38 -78 -38z
" />
    <glyph glyph-name="zero.sub" horiz-adv-x="383" 
d="M195 -133h-8q-140 0 -140 139v169q0 138 140 138h8q141 0 141 -138v-169q0 -139 -141 -139zM191 225q-42 0 -42 -52v-163q0 -53 42 -53q44 0 44 53v163q0 52 -44 52z" />
    <glyph glyph-name="one.sub" horiz-adv-x="261" 
d="M106 179h-74v78q46 0 66 12.5t28 40.5h78v-437h-98v306z" />
    <glyph glyph-name="two.sub" horiz-adv-x="375" 
d="M334 -127h-293v45q0 41 13.5 71.5t65.5 80.5l62 58q24 22 31.5 35t7.5 31v1q0 21 -8.5 31t-29.5 10q-20 0 -28 -10.5t-8 -34.5v-38h-95v46q0 52 27 82.5t97 30.5h14q134 0 134 -111v-5q0 -39 -13.5 -63t-47.5 -52l-65 -52q-70 -55 -70 -75h110v64h96v-145z" />
    <glyph glyph-name="three.sub" horiz-adv-x="366" 
d="M140 175h-93v29q0 49 24.5 78.5t96.5 29.5h12q74 0 105 -27t31 -77v-17q0 -59 -51 -74q58 -14 58 -77v-59q0 -51 -33.5 -82.5t-101.5 -31.5h-17q-72 0 -100.5 29.5t-28.5 81.5v47h96v-33q0 -39 42 -39q40 0 40 39v35q0 18 -7 24.5t-26 6.5h-64v86h59q20 0 26.5 7.5
t6.5 23.5v22q0 38 -39 38q-36 0 -36 -38v-22z" />
    <glyph glyph-name="four.sub" horiz-adv-x="373" 
d="M30 37q156 268 158 273h94v-260h66v-86h-66v-91h-97v91h-155v73zM185 50v138l-79 -138h79z" />
    <glyph glyph-name="five.sub" horiz-adv-x="369" 
d="M150 65h-96v244h262v-86h-166v-78q27 41 85 41h3q43 0 65 -26.5t22 -71.5v-104q0 -53 -33 -85t-100 -32h-17q-128 0 -128 107v50h99v-37q0 -36 37 -36q36 0 36 36v82q0 37 -35 37q-34 0 -34 -37v-4z" />
    <glyph glyph-name="six.sub" horiz-adv-x="372" 
d="M237 152h3q45 0 67.5 -27t22.5 -67v-69q0 -53 -32.5 -87.5t-98.5 -34.5h-18q-134 0 -134 125v194q0 126 126 126h18q71 0 98.5 -29.5t27.5 -86.5v-17h-100v11q0 42 -35 42q-34 0 -34 -42v-80q5 8 13 16t29 17t47 9zM149 -6q0 -43 39 -43q41 0 41 43v38q0 45 -41 45
q-39 0 -39 -44v-39z" />
    <glyph glyph-name="seven.sub" horiz-adv-x="347" 
d="M42 309h264v-76q-2 -9 -7.5 -26.5l-15.5 -49.5t-20 -68q-34 -114 -34 -192v-24h-119v22q0 40 11 75.5t42 106.5q62 141 62 153h-93v-63h-90v142z" />
    <glyph glyph-name="eight.sub" horiz-adv-x="373" 
d="M330 -13q0 -59 -31 -89.5t-102 -30.5h-21q-71 0 -102 30.5t-31 89.5v28q0 64 58 87q-20 6 -36.5 27t-16.5 60v19q0 104 130 104h16q131 0 131 -104v-19q0 -39 -16.5 -60t-36.5 -27q58 -23 58 -87v-28zM229 178v18q0 41 -43 41q-42 0 -42 -41v-18q0 -41 43 -41q42 0 42 41
zM186 64q-43 0 -43 -43v-29q0 -42 43 -42q44 0 44 42v29q0 43 -44 43z" />
    <glyph glyph-name="nine.sub" horiz-adv-x="372" 
d="M224 185q0 44 -41 44q-40 0 -40 -44v-38q0 -45 40 -45q41 0 41 44v39zM139 27h-4q-47 0 -70 28.5t-23 73.5v63q0 54 31.5 87t99.5 33h18q134 0 134 -124v-195q0 -126 -126 -126h-18q-71 0 -98.5 28.5t-27.5 85.5v19h100v-11q0 -21 7.5 -30.5t26.5 -9.5q20 0 28 9.5
t8 30.5v80q-33 -42 -86 -42z" />
    <glyph glyph-name="zero.sup" horiz-adv-x="383" 
d="M195 315h-8q-140 0 -140 139v169q0 138 140 138h8q141 0 141 -138v-169q0 -139 -141 -139zM191 673q-42 0 -42 -52v-163q0 -53 42 -53q44 0 44 53v163q0 52 -44 52z" />
    <glyph glyph-name="one.sup" horiz-adv-x="261" 
d="M106 627h-74v78q46 0 66 12.5t28 40.5h78v-437h-98v306z" />
    <glyph glyph-name="two.sup" horiz-adv-x="375" 
d="M334 321h-293v45q0 41 13.5 71.5t65.5 80.5l62 58q24 22 31.5 35t7.5 31v1q0 21 -8.5 31t-29.5 10q-20 0 -28 -10.5t-8 -34.5v-38h-95v46q0 52 27 82.5t97 30.5h14q134 0 134 -111v-5q0 -39 -13.5 -63t-47.5 -52l-65 -52q-70 -55 -70 -75h110v64h96v-145z" />
    <glyph glyph-name="three.sup" horiz-adv-x="366" 
d="M140 623h-93v29q0 49 24.5 78.5t96.5 29.5h12q74 0 105 -27t31 -77v-17q0 -59 -51 -74q58 -14 58 -77v-59q0 -51 -33.5 -82.5t-101.5 -31.5h-17q-72 0 -100.5 29.5t-28.5 81.5v47h96v-33q0 -39 42 -39q40 0 40 39v35q0 18 -7 24.5t-26 6.5h-64v86h59q20 0 26.5 7.5
t6.5 23.5v22q0 38 -39 38q-36 0 -36 -38v-22z" />
    <glyph glyph-name="four.sup" horiz-adv-x="373" 
d="M30 485q156 268 158 273h94v-260h66v-86h-66v-91h-97v91h-155v73zM185 498v138l-79 -138h79z" />
    <glyph glyph-name="five.sup" horiz-adv-x="369" 
d="M150 513h-96v244h262v-86h-166v-78q27 41 85 41h3q43 0 65 -26.5t22 -71.5v-104q0 -53 -33 -85t-100 -32h-17q-128 0 -128 107v50h99v-37q0 -36 37 -36q36 0 36 36v82q0 37 -35 37q-34 0 -34 -37v-4z" />
    <glyph glyph-name="six.sup" horiz-adv-x="372" 
d="M237 600h3q45 0 67.5 -27t22.5 -67v-69q0 -53 -32.5 -87.5t-98.5 -34.5h-18q-134 0 -134 125v194q0 126 126 126h18q71 0 98.5 -29.5t27.5 -86.5v-17h-100v11q0 42 -35 42q-34 0 -34 -42v-80q5 8 13 16t29 17t47 9zM149 442q0 -43 39 -43q41 0 41 43v38q0 45 -41 45
q-39 0 -39 -44v-39z" />
    <glyph glyph-name="seven.sup" horiz-adv-x="347" 
d="M42 757h264v-76q-2 -9 -7.5 -26.5l-15.5 -49.5t-20 -68q-34 -114 -34 -192v-24h-119v22q0 40 11 75.5t42 106.5q62 141 62 153h-93v-63h-90v142z" />
    <glyph glyph-name="eight.sup" horiz-adv-x="373" 
d="M330 435q0 -59 -31 -89.5t-102 -30.5h-21q-71 0 -102 30.5t-31 89.5v28q0 64 58 87q-20 6 -36.5 27t-16.5 60v19q0 104 130 104h16q131 0 131 -104v-19q0 -39 -16.5 -60t-36.5 -27q58 -23 58 -87v-28zM229 626v18q0 41 -43 41q-42 0 -42 -41v-18q0 -41 43 -41q42 0 42 41
zM186 512q-43 0 -43 -43v-29q0 -42 43 -42q44 0 44 42v29q0 43 -44 43z" />
    <glyph glyph-name="nine.sup" horiz-adv-x="372" 
d="M224 633q0 44 -41 44q-40 0 -40 -44v-38q0 -45 40 -45q41 0 41 44v39zM139 475h-4q-47 0 -70 28.5t-23 73.5v63q0 54 31.5 87t99.5 33h18q134 0 134 -124v-195q0 -126 -126 -126h-18q-71 0 -98.5 28.5t-27.5 85.5v19h100v-11q0 -21 7.5 -30.5t26.5 -9.5q20 0 28 9.5
t8 30.5v80q-33 -42 -86 -42z" />
    <glyph glyph-name="space.tab" horiz-adv-x="250" 
 />
    <glyph glyph-name="comma.tab" horiz-adv-x="250" 
d="M157 -140h-83q33 66 41 140h-60v154h140v-118q0 -97 -38 -176z" />
    <glyph glyph-name="period.tab" horiz-adv-x="250" 
d="M195 154v-154h-140v154h140z" />
    <glyph glyph-name="colon.tab" horiz-adv-x="250" 
d="M195 452v-154h-140v154h140zM195 154v-154h-140v154h140z" />
    <glyph glyph-name="semicolon.tab" horiz-adv-x="250" 
d="M157 -140h-83q33 66 41 140h-60v154h140v-118q0 -97 -38 -176zM195 452v-154h-140v154h140z" />
    <glyph glyph-name="zero.lintab" 
d="M447 553v-360q0 -202 -186 -202h-20q-188 0 -188 202v359q0 200 187 200h20q187 0 187 -199zM313 192v359q0 85 -63 85t-63 -85v-359q0 -84 64 -84q62 0 62 84z" />
    <glyph glyph-name="one.lintab" 
d="M469 0h-421v113h145v446h-125v96q79 1 109.5 19t43.5 70h103v-631h145v-113z" />
    <glyph glyph-name="two.lintab" 
d="M457 0h-419v56q0 68 26.5 125.5t96.5 143.5l86 102q28 34 39.5 49.5t20.5 38.5t9 50v6q0 70 -65 70q-64 0 -64 -70v-85h-125v93q1 84 43.5 128t135.5 44h20q190 0 190 -173v-12q0 -62 -23 -105.5t-74 -97.5l-91 -94q-109 -117 -109 -157h177v132h126v-244z" />
    <glyph glyph-name="three.lintab" 
d="M178 520h-123v55q0 86 39.5 131t142.5 45h12q107 0 149 -45t42 -131v-35q0 -102 -72 -130q81 -20 81 -130v-105q0 -82 -45 -133t-147 -51h-21q-105 0 -145.5 49t-40.5 132v98h126v-84q0 -38 14.5 -58.5t56.5 -20.5q39 0 53.5 21t14.5 58v90q0 37 -12 51t-47 14h-85v116
h81q33 0 44.5 12t11.5 48v47q0 37 -14.5 56t-50.5 19t-50.5 -18.5t-14.5 -56.5v-44z" />
    <glyph glyph-name="four.lintab" 
d="M22 273q160 320 230 474h124v-464h104v-105h-104v-178h-126v178h-228v95zM250 283v257l-127 -257h127z" />
    <glyph glyph-name="five.lintab" 
d="M184 340h-125v404h382v-119h-257v-160q43 73 129 73h5q63 0 97.5 -40.5t34.5 -102.5v-222q0 -75 -45.5 -128.5t-145.5 -53.5h-23q-101 0 -143 47.5t-42 121.5v105h126v-80q0 -78 69 -78q70 0 70 78v159q0 80 -66 80q-38 0 -52 -21t-14 -59v-4z" />
    <glyph glyph-name="six.lintab" 
d="M318 475h5q59 0 94.5 -39.5t35.5 -98.5v-166q0 -81 -47.5 -130.5t-140.5 -49.5h-24q-188 0 -188 180v401q0 179 181 179h24q101 0 140.5 -45.5t39.5 -128.5v-46h-132v33q0 37 -13.5 54.5t-46.5 17.5q-60 0 -60 -72v-152q13 19 49.5 41t82.5 22zM186 179q0 -73 67 -73
t67 73v113q0 73 -67 73t-67 -73v-113z" />
    <glyph glyph-name="seven.lintab" 
d="M45 744h412v-110q-2 -7 -15.5 -47t-32.5 -101.5t-36 -122.5q-51 -186 -51 -320v-43h-153v35q0 74 21 152t70 209q6 17 16 42.5t15 39.5l12.5 34l11.5 31l9 25.5t7.5 23t5 18t3.5 16t1 11.5h-170v-130h-126v237z" />
    <glyph glyph-name="eight.lintab" 
d="M442 586v-57q0 -41 -15.5 -71t-29.5 -40.5t-29 -16.5q84 -32 84 -131v-106q0 -78 -46.5 -125.5t-143.5 -47.5h-26q-188 0 -188 173v106q0 98 81 131q-15 6 -29 16.5t-28.5 40.5t-14.5 71v57q0 80 42.5 122.5t140.5 42.5h20q182 0 182 -165zM317 526v47q0 71 -67 71
t-67 -71v-46q0 -35 17.5 -54.5t50.5 -19.5q66 0 66 73zM319 181v81q0 76 -69 76t-69 -76v-81q0 -76 70 -76q68 0 68 76z" />
    <glyph glyph-name="nine.lintab" 
d="M314 563q0 73 -67 73t-67 -73v-113q0 -73 67 -73t67 73v113zM186 267h-5q-61 0 -97.5 41.5t-36.5 105.5v157q0 180 188 180h24q98 0 143 -48.5t45 -131.5v-401q0 -179 -182 -179h-24q-104 0 -141.5 43.5t-37.5 128.5v48h132v-33q0 -37 13.5 -54.5t46.5 -17.5q60 0 60 72
v152q-8 -11 -21.5 -23.5t-43.5 -26t-63 -13.5z" />
    <glyph glyph-name="Euro.lintab" 
d="M261 -9q-92 0 -136 50.5t-44 140.5v101h-67v75h67v53h-67v75h67v75q0 190 176 190h24q94 0 136 -46.5t42 -142.5v-33h-128v32q0 38 -13.5 56.5t-45.5 18.5q-58 0 -58 -75v-75h169v-75h-169v-53h171v-75h-171v-100q0 -75 58 -75q59 0 59 74v57h128v-58q0 -85 -42.5 -137.5
t-131.5 -52.5h-24z" />
    <glyph glyph-name="yen.lintab" 
d="M189 0v215h-139v75h139v53h-139v75h115l-126 326h131l86 -261l85 261h118l-117 -326h117v-75h-139v-53h141v-75h-141v-215h-131z" />
    <glyph glyph-name="sterling.lintab" 
d="M465 241v-241h-439v68q39 20 67.5 58.5t28.5 97.5q0 25 -8 97h-88v97h75q-9 77 -9 127v39q0 81 38 124t127 43h22q88 0 123 -41.5t35 -116.5v-91h-123v78q0 32 -10.5 47t-35.5 15q-26 0 -36 -15t-10 -47v-49q0 -53 5 -113h146v-97h-138q4 -50 4 -66q0 -101 -62 -148h166
v134h122z" />
    <glyph glyph-name="dollar.lintab" 
d="M168 581q0 -27 13 -48t44 -47v164q-31 -4 -44 -20t-13 -46v-3zM337 177q0 35 -13 59t-48 53v-189q61 9 61 73v4zM276 -75h-51v67q-183 6 -183 180v97h124v-88q0 -71 59 -81v229l-78 59q-105 80 -105 188v11q0 74 48.5 117.5t134.5 46.5v61h51v-61q177 -4 177 -167v-72
h-120v57q0 37 -12.5 56t-44.5 24v-203l84 -67q56 -44 81 -90t25 -106v-11q0 -79 -49.5 -127.5t-140.5 -52.5v-67z" />
    <glyph glyph-name="greater.lintab" 
d="M89 120v97l225 88l-225 87v94l327 -135v-96z" />
    <glyph glyph-name="less.lintab" 
d="M411 120l-327 135v96l327 135v-96l-225 -87l225 -88v-95z" />
    <glyph glyph-name="plus.lintab" 
d="M441 261h-141v-153h-100v153h-141v90h141v152h100v-152h141v-90z" />
    <glyph glyph-name="minus.lintab" 
d="M64 353h373v-94h-373v94z" />
    <glyph glyph-name="multiply.lintab" 
d="M366 121l-116 116l-114 -116l-64 60l115 119l-116 116l64 66l115 -117l113 117l65 -62l-115 -118l116 -118z" />
    <glyph glyph-name="divide.lintab" 
d="M315 538v-127h-129v127h129zM61 353h379v-94h-379v94zM315 197v-128h-129v128h129z" />
    <glyph glyph-name="equal.lintab" 
d="M64 417h373v-86h-373v86zM64 260h373v-86h-373v86z" />
    <glyph glyph-name="percent.lintab" 
d="M241 554q0 -111 -104 -111h-11q-102 0 -102 111v84q0 111 102 111h11q104 0 104 -111v-84zM396 744h75l-368 -744h-74zM133 516q29 0 29 39v82q0 40 -29 40t-29 -40v-82q0 -39 29 -39zM476 106q0 -111 -104 -111h-11q-102 0 -102 111v84q0 111 102 111h11q104 0 104 -111
v-84zM339 107q0 -39 29 -39t29 39v82q0 40 -29 40t-29 -40v-82z" />
    <glyph glyph-name="perthousand.lintab" 
d="M217 561q0 -40 -21 -65t-67 -25h-10q-87 0 -87 90v99q0 89 87 89h10q46 0 67 -24.5t21 -64.5v-99zM103 655v-90q0 -30 22 -30t22 30v90q0 31 -22 31t-22 -31zM376 585v-80l-352 -257v78zM249 85q0 -40 -21 -65t-67 -25h-10q-87 0 -87 90v99q0 89 87 89h10q46 0 67 -24.5
t21 -64.5v-99zM468 184v-99q0 -40 -21 -65t-67 -25h-10q-87 0 -87 90v99q0 89 87 89h10q46 0 67 -24.5t21 -64.5zM135 89q0 -30 22 -30t22 30v90q0 31 -22 31t-22 -31v-90zM354 89q0 -30 22 -30t22 30v90q0 31 -22 31t-22 -31v-90z" />
    <glyph glyph-name="IJ.alt" horiz-adv-x="562" 
d="M188 744v-744h-133v744h133zM268 0v122h65q23 0 31.5 10t8.5 32v580h134v-625q0 -119 -113 -119h-126z" />
    <glyph glyph-name="a.alt2" horiz-adv-x="458" 
d="M226 96q52 0 52 68v218q0 68 -52 68q-50 0 -50 -68v-218q0 -68 50 -68zM278 546h127v-546h-127v62q-12 -26 -38.5 -46.5t-67.5 -20.5h-2q-56 0 -89 38.5t-33 102.5v280q0 61 30.5 97.5t85.5 36.5h3q73 0 111 -59v55z" />
    <glyph glyph-name="Eacute.alt" horiz-adv-x="413" 
d="M55 744h316v-116h-186v-184h177v-119h-177v-206h191v-119h-321v744zM157 792l47 127h116l-51 -127h-112z" />
    <glyph glyph-name="Ebreve.alt" horiz-adv-x="413" 
d="M55 744h316v-116h-186v-184h177v-119h-177v-206h191v-119h-321v744zM212 789q-121 0 -121 117v7h91v-5q0 -41 31 -41t31 41v5h91v-7q0 -117 -121 -117h-2z" />
    <glyph glyph-name="Ecaron.alt" horiz-adv-x="413" 
d="M55 744h316v-116h-186v-184h177v-119h-177v-206h191v-119h-321v744zM148 792l-77 127h104l38 -66l38 66h103l-77 -127h-129z" />
    <glyph glyph-name="Ecircumflex.alt" horiz-adv-x="413" 
d="M55 744h316v-116h-186v-184h177v-119h-177v-206h191v-119h-321v744zM277 919l78 -129h-104l-38 66l-38 -66h-103l78 129h127z" />
    <glyph glyph-name="Edieresis.alt" horiz-adv-x="413" 
d="M55 744h316v-116h-186v-184h177v-119h-177v-206h191v-119h-321v744zM352 908v-116h-117v116h117zM193 908v-116h-118v116h118z" />
    <glyph glyph-name="Edotaccent.alt" horiz-adv-x="413" 
d="M55 744h316v-116h-186v-184h177v-119h-177v-206h191v-119h-321v744zM277 919v-127h-128v127h128z" />
    <glyph glyph-name="Egrave.alt" horiz-adv-x="413" 
d="M55 744h316v-116h-186v-184h177v-119h-177v-206h191v-119h-321v744zM270 792h-112l-51 127h116z" />
    <glyph glyph-name="Emacron.alt" horiz-adv-x="413" 
d="M55 744h316v-116h-186v-184h177v-119h-177v-206h191v-119h-321v744zM100 804v92h226v-92h-226z" />
    <glyph glyph-name="Eogonek.alt" horiz-adv-x="413" 
d="M169 -120v5q0 30 21.5 56.5t66.5 58.5h-202v744h316v-116h-186v-184h177v-119h-177v-206h191v-119h-58q-45 -60 -45 -84v-2q0 -25 32 -25h25v-76h-65q-96 0 -96 67z" />
    <glyph glyph-name="Jcircumflex.alt" horiz-adv-x="319" 
d="M25 0v122h65q23 0 31.5 10t8.5 32v580h134v-625q0 -119 -113 -119h-126zM259 919l78 -129h-104l-38 66l-38 -66h-103l78 129h127z" />
    <glyph glyph-name="aacute.alt" horiz-adv-x="438" 
d="M386 419v-278q0 -95 14 -134v-7h-123q-7 20 -10 62q-41 -66 -110 -66h-3q-50 0 -81.5 35t-31.5 91v62q0 52 21 81t72 52l112 52q19 10 19 32v4q0 28 -11.5 41t-39.5 13h-2q-49 0 -49 -55v-37h-115v52q0 64 35 100.5t121 36.5h16q89 0 127.5 -34t38.5 -103zM156 601
l48 152h114l-53 -152h-109zM265 280q-2 -1 -29 -17t-37 -23q-34 -23 -34 -65v-27q0 -55 47 -55q24 0 38.5 17t14.5 43v127z" />
    <glyph glyph-name="aacute.alt2" horiz-adv-x="458" 
d="M226 96q52 0 52 68v218q0 68 -52 68q-50 0 -50 -68v-218q0 -68 50 -68zM278 546h127v-546h-127v62q-12 -26 -38.5 -46.5t-67.5 -20.5h-2q-56 0 -89 38.5t-33 102.5v280q0 61 30.5 97.5t85.5 36.5h3q73 0 111 -59v55zM162 601l48 152h114l-53 -152h-109z" />
    <glyph glyph-name="abreve.alt" horiz-adv-x="438" 
d="M386 419v-278q0 -95 14 -134v-7h-123q-7 20 -10 62q-41 -66 -110 -66h-3q-50 0 -81.5 35t-31.5 91v62q0 52 21 81t72 52l112 52q19 10 19 32v4q0 28 -11.5 41t-39.5 13h-2q-49 0 -49 -55v-37h-115v52q0 64 35 100.5t121 36.5h16q89 0 127.5 -34t38.5 -103zM213 598
q-120 0 -120 117v13h91v-11q0 -41 30 -41t30 41v11h91v-13q0 -117 -120 -117h-2zM265 280q-2 -1 -29 -17t-37 -23q-34 -23 -34 -65v-27q0 -55 47 -55q24 0 38.5 17t14.5 43v127z" />
    <glyph glyph-name="abreve.alt2" horiz-adv-x="458" 
d="M226 96q52 0 52 68v218q0 68 -52 68q-50 0 -50 -68v-218q0 -68 50 -68zM278 546h127v-546h-127v62q-12 -26 -38.5 -46.5t-67.5 -20.5h-2q-56 0 -89 38.5t-33 102.5v280q0 61 30.5 97.5t85.5 36.5h3q73 0 111 -59v55zM221 598q-120 0 -120 117v13h91v-11q0 -41 30 -41
t30 41v11h91v-13q0 -117 -120 -117h-2z" />
    <glyph glyph-name="acircumflex.alt" horiz-adv-x="438" 
d="M386 419v-278q0 -95 14 -134v-7h-123q-7 20 -10 62q-41 -66 -110 -66h-3q-50 0 -81.5 35t-31.5 91v62q0 52 21 81t72 52l112 52q19 10 19 32v4q0 28 -11.5 41t-39.5 13h-2q-49 0 -49 -55v-37h-115v52q0 64 35 100.5t121 36.5h16q89 0 127.5 -34t38.5 -103zM273 753
l73 -152h-97l-38 86l-38 -86h-96l73 152h123zM265 280q-2 -1 -29 -17t-37 -23q-34 -23 -34 -65v-27q0 -55 47 -55q24 0 38.5 17t14.5 43v127z" />
    <glyph glyph-name="acircumflex.alt2" horiz-adv-x="458" 
d="M226 96q52 0 52 68v218q0 68 -52 68q-50 0 -50 -68v-218q0 -68 50 -68zM278 546h127v-546h-127v62q-12 -26 -38.5 -46.5t-67.5 -20.5h-2q-56 0 -89 38.5t-33 102.5v280q0 61 30.5 97.5t85.5 36.5h3q73 0 111 -59v55zM284 753l73 -152h-97l-38 86l-38 -86h-96l73 152h123z
" />
    <glyph glyph-name="adieresis.alt" horiz-adv-x="438" 
d="M386 419v-278q0 -95 14 -134v-7h-123q-7 20 -10 62q-41 -66 -110 -66h-3q-50 0 -81.5 35t-31.5 91v62q0 52 21 81t72 52l112 52q19 10 19 32v4q0 28 -11.5 41t-39.5 13h-2q-49 0 -49 -55v-37h-115v52q0 64 35 100.5t121 36.5h16q89 0 127.5 -34t38.5 -103zM265 280
q-2 -1 -29 -17t-37 -23q-34 -23 -34 -65v-27q0 -55 47 -55q24 0 38.5 17t14.5 43v127zM196 717v-116h-117v116h117zM352 717v-116h-116v116h116z" />
    <glyph glyph-name="adieresis.alt2" horiz-adv-x="458" 
d="M226 96q52 0 52 68v218q0 68 -52 68q-50 0 -50 -68v-218q0 -68 50 -68zM278 546h127v-546h-127v62q-12 -26 -38.5 -46.5t-67.5 -20.5h-2q-56 0 -89 38.5t-33 102.5v280q0 61 30.5 97.5t85.5 36.5h3q73 0 111 -59v55zM361 717v-116h-116v116h116zM205 717v-116h-117v116
h117z" />
    <glyph glyph-name="agrave.alt" horiz-adv-x="438" 
d="M386 419v-278q0 -95 14 -134v-7h-123q-7 20 -10 62q-41 -66 -110 -66h-3q-50 0 -81.5 35t-31.5 91v62q0 52 21 81t72 52l112 52q19 10 19 32v4q0 28 -11.5 41t-39.5 13h-2q-49 0 -49 -55v-37h-115v52q0 64 35 100.5t121 36.5h16q89 0 127.5 -34t38.5 -103zM266 601h-109
l-53 152h114zM265 280q-2 -1 -29 -17t-37 -23q-34 -23 -34 -65v-27q0 -55 47 -55q24 0 38.5 17t14.5 43v127z" />
    <glyph glyph-name="agrave.alt2" horiz-adv-x="458" 
d="M226 96q52 0 52 68v218q0 68 -52 68q-50 0 -50 -68v-218q0 -68 50 -68zM278 546h127v-546h-127v62q-12 -26 -38.5 -46.5t-67.5 -20.5h-2q-56 0 -89 38.5t-33 102.5v280q0 61 30.5 97.5t85.5 36.5h3q73 0 111 -59v55zM278 601h-109l-53 152h114z" />
    <glyph glyph-name="amacron.alt" horiz-adv-x="438" 
d="M386 419v-278q0 -95 14 -134v-7h-123q-7 20 -10 62q-41 -66 -110 -66h-3q-50 0 -81.5 35t-31.5 91v62q0 52 21 81t72 52l112 52q19 10 19 32v4q0 28 -11.5 41t-39.5 13h-2q-49 0 -49 -55v-37h-115v52q0 64 35 100.5t121 36.5h16q89 0 127.5 -34t38.5 -103zM102 615v92
h226v-92h-226zM265 280q-2 -1 -29 -17t-37 -23q-34 -23 -34 -65v-27q0 -55 47 -55q24 0 38.5 17t14.5 43v127z" />
    <glyph glyph-name="amacron.alt2" horiz-adv-x="458" 
d="M226 96q52 0 52 68v218q0 68 -52 68q-50 0 -50 -68v-218q0 -68 50 -68zM278 546h127v-546h-127v62q-12 -26 -38.5 -46.5t-67.5 -20.5h-2q-56 0 -89 38.5t-33 102.5v280q0 61 30.5 97.5t85.5 36.5h3q73 0 111 -59v55zM111 615v92h226v-92h-226z" />
    <glyph glyph-name="aogonek.alt" horiz-adv-x="438" 
d="M251 -120v5q0 30 21.5 56.5t66.5 58.5h-62q-7 20 -10 62q-41 -66 -110 -66h-3q-50 0 -81.5 35t-31.5 91v62q0 52 21 81t72 52l112 52q19 10 19 32v4q0 28 -11.5 41t-39.5 13h-2q-49 0 -49 -55v-37h-115v52q0 64 35 100.5t121 36.5h16q89 0 127.5 -34t38.5 -103v-278
q0 -95 14 -134v-7q-45 -60 -45 -84v-2q0 -25 32 -25h25v-76h-65q-96 0 -96 67zM265 280q-2 -1 -29 -17t-37 -23q-34 -23 -34 -65v-27q0 -55 47 -55q24 0 38.5 17t14.5 43v127z" />
    <glyph glyph-name="aogonek.alt2" horiz-adv-x="458" 
d="M256 -120v5q0 30 21.5 56.5t66.5 58.5h-66v62q-12 -26 -38.5 -46.5t-67.5 -20.5h-2q-56 0 -89 38.5t-33 102.5v280q0 61 30.5 97.5t85.5 36.5h3q73 0 111 -59v55h127v-546q-45 -60 -45 -84v-2q0 -25 32 -25h25v-76h-65q-96 0 -96 67zM226 96q52 0 52 68v218q0 68 -52 68
q-50 0 -50 -68v-218q0 -68 50 -68z" />
    <glyph glyph-name="aring.alt" horiz-adv-x="438" 
d="M386 419v-278q0 -95 14 -134v-7h-123q-7 20 -10 62q-41 -66 -110 -66h-3q-50 0 -81.5 35t-31.5 91v62q0 52 21 81t72 52l112 52q19 10 19 32v4q0 28 -11.5 41t-39.5 13h-2q-49 0 -49 -55v-37h-115v52q0 64 35 100.5t121 36.5h16q89 0 127.5 -34t38.5 -103zM213 597
q-44 0 -70.5 25t-26.5 66t26.5 66t70.5 25t70.5 -25t26.5 -66t-26.5 -66t-70.5 -25zM265 280q-2 -1 -29 -17t-37 -23q-34 -23 -34 -65v-27q0 -55 47 -55q24 0 38.5 17t14.5 43v127zM213 648q18 0 29 11t11 29t-11 29t-29 11t-28.5 -11t-10.5 -29t10.5 -29t28.5 -11z" />
    <glyph glyph-name="aring.alt2" horiz-adv-x="458" 
d="M226 96q52 0 52 68v218q0 68 -52 68q-50 0 -50 -68v-218q0 -68 50 -68zM278 546h127v-546h-127v62q-12 -26 -38.5 -46.5t-67.5 -20.5h-2q-56 0 -89 38.5t-33 102.5v280q0 61 30.5 97.5t85.5 36.5h3q73 0 111 -59v55zM222 597q-44 0 -70.5 25t-26.5 66t26.5 66t70.5 25
t70.5 -25t26.5 -66t-26.5 -66t-70.5 -25zM222 648q18 0 29 11t11 29t-11 29t-29 11t-28.5 -11t-10.5 -29t10.5 -29t28.5 -11z" />
    <glyph glyph-name="aringacute.alt" horiz-adv-x="438" 
d="M386 419v-278q0 -95 14 -134v-7h-123q-7 20 -10 62q-41 -66 -110 -66h-3q-50 0 -81.5 35t-31.5 91v62q0 52 21 81t72 52l112 52q19 10 19 32v4q0 28 -11.5 41t-39.5 13h-2q-49 0 -49 -55v-37h-115v52q0 64 35 100.5t121 36.5h16q89 0 127.5 -34t38.5 -103zM213 597
q-44 0 -70.5 25t-26.5 66t26.5 66t70.5 25t70.5 -25t26.5 -66t-26.5 -66t-70.5 -25zM158 808l48 152h114l-53 -152h-109zM265 280q-2 -1 -29 -17t-37 -23q-34 -23 -34 -65v-27q0 -55 47 -55q24 0 38.5 17t14.5 43v127zM213 648q18 0 29 11t11 29t-11 29t-29 11t-28.5 -11
t-10.5 -29t10.5 -29t28.5 -11z" />
    <glyph glyph-name="aringacute.alt2" horiz-adv-x="458" 
d="M226 96q52 0 52 68v218q0 68 -52 68q-50 0 -50 -68v-218q0 -68 50 -68zM278 546h127v-546h-127v62q-12 -26 -38.5 -46.5t-67.5 -20.5h-2q-56 0 -89 38.5t-33 102.5v280q0 61 30.5 97.5t85.5 36.5h3q73 0 111 -59v55zM222 597q-44 0 -70.5 25t-26.5 66t26.5 66t70.5 25
t70.5 -25t26.5 -66t-26.5 -66t-70.5 -25zM222 648q18 0 29 11t11 29t-11 29t-29 11t-28.5 -11t-10.5 -29t10.5 -29t28.5 -11zM164 808l48 152h114l-53 -152h-109z" />
    <glyph glyph-name="atilde.alt" horiz-adv-x="438" 
d="M386 419v-278q0 -95 14 -134v-7h-123q-7 20 -10 62q-41 -66 -110 -66h-3q-50 0 -81.5 35t-31.5 91v62q0 52 21 81t72 52l112 52q19 10 19 32v4q0 28 -11.5 41t-39.5 13h-2q-49 0 -49 -55v-37h-115v52q0 64 35 100.5t121 36.5h16q89 0 127.5 -34t38.5 -103zM337 742v-73
q0 -31 -14 -48t-38 -17h-1q-30 0 -75 27q-34 21 -38 21q-7 0 -7 -12v-39h-78v73q0 31 14 48t38 17h1q30 0 75 -27q34 -21 38 -21q7 0 7 12v39h78zM265 280q-2 -1 -29 -17t-37 -23q-34 -23 -34 -65v-27q0 -55 47 -55q24 0 38.5 17t14.5 43v127z" />
    <glyph glyph-name="atilde.alt2" horiz-adv-x="458" 
d="M226 96q52 0 52 68v218q0 68 -52 68q-50 0 -50 -68v-218q0 -68 50 -68zM278 546h127v-546h-127v62q-12 -26 -38.5 -46.5t-67.5 -20.5h-2q-56 0 -89 38.5t-33 102.5v280q0 61 30.5 97.5t85.5 36.5h3q73 0 111 -59v55zM350 742v-73q0 -31 -14 -48t-38 -17h-1q-30 0 -75 27
q-34 21 -38 21q-7 0 -7 -12v-39h-78v73q0 31 14 48t38 17h1q30 0 75 -27q34 -21 38 -21q7 0 7 12v39h78z" />
    <glyph glyph-name="racute.alt" horiz-adv-x="356" 
d="M179 546v-78q37 82 110 82h4q21 0 37 -4v-140q-40 9 -63 9h-3q-43 0 -63 -14.5t-20 -49.5v-351h-128v546h126zM144 601l48 152h114l-53 -152h-109z" />
    <glyph glyph-name="rcaron.alt" horiz-adv-x="356" 
d="M179 546v-78q37 82 110 82h4q21 0 37 -4v-140q-40 9 -63 9h-3q-43 0 -63 -14.5t-20 -49.5v-351h-128v546h126zM139 601l-74 152h95l39 -86l39 86h94l-74 -152h-119z" />
    <glyph glyph-name="rcommaaccent.alt" horiz-adv-x="356" 
d="M179 546v-78q37 82 110 82h4q21 0 37 -4v-140q-40 9 -63 9h-3q-43 0 -63 -14.5t-20 -49.5v-351h-128v546h126zM157 -224h-73q17 38 24 74h-54v106h126v-66q0 -68 -23 -114z" />
    <glyph glyph-name="space_uni0326.alt" horiz-adv-x="400" 
d="M160 781h73q-17 -38 -24 -74h54v-106h-126v66q0 68 23 114z" />
    <glyph glyph-name="ordfeminine.alt" horiz-adv-x="353" 
d="M213 390q-9 -17 -31.5 -32t-49.5 -15h-1q-39 0 -62.5 26t-23.5 64v48q0 37 17.5 58.5t55.5 38.5l82 33q14 6 14 25v6q0 36 -40 36h-1q-39 0 -39 -39v-26h-85v35q0 100 118 100h11q67 0 95.5 -25t28.5 -76v-200q0 -67 11 -95v-6h-93q-7 18 -7 44zM214 545q-2 -1 -13 -7
l-21 -11t-15 -9q-16 -11 -23 -21.5t-7 -28.5v-12q0 -40 38 -40q19 0 30 12.5t11 31.5v85z" />
    <glyph glyph-name="ordfeminine.alt2" horiz-adv-x="364" 
d="M182 421q42 0 42 56v141q0 54 -42 54q-40 0 -40 -52v-147q0 -52 40 -52zM224 744h89v-396h-89v46q-26 -50 -83 -50h-1q-40 0 -64.5 30.5t-24.5 78.5v185q0 48 22 78.5t66 30.5h2q53 0 83 -45v42z" />
    <glyph glyph-name="caron.alt" horiz-adv-x="400" 
d="M146 601l12 156h96l-17 -156h-91z" />
    <glyph glyph-name="plus.uc" horiz-adv-x="463" 
d="M423 302h-141v-153h-101v153h-141v90h141v152h101v-152h141v-90z" />
    <glyph glyph-name="minus.uc" horiz-adv-x="453" 
d="M40 394h373v-94h-373v94z" />
    <glyph glyph-name="multiply.uc" horiz-adv-x="438" 
d="M334 162l-115 116l-113 -116l-65 60l115 119l-116 116l65 66l114 -116l112 116l66 -62l-115 -118l116 -118z" />
    <glyph glyph-name="divide.uc" horiz-adv-x="459" 
d="M294 579v-127h-129v127h129zM40 394h379v-94h-379v94zM294 238v-128h-129v128h129z" />
    <glyph glyph-name="equal.uc" horiz-adv-x="463" 
d="M45 459h373v-87h-373v87zM45 301h373v-87h-373v87z" />
    <glyph glyph-name="less.uc" horiz-adv-x="422" 
d="M372 159l-327 135v100l327 135v-98l-225 -87l225 -88v-97z" />
    <glyph glyph-name="greater.uc" horiz-adv-x="422" 
d="M50 159v99l225 88l-225 87v96l327 -135v-100z" />
    <glyph glyph-name="questiondown.uc" horiz-adv-x="430" 
d="M178 538h104v-65q0 -49 -8.5 -74.5t-36.5 -62.5l-36 -48q-18 -25 -23.5 -44.5t-5.5 -52.5v-29q0 -33 11 -46.5t37 -13.5q24 0 35 14t11 46v95h122v-102q0 -164 -154 -164h-27q-165 0 -165 158v50q0 74 52 139l43 53q26 32 33.5 50.5t7.5 55.5v41zM160 590v154h140v-154
h-140z" />
    <glyph glyph-name="exclamdown.uc" horiz-adv-x="236" 
d="M189 0h-142l41 538h58zM187 744v-154h-140v154h140z" />
    <glyph glyph-name="hyphen.uc" horiz-adv-x="331" 
d="M46 397h239v-112h-239v112z" />
    <glyph glyph-name="endash.uc" horiz-adv-x="505" 
d="M46 383h413v-87h-413v87z" />
    <glyph glyph-name="emdash.uc" horiz-adv-x="764" 
d="M46 383h672v-87h-672v87z" />
    <glyph glyph-name="guilsinglleft.uc" horiz-adv-x="257" 
d="M144 307l75 -167h-105l-66 139v56l66 139h105z" />
    <glyph glyph-name="guilsinglright.uc" horiz-adv-x="257" 
d="M113 307l-75 167h105l66 -139v-56l-66 -139h-105z" />
    <glyph glyph-name="guillemotleft.uc" horiz-adv-x="416" 
d="M143 307l68 -167h-102l-61 139v56l59 139h103zM312 307l66 -167h-104l-68 167l68 167h104z" />
    <glyph glyph-name="guillemotright.uc" horiz-adv-x="417" 
d="M104 307l-66 167h104l68 -167l-67 -167h-105zM274 307l-68 167h102l61 -139v-56l-59 -139h-103z" />
    <glyph glyph-name="parenleft.uc" horiz-adv-x="271" 
d="M45 373q0 218 129 443h85q-96 -217 -96 -443q0 -212 96 -454h-85q-129 234 -129 454z" />
    <glyph glyph-name="parenright.uc" horiz-adv-x="271" 
d="M226 373q0 -220 -129 -454h-85q96 242 96 454q0 226 -96 443h85q129 -225 129 -443z" />
    <glyph glyph-name="bracketleft.uc" horiz-adv-x="258" 
d="M50 -69v886h186v-86h-81v-714h81v-86h-186z" />
    <glyph glyph-name="bracketright.uc" horiz-adv-x="258" 
d="M22 -69v86h81v714h-81v86h186v-886h-186z" />
    <glyph glyph-name="braceleft.uc" horiz-adv-x="277" 
d="M255 -70h-61q-137 0 -137 106q0 36 28 127t28 120q0 25 -10.5 35t-35.5 10h-32v98h28q27 0 38.5 9.5t11.5 30.5q0 29 -28 119t-28 126q0 106 137 106h61v-86h-41q-47 0 -47 -42q0 -21 24.5 -104.5t24.5 -118.5q0 -36 -16 -57.5t-56 -31.5q40 -11 56 -33.5t16 -60.5
q0 -35 -24.5 -120t-24.5 -105q0 -42 47 -42h41v-86z" />
    <glyph glyph-name="braceright.uc" horiz-adv-x="277" 
d="M83 -70h-61v86h41q47 0 47 42q0 20 -24.5 105t-24.5 120q0 38 16 60.5t56 33.5q-40 10 -56 31.5t-16 57.5q0 35 24.5 118.5t24.5 104.5q0 42 -47 42h-41v86h61q137 0 137 -106q0 -36 -28 -126t-28 -119q0 -21 11.5 -30.5t38.5 -9.5h28v-98h-32q-25 0 -35.5 -10t-10.5 -35
q0 -29 28 -120t28 -127q0 -106 -137 -106z" />
    <glyph glyph-name="slash.uc" horiz-adv-x="290" 
d="M262 816l-136 -897h-98l136 897h98z" />
    <glyph glyph-name="backslash.uc" horiz-adv-x="290" 
d="M262 -81h-98l-136 897h98z" />
    <glyph glyph-name="bar.uc" horiz-adv-x="215" 
d="M155 816v-897h-95v897h95z" />
    <glyph glyph-name="at.uc" horiz-adv-x="758" 
d="M598 67l52 -60q-26 -33 -93.5 -64t-165.5 -31h-8q-51 0 -93 7.5t-89.5 33.5t-80 69.5t-54 121.5t-21.5 184v50q0 398 343 398h16q160 0 234.5 -83t74.5 -252v-50q0 -168 -45.5 -235t-127.5 -67h-2q-89 0 -114 61q-36 -61 -106 -61h-4q-49 0 -78.5 37t-25.5 100l16 236
q9 131 103 131h5q66 0 99 -57l4 53h121l-26 -387q-3 -36 26 -36q66 0 66 223v53q0 143 -55 200t-165 57h-16q-120 0 -185 -76t-65 -247v-47q0 -67 9.5 -120.5t24.5 -88.5t37.5 -60.5t43 -38.5t47 -21t44 -9.5t39.5 -1.5h8q73 0 126.5 24.5t80.5 53.5zM413 233l14 209
q4 57 -41 57q-36 0 -40 -55l-14 -209q-4 -54 38 -54q40 0 43 52z" />
    <glyph glyph-name="grave.uc" horiz-adv-x="400" 
d="M281 792h-112l-51 127h116z" />
    <glyph glyph-name="dieresis.uc" horiz-adv-x="400" 
d="M339 908v-116h-117v116h117zM180 908v-116h-118v116h118z" />
    <glyph glyph-name="macron.uc" horiz-adv-x="400" 
d="M86 804v92h226v-92h-226z" />
    <glyph glyph-name="acute.uc" horiz-adv-x="400" 
d="M119 792l47 127h116l-51 -127h-112z" />
    <glyph glyph-name="circumflex.uc" horiz-adv-x="400" 
d="M263 919l78 -129h-104l-38 66l-38 -66h-103l78 129h127z" />
    <glyph glyph-name="caron.uc" horiz-adv-x="400" 
d="M135 792l-77 127h104l38 -66l38 66h103l-77 -127h-129z" />
    <glyph glyph-name="breve.uc" horiz-adv-x="400" 
d="M199 789q-121 0 -121 117v7h91v-5q0 -41 31 -41t31 41v5h91v-7q0 -117 -121 -117h-2z" />
    <glyph glyph-name="dotaccent.uc" horiz-adv-x="400" 
d="M263 919v-127h-128v127h128z" />
    <glyph glyph-name="ring.uc" horiz-adv-x="400" 
d="M200 787q-44 0 -70.5 25t-26.5 66t26.5 66t70.5 25t70.5 -25t26.5 -66t-26.5 -66t-70.5 -25zM200 838q18 0 29 11t11 29t-11 29t-29 11t-28.5 -11t-10.5 -29t10.5 -29t28.5 -11z" />
    <glyph glyph-name="tilde.uc" horiz-adv-x="400" 
d="M330 924v-63q0 -31 -14 -48t-37 -17h-1q-25 0 -78 22q-34 14 -40 14q-8 0 -8 -11v-29h-83v63q0 31 14 48t37 17h1q25 0 78 -22q34 -14 40 -14q8 0 8 11v29h83z" />
    <glyph glyph-name="hungarumlaut.uc" horiz-adv-x="400" 
d="M196 792l45 127h99l-48 -127h-96zM60 792l42 127h98l-43 -127h-97z" />
    <glyph glyph-name="emdash.altuc" horiz-adv-x="1436" 
d="M1390 383v-87h-1344v87h1344z" />
    <glyph glyph-name="f.short" horiz-adv-x="340" 
d="M317 757v-101h-47q-22 0 -29.5 -8t-7.5 -31v-71h84v-107h-84v-439h-126v439h-85v107h85v105q0 106 111 106h99z" />
    <glyph glyph-name="f_f.short" horiz-adv-x="626" 
d="M233 0h-126v439h-85v107h85v105q0 106 111 106h105v-101h-53q-22 0 -29.5 -8t-7.5 -31v-71h160v105q0 106 111 106h99v-101h-47q-22 0 -29.5 -8t-7.5 -31v-71h84v-107h-84v-439h-126v439h-160v-439z" />
    <glyph glyph-name="j.short" horiz-adv-x="234" 
d="M181 728v-127h-127v127h127zM-5 -75h27q18 0 25 8t7 27v586h127v-629q0 -50 -24 -77t-69 -27h-93v112z" />
    <glyph glyph-name="divide.uctab" 
d="M315 579v-127h-129v127h129zM61 394h379v-94h-379v94zM315 238v-128h-129v128h129z" />
    <glyph glyph-name="equal.uctab" 
d="M64 458h373v-86h-373v86zM64 301h373v-86h-373v86z" />
    <glyph glyph-name="florin.tab" 
d="M442 372h-143l-38 -559h-125l37 559h-118v106h126l10 155q4 60 31 85.5t91 25.5h129v-103h-83q-25 0 -34 -9t-11 -35l-8 -119h136v-106z" />
    <glyph glyph-name="greater.uctab" 
d="M89 161v97l225 88l-225 87v94l327 -135v-96z" />
    <glyph glyph-name="less.uctab" 
d="M411 161l-327 135v96l327 135v-96l-225 -87l225 -88v-95z" />
    <glyph glyph-name="minus.uctab" 
d="M64 394h373v-94h-373v94z" />
    <glyph glyph-name="multiply.uctab" 
d="M366 162l-116 116l-114 -116l-64 60l115 119l-116 116l64 66l115 -117l113 117l65 -62l-115 -118l116 -118z" />
    <glyph glyph-name="plus.uctab" 
d="M441 302h-141v-153h-100v153h-141v90h141v152h100v-152h141v-90z" />
    </font>
</defs>
</svg>
