<?xml version="1.0" standalone="no"?>
<!DOCTYPE svg PUBLIC "-//W3C//DTD SVG 1.1//EN" "http://www.w3.org/Graphics/SVG/1.1/DTD/svg11.dtd" >
<svg>
<metadata>
Created by FontForge 20090622 at Fri May 10 20:29:26 2019
 By deploy user
Copyright (C)2015 Commercial Type.
</metadata>
<defs>
<font id="DrukText-Super" horiz-adv-x="500" >
  <font-face 
    font-family="Druk Text Super"
    font-weight="1000"
    font-stretch="normal"
    units-per-em="1000"
    panose-1="0 0 0 0 0 0 0 0 0 0"
    ascent="813"
    descent="-187"
    x-height="560"
    cap-height="744"
    bbox="-41 -266 1562 1159"
    underline-thickness="91"
    underline-position="69"
    unicode-range="U+0020-U+FB02"
  />
<missing-glyph 
 />
    <glyph glyph-name="f_t" unicode="ft" horiz-adv-x="783" 
d="M311 0h-203v412h-87v148h87v76q0 59 34.5 90t96.5 31h150v-131h-44q-20 0 -27 -6.5t-7 -23.5v-36h150v176h205v-176h87v-148h-87v-227q0 -19 7 -26.5t28 -7.5h52v-151h-174q-61 0 -89.5 28t-28.5 88v296h-150v-412z" />
    <glyph glyph-name="f_f_t" unicode="fft" horiz-adv-x="1136" 
d="M311 0h-203v412h-87v148h87v76q0 59 34.5 90t96.5 31h160v-131h-54q-20 0 -27 -6.5t-7 -23.5v-36h150v76q0 59 34.5 90t96.5 31h150v-131h-44q-20 0 -27 -6.5t-7 -23.5v-36h150v176h205v-176h87v-148h-87v-227q0 -19 7 -26.5t28 -7.5h52v-151h-174q-61 0 -89.5 28
t-28.5 88v296h-150v-412h-203v412h-150v-412z" />
    <glyph glyph-name="f_f" unicode="ff" horiz-adv-x="774" 
d="M311 0h-203v412h-87v148h87v76q0 59 34.5 90t96.5 31h160v-131h-54q-20 0 -27 -6.5t-7 -23.5v-36h150v76q0 59 34.5 90t96.5 31h160v-131h-54q-20 0 -27 -6.5t-7 -23.5v-36h88v-148h-88v-412h-203v412h-150v-412z" />
    <glyph glyph-name="f_i" unicode="fi" horiz-adv-x="709" 
d="M397 757v-131h-52q-20 0 -27 -6.5t-7 -23.5v-36h86v-148h-86v-412h-203v412h-87v148h87v76q0 59 34.5 90t96.5 31h158zM667 763v-157h-206v157h206zM667 560v-560h-206v560h206z" />
    <glyph glyph-name="f_l" unicode="fl" horiz-adv-x="708" 
d="M397 757v-131h-52q-20 0 -27 -6.5t-7 -23.5v-36h86v-148h-86v-412h-203v412h-87v148h87v76q0 59 34.5 90t96.5 31h158zM667 757v-757h-206v757h206z" />
    <glyph glyph-name="emdash.alt" unicode="&#x2014;&#x2014;" horiz-adv-x="1602" 
d="M1562 359v-115h-1522v115h1522z" />
    <glyph glyph-name=".notdef" 
 />
    <glyph glyph-name=".null" horiz-adv-x="0" 
 />
    <glyph glyph-name="nonmarkingreturn" horiz-adv-x="333" 
 />
    <glyph glyph-name="space" unicode=" " horiz-adv-x="180" 
 />
    <glyph glyph-name="exclam" unicode="!" horiz-adv-x="290" 
d="M35 744h220l-55 -509h-110zM242 192v-192h-194v192h194z" />
    <glyph glyph-name="quotedbl" unicode="&#x22;" horiz-adv-x="461" 
d="M418 744v-250h-158v250h158zM201 744v-250h-158v250h158z" />
    <glyph glyph-name="numbersign" unicode="#" horiz-adv-x="547" 
d="M304 328l14 122h-76l-14 -122h76zM267 0l26 230h-76l-26 -230h-116l26 230h-86l11 98h86l13 122h-86l11 98h86l22 196h117l-22 -196h77l22 196h117l-23 -196h86l-11 -98h-86l-14 -122h87l-11 -98h-87l-27 -230h-116z" />
    <glyph glyph-name="dollar" unicode="$" horiz-adv-x="563" 
d="M214 568q0 -22 9 -36t32 -28v119q-41 -7 -41 -53v-2zM343 197q0 28 -9.5 44t-32.5 30v-137q42 8 42 57v6zM301 -75h-46v64q-127 1 -178.5 49t-51.5 133v87h189v-70q0 -47 41 -54v162l-88 47q-72 38 -106 86t-34 124v20q0 182 228 182v57h46v-57q128 -1 175.5 -45.5
t47.5 -136.5v-46h-182v34q0 54 -41 62v-144l98 -53q76 -41 109 -88.5t33 -120.5v-21q0 -97 -57.5 -152t-182.5 -55v-64z" />
    <glyph glyph-name="percent" unicode="%" horiz-adv-x="859" 
d="M354 485q0 -66 -38 -102.5t-112 -36.5h-19q-150 0 -150 139v130q0 138 150 138h19q150 0 150 -138v-130zM562 744h113l-378 -744h-116zM195 450q29 0 29 32v137q0 32 -29 32t-29 -32v-137q0 -32 29 -32zM824 131q0 -66 -38 -102.5t-112 -36.5h-19q-150 0 -150 139v130
q0 138 150 138h19q150 0 150 -138v-130zM665 96q29 0 29 32v137q0 32 -29 32t-29 -32v-137q0 -32 29 -32z" />
    <glyph glyph-name="ampersand" unicode="&#x26;" horiz-adv-x="699" 
d="M641 -12q-116 0 -182 37q-61 -35 -154 -35h-1q-145 0 -213.5 56.5t-68.5 154.5v15q0 72 38 116.5t108 76.5q-35 49 -52.5 87t-17.5 85v4q0 170 220 170h20q119 0 167.5 -41.5t48.5 -121.5v-10q0 -65 -43.5 -108t-128.5 -78l98 -148q7 64 7 167h181q-3 -161 -63 -256
q39 -8 93 -8zM288 581q0 -24 8 -44t30 -55q26 24 36 45.5t10 53.5v8q0 50 -42 50t-42 -50v-8zM342 126q16 0 23 1l-131 188q-15 -36 -15 -73v-7q0 -51 33 -80t90 -29z" />
    <glyph glyph-name="quotesingle" unicode="'" horiz-adv-x="246" 
d="M203 744v-250h-160v250h160z" />
    <glyph glyph-name="parenleft" unicode="(" horiz-adv-x="299" 
d="M25 339q0 103 23.5 200t48.5 151t63 118h124q-97 -224 -97 -469q0 -246 97 -470h-124q-38 64 -63 118.5t-48.5 151.5t-23.5 200z" />
    <glyph glyph-name="parenright" unicode=")" horiz-adv-x="299" 
d="M274 339q0 -103 -23.5 -200t-48.5 -151.5t-63 -118.5h-124q97 224 97 470q0 245 -97 469h124q38 -64 63 -118t48.5 -151t23.5 -200z" />
    <glyph glyph-name="asterisk" unicode="*" horiz-adv-x="424" 
d="M151 757h122l-27 -121l98 80l53 -99l-129 -38l129 -38l-53 -99l-98 80l27 -122h-122l28 122l-99 -80l-53 99l129 38l-129 38l53 99l99 -80z" />
    <glyph glyph-name="plus" unicode="+" horiz-adv-x="512" 
d="M477 242h-153v-162h-136v162h-153v126h153v162h136v-162h153v-126z" />
    <glyph glyph-name="comma" unicode="," horiz-adv-x="276" 
d="M197 -133h-111q30 76 36 133h-82v194h196v-149q0 -78 -39 -178z" />
    <glyph glyph-name="hyphen" unicode="-" horiz-adv-x="327" 
d="M40 386h247v-172h-247v172z" />
    <glyph glyph-name="period" unicode="." horiz-adv-x="276" 
d="M236 194v-194h-196v194h196z" />
    <glyph glyph-name="slash" unicode="/" horiz-adv-x="340" 
d="M320 808l-188 -939h-126l187 939h127z" />
    <glyph glyph-name="zero" unicode="0" horiz-adv-x="592" 
d="M550 523v-309q0 -109 -62.5 -167t-174.5 -58h-34q-117 0 -177 59t-60 166v309q0 232 237 232h34q237 0 237 -232zM339 218v306q0 58 -43 58t-43 -58v-306q0 -55 43 -55t43 55z" />
    <glyph glyph-name="one" unicode="1" horiz-adv-x="394" 
d="M137 495h-114v164q69 0 101 20t43 65h179v-744h-209v495z" />
    <glyph glyph-name="two" unicode="2" horiz-adv-x="546" 
d="M515 0h-488v101q0 37 2 53.5t12.5 47.5t37 66t73.5 85l81 85q67 70 67 112v2q0 47 -39 47t-39 -47v-63h-187v89q0 176 216 176h26q125 0 179.5 -47.5t54.5 -137.5v-10q0 -59 -17.5 -101.5t-64.5 -88.5l-108 -96q-104 -91 -104 -115h119v88h179v-246z" />
    <glyph glyph-name="three" unicode="3" horiz-adv-x="546" 
d="M225 517h-189v51q0 85 46.5 135.5t164.5 50.5h28q127 0 178 -45.5t51 -129.5v-38q0 -49 -25 -77.5t-57 -36.5q37 -10 64.5 -42t27.5 -90v-103q0 -90 -57.5 -146.5t-177.5 -56.5h-28q-122 0 -172 52t-50 142v71h197v-55q0 -44 39 -44q38 0 38 44v61q0 22 -8 31t-28 9h-107
v171h100q39 0 39 39v45q0 43 -38 43q-36 0 -36 -43v-38z" />
    <glyph glyph-name="four" unicode="4" horiz-adv-x="534" 
d="M23 290l194 459h215v-435h80v-178h-80v-136h-198v136h-211v154zM234 314v230l-94 -230h94z" />
    <glyph glyph-name="five" unicode="5" horiz-adv-x="558" 
d="M236 324h-193v420h454v-166h-266v-113q18 23 54 45t85 22h7q72 0 108 -41t36 -113v-185q0 -94 -58.5 -149t-173.5 -55h-29q-223 0 -223 187v84h199v-64q0 -44 37 -44q18 0 27.5 12.5t9.5 31.5v141q0 45 -37 45t-37 -45v-13z" />
    <glyph glyph-name="six" unicode="6" horiz-adv-x="583" 
d="M400 482h6q69 0 106 -42t37 -111v-122q0 -102 -61.5 -160t-180.5 -58h-24q-121 0 -181 57t-60 161v327q0 219 238 219h25q233 0 233 -202v-34h-207v24q0 27 -9.5 39.5t-30.5 12.5q-41 0 -41 -52v-128q58 69 150 69zM250 210q0 -55 45 -55t45 55v75q0 54 -45 54t-45 -54
v-75z" />
    <glyph glyph-name="seven" unicode="7" horiz-adv-x="529" 
d="M39 744h456v-143q-2 -9 -27.5 -98t-40.5 -156q-42 -183 -42 -278v-69h-242v48q0 71 15 131t57 149q81 171 96 206t15 56h-110v-97h-177v251z" />
    <glyph glyph-name="eight" unicode="8" horiz-adv-x="576" 
d="M535 570v-23q0 -110 -87 -147q96 -41 96 -148v-58q0 -205 -241 -205h-30q-241 0 -241 205v58q0 106 96 148q-87 38 -87 147v23q0 183 232 183h30q232 0 232 -183zM334 509v41q0 51 -46 51t-46 -51v-41q0 -51 46 -51t46 51zM334 207v66q0 53 -46 53t-46 -53v-66
q0 -53 46 -53t46 53z" />
    <glyph glyph-name="nine" unicode="9" horiz-adv-x="583" 
d="M333 532q0 54 -45 54t-45 -54v-75q0 -54 45 -54t45 54v75zM191 260h-6q-75 0 -113 43.5t-38 120.5v119q0 103 54.5 156.5t186.5 53.5h25q241 0 241 -218v-328q0 -106 -59.5 -162t-178.5 -56h-25q-124 0 -178.5 50t-54.5 152v34h207v-28q0 -48 40 -48q41 0 41 48v132
q-56 -69 -142 -69z" />
    <glyph glyph-name="colon" unicode=":" horiz-adv-x="286" 
d="M241 491v-194h-196v194h196zM241 194v-194h-196v194h196z" />
    <glyph glyph-name="semicolon" unicode=";" horiz-adv-x="286" 
d="M202 -133h-111q30 76 36 133h-82v194h196v-149q0 -78 -39 -178zM241 491v-194h-196v194h196z" />
    <glyph glyph-name="less" unicode="&#x3c;" horiz-adv-x="448" 
d="M413 85l-378 157v120l378 157v-133l-227 -84l227 -84v-133z" />
    <glyph glyph-name="equal" unicode="=" horiz-adv-x="502" 
d="M40 461h422v-121h-422v121zM40 267h422v-121h-422v121z" />
    <glyph glyph-name="greater" unicode="&#x3e;" horiz-adv-x="448" 
d="M35 85v133l227 84l-227 84v133l378 -157v-120z" />
    <glyph glyph-name="question" unicode="?" horiz-adv-x="510" 
d="M311 235h-154v30q0 43 10 70.5t41 67.5l45 58q20 26 26 41.5t6 42.5v26q0 40 -37 40t-37 -41v-81h-180v85q0 84 45.5 131.5t158.5 47.5h27q117 0 168.5 -45t51.5 -133v-18q0 -57 -16 -95t-53 -78l-72 -77q-19 -21 -24.5 -33.5t-5.5 -36.5v-2zM332 192v-192h-194v192h194z
" />
    <glyph glyph-name="at" unicode="@" horiz-adv-x="866" 
d="M677 21l54 -74q-37 -36 -108 -64t-178 -28h-6q-67 0 -122 10t-108.5 38.5t-90 74t-58.5 121t-22 175.5v35q0 206 102 315t301 109h1q186 0 287 -81t101 -267v-34q0 -313 -208 -313h-6q-44 0 -76 13.5t-44 27t-19 28.5q-57 -69 -128 -69h-4q-70 0 -104.5 43.5t-29.5 124.5
l11 191q9 147 127 147h4q84 0 130 -65l3 59h179l-25 -384q-2 -25 19 -25q31 0 51 58.5t20 163.5v31q0 67 -15.5 115.5t-40.5 76.5t-64 44.5t-77.5 21.5t-90.5 5h-1q-298 0 -298 -337v-34q0 -99 22.5 -166.5t65.5 -101.5t92 -47.5t116 -13.5h6q153 0 232 76zM464 198l12 184
q3 50 -36 50q-34 0 -37 -50l-11 -183q-4 -50 33 -50q36 0 39 49z" />
    <glyph glyph-name="A" unicode="A" horiz-adv-x="540" 
d="M238 351l-14 -100h71l-14 100q-9 67 -21 184q-9 -87 -22 -184zM329 0l-13 97h-113l-13 -97h-179l115 744h275l128 -744h-200z" />
    <glyph glyph-name="B" unicode="B" horiz-adv-x="576" 
d="M45 0v744h317q84 0 126 -38.5t42 -124.5v-38q0 -57 -25 -89.5t-56 -43.5q99 -30 99 -148v-79q0 -183 -174 -183h-329zM285 602h-38v-141h38q45 0 45 53v36q0 28 -9.5 40t-35.5 12zM291 322h-44v-175h44q25 0 35.5 13.5t10.5 41.5v65q0 28 -10.5 41.5t-35.5 13.5z" />
    <glyph glyph-name="C" unicode="C" horiz-adv-x="571" 
d="M293 156q42 0 42 54v112h201v-126q0 -91 -54 -149t-171 -58h-35q-126 0 -181.5 59t-55.5 173v307q0 110 54.5 168.5t181.5 58.5h35q226 0 226 -199v-105h-201v91q0 51 -42 51q-40 0 -40 -51v-332q0 -54 40 -54z" />
    <glyph glyph-name="D" unicode="D" horiz-adv-x="599" 
d="M45 0v744h307q105 0 155.5 -48.5t50.5 -155.5v-336q0 -107 -50 -155.5t-152 -48.5h-311zM257 587v-426h38q26 0 37 14t11 48v305q0 31 -11 45t-37 14h-38z" />
    <glyph glyph-name="E" unicode="E" horiz-adv-x="472" 
d="M45 744h392v-173h-190v-99h163v-176h-163v-121h195v-175h-397v744z" />
    <glyph glyph-name="F" unicode="F" horiz-adv-x="461" 
d="M45 0v744h388v-173h-186v-99h157v-176h-157v-296h-202z" />
    <glyph glyph-name="G" unicode="G" horiz-adv-x="579" 
d="M230 -11h-7q-92 0 -138 57.5t-46 147.5v346q0 215 234 215h31q122 0 175 -52.5t53 -137.5v-74h-194v48q0 55 -46 55q-44 0 -44 -55v-332q0 -62 51 -62q50 0 50 62v89h-60v143h252v-439h-138q-7 35 -21 66q-56 -77 -152 -77z" />
    <glyph glyph-name="H" unicode="H" horiz-adv-x="600" 
d="M45 0v744h212v-254h86v254h212v-744h-212v285h-86v-285h-212z" />
    <glyph glyph-name="I" unicode="I" horiz-adv-x="302" 
d="M257 744v-744h-212v744h212z" />
    <glyph glyph-name="J" unicode="J" horiz-adv-x="547" 
d="M31 338h186v-137q0 -46 37 -46h1q20 0 28.5 11t8.5 35v543h212v-559q0 -196 -219 -196h-56q-107 0 -152.5 49t-45.5 137v163z" />
    <glyph glyph-name="K" unicode="K" horiz-adv-x="577" 
d="M250 0h-205v744h205v-288l111 288h208l-133 -328l136 -416h-216l-106 326v-326z" />
    <glyph glyph-name="L" unicode="L" horiz-adv-x="438" 
d="M45 744h211v-559h158v-185h-369v744z" />
    <glyph glyph-name="M" unicode="M" horiz-adv-x="695" 
d="M441 271l-60 -271h-75l-59 271q-18 80 -41 210q5 -133 5 -220v-261h-167v744h237l45 -245q17 -90 22 -135q5 45 22 135l47 245h232v-744h-171v261q0 82 5 220q-20 -108 -42 -210z" />
    <glyph glyph-name="N" unicode="N" horiz-adv-x="583" 
d="M333 472q28 -88 38 -130q-3 55 -3 146v256h170v-744h-180l-109 313q-22 64 -36 119q4 -47 4 -146v-286h-172v744h200z" />
    <glyph glyph-name="O" unicode="O" horiz-adv-x="596" 
d="M557 530v-316q0 -104 -61 -164.5t-180 -60.5h-36q-123 0 -182 60.5t-59 164.5v316q0 225 241 225h36q121 0 181 -58.5t60 -166.5zM343 216v310q0 56 -45 56t-45 -56v-310q0 -53 45 -53t45 53z" />
    <glyph glyph-name="P" unicode="P" horiz-adv-x="565" 
d="M361 266h-104v-266h-212v744h316q87 0 131.5 -41t44.5 -133v-129q0 -88 -46 -131.5t-130 -43.5zM257 602v-188h28q23 0 32.5 11t9.5 37v92q0 27 -9 37.5t-33 10.5h-28z" />
    <glyph glyph-name="Q" unicode="Q" horiz-adv-x="596" 
d="M224 -155v148q-94 14 -139.5 72.5t-45.5 148.5v316q0 225 241 225h36q121 0 181 -58.5t60 -166.5v-316q0 -86 -43 -143.5t-127 -74.5l70 -151h-233zM343 216v310q0 56 -45 56t-45 -56v-310q0 -53 45 -53t45 53z" />
    <glyph glyph-name="R" unicode="R" horiz-adv-x="573" 
d="M250 602v-155h36q42 0 42 46v62q0 25 -9 36t-32 11h-37zM250 293v-293h-205v744h328q76 0 117.5 -38.5t41.5 -115.5v-44q0 -107 -80 -143q82 -31 82 -128v-209q0 -39 12 -61v-5h-203q-15 15 -15 55v184q0 29 -8.5 41.5t-31.5 12.5h-38z" />
    <glyph glyph-name="S" unicode="S" horiz-adv-x="546" 
d="M250 -11q-225 0 -225 183v87h196v-68q0 -45 43 -45t43 49v7q0 30 -13 46.5t-45 37.5l-100 64q-59 38 -88.5 84.5t-29.5 114.5v21q0 185 232 185h28q123 0 173 -43.5t50 -125.5v-63h-195v45q0 44 -41 44q-44 0 -44 -42v-2q0 -23 12 -37t41 -33l100 -65q71 -47 103 -93
t32 -122v-22q0 -92 -59.5 -149.5t-184.5 -57.5h-28z" />
    <glyph glyph-name="T" unicode="T" horiz-adv-x="480" 
d="M140 0v575h-117v169h434v-169h-117v-575h-200z" />
    <glyph glyph-name="U" unicode="U" horiz-adv-x="584" 
d="M308 -13h-34q-121 0 -176.5 57t-55.5 152v548h207v-515q0 -55 43 -55q44 0 44 55v515h206v-548q0 -91 -60.5 -150t-173.5 -59z" />
    <glyph glyph-name="V" unicode="V" horiz-adv-x="567" 
d="M149 0l-138 744h216l65 -496l64 496h200l-128 -744h-279z" />
    <glyph glyph-name="W" unicode="W" horiz-adv-x="814" 
d="M425 265q-16 140 -18 174q0 -6 -18 -173l-30 -266h-219l-128 744h209l36 -323q11 -102 15 -166q5 74 16 166l39 323h172l39 -320q14 -122 17 -167q5 70 15 164l36 323h196l-128 -744h-219z" />
    <glyph glyph-name="X" unicode="X" horiz-adv-x="562" 
d="M216 0h-206l116 395l-111 349h217l53 -218l52 218h201l-105 -354l119 -390h-213l-60 237z" />
    <glyph glyph-name="Y" unicode="Y" horiz-adv-x="536" 
d="M159 0v273l-156 471h213l60 -248l60 248h197l-146 -475v-269h-228z" />
    <glyph glyph-name="Z" unicode="Z" horiz-adv-x="509" 
d="M478 0h-444v163l199 406h-193v175h430v-163l-203 -404h211v-177z" />
    <glyph glyph-name="bracketleft" unicode="[" horiz-adv-x="308" 
d="M42 -133v941h236v-129h-83v-683h83v-129h-236z" />
    <glyph glyph-name="backslash" unicode="\" horiz-adv-x="340" 
d="M334 -131h-126l-188 939h127z" />
    <glyph glyph-name="bracketright" unicode="]" horiz-adv-x="308" 
d="M30 -133v129h83v683h-83v129h236v-941h-236z" />
    <glyph glyph-name="asciicircum" unicode="^" horiz-adv-x="397" 
d="M248 376l-49 231l-50 -231h-129l95 368h166l96 -368h-129z" />
    <glyph glyph-name="underscore" unicode="_" horiz-adv-x="502" 
d="M10 -141v120h482v-120h-482z" />
    <glyph glyph-name="grave" unicode="`" horiz-adv-x="400" 
d="M318 606h-173l-63 160h179z" />
    <glyph glyph-name="a" unicode="a" horiz-adv-x="540" 
d="M298 160v113q-43 -19 -55 -27q-26 -17 -26 -50v-36q0 -43 40 -43q19 0 30 12.5t11 30.5zM27 125v72q0 58 27 90.5t86 50.5q26 8 78 21.5t66 17.5t14 23v8q0 23 -9 33.5t-33 10.5h-1q-23 0 -32.5 -11t-9.5 -34v-25h-179v35q0 78 51.5 117t167.5 39h23q116 0 167 -38.5
t51 -117.5v-244q0 -22 24 -22h5v-151h-163q-24 0 -40.5 16t-19.5 48q-18 -25 -55 -48.5t-81 -23.5h-1q-64 0 -100 37t-36 96z" />
    <glyph glyph-name="b" unicode="b" horiz-adv-x="572" 
d="M42 757h205v-268q56 76 143 76h7q66 0 101.5 -39t35.5 -109v-261q0 -73 -39.5 -120t-110.5 -47h-7q-16 0 -31 3t-26.5 6.5t-23.5 11t-19 12.5t-16.5 15l-13 13.5t-11.5 13.5l-8 10q-10 -27 -13 -74h-173v757zM287 125q19 0 30 15t11 37v198q0 52 -41 52q-40 0 -40 -53
v-197q0 -52 40 -52z" />
    <glyph glyph-name="c" unicode="c" horiz-adv-x="534" 
d="M296 -13h-43q-217 0 -217 191v206q0 190 217 190h43q103 0 152.5 -45t49.5 -126v-65h-184v53q0 48 -37 48q-36 0 -36 -48v-219q0 -45 36 -45q37 0 37 45v69h184v-78q0 -81 -49.5 -128.5t-152.5 -47.5z" />
    <glyph glyph-name="d" unicode="d" horiz-adv-x="574" 
d="M287 126q20 0 31 14t11 38v194q0 53 -42 53q-41 0 -41 -53v-195q0 -51 41 -51zM329 757h204v-757h-202v61q-62 -72 -140 -72h-6q-69 0 -108 44t-39 110v271q0 70 38 111t104 41h6q37 0 69 -13t44 -22.5t30 -27.5v254z" />
    <glyph glyph-name="e" unicode="e" horiz-adv-x="544" 
d="M236 411v-52h80v52q0 47 -40 47t-40 -47zM508 176q0 -89 -55 -139t-157 -50h-40q-220 0 -220 196v190q0 201 220 201h40q212 0 212 -198v-116h-272v-97q0 -48 40 -48t40 48v50h192v-37z" />
    <glyph glyph-name="f" unicode="f" horiz-adv-x="421" 
d="M399 757v-131h-54q-20 0 -27 -6.5t-7 -23.5v-36h88v-148h-88v-412h-203v412h-87v148h87v76q0 59 34.5 90t96.5 31h160z" />
    <glyph glyph-name="g" unicode="g" horiz-adv-x="574" 
d="M287 130q42 0 42 54v185q0 56 -42 56q-41 0 -41 -56v-185q0 -54 41 -54zM310 -198h-46q-121 0 -168 42t-47 119v6h198q0 -33 40 -33h1q19 0 30 11.5t11 32.5v85l-7 -7l-9.5 -9.5t-12 -11t-15.5 -12t-18.5 -11t-22 -10t-23.5 -6t-27 -2.5h-6q-74 0 -112 40t-38 114v263
q0 67 36 110t106 43h6q40 0 75 -17t44 -26.5l26 -28.5v66h201v-581q0 -79 -51.5 -128t-170.5 -49z" />
    <glyph glyph-name="h" unicode="h" horiz-adv-x="578" 
d="M42 0v757h204v-268q57 79 145 79h9q68 0 102.5 -38t34.5 -105v-425h-206v366q0 52 -43 52q-42 0 -42 -53v-365h-204z" />
    <glyph glyph-name="i" unicode="i" horiz-adv-x="290" 
d="M248 763v-157h-206v157h206zM248 560v-560h-206v560h206z" />
    <glyph glyph-name="j" unicode="j" horiz-adv-x="291" 
d="M249 763v-157h-206v157h206zM-20 -27h30q18 0 25.5 7t7.5 26v554h206v-620q0 -57 -28.5 -90.5t-88.5 -33.5h-152v157z" />
    <glyph glyph-name="k" unicode="k" horiz-adv-x="556" 
d="M248 0h-206v757h206v-402l88 205h204l-110 -241l124 -319h-214l-92 258v-258z" />
    <glyph glyph-name="l" unicode="l" horiz-adv-x="289" 
d="M248 757v-757h-206v757h206z" />
    <glyph glyph-name="m" unicode="m" horiz-adv-x="853" 
d="M246 0h-204v560h202v-74q16 28 54.5 55t92.5 27h8q97 0 123 -75q56 75 149 75h8q66 0 99.5 -35t33.5 -97v-436h-204v368q0 49 -40 49q-39 0 -39 -49v-368h-204v368q0 49 -40 49q-39 0 -39 -49v-368z" />
    <glyph glyph-name="n" unicode="n" horiz-adv-x="578" 
d="M42 0v560h202v-73q58 81 147 81h9q68 0 102.5 -38t34.5 -105v-425h-206v366q0 52 -43 52q-42 0 -42 -53v-365h-204z" />
    <glyph glyph-name="o" unicode="o" horiz-adv-x="568" 
d="M262 -13q-226 0 -226 205v179q0 95 54.5 149t171.5 54h44q226 0 226 -203v-178q0 -97 -56 -151.5t-170 -54.5h-44zM284 130q43 0 43 50v204q0 51 -43 51q-42 0 -42 -51v-204q0 -50 42 -50z" />
    <glyph glyph-name="p" unicode="p" horiz-adv-x="571" 
d="M286 125q41 0 41 53v195q0 54 -41 54q-40 0 -40 -54v-195q0 -53 40 -53zM42 560h204v-71q56 76 142 76h7q66 0 102 -39.5t36 -117.5v-257q0 -72 -39 -114.5t-105 -42.5h-7q-77 0 -136 61v-239h-204v744z" />
    <glyph glyph-name="q" unicode="q" horiz-adv-x="575" 
d="M374 560h159v-744h-204v251q-57 -73 -141 -73h-7q-62 0 -102.5 41.5t-40.5 110.5v265q0 71 39.5 113t112.5 42h7q92 0 158 -82q13 34 19 76zM287 126q18 0 30 15t12 39v191q0 54 -42 54q-41 0 -41 -54v-192q0 -53 41 -53z" />
    <glyph glyph-name="r" unicode="r" horiz-adv-x="531" 
d="M247 368v-368h-205v560h202v-72q46 80 132 80h5q122 0 122 -128v-162h-183v90q0 50 -36 50q-37 0 -37 -50z" />
    <glyph glyph-name="s" unicode="s" horiz-adv-x="508" 
d="M223 -13q-197 0 -197 160v47h182v-27q0 -49 41 -49h1q42 0 42 38q0 35 -48 53l-91 36q-65 25 -94.5 64.5t-29.5 101.5v9q0 154 211 154h36q107 0 154 -37t47 -114v-35h-177v19q0 26 -10 36.5t-34 10.5q-45 0 -45 -33q0 -18 11 -27.5t42 -21.5l90 -36q71 -29 100 -68
t29 -101v-10q0 -80 -53 -125t-155 -45h-52z" />
    <glyph glyph-name="t" unicode="t" horiz-adv-x="429" 
d="M399 0h-174q-61 0 -89.5 28t-28.5 88v296h-86v148h86v176h205v-176h87v-148h-87v-227q0 -19 7 -26.5t28 -7.5h52v-151z" />
    <glyph glyph-name="u" unicode="u" horiz-adv-x="574" 
d="M532 560v-560h-202v73q-11 -16 -27 -31.5t-50 -32.5t-71 -17h-6q-64 0 -99.5 38t-35.5 105v425h206v-368q0 -49 40 -49q41 0 41 50v367h204z" />
    <glyph glyph-name="v" unicode="v" horiz-adv-x="523" 
d="M126 0l-118 560h205l50 -381l49 381h203l-120 -560h-269z" />
    <glyph glyph-name="w" unicode="w" horiz-adv-x="772" 
d="M408 147q-17 108 -20 155q-2 -28 -20 -155l-22 -147h-222l-116 560h207l25 -199q15 -128 18 -164q3 36 18 164l25 199h177l25 -199q16 -117 19 -161q3 36 18 161l24 199h200l-114 -560h-219z" />
    <glyph glyph-name="x" unicode="x" horiz-adv-x="521" 
d="M205 0h-197l104 296l-100 264h203l47 -173l46 173h200l-100 -259l105 -301h-205l-51 189z" />
    <glyph glyph-name="y" unicode="y" horiz-adv-x="529" 
d="M68 -184v157h63q22 0 22 17v1q0 11 -13 60l-132 509h207l54 -360l51 360h201l-155 -643q-14 -55 -41 -78t-79 -23h-178z" />
    <glyph glyph-name="z" unicode="z" horiz-adv-x="452" 
d="M422 0h-392v136l161 273h-155v151h381v-139l-155 -263h160v-158z" />
    <glyph glyph-name="braceleft" unicode="{" horiz-adv-x="333" 
d="M303 -131h-102q-140 0 -140 112q0 35 30 130.5t30 124.5q0 19 -13 31t-38 12h-32v123h32q51 0 51 41q0 29 -30 124t-30 130q0 111 140 111h102v-123h-57q-38 0 -38 -30q0 -17 28 -98.5t28 -112.5q0 -83 -90 -103q90 -21 90 -106q0 -31 -28 -113.5t-28 -99.5q0 -30 38 -30
h57v-123z" />
    <glyph glyph-name="bar" unicode="|" horiz-adv-x="255" 
d="M190 808v-939h-125v939h125z" />
    <glyph glyph-name="braceright" unicode="}" horiz-adv-x="333" 
d="M128 -131h-98v123h57q38 0 38 30q0 17 -28 99.5t-28 113.5q0 85 90 106q-90 20 -90 103q0 31 28 112.5t28 98.5q0 30 -38 30h-57v123h98q69 0 106.5 -30.5t37.5 -85.5q0 -36 -30 -128t-30 -121q0 -41 51 -41h32v-123h-32q-25 0 -38 -12t-13 -31q0 -29 30 -122t30 -129
q0 -55 -37.5 -85.5t-106.5 -30.5z" />
    <glyph glyph-name="asciitilde" unicode="~" horiz-adv-x="428" 
d="M113 518q55 0 107 -50q36 -35 46 -35q15 0 15 19v70h125v-149q0 -49 -24.5 -74.5t-65.5 -25.5q-52 0 -108 51q-38 34 -48 34q-14 0 -14 -19v-70h-124v149q0 49 25 74.5t66 25.5z" />
    <glyph glyph-name="exclamdown" unicode="&#xa1;" horiz-adv-x="290" 
d="M255 -184h-220l55 509h110zM48 368v192h194v-192h-194z" />
    <glyph glyph-name="cent" unicode="&#xa2;" horiz-adv-x="529" 
d="M299 -76h-46v63q-116 1 -166.5 49t-50.5 141v203q0 91 51 139.5t166 48.5v65h46v-65q104 -1 150 -45t46 -125v-60h-157v40q0 53 -39 61v-318q39 8 39 61v50h157v-78q0 -77 -50 -122t-146 -45v-63zM214 182q0 -53 39 -61v318q-39 -8 -39 -61v-196z" />
    <glyph glyph-name="sterling" unicode="&#xa3;" horiz-adv-x="606" 
d="M574 244v-244h-549v147h20q36 0 58.5 20t22.5 59v5q0 35 -6 75h-95v116h76q-12 72 -12 124v19q0 190 232 190h25q121 0 167.5 -49t46.5 -134v-87h-184v67q0 50 -40 50q-42 0 -42 -52v-3q0 -31 8 -125h161v-116h-155q0 -117 -65 -156h147v94h184z" />
    <glyph glyph-name="yen" unicode="&#xa5;" horiz-adv-x="562" 
d="M178 0v187h-115v79h115v47h-115v77h88l-142 354h216l66 -226l65 226h197l-133 -354h92v-77h-117v-47h117v-79h-117v-187h-217z" />
    <glyph glyph-name="brokenbar" unicode="&#xa6;" horiz-adv-x="255" 
d="M190 808v-409h-125v409h125zM190 327v-458h-125v458h125z" />
    <glyph glyph-name="section" unicode="&#xa7;" horiz-adv-x="584" 
d="M232 278l133 -72q15 9 15 29v1q0 27 -34 46l-134 72q-14 -12 -14 -30v-1q0 -27 34 -45zM296 -196h-30q-117 0 -166.5 45t-49.5 133v61h188v-52q0 -45 44 -45t44 46v1q0 20 -10.5 33.5t-41.5 28.5l-128 61q-71 34 -99.5 70.5t-28.5 91.5v6q0 90 100 128q-59 57 -59 152v11
q0 179 224 179h28q120 0 168 -43t48 -131v-53h-188v42q0 45 -42 45t-42 -43v-1q0 -23 12 -35.5t40 -26.5l141 -71q66 -33 91 -67t25 -90v-6q0 -91 -98 -131q60 -51 60 -137v-11q0 -89 -56 -140t-174 -51z" />
    <glyph glyph-name="dieresis" unicode="&#xa8;" horiz-adv-x="400" 
d="M380 753v-147h-161v147h161zM181 753v-147h-161v147h161z" />
    <glyph glyph-name="copyright" unicode="&#xa9;" horiz-adv-x="746" 
d="M707 283q0 -152 -80.5 -224t-241.5 -72h-24q-162 0 -242 71t-80 224v182q0 145 82.5 219t240.5 74h22q158 0 240.5 -74t82.5 -219v-181zM363 62h20q123 0 180.5 54t57.5 168v176q0 117 -58 169.5t-180 52.5h-20q-122 0 -180 -52.5t-58 -169.5v-176q0 -114 57.5 -168
t180.5 -54zM345 270q0 -42 32 -42t32 42v68h144v-72q0 -154 -165 -154h-23q-95 0 -136 41.5t-41 123.5v194q0 162 176 162h23q89 0 128 -40t38 -114v-50h-144v49q0 41 -32 41t-32 -41v-208z" />
    <glyph glyph-name="ordfeminine" unicode="&#xaa;" horiz-adv-x="421" 
d="M233 530q-25 -10 -45 -22q-18 -10 -18 -36v-14q0 -32 30 -32q14 0 23.5 10.5t9.5 25.5v68zM234 392q-46 -60 -100 -60h-3q-45 0 -73 28.5t-28 71.5v41q0 40 18.5 62.5t59.5 35.5q17 5 62.5 17.5t47.5 13.5q15 4 15 26v1q0 31 -33 31q-31 0 -31 -31v-19h-133v18
q0 60 35 91t121 31h13q95 0 133 -29t38 -93v-165q0 -14 14 -14h7v-109h-117q-20 0 -32 14.5t-14 37.5z" />
    <glyph glyph-name="guillemotleft" unicode="&#xab;" horiz-adv-x="511" 
d="M184 286l74 -184h-156l-62 139v90l62 139h156zM402 286l74 -184h-158l-72 184l72 184h158z" />
    <glyph glyph-name="registered" unicode="&#xae;" horiz-adv-x="492" 
d="M458 498q0 -192 -202 -192h-19q-203 0 -203 192v80q0 96 49.5 143.5t153.5 47.5h19q202 0 202 -191v-80zM401 578q0 77 -33.5 110t-111.5 33h-19q-79 0 -112.5 -33t-33.5 -110v-78q0 -76 34 -110t112 -34h19q78 0 111.5 34t33.5 110v78zM226 627v-59h23q21 0 21 24v12
q0 23 -21 23h-23zM226 507v-111h-81v287h131q39 0 57.5 -16t18.5 -52v-11q0 -18 -8 -31.5t-15.5 -18.5t-14.5 -7q37 -14 37 -55v-68q0 -14 6 -23v-5h-79q-8 8 -8 31v55q0 14 -5 19.5t-17 5.5h-22z" />
    <glyph glyph-name="macron" unicode="&#xaf;" horiz-adv-x="400" 
d="M57 619v125h286v-125h-286z" />
    <glyph glyph-name="degree" unicode="&#xb0;" horiz-adv-x="431" 
d="M216 755q79 0 131 -49.5t52 -126.5q0 -78 -52 -127.5t-131 -49.5q-80 0 -132 49.5t-52 127.5q0 77 52 126.5t132 49.5zM217 516q26 0 43 18t17 46q0 27 -17 45t-43 18q-27 0 -44 -18t-17 -45q0 -28 17 -46t44 -18z" />
    <glyph glyph-name="acute" unicode="&#xb4;" horiz-adv-x="400" 
d="M82 606l57 160h179l-63 -160h-173z" />
    <glyph glyph-name="paragraph" unicode="&#xb6;" horiz-adv-x="571" 
d="M208 0v354h-11q-170 0 -170 163v69q0 84 42 121t128 37h357v-122h-56v-622h-114v622h-60v-622h-116z" />
    <glyph glyph-name="periodcentered" unicode="&#xb7;" horiz-adv-x="276" 
d="M236 409v-194h-196v194h196z" />
    <glyph glyph-name="cedilla" unicode="&#xb8;" horiz-adv-x="400" 
d="M81 -232v87h68q25 0 25 20v1q0 19 -25 19h-48v105h95v-42q123 0 123 -93v-3q0 -94 -140 -94h-98z" />
    <glyph glyph-name="ordmasculine" unicode="&#xba;" horiz-adv-x="435" 
d="M227 331h-20q-175 0 -175 152v115q0 152 175 152h20q175 0 175 -152v-115q0 -152 -175 -152zM216 644q-32 0 -32 -42v-122q0 -41 32 -41q35 0 35 41v122q0 42 -35 42z" />
    <glyph glyph-name="guillemotright" unicode="&#xbb;" horiz-adv-x="511" 
d="M109 286l-74 184h158l72 -184l-72 -184h-158zM327 286l-74 184h156l62 -139v-90l-62 -139h-156z" />
    <glyph glyph-name="onequarter" unicode="&#xbc;" horiz-adv-x="775" 
d="M531 744h112l-439 -744h-111zM101 587h-79v104q46 0 68.5 13t32.5 42h129v-412h-151v253zM414 163l143 249h150v-232h59v-114h-59v-66h-144v66h-149v97zM563 180v118l-65 -118h65z" />
    <glyph glyph-name="onehalf" unicode="&#xbd;" horiz-adv-x="826" 
d="M625 323q-30 0 -30 -34v-20h-135v36q0 110 157 110h19q93 0 131.5 -30t38.5 -85v-5q0 -62 -65 -102q-10 -6 -87 -43q-75 -36 -75 -54h100v41h130v-137h-356v45q0 49 13.5 77.5t70.5 71.5q10 8 36.5 26t35.5 25q29 21 37 30t8 22q0 26 -29 26zM531 744h112l-439 -744h-111
zM101 587h-79v104q46 0 68.5 13t32.5 42h129v-412h-151v253z" />
    <glyph glyph-name="threequarters" unicode="&#xbe;" horiz-adv-x="872" 
d="M628 744h112l-439 -744h-111zM511 163l143 249h150v-232h59v-114h-59v-66h-144v66h-149v97zM660 180v118l-65 -118h65zM169 618h-134v22q0 51 31.5 80.5t120.5 29.5h20q92 0 128 -26t36 -73v-4q0 -34 -19.5 -50.5t-44.5 -20.5q72 -15 72 -94v-25q0 -129 -169 -129h-20
q-95 0 -128 32t-33 90v24h141v-11q0 -31 30 -31q28 0 28 30v5q0 15 -5.5 21t-21.5 6h-77v102h76q15 0 20 6t5 19v10q0 26 -28 26t-28 -26v-13z" />
    <glyph glyph-name="questiondown" unicode="&#xbf;" horiz-adv-x="510" 
d="M199 325h154v-30q0 -43 -10 -70.5t-41 -67.5l-45 -58q-20 -26 -26 -41.5t-6 -42.5v-26q0 -40 37 -40t37 41v81h180v-85q0 -84 -45.5 -131.5t-158.5 -47.5h-27q-117 0 -168.5 45t-51.5 133v18q0 57 16 95t53 78l72 77q19 21 24.5 33.5t5.5 36.5v2zM178 368v192h194v-192
h-194z" />
    <glyph glyph-name="Agrave" unicode="&#xc0;" horiz-adv-x="540" 
d="M238 351l-14 -100h71l-14 100q-9 67 -21 184q-9 -87 -22 -184zM329 0l-13 97h-113l-13 -97h-179l115 744h275l128 -744h-200zM355 789h-184l-56 140h188z" />
    <glyph glyph-name="Aacute" unicode="&#xc1;" horiz-adv-x="540" 
d="M238 351l-14 -100h71l-14 100q-9 67 -21 184q-9 -87 -22 -184zM329 0l-13 97h-113l-13 -97h-179l115 744h275l128 -744h-200zM171 789l52 140h188l-56 -140h-184z" />
    <glyph glyph-name="Acircumflex" unicode="&#xc2;" horiz-adv-x="540" 
d="M238 351l-14 -100h71l-14 100q-9 67 -21 184q-9 -87 -22 -184zM329 0l-13 97h-113l-13 -97h-179l115 744h275l128 -744h-200zM367 929l90 -142h-157l-37 63l-37 -63h-155l90 142h206z" />
    <glyph glyph-name="Atilde" unicode="&#xc3;" horiz-adv-x="540" 
d="M238 351l-14 -100h71l-14 100q-9 67 -21 184q-9 -87 -22 -184zM329 0l-13 97h-113l-13 -97h-179l115 744h275l128 -744h-200zM428 947v-70q0 -39 -19 -62.5t-54 -23.5h-3q-32 0 -87 24q-43 18 -48 18q-9 0 -9 -14v-30h-109v70q0 38 19.5 62t53.5 24h3q30 0 87 -25
q43 -18 48 -18q9 0 9 14v31h109z" />
    <glyph glyph-name="Adieresis" unicode="&#xc4;" horiz-adv-x="540" 
d="M238 351l-14 -100h71l-14 100q-9 67 -21 184q-9 -87 -22 -184zM329 0l-13 97h-113l-13 -97h-179l115 744h275l128 -744h-200zM444 936v-147h-161v147h161zM243 936v-147h-161v147h161z" />
    <glyph glyph-name="Aring" unicode="&#xc5;" horiz-adv-x="540" 
d="M238 351l-14 -100h71l-14 100q-9 67 -21 184q-9 -87 -22 -184zM329 0l-13 97h-113l-13 -97h-179l115 744h275l128 -744h-200zM263 779q-51 0 -82 29.5t-31 77.5q0 49 30.5 77.5t82.5 28.5q51 0 82 -28.5t31 -77.5q0 -48 -31 -77.5t-82 -29.5zM263 841q19 0 31 12t12 33
t-12 33t-31 12t-31 -12t-12 -33t12 -33t31 -12z" />
    <glyph glyph-name="AE" unicode="&#xc6;" horiz-adv-x="735" 
d="M322 269v322l-67 -322h67zM322 0v102h-102l-21 -102h-200l183 744h517v-173h-177v-99h150v-176h-150v-121h183v-175h-383z" />
    <glyph glyph-name="Ccedilla" unicode="&#xc7;" horiz-adv-x="571" 
d="M281 -232h-98v87h68q25 0 25 20v1q0 19 -25 19h-48v100q-164 30 -164 226v307q0 110 54.5 168.5t181.5 58.5h35q226 0 226 -199v-105h-201v91q0 51 -42 51q-40 0 -40 -51v-332q0 -54 40 -54q42 0 42 54v112h201v-126q0 -91 -54 -149t-171 -58h-13v-31q123 0 123 -93v-3
q0 -94 -140 -94z" />
    <glyph glyph-name="Egrave" unicode="&#xc8;" horiz-adv-x="472" 
d="M45 744h392v-173h-190v-99h163v-176h-163v-121h195v-175h-397v744zM334 789h-184l-56 140h188z" />
    <glyph glyph-name="Eacute" unicode="&#xc9;" horiz-adv-x="472" 
d="M45 744h392v-173h-190v-99h163v-176h-163v-121h195v-175h-397v744zM150 789l52 140h188l-56 -140h-184z" />
    <glyph glyph-name="Ecircumflex" unicode="&#xca;" horiz-adv-x="472" 
d="M45 744h392v-173h-190v-99h163v-176h-163v-121h195v-175h-397v744zM346 929l90 -142h-157l-37 63l-37 -63h-155l90 142h206z" />
    <glyph glyph-name="Edieresis" unicode="&#xcb;" horiz-adv-x="472" 
d="M45 744h392v-173h-190v-99h163v-176h-163v-121h195v-175h-397v744zM423 936v-147h-161v147h161zM222 936v-147h-161v147h161z" />
    <glyph glyph-name="Igrave" unicode="&#xcc;" horiz-adv-x="302" 
d="M257 744v-744h-212v744h212zM243 789h-184l-56 140h188z" />
    <glyph glyph-name="Iacute" unicode="&#xcd;" horiz-adv-x="302" 
d="M257 744v-744h-212v744h212zM59 789l52 140h188l-56 -140h-184z" />
    <glyph glyph-name="Icircumflex" unicode="&#xce;" horiz-adv-x="302" 
d="M257 744v-744h-212v744h212zM255 929l90 -142h-157l-37 63l-37 -63h-155l90 142h206z" />
    <glyph glyph-name="Idieresis" unicode="&#xcf;" horiz-adv-x="302" 
d="M257 744v-744h-212v744h212zM332 936v-147h-161v147h161zM131 936v-147h-161v147h161z" />
    <glyph glyph-name="Eth" unicode="&#xd0;" horiz-adv-x="616" 
d="M312 161q26 0 37 14t11 48v305q0 31 -11 45t-37 14h-38v-119h46v-162h-46v-145h38zM62 0v306h-50v162h50v276h307q105 0 155.5 -48.5t50.5 -155.5v-336q0 -107 -50 -155.5t-152 -48.5h-311z" />
    <glyph glyph-name="Ntilde" unicode="&#xd1;" horiz-adv-x="583" 
d="M333 472q28 -88 38 -130q-3 55 -3 146v256h170v-744h-180l-109 313q-22 64 -36 119q4 -47 4 -146v-286h-172v744h200zM457 947v-70q0 -39 -19 -62.5t-54 -23.5h-3q-32 0 -87 24q-43 18 -48 18q-9 0 -9 -14v-30h-109v70q0 38 19.5 62t53.5 24h3q30 0 87 -25q43 -18 48 -18
q9 0 9 14v31h109z" />
    <glyph glyph-name="Ograve" unicode="&#xd2;" horiz-adv-x="596" 
d="M557 530v-316q0 -104 -61 -164.5t-180 -60.5h-36q-123 0 -182 60.5t-59 164.5v316q0 225 241 225h36q121 0 181 -58.5t60 -166.5zM343 216v310q0 56 -45 56t-45 -56v-310q0 -53 45 -53t45 53zM390 789h-184l-56 140h188z" />
    <glyph glyph-name="Oacute" unicode="&#xd3;" horiz-adv-x="596" 
d="M557 530v-316q0 -104 -61 -164.5t-180 -60.5h-36q-123 0 -182 60.5t-59 164.5v316q0 225 241 225h36q121 0 181 -58.5t60 -166.5zM343 216v310q0 56 -45 56t-45 -56v-310q0 -53 45 -53t45 53zM206 789l52 140h188l-56 -140h-184z" />
    <glyph glyph-name="Ocircumflex" unicode="&#xd4;" horiz-adv-x="596" 
d="M557 530v-316q0 -104 -61 -164.5t-180 -60.5h-36q-123 0 -182 60.5t-59 164.5v316q0 225 241 225h36q121 0 181 -58.5t60 -166.5zM343 216v310q0 56 -45 56t-45 -56v-310q0 -53 45 -53t45 53zM402 929l90 -142h-157l-37 63l-37 -63h-155l90 142h206z" />
    <glyph glyph-name="Otilde" unicode="&#xd5;" horiz-adv-x="596" 
d="M557 530v-316q0 -104 -61 -164.5t-180 -60.5h-36q-123 0 -182 60.5t-59 164.5v316q0 225 241 225h36q121 0 181 -58.5t60 -166.5zM343 216v310q0 56 -45 56t-45 -56v-310q0 -53 45 -53t45 53zM463 947v-70q0 -39 -19 -62.5t-54 -23.5h-3q-32 0 -87 24q-43 18 -48 18
q-9 0 -9 -14v-30h-109v70q0 38 19.5 62t53.5 24h3q30 0 87 -25q43 -18 48 -18q9 0 9 14v31h109z" />
    <glyph glyph-name="Odieresis" unicode="&#xd6;" horiz-adv-x="596" 
d="M557 530v-316q0 -104 -61 -164.5t-180 -60.5h-36q-123 0 -182 60.5t-59 164.5v316q0 225 241 225h36q121 0 181 -58.5t60 -166.5zM343 216v310q0 56 -45 56t-45 -56v-310q0 -53 45 -53t45 53zM479 936v-147h-161v147h161zM278 936v-147h-161v147h161z" />
    <glyph glyph-name="multiply" unicode="&#xd7;" horiz-adv-x="462" 
d="M353 94l-123 122l-121 -122l-89 86l122 123l-122 121l89 92l123 -122l121 122l89 -86l-123 -124l123 -122z" />
    <glyph glyph-name="Oslash" unicode="&#xd8;" horiz-adv-x="596" 
d="M283 -11q-87 0 -138 40l-18 -29h-103l52 88q-37 56 -37 126v316q0 225 238 225h36q89 0 137 -38l17 27h105l-52 -84q37 -56 37 -130v-316q0 -104 -61 -164.5t-177 -60.5h-36zM242 487q0 -97 -4 -150l111 214q-10 34 -51 34q-56 0 -56 -68v-30zM297 160q56 0 56 66v30
q0 73 4 161l-113 -216q9 -41 53 -41z" />
    <glyph glyph-name="Ugrave" unicode="&#xd9;" horiz-adv-x="584" 
d="M308 -13h-34q-121 0 -176.5 57t-55.5 152v548h207v-515q0 -55 43 -55q44 0 44 55v515h206v-548q0 -91 -60.5 -150t-173.5 -59zM384 789h-184l-56 140h188z" />
    <glyph glyph-name="Uacute" unicode="&#xda;" horiz-adv-x="584" 
d="M308 -13h-34q-121 0 -176.5 57t-55.5 152v548h207v-515q0 -55 43 -55q44 0 44 55v515h206v-548q0 -91 -60.5 -150t-173.5 -59zM200 789l52 140h188l-56 -140h-184z" />
    <glyph glyph-name="Ucircumflex" unicode="&#xdb;" horiz-adv-x="584" 
d="M308 -13h-34q-121 0 -176.5 57t-55.5 152v548h207v-515q0 -55 43 -55q44 0 44 55v515h206v-548q0 -91 -60.5 -150t-173.5 -59zM396 929l90 -142h-157l-37 63l-37 -63h-155l90 142h206z" />
    <glyph glyph-name="Udieresis" unicode="&#xdc;" horiz-adv-x="584" 
d="M308 -13h-34q-121 0 -176.5 57t-55.5 152v548h207v-515q0 -55 43 -55q44 0 44 55v515h206v-548q0 -91 -60.5 -150t-173.5 -59zM473 936v-147h-161v147h161zM272 936v-147h-161v147h161z" />
    <glyph glyph-name="Yacute" unicode="&#xdd;" horiz-adv-x="536" 
d="M159 0v273l-156 471h213l60 -248l60 248h197l-146 -475v-269h-228zM183 789l52 140h188l-56 -140h-184z" />
    <glyph glyph-name="Thorn" unicode="&#xde;" horiz-adv-x="568" 
d="M371 163h-115v-163h-211v744h211v-130h115q171 0 171 -168v-114q0 -84 -44.5 -126.5t-126.5 -42.5zM256 472v-161h33q43 0 43 47v68q0 26 -10 36t-33 10h-33z" />
    <glyph glyph-name="germandbls" unicode="&#xdf;" horiz-adv-x="580" 
d="M442 456q106 -24 106 -145v-152q0 -77 -39 -118t-112 -41h-112v149h10q22 0 30 9t8 33v105q0 27 -7 34.5t-30 7.5h-11v147h11q22 0 29.5 8.5t7.5 33.5v52q0 49 -43 49h-1q-41 0 -41 -49v-579h-206v587q0 185 219 185h53q120 0 168 -43t48 -117v-35q0 -31 -10 -55t-26 -37
t-28.5 -20t-23.5 -9z" />
    <glyph glyph-name="agrave" unicode="&#xe0;" horiz-adv-x="540" 
d="M298 160v113q-43 -19 -55 -27q-26 -17 -26 -50v-36q0 -43 40 -43q19 0 30 12.5t11 30.5zM27 125v72q0 58 27 90.5t86 50.5q26 8 78 21.5t66 17.5t14 23v8q0 23 -9 33.5t-33 10.5h-1q-23 0 -32.5 -11t-9.5 -34v-25h-179v35q0 78 51.5 117t167.5 39h23q116 0 167 -38.5
t51 -117.5v-244q0 -22 24 -22h5v-151h-163q-24 0 -40.5 16t-19.5 48q-18 -25 -55 -48.5t-81 -23.5h-1q-64 0 -100 37t-36 96zM343 606h-173l-63 160h179z" />
    <glyph glyph-name="aacute" unicode="&#xe1;" horiz-adv-x="540" 
d="M298 160v113q-43 -19 -55 -27q-26 -17 -26 -50v-36q0 -43 40 -43q19 0 30 12.5t11 30.5zM27 125v72q0 58 27 90.5t86 50.5q26 8 78 21.5t66 17.5t14 23v8q0 23 -9 33.5t-33 10.5h-1q-23 0 -32.5 -11t-9.5 -34v-25h-179v35q0 78 51.5 117t167.5 39h23q116 0 167 -38.5
t51 -117.5v-244q0 -22 24 -22h5v-151h-163q-24 0 -40.5 16t-19.5 48q-18 -25 -55 -48.5t-81 -23.5h-1q-64 0 -100 37t-36 96zM170 606l57 160h179l-63 -160h-173z" />
    <glyph glyph-name="acircumflex" unicode="&#xe2;" horiz-adv-x="540" 
d="M298 160v113q-43 -19 -55 -27q-26 -17 -26 -50v-36q0 -43 40 -43q19 0 30 12.5t11 30.5zM27 125v72q0 58 27 90.5t86 50.5q26 8 78 21.5t66 17.5t14 23v8q0 23 -9 33.5t-33 10.5h-1q-23 0 -32.5 -11t-9.5 -34v-25h-179v35q0 78 51.5 117t167.5 39h23q116 0 167 -38.5
t51 -117.5v-244q0 -22 24 -22h5v-151h-163q-24 0 -40.5 16t-19.5 48q-18 -25 -55 -48.5t-81 -23.5h-1q-64 0 -100 37t-36 96zM363 766l83 -161h-154l-36 79l-36 -79h-152l83 161h212z" />
    <glyph glyph-name="atilde" unicode="&#xe3;" horiz-adv-x="540" 
d="M298 160v113q-43 -19 -55 -27q-26 -17 -26 -50v-36q0 -43 40 -43q19 0 30 12.5t11 30.5zM27 125v72q0 58 27 90.5t86 50.5q26 8 78 21.5t66 17.5t14 23v8q0 23 -9 33.5t-33 10.5h-1q-23 0 -32.5 -11t-9.5 -34v-25h-179v35q0 78 51.5 117t167.5 39h23q116 0 167 -38.5
t51 -117.5v-244q0 -22 24 -22h5v-151h-163q-24 0 -40.5 16t-19.5 48q-18 -25 -55 -48.5t-81 -23.5h-1q-64 0 -100 37t-36 96zM421 774v-80q0 -39 -19 -62.5t-53 -23.5h-3q-32 0 -87 24q-41 18 -47 18q-9 0 -9 -14v-30h-111v80q0 38 19 62t53 24h3q34 0 86 -24q41 -19 48 -19
q9 0 9 15v30h111z" />
    <glyph glyph-name="adieresis" unicode="&#xe4;" horiz-adv-x="540" 
d="M298 160v113q-43 -19 -55 -27q-26 -17 -26 -50v-36q0 -43 40 -43q19 0 30 12.5t11 30.5zM27 125v72q0 58 27 90.5t86 50.5q26 8 78 21.5t66 17.5t14 23v8q0 23 -9 33.5t-33 10.5h-1q-23 0 -32.5 -11t-9.5 -34v-25h-179v35q0 78 51.5 117t167.5 39h23q116 0 167 -38.5
t51 -117.5v-244q0 -22 24 -22h5v-151h-163q-24 0 -40.5 16t-19.5 48q-18 -25 -55 -48.5t-81 -23.5h-1q-64 0 -100 37t-36 96zM445 753v-147h-161v147h161zM246 753v-147h-161v147h161z" />
    <glyph glyph-name="aring" unicode="&#xe5;" horiz-adv-x="540" 
d="M298 160v113q-43 -19 -55 -27q-26 -17 -26 -50v-36q0 -43 40 -43q19 0 30 12.5t11 30.5zM27 125v72q0 58 27 90.5t86 50.5q26 8 78 21.5t66 17.5t14 23v8q0 23 -9 33.5t-33 10.5h-1q-23 0 -32.5 -11t-9.5 -34v-25h-179v35q0 78 51.5 117t167.5 39h23q116 0 167 -38.5
t51 -117.5v-244q0 -22 24 -22h5v-151h-163q-24 0 -40.5 16t-19.5 48q-18 -25 -55 -48.5t-81 -23.5h-1q-64 0 -100 37t-36 96zM256 600q-51 0 -82 29.5t-31 77.5q0 49 30.5 77.5t82.5 28.5q51 0 82 -28.5t31 -77.5q0 -48 -31 -77.5t-82 -29.5zM256 662q19 0 31 12t12 33
t-12 33t-31 12t-31 -12t-12 -33t12 -33t31 -12z" />
    <glyph glyph-name="ae" unicode="&#xe6;" horiz-adv-x="807" 
d="M498 409v-48h81v48q0 47 -40 47q-41 0 -41 -47zM299 160v105q-43 -19 -55 -27q-26 -17 -26 -50v-28q0 -43 40 -43q19 0 30 12.5t11 30.5zM770 174q0 -89 -54.5 -139t-156.5 -50h-35q-142 0 -192 83q-62 -76 -160 -76h-1q-69 0 -106 37t-37 97v63q0 58 27 90.5t86 50.5
q26 8 78 21.5t66 17.5t14 23v16q0 23 -9 33.5t-33 10.5h-1q-23 0 -32.5 -11t-9.5 -34v-31h-179v41q0 78 49.5 117t157.5 39h24q101 0 139 -40q37 39 121 39h36q208 0 208 -198v-112h-272v-101q0 -48 41 -48q40 0 40 48v55h191v-42z" />
    <glyph glyph-name="ccedilla" unicode="&#xe7;" horiz-adv-x="534" 
d="M264 -232h-98v87h68q25 0 25 20v1q0 19 -25 19h-48v97q-150 27 -150 186v206q0 190 217 190h43q103 0 152.5 -45t49.5 -126v-65h-184v53q0 48 -37 48q-36 0 -36 -48v-219q0 -45 36 -45q37 0 37 45v69h184v-78q0 -81 -49.5 -128.5t-152.5 -47.5h-15v-29q123 0 123 -93v-3
q0 -94 -140 -94z" />
    <glyph glyph-name="egrave" unicode="&#xe8;" horiz-adv-x="544" 
d="M236 411v-52h80v52q0 47 -40 47t-40 -47zM508 176q0 -89 -55 -139t-157 -50h-40q-220 0 -220 196v190q0 201 220 201h40q212 0 212 -198v-116h-272v-97q0 -48 40 -48t40 48v50h192v-37zM363 606h-173l-63 160h179z" />
    <glyph glyph-name="eacute" unicode="&#xe9;" horiz-adv-x="544" 
d="M236 411v-52h80v52q0 47 -40 47t-40 -47zM508 176q0 -89 -55 -139t-157 -50h-40q-220 0 -220 196v190q0 201 220 201h40q212 0 212 -198v-116h-272v-97q0 -48 40 -48t40 48v50h192v-37zM190 606l57 160h179l-63 -160h-173z" />
    <glyph glyph-name="ecircumflex" unicode="&#xea;" horiz-adv-x="544" 
d="M236 411v-52h80v52q0 47 -40 47t-40 -47zM508 176q0 -89 -55 -139t-157 -50h-40q-220 0 -220 196v190q0 201 220 201h40q212 0 212 -198v-116h-272v-97q0 -48 40 -48t40 48v50h192v-37zM383 766l83 -161h-154l-36 79l-36 -79h-152l83 161h212z" />
    <glyph glyph-name="edieresis" unicode="&#xeb;" horiz-adv-x="544" 
d="M236 411v-52h80v52q0 47 -40 47t-40 -47zM508 176q0 -89 -55 -139t-157 -50h-40q-220 0 -220 196v190q0 201 220 201h40q212 0 212 -198v-116h-272v-97q0 -48 40 -48t40 48v50h192v-37zM456 753v-147h-161v147h161zM257 753v-147h-161v147h161z" />
    <glyph glyph-name="igrave" unicode="&#xec;" horiz-adv-x="290" 
d="M233 606h-173l-63 160h179zM248 560v-560h-206v560h206z" />
    <glyph glyph-name="iacute" unicode="&#xed;" horiz-adv-x="290" 
d="M60 606l57 160h179l-63 -160h-173zM248 560v-560h-206v560h206z" />
    <glyph glyph-name="icircumflex" unicode="&#xee;" horiz-adv-x="290" 
d="M256 766l73 -161h-149l-34 84l-34 -84h-147l73 161h218zM248 560v-560h-206v560h206z" />
    <glyph glyph-name="idieresis" unicode="&#xef;" horiz-adv-x="290" 
d="M307 753v-147h-146v147h146zM128 753v-147h-146v147h146zM248 560v-560h-206v560h206z" />
    <glyph glyph-name="eth" unicode="&#xf0;" horiz-adv-x="568" 
d="M261 -13q-225 0 -225 203v204q0 73 37.5 119.5t104.5 46.5h6q86 0 142 -61l-81 118l-138 -35v77l93 24l-51 74h205l22 -30l111 28v-76l-65 -17l39 -54q40 -56 55.5 -105t15.5 -122v-186q0 -95 -54.5 -151.5t-176.5 -56.5h-40zM284 130q43 0 43 50v204q0 51 -43 51
q-42 0 -42 -51v-204q0 -50 42 -50z" />
    <glyph glyph-name="ntilde" unicode="&#xf1;" horiz-adv-x="578" 
d="M42 0v560h202v-73q58 81 147 81h9q68 0 102.5 -38t34.5 -105v-425h-206v366q0 52 -43 52q-42 0 -42 -53v-365h-204zM453 774v-80q0 -39 -19 -62.5t-53 -23.5h-3q-32 0 -87 24q-41 18 -47 18q-9 0 -9 -14v-30h-111v80q0 38 19 62t53 24h3q34 0 86 -24q41 -19 48 -19
q9 0 9 15v30h111z" />
    <glyph glyph-name="ograve" unicode="&#xf2;" horiz-adv-x="568" 
d="M262 -13q-226 0 -226 205v179q0 95 54.5 149t171.5 54h44q226 0 226 -203v-178q0 -97 -56 -151.5t-170 -54.5h-44zM284 130q43 0 43 50v204q0 51 -43 51q-42 0 -42 -51v-204q0 -50 42 -50zM371 606h-173l-63 160h179z" />
    <glyph glyph-name="oacute" unicode="&#xf3;" horiz-adv-x="568" 
d="M262 -13q-226 0 -226 205v179q0 95 54.5 149t171.5 54h44q226 0 226 -203v-178q0 -97 -56 -151.5t-170 -54.5h-44zM284 130q43 0 43 50v204q0 51 -43 51q-42 0 -42 -51v-204q0 -50 42 -50zM198 606l57 160h179l-63 -160h-173z" />
    <glyph glyph-name="ocircumflex" unicode="&#xf4;" horiz-adv-x="568" 
d="M262 -13q-226 0 -226 205v179q0 95 54.5 149t171.5 54h44q226 0 226 -203v-178q0 -97 -56 -151.5t-170 -54.5h-44zM284 130q43 0 43 50v204q0 51 -43 51q-42 0 -42 -51v-204q0 -50 42 -50zM391 766l83 -161h-154l-36 79l-36 -79h-152l83 161h212z" />
    <glyph glyph-name="otilde" unicode="&#xf5;" horiz-adv-x="568" 
d="M262 -13q-226 0 -226 205v179q0 95 54.5 149t171.5 54h44q226 0 226 -203v-178q0 -97 -56 -151.5t-170 -54.5h-44zM284 130q43 0 43 50v204q0 51 -43 51q-42 0 -42 -51v-204q0 -50 42 -50zM449 774v-80q0 -39 -19 -62.5t-53 -23.5h-3q-32 0 -87 24q-41 18 -47 18
q-9 0 -9 -14v-30h-111v80q0 38 19 62t53 24h3q34 0 86 -24q41 -19 48 -19q9 0 9 15v30h111z" />
    <glyph glyph-name="odieresis" unicode="&#xf6;" horiz-adv-x="568" 
d="M262 -13q-226 0 -226 205v179q0 95 54.5 149t171.5 54h44q226 0 226 -203v-178q0 -97 -56 -151.5t-170 -54.5h-44zM284 130q43 0 43 50v204q0 51 -43 51q-42 0 -42 -51v-204q0 -50 42 -50zM464 753v-147h-161v147h161zM265 753v-147h-161v147h161z" />
    <glyph glyph-name="divide" unicode="&#xf7;" horiz-adv-x="512" 
d="M337 566v-143h-162v143h162zM35 368h442v-126h-442v126zM337 184v-142h-162v142h162z" />
    <glyph glyph-name="oslash" unicode="&#xf8;" horiz-adv-x="568" 
d="M261 -13q-70 0 -124 33l-16 -20h-95l51 65q-41 52 -41 127v179q0 95 54.5 149t171.5 54h44q69 0 122 -33l16 19h98l-52 -63q42 -53 42 -126v-178q0 -97 -56.5 -151.5t-170.5 -54.5h-44zM230 360q0 -79 -2 -106l105 157q-13 24 -49 24q-54 0 -54 -61v-14zM284 130
q55 0 55 61v13q0 78 2 108l-106 -157q14 -25 49 -25z" />
    <glyph glyph-name="ugrave" unicode="&#xf9;" horiz-adv-x="574" 
d="M532 560v-560h-202v73q-11 -16 -27 -31.5t-50 -32.5t-71 -17h-6q-64 0 -99.5 38t-35.5 105v425h206v-368q0 -49 40 -49q41 0 41 50v367h204zM373 606h-173l-63 160h179z" />
    <glyph glyph-name="uacute" unicode="&#xfa;" horiz-adv-x="574" 
d="M532 560v-560h-202v73q-11 -16 -27 -31.5t-50 -32.5t-71 -17h-6q-64 0 -99.5 38t-35.5 105v425h206v-368q0 -49 40 -49q41 0 41 50v367h204zM201 606l57 160h179l-63 -160h-173z" />
    <glyph glyph-name="ucircumflex" unicode="&#xfb;" horiz-adv-x="574" 
d="M532 560v-560h-202v73q-11 -16 -27 -31.5t-50 -32.5t-71 -17h-6q-64 0 -99.5 38t-35.5 105v425h206v-368q0 -49 40 -49q41 0 41 50v367h204zM393 766l83 -161h-154l-36 79l-36 -79h-152l83 161h212z" />
    <glyph glyph-name="udieresis" unicode="&#xfc;" horiz-adv-x="574" 
d="M532 560v-560h-202v73q-11 -16 -27 -31.5t-50 -32.5t-71 -17h-6q-64 0 -99.5 38t-35.5 105v425h206v-368q0 -49 40 -49q41 0 41 50v367h204zM466 753v-147h-161v147h161zM267 753v-147h-161v147h161z" />
    <glyph glyph-name="yacute" unicode="&#xfd;" horiz-adv-x="529" 
d="M68 -184v157h63q22 0 22 17v1q0 11 -13 60l-132 509h207l54 -360l51 360h201l-155 -643q-14 -55 -41 -78t-79 -23h-178zM182 606l57 160h179l-63 -160h-173z" />
    <glyph glyph-name="thorn" unicode="&#xfe;" horiz-adv-x="572" 
d="M287 125q41 0 41 53v195q0 54 -41 54q-40 0 -40 -54v-195q0 -53 40 -53zM534 151q0 -72 -38.5 -114.5t-104.5 -42.5h-7q-76 0 -135 61v-239h-207v941h205v-268q56 76 142 76h7q66 0 102 -39.5t36 -117.5v-257z" />
    <glyph glyph-name="ydieresis" unicode="&#xff;" horiz-adv-x="529" 
d="M68 -184v157h63q22 0 22 17v1q0 11 -13 60l-132 509h207l54 -360l51 360h201l-155 -643q-14 -55 -41 -78t-79 -23h-178zM446 753v-147h-161v147h161zM247 753v-147h-161v147h161z" />
    <glyph glyph-name="Amacron" unicode="&#x100;" horiz-adv-x="540" 
d="M238 351l-14 -100h71l-14 100q-9 67 -21 184q-9 -87 -22 -184zM329 0l-13 97h-113l-13 -97h-179l115 744h275l128 -744h-200zM120 797v125h286v-125h-286z" />
    <glyph glyph-name="amacron" unicode="&#x101;" horiz-adv-x="540" 
d="M298 160v113q-43 -19 -55 -27q-26 -17 -26 -50v-36q0 -43 40 -43q19 0 30 12.5t11 30.5zM27 125v72q0 58 27 90.5t86 50.5q26 8 78 21.5t66 17.5t14 23v8q0 23 -9 33.5t-33 10.5h-1q-23 0 -32.5 -11t-9.5 -34v-25h-179v35q0 78 51.5 117t167.5 39h23q116 0 167 -38.5
t51 -117.5v-244q0 -22 24 -22h5v-151h-163q-24 0 -40.5 16t-19.5 48q-18 -25 -55 -48.5t-81 -23.5h-1q-64 0 -100 37t-36 96zM121 619v125h286v-125h-286z" />
    <glyph glyph-name="Abreve" unicode="&#x102;" horiz-adv-x="540" 
d="M238 351l-14 -100h71l-14 100q-9 67 -21 184q-9 -87 -22 -184zM329 0l-13 97h-113l-13 -97h-179l115 744h275l128 -744h-200zM261 783q-78 0 -119.5 38.5t-41.5 101.5v6h130v-4q0 -36 33 -36t33 36v4h132v-6q0 -63 -41.5 -101.5t-119.5 -38.5h-6z" />
    <glyph glyph-name="abreve" unicode="&#x103;" horiz-adv-x="540" 
d="M298 160v113q-43 -19 -55 -27q-26 -17 -26 -50v-36q0 -43 40 -43q19 0 30 12.5t11 30.5zM27 125v72q0 58 27 90.5t86 50.5q26 8 78 21.5t66 17.5t14 23v8q0 23 -9 33.5t-33 10.5h-1q-23 0 -32.5 -11t-9.5 -34v-25h-179v35q0 78 51.5 117t167.5 39h23q116 0 167 -38.5
t51 -117.5v-244q0 -22 24 -22h5v-151h-163q-24 0 -40.5 16t-19.5 48q-18 -25 -55 -48.5t-81 -23.5h-1q-64 0 -100 37t-36 96zM255 603q-78 0 -118.5 39t-40.5 107v12h131v-8q0 -42 31 -42t31 42v8h131v-12q0 -68 -40.5 -107t-118.5 -39h-6z" />
    <glyph glyph-name="Aogonek" unicode="&#x104;" horiz-adv-x="540" 
d="M238 351l-14 -100h71l-14 100q-9 67 -21 184q-9 -87 -22 -184zM329 0l-13 97h-113l-13 -97h-179l115 744h275l128 -744h-200zM319 -113v3q0 36 34 62t93 48h83q-52 -44 -52 -66v-2q0 -21 34 -21h18v-97h-108q-102 0 -102 73z" />
    <glyph glyph-name="aogonek" unicode="&#x105;" horiz-adv-x="540" 
d="M313 -113v3q0 36 34 62t93 48h-80q-24 0 -40.5 16t-19.5 48q-18 -25 -55 -48.5t-81 -23.5h-1q-64 0 -100 37t-36 96v72q0 58 27 90.5t86 50.5q26 8 78 21.5t66 17.5t14 23v8q0 23 -9 33.5t-33 10.5h-1q-23 0 -32.5 -11t-9.5 -34v-25h-179v35q0 78 51.5 117t167.5 39h23
q116 0 167 -38.5t51 -117.5v-244q0 -22 24 -22h5v-151q-52 -44 -52 -66v-2q0 -21 34 -21h18v-97h-108q-102 0 -102 73zM298 160v113q-43 -19 -55 -27q-26 -17 -26 -50v-36q0 -43 40 -43q19 0 30 12.5t11 30.5z" />
    <glyph glyph-name="Cacute" unicode="&#x106;" horiz-adv-x="571" 
d="M293 156q42 0 42 54v112h201v-126q0 -91 -54 -149t-171 -58h-35q-126 0 -181.5 59t-55.5 173v307q0 110 54.5 168.5t181.5 58.5h35q226 0 226 -199v-105h-201v91q0 51 -42 51q-40 0 -40 -51v-332q0 -54 40 -54zM201 789l52 140h188l-56 -140h-184z" />
    <glyph glyph-name="cacute" unicode="&#x107;" horiz-adv-x="534" 
d="M296 -13h-43q-217 0 -217 191v206q0 190 217 190h43q103 0 152.5 -45t49.5 -126v-65h-184v53q0 48 -37 48q-36 0 -36 -48v-219q0 -45 36 -45q37 0 37 45v69h184v-78q0 -81 -49.5 -128.5t-152.5 -47.5zM189 606l57 160h179l-63 -160h-173z" />
    <glyph glyph-name="Ccircumflex" unicode="&#x108;" horiz-adv-x="571" 
d="M293 156q42 0 42 54v112h201v-126q0 -91 -54 -149t-171 -58h-35q-126 0 -181.5 59t-55.5 173v307q0 110 54.5 168.5t181.5 58.5h35q226 0 226 -199v-105h-201v91q0 51 -42 51q-40 0 -40 -51v-332q0 -54 40 -54zM397 929l90 -142h-157l-37 63l-37 -63h-155l90 142h206z
" />
    <glyph glyph-name="ccircumflex" unicode="&#x109;" horiz-adv-x="534" 
d="M296 -13h-43q-217 0 -217 191v206q0 190 217 190h43q103 0 152.5 -45t49.5 -126v-65h-184v53q0 48 -37 48q-36 0 -36 -48v-219q0 -45 36 -45q37 0 37 45v69h184v-78q0 -81 -49.5 -128.5t-152.5 -47.5zM382 766l83 -161h-154l-36 79l-36 -79h-152l83 161h212z" />
    <glyph glyph-name="Cdotaccent" unicode="&#x10a;" horiz-adv-x="571" 
d="M293 156q42 0 42 54v112h201v-126q0 -91 -54 -149t-171 -58h-35q-126 0 -181.5 59t-55.5 173v307q0 110 54.5 168.5t181.5 58.5h35q226 0 226 -199v-105h-201v91q0 51 -42 51q-40 0 -40 -51v-332q0 -54 40 -54zM397 946v-157h-206v157h206z" />
    <glyph glyph-name="cdotaccent" unicode="&#x10b;" horiz-adv-x="534" 
d="M296 -13h-43q-217 0 -217 191v206q0 190 217 190h43q103 0 152.5 -45t49.5 -126v-65h-184v53q0 48 -37 48q-36 0 -36 -48v-219q0 -45 36 -45q37 0 37 45v69h184v-78q0 -81 -49.5 -128.5t-152.5 -47.5zM371 763v-157h-206v157h206z" />
    <glyph glyph-name="Ccaron" unicode="&#x10c;" horiz-adv-x="571" 
d="M293 156q42 0 42 54v112h201v-126q0 -91 -54 -149t-171 -58h-35q-126 0 -181.5 59t-55.5 173v307q0 110 54.5 168.5t181.5 58.5h35q226 0 226 -199v-105h-201v91q0 51 -42 51q-40 0 -40 -51v-332q0 -54 40 -54zM189 789l-90 142h157l37 -63l37 63h155l-90 -142h-206z" />
    <glyph glyph-name="ccaron" unicode="&#x10d;" horiz-adv-x="534" 
d="M296 -13h-43q-217 0 -217 191v206q0 190 217 190h43q103 0 152.5 -45t49.5 -126v-65h-184v53q0 48 -37 48q-36 0 -36 -48v-219q0 -45 36 -45q37 0 37 45v69h184v-78q0 -81 -49.5 -128.5t-152.5 -47.5zM169 606l-84 160h154l36 -78l36 78h152l-84 -160h-210z" />
    <glyph glyph-name="Dcaron" unicode="&#x10e;" horiz-adv-x="599" 
d="M45 0v744h307q105 0 155.5 -48.5t50.5 -155.5v-336q0 -107 -50 -155.5t-152 -48.5h-311zM257 587v-426h38q26 0 37 14t11 48v305q0 31 -11 45t-37 14h-38zM162 789l-90 142h157l37 -63l37 63h155l-90 -142h-206z" />
    <glyph glyph-name="dcaron" unicode="&#x10f;" horiz-adv-x="574" 
d="M287 126q20 0 31 14t11 38v194q0 53 -42 53q-41 0 -41 -53v-195q0 -51 41 -51zM329 757h204v-757h-202v61q-62 -72 -140 -72h-6q-69 0 -108 44t-39 110v271q0 70 38 111t104 41h6q37 0 69 -13t44 -22.5t30 -27.5v254zM565 606l11 157h136l-17 -157h-130z" />
    <glyph glyph-name="Dcroat" unicode="&#x110;" horiz-adv-x="616" 
d="M312 161q26 0 37 14t11 48v305q0 31 -11 45t-37 14h-38v-119h46v-162h-46v-145h38zM62 0v306h-50v162h50v276h307q105 0 155.5 -48.5t50.5 -155.5v-336q0 -107 -50 -155.5t-152 -48.5h-311z" />
    <glyph glyph-name="dcroat" unicode="&#x111;" horiz-adv-x="574" 
d="M329 757h204v-57h60v-104h-60v-596h-202v61q-62 -72 -140 -72h-6q-69 0 -108 44t-39 110v271q0 70 38 111t104 41h6q37 0 69 -13t44 -22.5t30 -27.5v93h-123v104h123v57zM287 126q20 0 31 14t11 38v194q0 53 -42 53q-41 0 -41 -53v-195q0 -51 41 -51z" />
    <glyph glyph-name="Emacron" unicode="&#x112;" horiz-adv-x="472" 
d="M45 744h392v-173h-190v-99h163v-176h-163v-121h195v-175h-397v744zM99 797v125h286v-125h-286z" />
    <glyph glyph-name="emacron" unicode="&#x113;" horiz-adv-x="544" 
d="M236 411v-52h80v52q0 47 -40 47t-40 -47zM508 176q0 -89 -55 -139t-157 -50h-40q-220 0 -220 196v190q0 201 220 201h40q212 0 212 -198v-116h-272v-97q0 -48 40 -48t40 48v50h192v-37zM133 619v125h286v-125h-286z" />
    <glyph glyph-name="Ebreve" unicode="&#x114;" horiz-adv-x="472" 
d="M45 744h392v-173h-190v-99h163v-176h-163v-121h195v-175h-397v744zM240 783q-78 0 -119.5 38.5t-41.5 101.5v6h130v-4q0 -36 33 -36t33 36v4h132v-6q0 -63 -41.5 -101.5t-119.5 -38.5h-6z" />
    <glyph glyph-name="ebreve" unicode="&#x115;" horiz-adv-x="544" 
d="M236 411v-52h80v52q0 47 -40 47t-40 -47zM508 176q0 -89 -55 -139t-157 -50h-40q-220 0 -220 196v190q0 201 220 201h40q212 0 212 -198v-116h-272v-97q0 -48 40 -48t40 48v50h192v-37zM273 603q-78 0 -118.5 39t-40.5 107v12h131v-8q0 -42 31 -42t31 42v8h131v-12
q0 -68 -40.5 -107t-118.5 -39h-6z" />
    <glyph glyph-name="Edotaccent" unicode="&#x116;" horiz-adv-x="472" 
d="M45 744h392v-173h-190v-99h163v-176h-163v-121h195v-175h-397v744zM346 946v-157h-206v157h206z" />
    <glyph glyph-name="edotaccent" unicode="&#x117;" horiz-adv-x="544" 
d="M236 411v-52h80v52q0 47 -40 47t-40 -47zM508 176q0 -89 -55 -139t-157 -50h-40q-220 0 -220 196v190q0 201 220 201h40q212 0 212 -198v-116h-272v-97q0 -48 40 -48t40 48v50h192v-37zM379 763v-157h-206v157h206z" />
    <glyph glyph-name="Eogonek" unicode="&#x118;" horiz-adv-x="472" 
d="M176 -113v3q0 36 34 62t93 48h-258v744h392v-173h-190v-99h163v-176h-163v-121h195v-175h-56q-52 -44 -52 -66v-2q0 -21 34 -21h18v-97h-108q-102 0 -102 73z" />
    <glyph glyph-name="eogonek" unicode="&#x119;" horiz-adv-x="544" 
d="M236 411v-52h80v52q0 47 -40 47t-40 -47zM438 -88v-98h-109q-104 0 -104 75v2q0 54 100 97q-10 -1 -29 -1h-40q-220 0 -220 196v190q0 201 220 201h40q212 0 212 -198v-116h-272v-97q0 -48 40 -48t40 48v51h192v-38q0 -48 -16 -84t-51 -76q-48 -54 -53 -67q-3 -6 -3 -13
q0 -24 35 -24h18z" />
    <glyph glyph-name="Ecaron" unicode="&#x11a;" horiz-adv-x="472" 
d="M45 744h392v-173h-190v-99h163v-176h-163v-121h195v-175h-397v744zM138 789l-90 142h157l37 -63l37 63h155l-90 -142h-206z" />
    <glyph glyph-name="ecaron" unicode="&#x11b;" horiz-adv-x="544" 
d="M236 411v-52h80v52q0 47 -40 47t-40 -47zM508 176q0 -89 -55 -139t-157 -50h-40q-220 0 -220 196v190q0 201 220 201h40q212 0 212 -198v-116h-272v-97q0 -48 40 -48t40 48v50h192v-37zM170 606l-84 160h154l36 -78l36 78h152l-84 -160h-210z" />
    <glyph glyph-name="Gcircumflex" unicode="&#x11c;" horiz-adv-x="579" 
d="M230 -11h-7q-92 0 -138 57.5t-46 147.5v346q0 215 234 215h31q122 0 175 -52.5t53 -137.5v-74h-194v48q0 55 -46 55q-44 0 -44 -55v-332q0 -62 51 -62q50 0 50 62v89h-60v143h252v-439h-138q-7 35 -21 66q-56 -77 -152 -77zM393 929l90 -142h-157l-37 63l-37 -63h-155
l90 142h206z" />
    <glyph glyph-name="gcircumflex" unicode="&#x11d;" horiz-adv-x="574" 
d="M287 130q42 0 42 54v185q0 56 -42 56q-41 0 -41 -56v-185q0 -54 41 -54zM310 -198h-46q-121 0 -168 42t-47 119v6h198q0 -33 40 -33h1q19 0 30 11.5t11 32.5v85l-7 -7l-9.5 -9.5t-12 -11t-15.5 -12t-18.5 -11t-22 -10t-23.5 -6t-27 -2.5h-6q-74 0 -112 40t-38 114v263
q0 67 36 110t106 43h6q40 0 75 -17t44 -26.5l26 -28.5v66h201v-581q0 -79 -51.5 -128t-170.5 -49zM386 766l83 -161h-154l-36 79l-36 -79h-152l83 161h212z" />
    <glyph glyph-name="Gbreve" unicode="&#x11e;" horiz-adv-x="579" 
d="M230 -11h-7q-92 0 -138 57.5t-46 147.5v346q0 215 234 215h31q122 0 175 -52.5t53 -137.5v-74h-194v48q0 55 -46 55q-44 0 -44 -55v-332q0 -62 51 -62q50 0 50 62v89h-60v143h252v-439h-138q-7 35 -21 66q-56 -77 -152 -77zM287 783q-78 0 -119.5 38.5t-41.5 101.5v6h130
v-4q0 -36 33 -36t33 36v4h132v-6q0 -63 -41.5 -101.5t-119.5 -38.5h-6z" />
    <glyph glyph-name="gbreve" unicode="&#x11f;" horiz-adv-x="574" 
d="M287 130q42 0 42 54v185q0 56 -42 56q-41 0 -41 -56v-185q0 -54 41 -54zM310 -198h-46q-121 0 -168 42t-47 119v6h198q0 -33 40 -33h1q19 0 30 11.5t11 32.5v85l-7 -7l-9.5 -9.5t-12 -11t-15.5 -12t-18.5 -11t-22 -10t-23.5 -6t-27 -2.5h-6q-74 0 -112 40t-38 114v263
q0 67 36 110t106 43h6q40 0 75 -17t44 -26.5l26 -28.5v66h201v-581q0 -79 -51.5 -128t-170.5 -49zM275 603q-78 0 -118.5 39t-40.5 107v12h131v-8q0 -42 31 -42t31 42v8h131v-12q0 -68 -40.5 -107t-118.5 -39h-6z" />
    <glyph glyph-name="Gdotaccent" unicode="&#x120;" horiz-adv-x="579" 
d="M230 -11h-7q-92 0 -138 57.5t-46 147.5v346q0 215 234 215h31q122 0 175 -52.5t53 -137.5v-74h-194v48q0 55 -46 55q-44 0 -44 -55v-332q0 -62 51 -62q50 0 50 62v89h-60v143h252v-439h-138q-7 35 -21 66q-56 -77 -152 -77zM393 946v-157h-206v157h206z" />
    <glyph glyph-name="gdotaccent" unicode="&#x121;" horiz-adv-x="574" 
d="M287 130q42 0 42 54v185q0 56 -42 56q-41 0 -41 -56v-185q0 -54 41 -54zM310 -198h-46q-121 0 -168 42t-47 119v6h198q0 -33 40 -33h1q19 0 30 11.5t11 32.5v85l-7 -7l-9.5 -9.5t-12 -11t-15.5 -12t-18.5 -11t-22 -10t-23.5 -6t-27 -2.5h-6q-74 0 -112 40t-38 114v263
q0 67 36 110t106 43h6q40 0 75 -17t44 -26.5l26 -28.5v66h201v-581q0 -79 -51.5 -128t-170.5 -49zM389 763v-157h-206v157h206z" />
    <glyph glyph-name="uni0122" unicode="&#x122;" horiz-adv-x="579" 
d="M230 -11h-7q-92 0 -138 57.5t-46 147.5v346q0 215 234 215h31q122 0 175 -52.5t53 -137.5v-74h-194v48q0 55 -46 55q-44 0 -44 -55v-332q0 -62 51 -62q50 0 50 62v89h-60v143h252v-439h-138q-7 35 -21 66q-56 -77 -152 -77zM344 -266h-103q24 50 33 85h-76v135h182v-100
q0 -51 -36 -120z" />
    <glyph glyph-name="uni0123" unicode="&#x123;" horiz-adv-x="574" 
d="M287 130q42 0 42 54v185q0 56 -42 56q-41 0 -41 -56v-185q0 -54 41 -54zM310 -198h-46q-121 0 -168 42t-47 119v6h198q0 -33 40 -33h1q19 0 30 11.5t11 32.5v85l-7 -7l-9.5 -9.5t-12 -11t-15.5 -12t-18.5 -11t-22 -10t-23.5 -6t-27 -2.5h-6q-74 0 -112 40t-38 114v263
q0 67 36 110t106 43h6q40 0 75 -17t44 -26.5l26 -28.5v66h201v-581q0 -79 -51.5 -128t-170.5 -49zM226 830h110q-26 -53 -34 -85h75v-139h-186v102q0 52 35 122z" />
    <glyph glyph-name="Hcircumflex" unicode="&#x124;" horiz-adv-x="600" 
d="M45 0v744h212v-254h86v254h212v-744h-212v285h-86v-285h-212zM404 929l90 -142h-157l-37 63l-37 -63h-155l90 142h206z" />
    <glyph glyph-name="hcircumflex" unicode="&#x125;" horiz-adv-x="578" 
d="M42 0v757h204v-268q57 79 145 79h9q68 0 102.5 -38t34.5 -105v-425h-206v366q0 52 -43 52q-42 0 -42 -53v-365h-204zM373 969l83 -161h-154l-36 79l-36 -79h-152l83 161h212z" />
    <glyph glyph-name="Hbar" unicode="&#x126;" horiz-adv-x="610" 
d="M348 558h-86v-68h86v68zM50 0v558h-50v110h50v76h212v-76h86v76h212v-76h50v-110h-50v-558h-212v285h-86v-285h-212z" />
    <glyph glyph-name="hbar" unicode="&#x127;" horiz-adv-x="578" 
d="M42 0v596h-60v104h60v57h204v-57h122v-104h-122v-107q57 79 145 79h9q68 0 102.5 -38t34.5 -105v-425h-206v366q0 52 -43 52q-42 0 -42 -53v-365h-204z" />
    <glyph glyph-name="Itilde" unicode="&#x128;" horiz-adv-x="302" 
d="M257 744v-744h-212v744h212zM316 947v-70q0 -39 -19 -62.5t-54 -23.5h-3q-32 0 -87 24q-43 18 -48 18q-9 0 -9 -14v-30h-109v70q0 38 19.5 62t53.5 24h3q30 0 87 -25q43 -18 48 -18q9 0 9 14v31h109z" />
    <glyph glyph-name="itilde" unicode="&#x129;" horiz-adv-x="290" 
d="M299 774v-80q0 -38 -17.5 -62t-48.5 -24h-3q-32 0 -80 24q-40 19 -45 19q-9 0 -9 -15v-30h-104v80q0 38 17.5 62t48.5 24h3q32 0 80 -24q40 -19 45 -19q9 0 9 15v30h104zM248 560v-560h-206v560h206z" />
    <glyph glyph-name="Imacron" unicode="&#x12a;" horiz-adv-x="302" 
d="M257 744v-744h-212v744h212zM8 797v125h286v-125h-286z" />
    <glyph glyph-name="imacron" unicode="&#x12b;" horiz-adv-x="290" 
d="M10 619v125h272v-125h-272zM248 560v-560h-206v560h206z" />
    <glyph glyph-name="Ibreve" unicode="&#x12c;" horiz-adv-x="302" 
d="M257 744v-744h-212v744h212zM149 783q-78 0 -119.5 38.5t-41.5 101.5v6h130v-4q0 -36 33 -36t33 36v4h132v-6q0 -63 -41.5 -101.5t-119.5 -38.5h-6z" />
    <glyph glyph-name="ibreve" unicode="&#x12d;" horiz-adv-x="290" 
d="M143 603q-76 0 -115.5 39t-39.5 107v12h129v-8q0 -42 29 -42t29 42v8h129v-12q0 -68 -39.5 -107t-115.5 -39h-6zM248 560v-560h-206v560h206z" />
    <glyph glyph-name="Iogonek" unicode="&#x12e;" horiz-adv-x="302" 
d="M47 -113v3q0 36 34 62t93 48h-129v744h212v-744q-52 -44 -52 -66v-2q0 -21 34 -21h18v-97h-108q-102 0 -102 73z" />
    <glyph glyph-name="iogonek" unicode="&#x12f;" horiz-adv-x="290" 
d="M38 -113v3q0 36 34 62t93 48h-123v560h206v-560q-52 -44 -52 -66v-2q0 -21 34 -21h18v-97h-108q-102 0 -102 73zM248 763v-157h-206v157h206z" />
    <glyph glyph-name="Idotaccent" unicode="&#x130;" horiz-adv-x="302" 
d="M257 744v-744h-212v744h212zM255 946v-157h-206v157h206z" />
    <glyph glyph-name="dotlessi" unicode="&#x131;" horiz-adv-x="290" 
d="M248 560v-560h-206v560h206z" />
    <glyph glyph-name="IJ" unicode="&#x132;" horiz-adv-x="849" 
d="M257 744v-744h-212v744h212zM333 338h186v-137q0 -46 37 -46h1q20 0 28.5 11t8.5 35v543h212v-559q0 -196 -219 -196h-56q-107 0 -152.5 49t-45.5 137v163z" />
    <glyph glyph-name="ij" unicode="&#x133;" horiz-adv-x="581" 
d="M248 763v-157h-206v157h206zM248 560v-560h-206v560h206zM539 763v-157h-206v157h206zM270 -27h30q18 0 25.5 7t7.5 26v554h206v-620q0 -57 -28.5 -90.5t-88.5 -33.5h-152v157z" />
    <glyph glyph-name="Jcircumflex" unicode="&#x134;" horiz-adv-x="547" 
d="M31 338h186v-137q0 -46 37 -46h1q20 0 28.5 11t8.5 35v543h212v-559q0 -196 -219 -196h-56q-107 0 -152.5 49t-45.5 137v163zM499 929l90 -142h-157l-37 63l-37 -63h-155l90 142h206z" />
    <glyph glyph-name="jcircumflex" unicode="&#x135;" horiz-adv-x="292" 
d="M257 766l73 -161h-149l-34 84l-34 -84h-147l73 161h218zM-20 -27h30q18 0 25.5 7t7.5 26v554h206v-620q0 -57 -28.5 -90.5t-88.5 -33.5h-152v157z" />
    <glyph glyph-name="uni0136" unicode="&#x136;" horiz-adv-x="577" 
d="M250 0h-205v744h205v-288l111 288h208l-133 -328l136 -416h-216l-106 326v-326zM363 -266h-103q24 50 33 85h-76v135h182v-100q0 -51 -36 -120z" />
    <glyph glyph-name="uni0137" unicode="&#x137;" horiz-adv-x="556" 
d="M248 0h-206v757h206v-402l88 205h204l-110 -241l124 -319h-214l-92 258v-258zM350 -266h-103q24 50 33 85h-76v135h182v-100q0 -51 -36 -120z" />
    <glyph glyph-name="Lacute" unicode="&#x139;" horiz-adv-x="438" 
d="M45 744h211v-559h158v-185h-369v744zM60 789l52 140h188l-56 -140h-184z" />
    <glyph glyph-name="lacute" unicode="&#x13a;" horiz-adv-x="289" 
d="M248 757v-757h-206v757h206zM54 802l52 140h188l-56 -140h-184z" />
    <glyph glyph-name="uni013B" unicode="&#x13b;" horiz-adv-x="438" 
d="M45 744h211v-559h158v-185h-369v744zM284 -266h-103q24 50 33 85h-76v135h182v-100q0 -51 -36 -120z" />
    <glyph glyph-name="uni013C" unicode="&#x13c;" horiz-adv-x="289" 
d="M248 757v-757h-206v757h206zM200 -266h-103q24 50 33 85h-76v135h182v-100q0 -51 -36 -120z" />
    <glyph glyph-name="Lcaron" unicode="&#x13d;" horiz-adv-x="438" 
d="M45 744h211v-559h158v-185h-369v744zM288 593l11 157h136l-17 -157h-130z" />
    <glyph glyph-name="lcaron" unicode="&#x13e;" horiz-adv-x="289" 
d="M248 757v-757h-206v757h206zM280 606l11 157h136l-17 -157h-130z" />
    <glyph glyph-name="Ldot" unicode="&#x13f;" horiz-adv-x="527" 
d="M45 744h211v-559h158v-185h-369v744zM512 488v-194h-196v194h196z" />
    <glyph glyph-name="ldot" unicode="&#x140;" horiz-adv-x="522" 
d="M248 757v-757h-206v757h206zM504 460v-194h-196v194h196z" />
    <glyph glyph-name="Lslash" unicode="&#x141;" horiz-adv-x="456" 
d="M63 744h211v-260l103 62v-139l-103 -61v-161h158v-185h-369v222l-62 -36v133l62 37v388z" />
    <glyph glyph-name="lslash" unicode="&#x142;" horiz-adv-x="336" 
d="M271 757v-222l62 30v-125l-62 -29v-411h-206v314l-62 -29v123l62 29v320h206z" />
    <glyph glyph-name="Nacute" unicode="&#x143;" horiz-adv-x="583" 
d="M333 472q28 -88 38 -130q-3 55 -3 146v256h170v-744h-180l-109 313q-22 64 -36 119q4 -47 4 -146v-286h-172v744h200zM200 789l52 140h188l-56 -140h-184z" />
    <glyph glyph-name="nacute" unicode="&#x144;" horiz-adv-x="578" 
d="M42 0v560h202v-73q58 81 147 81h9q68 0 102.5 -38t34.5 -105v-425h-206v366q0 52 -43 52q-42 0 -42 -53v-365h-204zM202 606l57 160h179l-63 -160h-173z" />
    <glyph glyph-name="uni0145" unicode="&#x145;" horiz-adv-x="583" 
d="M333 472q28 -88 38 -130q-3 55 -3 146v256h170v-744h-180l-109 313q-22 64 -36 119q4 -47 4 -146v-286h-172v744h200zM347 -266h-103q24 50 33 85h-76v135h182v-100q0 -51 -36 -120z" />
    <glyph glyph-name="uni0146" unicode="&#x146;" horiz-adv-x="578" 
d="M42 0v560h202v-73q58 81 147 81h9q68 0 102.5 -38t34.5 -105v-425h-206v366q0 52 -43 52q-42 0 -42 -53v-365h-204zM344 -266h-103q24 50 33 85h-76v135h182v-100q0 -51 -36 -120z" />
    <glyph glyph-name="Ncaron" unicode="&#x147;" horiz-adv-x="583" 
d="M333 472q28 -88 38 -130q-3 55 -3 146v256h170v-744h-180l-109 313q-22 64 -36 119q4 -47 4 -146v-286h-172v744h200zM188 789l-90 142h157l37 -63l37 63h155l-90 -142h-206z" />
    <glyph glyph-name="ncaron" unicode="&#x148;" horiz-adv-x="578" 
d="M42 0v560h202v-73q58 81 147 81h9q68 0 102.5 -38t34.5 -105v-425h-206v366q0 52 -43 52q-42 0 -42 -53v-365h-204zM182 606l-84 160h154l36 -78l36 78h152l-84 -160h-210z" />
    <glyph glyph-name="napostrophe" unicode="&#x149;" horiz-adv-x="769" 
d="M233 0v560h202v-73q58 81 147 81h9q68 0 102.5 -38t34.5 -105v-425h-206v366q0 52 -43 52q-42 0 -42 -53v-365h-204zM144 441h-105q27 68 34 136h-73v167h182v-128q0 -99 -38 -175z" />
    <glyph glyph-name="Eng" unicode="&#x14a;" horiz-adv-x="583" 
d="M282 -186v152h40q21 0 28.5 7t7.5 27l-141 404v-404h-172v744h200l123 -381v381h170v-760q0 -85 -38 -127.5t-121 -42.5h-97z" />
    <glyph glyph-name="eng" unicode="&#x14b;" horiz-adv-x="578" 
d="M299 -27q18 0 25.5 7t7.5 26v360q0 52 -44 52q-42 0 -42 -53v-365h-204v560h202v-73q55 81 147 81h9q68 0 102.5 -38t34.5 -105v-485q0 -57 -28.5 -90.5t-88.5 -33.5h-152v157h31z" />
    <glyph glyph-name="Omacron" unicode="&#x14c;" horiz-adv-x="596" 
d="M557 530v-316q0 -104 -61 -164.5t-180 -60.5h-36q-123 0 -182 60.5t-59 164.5v316q0 225 241 225h36q121 0 181 -58.5t60 -166.5zM343 216v310q0 56 -45 56t-45 -56v-310q0 -53 45 -53t45 53zM155 797v125h286v-125h-286z" />
    <glyph glyph-name="omacron" unicode="&#x14d;" horiz-adv-x="568" 
d="M262 -13q-226 0 -226 205v179q0 95 54.5 149t171.5 54h44q226 0 226 -203v-178q0 -97 -56 -151.5t-170 -54.5h-44zM284 130q43 0 43 50v204q0 51 -43 51q-42 0 -42 -51v-204q0 -50 42 -50zM141 619v125h286v-125h-286z" />
    <glyph glyph-name="Obreve" unicode="&#x14e;" horiz-adv-x="596" 
d="M557 530v-316q0 -104 -61 -164.5t-180 -60.5h-36q-123 0 -182 60.5t-59 164.5v316q0 225 241 225h36q121 0 181 -58.5t60 -166.5zM343 216v310q0 56 -45 56t-45 -56v-310q0 -53 45 -53t45 53zM296 783q-78 0 -119.5 38.5t-41.5 101.5v6h130v-4q0 -36 33 -36t33 36v4h132
v-6q0 -63 -41.5 -101.5t-119.5 -38.5h-6z" />
    <glyph glyph-name="obreve" unicode="&#x14f;" horiz-adv-x="568" 
d="M262 -13q-226 0 -226 205v179q0 95 54.5 149t171.5 54h44q226 0 226 -203v-178q0 -97 -56 -151.5t-170 -54.5h-44zM284 130q43 0 43 50v204q0 51 -43 51q-42 0 -42 -51v-204q0 -50 42 -50zM281 603q-78 0 -118.5 39t-40.5 107v12h131v-8q0 -42 31 -42t31 42v8h131v-12
q0 -68 -40.5 -107t-118.5 -39h-6z" />
    <glyph glyph-name="Ohungarumlaut" unicode="&#x150;" horiz-adv-x="596" 
d="M557 530v-316q0 -104 -61 -164.5t-180 -60.5h-36q-123 0 -182 60.5t-59 164.5v316q0 225 241 225h36q121 0 181 -58.5t60 -166.5zM343 216v310q0 56 -45 56t-45 -56v-310q0 -53 45 -53t45 53zM318 789l50 140h150l-52 -140h-148zM130 789l47 140h150l-50 -140h-147z" />
    <glyph glyph-name="ohungarumlaut" unicode="&#x151;" horiz-adv-x="568" 
d="M262 -13q-226 0 -226 205v179q0 95 54.5 149t171.5 54h44q226 0 226 -203v-178q0 -97 -56 -151.5t-170 -54.5h-44zM284 130q43 0 43 50v204q0 51 -43 51q-42 0 -42 -51v-204q0 -50 42 -50zM300 606l55 160h150l-56 -160h-149zM111 606l51 160h151l-54 -160h-148z" />
    <glyph glyph-name="OE" unicode="&#x152;" horiz-adv-x="766" 
d="M736 0h-493q-102 0 -152 48.5t-50 155.5v336q0 107 50.5 155.5t155.5 48.5h483v-173h-177v-99h150v-176h-150v-121h183v-175zM341 176v395h-37q-26 0 -37 -14t-11 -45v-274q0 -34 11 -48t37 -14h37z" />
    <glyph glyph-name="oe" unicode="&#x153;" horiz-adv-x="834" 
d="M526 411v-52h81v52q0 47 -41 47q-40 0 -40 -47zM284 130q43 0 43 50v204q0 51 -43 51q-42 0 -42 -51v-204q0 -50 42 -50zM290 -13h-40q-109 0 -161.5 54t-52.5 151v179q0 94 53 148.5t162 54.5h40q88 0 136 -44q48 44 134 44h37q200 0 200 -198v-116h-272v-97
q0 -48 40 -48q41 0 41 48v50h191v-37q0 -88 -52.5 -138.5t-147.5 -50.5h-37q-87 0 -136 45q-45 -45 -135 -45z" />
    <glyph glyph-name="Racute" unicode="&#x154;" horiz-adv-x="573" 
d="M250 602v-155h36q42 0 42 46v62q0 25 -9 36t-32 11h-37zM250 293v-293h-205v744h328q76 0 117.5 -38.5t41.5 -115.5v-44q0 -107 -80 -143q82 -31 82 -128v-209q0 -39 12 -61v-5h-203q-15 15 -15 55v184q0 29 -8.5 41.5t-31.5 12.5h-38zM184 789l52 140h188l-56 -140h-184
z" />
    <glyph glyph-name="racute" unicode="&#x155;" horiz-adv-x="531" 
d="M247 368v-368h-205v560h202v-72q46 80 132 80h5q122 0 122 -128v-162h-183v90q0 50 -36 50q-37 0 -37 -50zM190 606l57 160h179l-63 -160h-173z" />
    <glyph glyph-name="uni0156" unicode="&#x156;" horiz-adv-x="573" 
d="M250 602v-155h36q42 0 42 46v62q0 25 -9 36t-32 11h-37zM250 293v-293h-205v744h328q76 0 117.5 -38.5t41.5 -115.5v-44q0 -107 -80 -143q82 -31 82 -128v-209q0 -39 12 -61v-5h-203q-15 15 -15 55v184q0 29 -8.5 41.5t-31.5 12.5h-38zM352 -266h-103q24 50 33 85h-76
v135h182v-100q0 -51 -36 -120z" />
    <glyph glyph-name="uni0157" unicode="&#x157;" horiz-adv-x="531" 
d="M247 368v-368h-205v560h202v-72q46 80 132 80h5q122 0 122 -128v-162h-183v90q0 50 -36 50q-37 0 -37 -50zM200 -266h-103q24 50 33 85h-76v135h182v-100q0 -51 -36 -120z" />
    <glyph glyph-name="Rcaron" unicode="&#x158;" horiz-adv-x="573" 
d="M250 602v-155h36q42 0 42 46v62q0 25 -9 36t-32 11h-37zM250 293v-293h-205v744h328q76 0 117.5 -38.5t41.5 -115.5v-44q0 -107 -80 -143q82 -31 82 -128v-209q0 -39 12 -61v-5h-203q-15 15 -15 55v184q0 29 -8.5 41.5t-31.5 12.5h-38zM172 789l-90 142h157l37 -63l37 63
h155l-90 -142h-206z" />
    <glyph glyph-name="rcaron" unicode="&#x159;" horiz-adv-x="531" 
d="M247 368v-368h-205v560h202v-72q46 80 132 80h5q122 0 122 -128v-162h-183v90q0 50 -36 50q-37 0 -37 -50zM170 606l-84 160h154l36 -78l36 78h152l-84 -160h-210z" />
    <glyph glyph-name="Sacute" unicode="&#x15a;" horiz-adv-x="546" 
d="M250 -11q-225 0 -225 183v87h196v-68q0 -45 43 -45t43 49v7q0 30 -13 46.5t-45 37.5l-100 64q-59 38 -88.5 84.5t-29.5 114.5v21q0 185 232 185h28q123 0 173 -43.5t50 -125.5v-63h-195v45q0 44 -41 44q-44 0 -44 -42v-2q0 -23 12 -37t41 -33l100 -65q71 -47 103 -93
t32 -122v-22q0 -92 -59.5 -149.5t-184.5 -57.5h-28zM181 789l52 140h188l-56 -140h-184z" />
    <glyph glyph-name="sacute" unicode="&#x15b;" horiz-adv-x="508" 
d="M223 -13q-197 0 -197 160v47h182v-27q0 -49 41 -49h1q42 0 42 38q0 35 -48 53l-91 36q-65 25 -94.5 64.5t-29.5 101.5v9q0 154 211 154h36q107 0 154 -37t47 -114v-35h-177v19q0 26 -10 36.5t-34 10.5q-45 0 -45 -33q0 -18 11 -27.5t42 -21.5l90 -36q71 -29 100 -68
t29 -101v-10q0 -80 -53 -125t-155 -45h-52zM171 606l57 160h179l-63 -160h-173z" />
    <glyph glyph-name="Scircumflex" unicode="&#x15c;" horiz-adv-x="546" 
d="M250 -11q-225 0 -225 183v87h196v-68q0 -45 43 -45t43 49v7q0 30 -13 46.5t-45 37.5l-100 64q-59 38 -88.5 84.5t-29.5 114.5v21q0 185 232 185h28q123 0 173 -43.5t50 -125.5v-63h-195v45q0 44 -41 44q-44 0 -44 -42v-2q0 -23 12 -37t41 -33l100 -65q71 -47 103 -93
t32 -122v-22q0 -92 -59.5 -149.5t-184.5 -57.5h-28zM377 929l90 -142h-157l-37 63l-37 -63h-155l90 142h206z" />
    <glyph glyph-name="scircumflex" unicode="&#x15d;" horiz-adv-x="508" 
d="M223 -13q-197 0 -197 160v47h182v-27q0 -49 41 -49h1q42 0 42 38q0 35 -48 53l-91 36q-65 25 -94.5 64.5t-29.5 101.5v9q0 154 211 154h36q107 0 154 -37t47 -114v-35h-177v19q0 26 -10 36.5t-34 10.5q-45 0 -45 -33q0 -18 11 -27.5t42 -21.5l90 -36q71 -29 100 -68
t29 -101v-10q0 -80 -53 -125t-155 -45h-52zM364 766l83 -161h-154l-36 79l-36 -79h-152l83 161h212z" />
    <glyph glyph-name="uni015E" unicode="&#x15e;" horiz-adv-x="546" 
d="M162 -232v87h68q25 0 25 20v1q0 19 -25 19h-48v99q-157 25 -157 178v87h196v-68q0 -45 43 -45t43 49v7q0 30 -13 46.5t-45 37.5l-100 64q-59 38 -88.5 84.5t-29.5 114.5v21q0 185 232 185h28q123 0 173 -43.5t50 -125.5v-63h-195v45q0 44 -41 44q-44 0 -44 -42v-2
q0 -23 12 -37t41 -33l100 -65q71 -47 103 -93t32 -122v-22q0 -92 -59.5 -149.5t-184.5 -57.5h-1v-31q123 0 123 -93v-3q0 -94 -140 -94h-98z" />
    <glyph glyph-name="uni015F" unicode="&#x15f;" horiz-adv-x="508" 
d="M147 -232v87h68q25 0 25 20v1q0 19 -25 19h-48v96q-141 21 -141 156v47h182v-27q0 -49 41 -49h1q42 0 42 38q0 35 -48 53l-91 36q-65 25 -94.5 64.5t-29.5 101.5v9q0 154 211 154h36q107 0 154 -37t47 -114v-35h-177v19q0 26 -10 36.5t-34 10.5q-45 0 -45 -33
q0 -18 11 -27.5t42 -21.5l90 -36q71 -29 100 -68t29 -101v-10q0 -80 -53 -125t-155 -45h-13v-29q123 0 123 -93v-3q0 -94 -140 -94h-98z" />
    <glyph glyph-name="Scaron" unicode="&#x160;" horiz-adv-x="546" 
d="M250 -11q-225 0 -225 183v87h196v-68q0 -45 43 -45t43 49v7q0 30 -13 46.5t-45 37.5l-100 64q-59 38 -88.5 84.5t-29.5 114.5v21q0 185 232 185h28q123 0 173 -43.5t50 -125.5v-63h-195v45q0 44 -41 44q-44 0 -44 -42v-2q0 -23 12 -37t41 -33l100 -65q71 -47 103 -93
t32 -122v-22q0 -92 -59.5 -149.5t-184.5 -57.5h-28zM169 789l-90 142h157l37 -63l37 63h155l-90 -142h-206z" />
    <glyph glyph-name="scaron" unicode="&#x161;" horiz-adv-x="508" 
d="M223 -13q-197 0 -197 160v47h182v-27q0 -49 41 -49h1q42 0 42 38q0 35 -48 53l-91 36q-65 25 -94.5 64.5t-29.5 101.5v9q0 154 211 154h36q107 0 154 -37t47 -114v-35h-177v19q0 26 -10 36.5t-34 10.5q-45 0 -45 -33q0 -18 11 -27.5t42 -21.5l90 -36q71 -29 100 -68
t29 -101v-10q0 -80 -53 -125t-155 -45h-52zM151 606l-84 160h154l36 -78l36 78h152l-84 -160h-210z" />
    <glyph glyph-name="Tcommaaccent" unicode="&#x162;" horiz-adv-x="480" 
d="M140 0v575h-117v169h434v-169h-117v-575h-200zM295 -266h-103q24 50 33 85h-76v135h182v-100q0 -51 -36 -120z" />
    <glyph glyph-name="tcommaaccent" unicode="&#x163;" horiz-adv-x="429" 
d="M399 0h-174q-61 0 -89.5 28t-28.5 88v296h-86v148h86v176h205v-176h87v-148h-87v-227q0 -19 7 -26.5t28 -7.5h52v-151zM321 -266h-103q24 50 33 85h-76v135h182v-100q0 -51 -36 -120z" />
    <glyph glyph-name="Tcaron" unicode="&#x164;" horiz-adv-x="480" 
d="M140 0v575h-117v169h434v-169h-117v-575h-200zM136 789l-90 142h157l37 -63l37 63h155l-90 -142h-206z" />
    <glyph glyph-name="tcaron" unicode="&#x165;" horiz-adv-x="429" 
d="M399 0h-174q-61 0 -89.5 28t-28.5 88v296h-86v148h86v176h205v-176h87v-148h-87v-227q0 -19 7 -26.5t28 -7.5h52v-151zM344 606l11 157h136l-17 -157h-130z" />
    <glyph glyph-name="Tbar" unicode="&#x166;" horiz-adv-x="480" 
d="M50 324v124h90v127h-117v169h434v-169h-117v-127h90v-124h-90v-324h-200v324h-90z" />
    <glyph glyph-name="tbar" unicode="&#x167;" horiz-adv-x="439" 
d="M404 151v-151h-173q-62 0 -90.5 28t-28.5 88v127h-86v107h86v62h-86v148h86v176h205v-176h87v-148h-87v-62h87v-107h-87v-58q0 -19 7.5 -26.5t27.5 -7.5h52z" />
    <glyph glyph-name="Utilde" unicode="&#x168;" horiz-adv-x="584" 
d="M308 -13h-34q-121 0 -176.5 57t-55.5 152v548h207v-515q0 -55 43 -55q44 0 44 55v515h206v-548q0 -91 -60.5 -150t-173.5 -59zM457 947v-70q0 -39 -19 -62.5t-54 -23.5h-3q-32 0 -87 24q-43 18 -48 18q-9 0 -9 -14v-30h-109v70q0 38 19.5 62t53.5 24h3q30 0 87 -25
q43 -18 48 -18q9 0 9 14v31h109z" />
    <glyph glyph-name="utilde" unicode="&#x169;" horiz-adv-x="574" 
d="M532 560v-560h-202v73q-11 -16 -27 -31.5t-50 -32.5t-71 -17h-6q-64 0 -99.5 38t-35.5 105v425h206v-368q0 -49 40 -49q41 0 41 50v367h204zM451 774v-80q0 -39 -19 -62.5t-53 -23.5h-3q-32 0 -87 24q-41 18 -47 18q-9 0 -9 -14v-30h-111v80q0 38 19 62t53 24h3
q34 0 86 -24q41 -19 48 -19q9 0 9 15v30h111z" />
    <glyph glyph-name="Umacron" unicode="&#x16a;" horiz-adv-x="584" 
d="M308 -13h-34q-121 0 -176.5 57t-55.5 152v548h207v-515q0 -55 43 -55q44 0 44 55v515h206v-548q0 -91 -60.5 -150t-173.5 -59zM149 797v125h286v-125h-286z" />
    <glyph glyph-name="umacron" unicode="&#x16b;" horiz-adv-x="574" 
d="M532 560v-560h-202v73q-11 -16 -27 -31.5t-50 -32.5t-71 -17h-6q-64 0 -99.5 38t-35.5 105v425h206v-368q0 -49 40 -49q41 0 41 50v367h204zM143 619v125h286v-125h-286z" />
    <glyph glyph-name="Ubreve" unicode="&#x16c;" horiz-adv-x="584" 
d="M308 -13h-34q-121 0 -176.5 57t-55.5 152v548h207v-515q0 -55 43 -55q44 0 44 55v515h206v-548q0 -91 -60.5 -150t-173.5 -59zM290 783q-78 0 -119.5 38.5t-41.5 101.5v6h130v-4q0 -36 33 -36t33 36v4h132v-6q0 -63 -41.5 -101.5t-119.5 -38.5h-6z" />
    <glyph glyph-name="ubreve" unicode="&#x16d;" horiz-adv-x="574" 
d="M532 560v-560h-202v73q-11 -16 -27 -31.5t-50 -32.5t-71 -17h-6q-64 0 -99.5 38t-35.5 105v425h206v-368q0 -49 40 -49q41 0 41 50v367h204zM283 603q-78 0 -118.5 39t-40.5 107v12h131v-8q0 -42 31 -42t31 42v8h131v-12q0 -68 -40.5 -107t-118.5 -39h-6z" />
    <glyph glyph-name="Uring" unicode="&#x16e;" horiz-adv-x="584" 
d="M308 -13h-34q-121 0 -176.5 57t-55.5 152v548h207v-515q0 -55 43 -55q44 0 44 55v515h206v-548q0 -91 -60.5 -150t-173.5 -59zM292 770q-51 0 -82 29.5t-31 77.5q0 49 30.5 77.5t82.5 28.5q51 0 82 -28.5t31 -77.5q0 -48 -31 -77.5t-82 -29.5zM292 832q19 0 31 12t12 33
t-12 33t-31 12t-31 -12t-12 -33t12 -33t31 -12z" />
    <glyph glyph-name="uring" unicode="&#x16f;" horiz-adv-x="574" 
d="M532 560v-560h-202v73q-11 -16 -27 -31.5t-50 -32.5t-71 -17h-6q-64 0 -99.5 38t-35.5 105v425h206v-368q0 -49 40 -49q41 0 41 50v367h204zM286 600q-51 0 -82 29.5t-31 77.5q0 49 30.5 77.5t82.5 28.5q51 0 82 -28.5t31 -77.5q0 -48 -31 -77.5t-82 -29.5zM286 662
q19 0 31 12t12 33t-12 33t-31 12t-31 -12t-12 -33t12 -33t31 -12z" />
    <glyph glyph-name="Uhungarumlaut" unicode="&#x170;" horiz-adv-x="584" 
d="M308 -13h-34q-121 0 -176.5 57t-55.5 152v548h207v-515q0 -55 43 -55q44 0 44 55v515h206v-548q0 -91 -60.5 -150t-173.5 -59zM312 789l50 140h150l-52 -140h-148zM124 789l47 140h150l-50 -140h-147z" />
    <glyph glyph-name="uhungarumlaut" unicode="&#x171;" horiz-adv-x="574" 
d="M532 560v-560h-202v73q-11 -16 -27 -31.5t-50 -32.5t-71 -17h-6q-64 0 -99.5 38t-35.5 105v425h206v-368q0 -49 40 -49q41 0 41 50v367h204zM308 606l55 160h150l-56 -160h-149zM119 606l51 160h151l-54 -160h-148z" />
    <glyph glyph-name="Uogonek" unicode="&#x172;" horiz-adv-x="584" 
d="M443 -186h-108q-49 0 -75.5 19t-26.5 54v3q0 56 105 98q-10 -1 -30 -1h-34q-121 0 -176.5 57t-55.5 152v548h207v-515q0 -55 43 -55q44 0 44 55v515h206v-548q0 -59 -22 -99t-68 -83q-37 -35 -49 -50t-12 -29v-2q0 -22 34 -22h18v-97z" />
    <glyph glyph-name="uogonek" unicode="&#x173;" horiz-adv-x="574" 
d="M322 -113v3q0 36 34 62t93 48h-119v73q-11 -16 -27 -31.5t-50 -32.5t-71 -17h-6q-64 0 -99.5 38t-35.5 105v425h206v-368q0 -49 40 -49q41 0 41 50v367h204v-560q-52 -44 -52 -66v-2q0 -21 34 -21h18v-97h-108q-102 0 -102 73z" />
    <glyph glyph-name="Wcircumflex" unicode="&#x174;" horiz-adv-x="814" 
d="M425 265q-16 140 -18 174q0 -6 -18 -173l-30 -266h-219l-128 744h209l36 -323q11 -102 15 -166q5 74 16 166l39 323h172l39 -320q14 -122 17 -167q5 70 15 164l36 323h196l-128 -744h-219zM513 929l90 -142h-157l-37 63l-37 -63h-155l90 142h206z" />
    <glyph glyph-name="wcircumflex" unicode="&#x175;" horiz-adv-x="772" 
d="M408 147q-17 108 -20 155q-2 -28 -20 -155l-22 -147h-222l-116 560h207l25 -199q15 -128 18 -164q3 36 18 164l25 199h177l25 -199q16 -117 19 -161q3 36 18 161l24 199h200l-114 -560h-219zM494 766l83 -161h-154l-36 79l-36 -79h-152l83 161h212z" />
    <glyph glyph-name="Ycircumflex" unicode="&#x176;" horiz-adv-x="536" 
d="M159 0v273l-156 471h213l60 -248l60 248h197l-146 -475v-269h-228zM379 929l90 -142h-157l-37 63l-37 -63h-155l90 142h206z" />
    <glyph glyph-name="ycircumflex" unicode="&#x177;" horiz-adv-x="529" 
d="M68 -184v157h63q22 0 22 17v1q0 11 -13 60l-132 509h207l54 -360l51 360h201l-155 -643q-14 -55 -41 -78t-79 -23h-178zM375 766l83 -161h-154l-36 79l-36 -79h-152l83 161h212z" />
    <glyph glyph-name="Ydieresis" unicode="&#x178;" horiz-adv-x="536" 
d="M159 0v273l-156 471h213l60 -248l60 248h197l-146 -475v-269h-228zM456 936v-147h-161v147h161zM255 936v-147h-161v147h161z" />
    <glyph glyph-name="Zacute" unicode="&#x179;" horiz-adv-x="509" 
d="M478 0h-444v163l199 406h-193v175h430v-163l-203 -404h211v-177zM163 789l52 140h188l-56 -140h-184z" />
    <glyph glyph-name="zacute" unicode="&#x17a;" horiz-adv-x="452" 
d="M422 0h-392v136l161 273h-155v151h381v-139l-155 -263h160v-158zM141 606l57 160h179l-63 -160h-173z" />
    <glyph glyph-name="Zdotaccent" unicode="&#x17b;" horiz-adv-x="509" 
d="M478 0h-444v163l199 406h-193v175h430v-163l-203 -404h211v-177zM359 946v-157h-206v157h206z" />
    <glyph glyph-name="zdotaccent" unicode="&#x17c;" horiz-adv-x="452" 
d="M422 0h-392v136l161 273h-155v151h381v-139l-155 -263h160v-158zM330 763v-157h-206v157h206z" />
    <glyph glyph-name="Zcaron" unicode="&#x17d;" horiz-adv-x="509" 
d="M478 0h-444v163l199 406h-193v175h430v-163l-203 -404h211v-177zM151 789l-90 142h157l37 -63l37 63h155l-90 -142h-206z" />
    <glyph glyph-name="zcaron" unicode="&#x17e;" horiz-adv-x="452" 
d="M422 0h-392v136l161 273h-155v151h381v-139l-155 -263h160v-158zM122 606l-84 160h154l36 -78l36 78h152l-84 -160h-210z" />
    <glyph glyph-name="uni0192" unicode="&#x192;" horiz-adv-x="420" 
d="M392 336h-94l-42 -520h-193l39 520h-82v146h93l11 142q10 120 129 120h140v-146h-43q-18 0 -24.5 -6.5t-8.5 -22.5l-7 -87h82v-146z" />
    <glyph glyph-name="Aringacute" unicode="&#x1fa;" horiz-adv-x="540" 
d="M238 351l-14 -100h71l-14 100q-9 67 -21 184q-9 -87 -22 -184zM329 0l-13 97h-113l-13 -97h-179l115 744h275l128 -744h-200zM263 779q-51 0 -82 29.5t-31 77.5q0 49 30.5 77.5t82.5 28.5q51 0 82 -28.5t31 -77.5q0 -48 -31 -77.5t-82 -29.5zM263 841q19 0 31 12t12 33
t-12 33t-31 12t-31 -12t-12 -33t12 -33t31 -12zM171 1019l52 140h188l-56 -140h-184z" />
    <glyph glyph-name="aringacute" unicode="&#x1fb;" horiz-adv-x="540" 
d="M298 160v113q-43 -19 -55 -27q-26 -17 -26 -50v-36q0 -43 40 -43q19 0 30 12.5t11 30.5zM27 125v72q0 58 27 90.5t86 50.5q26 8 78 21.5t66 17.5t14 23v8q0 23 -9 33.5t-33 10.5h-1q-23 0 -32.5 -11t-9.5 -34v-25h-179v35q0 78 51.5 117t167.5 39h23q116 0 167 -38.5
t51 -117.5v-244q0 -22 24 -22h5v-151h-163q-24 0 -40.5 16t-19.5 48q-18 -25 -55 -48.5t-81 -23.5h-1q-64 0 -100 37t-36 96zM256 600q-51 0 -82 29.5t-31 77.5q0 49 30.5 77.5t82.5 28.5q51 0 82 -28.5t31 -77.5q0 -48 -31 -77.5t-82 -29.5zM256 662q19 0 31 12t12 33
t-12 33t-31 12t-31 -12t-12 -33t12 -33t31 -12zM170 840l57 160h179l-63 -160h-173z" />
    <glyph glyph-name="AEacute" unicode="&#x1fc;" horiz-adv-x="735" 
d="M322 269v322l-67 -322h67zM322 0v102h-102l-21 -102h-200l183 744h517v-173h-177v-99h150v-176h-150v-121h183v-175h-383zM348 789l52 140h188l-56 -140h-184z" />
    <glyph glyph-name="aeacute" unicode="&#x1fd;" horiz-adv-x="807" 
d="M498 409v-48h81v48q0 47 -40 47q-41 0 -41 -47zM299 160v105q-43 -19 -55 -27q-26 -17 -26 -50v-28q0 -43 40 -43q19 0 30 12.5t11 30.5zM770 174q0 -89 -54.5 -139t-156.5 -50h-35q-142 0 -192 83q-62 -76 -160 -76h-1q-69 0 -106 37t-37 97v63q0 58 27 90.5t86 50.5
q26 8 78 21.5t66 17.5t14 23v16q0 23 -9 33.5t-33 10.5h-1q-23 0 -32.5 -11t-9.5 -34v-31h-179v41q0 78 49.5 117t157.5 39h24q101 0 139 -40q37 39 121 39h36q208 0 208 -198v-112h-272v-101q0 -48 41 -48q40 0 40 48v55h191v-42zM317 606l57 160h179l-63 -160h-173z" />
    <glyph glyph-name="Oslashacute" unicode="&#x1fe;" horiz-adv-x="596" 
d="M283 -11q-87 0 -138 40l-18 -29h-103l52 88q-37 56 -37 126v316q0 225 238 225h36q89 0 137 -38l17 27h105l-52 -84q37 -56 37 -130v-316q0 -104 -61 -164.5t-177 -60.5h-36zM242 487q0 -97 -4 -150l111 214q-10 34 -51 34q-56 0 -56 -68v-30zM297 160q56 0 56 66v30
q0 73 4 161l-113 -216q9 -41 53 -41zM206 789l52 140h188l-56 -140h-184z" />
    <glyph glyph-name="oslashacute" unicode="&#x1ff;" horiz-adv-x="568" 
d="M261 -13q-70 0 -124 33l-16 -20h-95l51 65q-41 52 -41 127v179q0 95 54.5 149t171.5 54h44q69 0 122 -33l16 19h98l-52 -63q42 -53 42 -126v-178q0 -97 -56.5 -151.5t-170.5 -54.5h-44zM230 360q0 -79 -2 -106l105 157q-13 24 -49 24q-54 0 -54 -61v-14zM284 130
q55 0 55 61v13q0 78 2 108l-106 -157q14 -25 49 -25zM198 606l57 160h179l-63 -160h-173z" />
    <glyph glyph-name="uni0218" unicode="&#x218;" horiz-adv-x="546" 
d="M250 -11q-225 0 -225 183v87h196v-68q0 -45 43 -45t43 49v7q0 30 -13 46.5t-45 37.5l-100 64q-59 38 -88.5 84.5t-29.5 114.5v21q0 185 232 185h28q123 0 173 -43.5t50 -125.5v-63h-195v45q0 44 -41 44q-44 0 -44 -42v-2q0 -23 12 -37t41 -33l100 -65q71 -47 103 -93
t32 -122v-22q0 -92 -59.5 -149.5t-184.5 -57.5h-28zM328 -266h-103q24 50 33 85h-76v135h182v-100q0 -51 -36 -120z" />
    <glyph glyph-name="uni0219" unicode="&#x219;" horiz-adv-x="508" 
d="M223 -13q-197 0 -197 160v47h182v-27q0 -49 41 -49h1q42 0 42 38q0 35 -48 53l-91 36q-65 25 -94.5 64.5t-29.5 101.5v9q0 154 211 154h36q107 0 154 -37t47 -114v-35h-177v19q0 26 -10 36.5t-34 10.5q-45 0 -45 -33q0 -18 11 -27.5t42 -21.5l90 -36q71 -29 100 -68
t29 -101v-10q0 -80 -53 -125t-155 -45h-52zM312 -266h-103q24 50 33 85h-76v135h182v-100q0 -51 -36 -120z" />
    <glyph glyph-name="uni021A" unicode="&#x21a;" horiz-adv-x="480" 
d="M140 0v575h-117v169h434v-169h-117v-575h-200zM295 -266h-103q24 50 33 85h-76v135h182v-100q0 -51 -36 -120z" />
    <glyph glyph-name="uni021B" unicode="&#x21b;" horiz-adv-x="429" 
d="M399 0h-174q-61 0 -89.5 28t-28.5 88v296h-86v148h86v176h205v-176h87v-148h-87v-227q0 -19 7 -26.5t28 -7.5h52v-151zM321 -266h-103q24 50 33 85h-76v135h182v-100q0 -51 -36 -120z" />
    <glyph glyph-name="uni0237" unicode="&#x237;" horiz-adv-x="292" 
d="M-20 -27h30q18 0 25.5 7t7.5 26v554h206v-620q0 -57 -28.5 -90.5t-88.5 -33.5h-152v157z" />
    <glyph glyph-name="circumflex" unicode="&#x2c6;" horiz-adv-x="400" 
d="M306 766l83 -161h-154l-36 79l-36 -79h-152l83 161h212z" />
    <glyph glyph-name="caron" unicode="&#x2c7;" horiz-adv-x="400" 
d="M95 606l-84 160h154l36 -78l36 78h152l-84 -160h-210z" />
    <glyph glyph-name="breve" unicode="&#x2d8;" horiz-adv-x="400" 
d="M198 603q-78 0 -118.5 39t-40.5 107v12h131v-8q0 -42 31 -42t31 42v8h131v-12q0 -68 -40.5 -107t-118.5 -39h-6z" />
    <glyph glyph-name="dotaccent" unicode="&#x2d9;" horiz-adv-x="400" 
d="M303 763v-157h-206v157h206z" />
    <glyph glyph-name="ring" unicode="&#x2da;" horiz-adv-x="400" 
d="M200 600q-51 0 -82 29.5t-31 77.5q0 49 30.5 77.5t82.5 28.5q51 0 82 -28.5t31 -77.5q0 -48 -31 -77.5t-82 -29.5zM200 662q19 0 31 12t12 33t-12 33t-31 12t-31 -12t-12 -33t12 -33t31 -12z" />
    <glyph glyph-name="ogonek" unicode="&#x2db;" horiz-adv-x="400" 
d="M76 -113v3q0 36 34 62t93 48h83q-52 -44 -52 -66v-2q0 -21 34 -21h18v-97h-108q-102 0 -102 73z" />
    <glyph glyph-name="tilde" unicode="&#x2dc;" horiz-adv-x="400" 
d="M364 774v-80q0 -39 -19 -62.5t-53 -23.5h-3q-32 0 -87 24q-41 18 -47 18q-9 0 -9 -14v-30h-111v80q0 38 19 62t53 24h3q34 0 86 -24q41 -19 48 -19q9 0 9 15v30h111z" />
    <glyph glyph-name="hungarumlaut" unicode="&#x2dd;" horiz-adv-x="400" 
d="M192 606l55 160h150l-56 -160h-149zM3 606l51 160h151l-54 -160h-148z" />
    <glyph glyph-name="Wgrave" unicode="&#x1e80;" horiz-adv-x="814" 
d="M425 265q-16 140 -18 174q0 -6 -18 -173l-30 -266h-219l-128 744h209l36 -323q11 -102 15 -166q5 74 16 166l39 323h172l39 -320q14 -122 17 -167q5 70 15 164l36 323h196l-128 -744h-219zM505 789h-184l-56 140h188z" />
    <glyph glyph-name="wgrave" unicode="&#x1e81;" horiz-adv-x="772" 
d="M408 147q-17 108 -20 155q-2 -28 -20 -155l-22 -147h-222l-116 560h207l25 -199q15 -128 18 -164q3 36 18 164l25 199h177l25 -199q16 -118 19 -164q3 39 18 164l24 199h200l-114 -560h-219zM473 606h-173l-63 160h179z" />
    <glyph glyph-name="Wacute" unicode="&#x1e82;" horiz-adv-x="814" 
d="M425 265q-16 140 -18 174q0 -6 -18 -173l-30 -266h-219l-128 744h209l36 -323q11 -102 15 -166q5 74 16 166l39 323h172l39 -320q14 -122 17 -167q5 70 15 164l36 323h196l-128 -744h-219zM321 789l52 140h188l-56 -140h-184z" />
    <glyph glyph-name="wacute" unicode="&#x1e83;" horiz-adv-x="772" 
d="M408 147q-17 108 -20 155q-2 -28 -20 -155l-22 -147h-222l-116 560h207l25 -199q15 -128 18 -164q3 36 18 164l25 199h177l25 -199q16 -117 19 -161q3 36 18 161l24 199h200l-114 -560h-219zM302 606l57 160h179l-63 -160h-173z" />
    <glyph glyph-name="Wdieresis" unicode="&#x1e84;" horiz-adv-x="814" 
d="M425 265q-16 140 -18 174q0 -6 -18 -173l-30 -266h-219l-128 744h209l36 -323q11 -102 15 -166q5 74 16 166l39 323h172l39 -320q14 -122 17 -167q5 70 15 164l36 323h196l-128 -744h-219zM389 936v-147h-161v147h161zM590 936v-147h-161v147h161z" />
    <glyph glyph-name="wdieresis" unicode="&#x1e85;" horiz-adv-x="772" 
d="M408 147q-17 108 -20 155q-2 -28 -20 -155l-22 -147h-222l-116 560h207l25 -199q16 -127 18 -161q2 34 18 161l25 199h177l25 -199q16 -118 19 -164q3 39 18 164l24 199h200l-114 -560h-219zM368 753v-147h-161v147h161zM567 753v-147h-161v147h161z" />
    <glyph glyph-name="Ygrave" unicode="&#x1ef2;" horiz-adv-x="536" 
d="M159 0v273l-156 471h213l60 -248l60 248h197l-146 -475v-269h-228zM367 789h-184l-56 140h188z" />
    <glyph glyph-name="ygrave" unicode="&#x1ef3;" horiz-adv-x="529" 
d="M68 -184v157h63q22 0 22 17v1q0 11 -13 60l-132 509h207l54 -360l51 360h201l-155 -643q-14 -55 -41 -78t-79 -23h-178zM354 606h-173l-63 160h179z" />
    <glyph glyph-name="uni2009" unicode="&#x2009;" horiz-adv-x="46" 
 />
    <glyph glyph-name="endash" unicode="&#x2013;" horiz-adv-x="569" 
d="M40 359h489v-115h-489v115z" />
    <glyph glyph-name="emdash" unicode="&#x2014;" horiz-adv-x="841" 
d="M40 359h761v-115h-761v115z" />
    <glyph glyph-name="quoteleft" unicode="&#x2018;" horiz-adv-x="263" 
d="M79 744h105q-27 -68 -34 -136h73v-167h-182v128q0 99 38 175z" />
    <glyph glyph-name="quoteright" unicode="&#x2019;" horiz-adv-x="263" 
d="M184 441h-105q27 68 34 136h-73v167h182v-128q0 -99 -38 -175z" />
    <glyph glyph-name="quotesinglbase" unicode="&#x201a;" horiz-adv-x="263" 
d="M184 -136h-105q27 68 34 136h-73v167h182v-128q0 -99 -38 -175z" />
    <glyph glyph-name="quotedblleft" unicode="&#x201c;" horiz-adv-x="495" 
d="M311 744h105q-27 -68 -34 -136h73v-167h-182v128q0 99 38 175zM79 744h105q-27 -68 -34 -136h73v-167h-182v128q0 99 38 175z" />
    <glyph glyph-name="quotedblright" unicode="&#x201d;" horiz-adv-x="495" 
d="M416 441h-105q27 68 34 136h-73v167h182v-128q0 -99 -38 -175zM184 441h-105q27 68 34 136h-73v167h182v-128q0 -99 -38 -175z" />
    <glyph glyph-name="quotedblbase" unicode="&#x201e;" horiz-adv-x="496" 
d="M417 -136h-105q27 68 34 136h-73v167h182v-128q0 -99 -38 -175zM184 -136h-105q27 68 34 136h-73v167h182v-128q0 -99 -38 -175z" />
    <glyph glyph-name="dagger" unicode="&#x2020;" horiz-adv-x="413" 
d="M110 0v447h-83v155h83v142h193v-142h83v-155h-83v-447h-193z" />
    <glyph glyph-name="daggerdbl" unicode="&#x2021;" horiz-adv-x="423" 
d="M308 0h-193v142h-83v155h83v150h-83v155h83v142h193v-142h83v-155h-83v-150h83v-155h-83v-142z" />
    <glyph glyph-name="bullet" unicode="&#x2022;" horiz-adv-x="371" 
d="M185 170q-70 0 -115 45t-45 115t45 115t115 45t115.5 -45t45.5 -115t-45 -115t-116 -45z" />
    <glyph glyph-name="ellipsis" unicode="&#x2026;" horiz-adv-x="828" 
d="M236 194v-194h-196v194h196zM512 194v-194h-196v194h196zM788 194v-194h-196v194h196z" />
    <glyph glyph-name="perthousand" unicode="&#x2030;" horiz-adv-x="1233" 
d="M1198 131q0 -66 -38 -102.5t-112 -36.5h-19q-150 0 -150 139v130q0 138 150 138h19q150 0 150 -138v-130zM1039 96q29 0 29 32v137q0 32 -29 32t-29 -32v-137q0 -32 29 -32zM354 485q0 -66 -38 -102.5t-112 -36.5h-19q-150 0 -150 139v130q0 138 150 138h19
q150 0 150 -138v-130zM562 744h113l-378 -744h-116zM195 450q29 0 29 32v137q0 32 -29 32t-29 -32v-137q0 -32 29 -32zM824 131q0 -66 -38 -102.5t-112 -36.5h-19q-150 0 -150 139v130q0 138 150 138h19q150 0 150 -138v-130zM665 96q29 0 29 32v137q0 32 -29 32t-29 -32
v-137q0 -32 29 -32z" />
    <glyph glyph-name="uni2032" unicode="&#x2032;" horiz-adv-x="236" 
d="M216 744l-42 -252h-154l40 252h156z" />
    <glyph glyph-name="uni2033" unicode="&#x2033;" horiz-adv-x="448" 
d="M428 744l-45 -251h-154l43 251h156zM216 744l-42 -251h-154l40 251h156z" />
    <glyph glyph-name="guilsinglleft" unicode="&#x2039;" horiz-adv-x="313" 
d="M194 286l84 -184h-168l-70 139v90l70 139h168z" />
    <glyph glyph-name="guilsinglright" unicode="&#x203a;" horiz-adv-x="313" 
d="M119 286l-84 184h168l70 -139v-90l-70 -139h-168z" />
    <glyph glyph-name="fraction" unicode="&#x2044;" horiz-adv-x="550" 
d="M438 744h112l-439 -744h-111z" />
    <glyph glyph-name="Euro" unicode="&#x20ac;" horiz-adv-x="619" 
d="M324 -11q-124 0 -183.5 57.5t-59.5 174.5v60h-68v79h68v47h-68v77h68v44q0 111 55.5 169t186.5 58h35q232 0 232 -199v-38h-201v20q0 55 -47 55t-47 -55v-54h147v-77h-147v-47h147v-79h-147v-68q0 -57 47 -57t47 57v32h201v-49q0 -207 -231 -207h-35z" />
    <glyph glyph-name="trademark" unicode="&#x2122;" horiz-adv-x="660" 
d="M251 645h-56v-252h-115v252h-55v99h226v-99zM286 393v351h139l29 -168l30 168h133v-351h-95v219l-43 -219h-55l-43 219v-219h-95z" />
    <glyph glyph-name="onethird" unicode="&#x2153;" horiz-adv-x="839" 
d="M531 744h112l-439 -744h-111zM101 587h-79v104q46 0 68.5 13t32.5 42h129v-412h-151v253zM608 284h-134v22q0 51 31.5 80.5t120.5 29.5h20q92 0 128 -26t36 -73v-4q0 -34 -19.5 -50.5t-44.5 -20.5q72 -15 72 -94v-25q0 -129 -169 -129h-20q-95 0 -128 32t-33 90v24h141
v-11q0 -31 30 -31q28 0 28 30v5q0 15 -5.5 21t-21.5 6h-77v102h76q15 0 20 6t5 19v10q0 26 -28 26t-28 -26v-13z" />
    <glyph glyph-name="twothirds" unicode="&#x2154;" horiz-adv-x="956" 
d="M648 744h112l-439 -744h-111zM725 284h-134v22q0 51 31.5 80.5t120.5 29.5h20q92 0 128 -26t36 -73v-4q0 -34 -19.5 -50.5t-44.5 -20.5q72 -15 72 -94v-25q0 -129 -169 -129h-20q-95 0 -128 32t-33 90v24h141v-11q0 -31 30 -31q28 0 28 30v5q0 15 -5.5 21t-21.5 6h-77
v102h76q15 0 20 6t5 19v10q0 26 -28 26t-28 -26v-13zM378 334h-356v45q0 49 13.5 77.5t70.5 71.5q10 8 36.5 26t35.5 25q29 21 37 30t8 22q0 26 -29 26q-30 0 -30 -34v-20h-135v36q0 110 157 110h19q93 0 131.5 -30t38.5 -85v-5q0 -62 -65 -102q-10 -6 -87 -43
q-75 -36 -75 -54h100v41h130v-137z" />
    <glyph glyph-name="oneeighth" unicode="&#x215b;" horiz-adv-x="857" 
d="M531 744h112l-439 -744h-111zM101 587h-79v104q46 0 68.5 13t32.5 42h129v-412h-151v253zM618 146q0 30 33 30q34 0 34 -30v-22q0 -30 -34 -30q-33 0 -33 30v22zM685 294v-11q0 -30 -34 -30q-33 0 -33 29v12q0 29 33 29q34 0 34 -29zM662 -6q92 0 133.5 30t41.5 89v14
q0 66 -70 92q64 24 64 85v9q0 103 -169 103h-22q-167 0 -167 -103v-9q0 -62 62 -85q-13 -5 -21.5 -10t-21 -16t-19.5 -27.5t-7 -38.5v-14q0 -60 41 -89.5t133 -29.5h22z" />
    <glyph glyph-name="threeeighths" unicode="&#x215c;" horiz-adv-x="949" 
d="M628 744h112l-439 -744h-111zM169 618h-134v22q0 51 31.5 80.5t120.5 29.5h20q92 0 128 -26t36 -73v-4q0 -34 -19.5 -50.5t-44.5 -20.5q72 -15 72 -94v-25q0 -129 -169 -129h-20q-95 0 -128 32t-33 90v24h141v-11q0 -31 30 -31q28 0 28 30v5q0 15 -5.5 21t-21.5 6h-77
v102h76q15 0 20 6t5 19v10q0 26 -28 26t-28 -26v-13zM710 146q0 30 33 30q34 0 34 -30v-22q0 -30 -34 -30q-33 0 -33 30v22zM777 294v-11q0 -30 -34 -30q-33 0 -33 29v12q0 29 33 29q34 0 34 -29zM754 -6q92 0 133.5 30t41.5 89v14q0 66 -70 92q64 24 64 85v9
q0 103 -169 103h-22q-167 0 -167 -103v-9q0 -62 62 -85q-13 -5 -21.5 -10t-21 -16t-19.5 -27.5t-7 -38.5v-14q0 -60 41 -89.5t133 -29.5h22z" />
    <glyph glyph-name="fiveeighths" unicode="&#x215d;" horiz-adv-x="951" 
d="M630 744h112l-439 -744h-111zM712 146q0 30 33 30q34 0 34 -30v-22q0 -30 -34 -30q-33 0 -33 30v22zM779 294v-11q0 -30 -34 -30q-33 0 -33 29v12q0 29 33 29q34 0 34 -29zM756 -6q92 0 133.5 30t41.5 89v14q0 66 -70 92q64 24 64 85v9q0 103 -169 103h-22
q-167 0 -167 -103v-9q0 -62 62 -85q-13 -5 -21.5 -10t-21 -16t-19.5 -27.5t-7 -38.5v-14q0 -60 41 -89.5t133 -29.5h22zM217 328h-21q-162 0 -162 109v37h142v-15q0 -29 29 -29q28 0 28 29v44q0 30 -29 30q-27 0 -27 -30h-138v240h329v-98h-195v-64q37 42 100 42h5
q53 0 80 -26.5t27 -70.5v-79q0 -56 -42 -87.5t-126 -31.5z" />
    <glyph glyph-name="seveneighths" unicode="&#x215e;" horiz-adv-x="890" 
d="M651 146q0 30 33 30q34 0 34 -30v-22q0 -30 -34 -30q-33 0 -33 30v22zM718 294v-11q0 -30 -34 -30q-33 0 -33 29v12q0 29 33 29q34 0 34 -29zM695 -6q92 0 133.5 30t41.5 89v14q0 66 -70 92q64 24 64 85v9q0 103 -169 103h-22q-167 0 -167 -103v-9q0 -62 62 -85
q-13 -5 -21.5 -10t-21 -16t-19.5 -27.5t-7 -38.5v-14q0 -60 41 -89.5t133 -29.5h22zM569 744h112l-439 -744h-111zM29 744h324v-92q-29 -79 -48 -137q-27 -83 -27 -147v-34h-179v25q0 43 11 70.5t43 78.5l16 24t14 22.5l12 20t11.5 18t9.5 14.5t7.5 13.5l5 10.5t3.5 8.5
t1 5.5h-77v-46h-127v145z" />
    <glyph glyph-name="minus" unicode="&#x2212;" horiz-adv-x="492" 
d="M35 368h422v-126h-422v126z" />
    <glyph glyph-name="uni24C5" unicode="&#x24c5;" horiz-adv-x="746" 
d="M707 283q0 -152 -80.5 -224t-241.5 -72h-24q-162 0 -242 71t-80 224v182q0 145 82.5 219t240.5 74h22q158 0 240.5 -74t82.5 -219v-181zM363 62h20q123 0 180.5 54t57.5 168v176q0 117 -58 169.5t-180 52.5h-20q-122 0 -180 -52.5t-58 -169.5v-176q0 -114 57.5 -168
t180.5 -54zM435 301h-76v-178h-144v498h220q126 0 126 -124v-71q0 -125 -126 -125zM359 520v-119h25q34 0 34 38v43q0 38 -34 38h-25z" />
    <glyph glyph-name="cent.tab" unicode="&#xe459;" 
d="M285 -76h-46v63q-111 1 -159 49.5t-48 140.5v203q0 187 207 188v65h46v-65q100 -1 143 -45t43 -125v-60h-147v40q0 28 -8.5 42.5t-30.5 18.5v-318q39 8 39 61v50h147v-78q0 -76 -46.5 -121t-139.5 -46v-63zM200 182q0 -53 39 -61v318q-39 -8 -39 -61v-196z" />
    <glyph glyph-name="E.alt" unicode="&#xe484;" horiz-adv-x="472" 
d="M45 744h386v-173h-184v-99h178v-176h-178v-121h187v-175h-389v744z" />
    <glyph glyph-name="F.alt" unicode="&#xe485;" horiz-adv-x="451" 
d="M45 0v744h375v-173h-173v-99h170v-176h-170v-296h-202z" />
    <glyph glyph-name="J.alt" unicode="&#xe489;" horiz-adv-x="393" 
d="M24 0v185h70q23 0 32.5 10t9.5 32v517h214v-570q0 -87 -40.5 -130.5t-128.5 -43.5h-157z" />
    <glyph glyph-name="a.alt" unicode="&#xe4c0;" horiz-adv-x="536" 
d="M298 273q-43 -19 -55 -27q-26 -17 -26 -50v-36q0 -43 40 -43q19 0 30 12.5t11 30.5v113zM494 417v-259q0 -120 13 -153v-5h-196q-11 22 -11 64q-18 -25 -55 -48.5t-81 -23.5h-1q-64 0 -100 37t-36 96v72q0 58 27 90.5t86 50.5q26 8 78 21.5t66 17.5t14 23v8q0 23 -9 33.5
t-33 10.5h-1q-23 0 -32.5 -11t-9.5 -34v-25h-179v35q0 78 51.5 117t167.5 39h23q116 0 167 -38.5t51 -117.5z" />
    <glyph glyph-name="r.alt" unicode="&#xe4d1;" horiz-adv-x="443" 
d="M246 560v-87q38 91 129 91h4q17 0 37 -4v-213q-35 7 -65 7h-7q-96 0 -96 -69v-285h-206v560h204z" />
    <glyph glyph-name="idotaccent" horiz-adv-x="290" 
d="M248 763v-157h-206v157h206zM248 560v-560h-206v560h206z" />
    <glyph glyph-name="space_uni0326" horiz-adv-x="400" 
d="M255 -266h-103q24 50 33 85h-76v135h182v-100q0 -51 -36 -120z" />
    <glyph glyph-name="zero.num" horiz-adv-x="441" 
d="M231 328h-21q-175 0 -175 153v116q0 153 175 153h21q175 0 175 -153v-116q0 -153 -175 -153zM219 643q-31 0 -31 -42v-123q0 -42 31 -42q34 0 34 42v123q0 42 -34 42z" />
    <glyph glyph-name="one.num" horiz-adv-x="293" 
d="M101 587h-79v104q46 0 68.5 13t32.5 42h129v-412h-151v253z" />
    <glyph glyph-name="two.num" horiz-adv-x="403" 
d="M378 334h-356v45q0 49 13.5 77.5t70.5 71.5q10 8 36.5 26t35.5 25q29 21 37 30t8 22q0 26 -29 26q-30 0 -30 -34v-20h-135v36q0 110 157 110h19q93 0 131.5 -30t38.5 -85v-5q0 -62 -65 -102q-10 -6 -87 -43q-75 -36 -75 -54h100v41h130v-137z" />
    <glyph glyph-name="three.num" horiz-adv-x="408" 
d="M169 618h-134v22q0 51 31.5 80.5t120.5 29.5h20q92 0 128 -26t36 -73v-4q0 -34 -19.5 -50.5t-44.5 -20.5q72 -15 72 -94v-25q0 -129 -169 -129h-20q-95 0 -128 32t-33 90v24h141v-11q0 -31 30 -31q28 0 28 30v5q0 15 -5.5 21t-21.5 6h-77v102h76q15 0 20 6t5 19v10
q0 26 -28 26t-28 -26v-13z" />
    <glyph glyph-name="four.num" horiz-adv-x="386" 
d="M17 497l143 249h150v-232h59v-114h-59v-66h-144v66h-149v97zM166 514v118l-65 -118h65z" />
    <glyph glyph-name="five.num" horiz-adv-x="415" 
d="M217 328h-21q-162 0 -162 109v37h142v-15q0 -29 29 -29q28 0 28 29v44q0 30 -29 30q-27 0 -27 -30h-138v240h329v-98h-195v-64q37 42 100 42h5q53 0 80 -26.5t27 -70.5v-79q0 -56 -42 -87.5t-126 -31.5z" />
    <glyph glyph-name="six.num" horiz-adv-x="437" 
d="M296 596h4q54 0 80.5 -28.5t26.5 -78.5v-23q0 -138 -177 -138h-18q-177 0 -177 144v128q0 76 41.5 113t132.5 37h18q94 0 131.5 -34t37.5 -98v-2h-149v2q0 18 -6 26.5t-24 8.5q-17 0 -23 -8.5t-6 -26.5v-62q36 40 108 40zM188 459q0 -32 33 -32t33 32v21q0 32 -33 32
t-33 -32v-21z" />
    <glyph glyph-name="seven.num" horiz-adv-x="379" 
d="M29 744h324v-92q-29 -79 -48 -137q-27 -83 -27 -147v-34h-179v25q0 43 11 70.5t43 78.5l16 24t14 22.5l12 20t11.5 18t9.5 14.5t7.5 13.5l5 10.5t3.5 8.5t1 5.5h-77v-46h-127v145z" />
    <glyph glyph-name="eight.num" horiz-adv-x="428" 
d="M400 447q0 -59 -41.5 -89t-133.5 -30h-22q-92 0 -133 29.5t-41 89.5v14q0 22 7 38.5t19.5 27.5t21 16t21.5 10q-62 23 -62 85v9q0 103 167 103h22q169 0 169 -103v-9q0 -61 -64 -85q70 -26 70 -92v-14zM248 617v11q0 29 -34 29q-33 0 -33 -29v-12q0 -29 33 -29
q34 0 34 30zM214 510q-33 0 -33 -30v-22q0 -30 33 -30q34 0 34 30v22q0 30 -34 30z" />
    <glyph glyph-name="nine.num" horiz-adv-x="437" 
d="M249 618q0 33 -34 33q-32 0 -32 -33v-20q0 -33 32 -33q34 0 34 33v20zM144 482h-4q-55 0 -82.5 30.5t-27.5 82.5v22q0 66 41 99.5t134 33.5h17q180 0 180 -144v-126q0 -76 -42 -114t-133 -38h-18q-96 0 -132 33.5t-36 97.5v2h149v-2q0 -34 29 -34q18 0 24 8.5t6 25.5v63
q-33 -40 -105 -40z" />
    <glyph glyph-name="zero.den" horiz-adv-x="441" 
d="M231 -6h-21q-175 0 -175 153v116q0 153 175 153h21q175 0 175 -153v-116q0 -153 -175 -153zM219 309q-31 0 -31 -42v-123q0 -42 31 -42q34 0 34 42v123q0 42 -34 42z" />
    <glyph glyph-name="one.den" horiz-adv-x="293" 
d="M101 253h-79v104q46 0 68.5 13t32.5 42h129v-412h-151v253z" />
    <glyph glyph-name="two.den" horiz-adv-x="403" 
d="M194 323q-30 0 -30 -34v-20h-135v36q0 110 157 110h19q93 0 131.5 -30t38.5 -85v-5q0 -62 -65 -102q-10 -6 -87 -43q-75 -36 -75 -54h100v41h130v-137h-356v45q0 49 13.5 77.5t70.5 71.5q10 8 36.5 26t35.5 25q29 21 37 30t8 22q0 26 -29 26z" />
    <glyph glyph-name="three.den" horiz-adv-x="408" 
d="M169 284h-134v22q0 51 31.5 80.5t120.5 29.5h20q92 0 128 -26t36 -73v-4q0 -34 -19.5 -50.5t-44.5 -20.5q72 -15 72 -94v-25q0 -129 -169 -129h-20q-95 0 -128 32t-33 90v24h141v-11q0 -31 30 -31q28 0 28 30v5q0 15 -5.5 21t-21.5 6h-77v102h76q15 0 20 6t5 19v10
q0 26 -28 26t-28 -26v-13z" />
    <glyph glyph-name="four.den" horiz-adv-x="386" 
d="M17 163l143 249h150v-232h59v-114h-59v-66h-144v66h-149v97zM166 180v118l-65 -118h65z" />
    <glyph glyph-name="five.den" horiz-adv-x="415" 
d="M217 -6h-21q-162 0 -162 109v37h142v-15q0 -29 29 -29q28 0 28 29v44q0 30 -29 30q-27 0 -27 -30h-138v240h329v-98h-195v-64q37 42 100 42h5q53 0 80 -26.5t27 -70.5v-79q0 -56 -42 -87.5t-126 -31.5z" />
    <glyph glyph-name="six.den" horiz-adv-x="437" 
d="M296 262h4q54 0 80.5 -28.5t26.5 -78.5v-23q0 -138 -177 -138h-18q-177 0 -177 144v128q0 76 41.5 113t132.5 37h18q94 0 131.5 -34t37.5 -98v-2h-149v2q0 18 -6 26.5t-24 8.5q-17 0 -23 -8.5t-6 -26.5v-62q36 40 108 40zM188 125q0 -32 33 -32t33 32v21q0 32 -33 32
t-33 -32v-21z" />
    <glyph glyph-name="seven.den" horiz-adv-x="379" 
d="M29 410h324v-92q-29 -79 -48 -137q-27 -83 -27 -147v-34h-179v25q0 43 11 70.5t43 78.5l16 24t14 22.5l12 20t11.5 18t9.5 14.5t7.5 13.5l5 10.5t3.5 8.5t1 5.5h-77v-46h-127v145z" />
    <glyph glyph-name="eight.den" horiz-adv-x="428" 
d="M181 146v-22q0 -30 33 -30q34 0 34 30v22q0 30 -34 30q-33 0 -33 -30zM248 283v11q0 29 -34 29q-33 0 -33 -29v-12q0 -29 33 -29q34 0 34 30zM225 -6h-22q-92 0 -133 29.5t-41 89.5v14q0 22 7 38.5t19.5 27.5t21 16t21.5 10q-62 23 -62 85v9q0 103 167 103h22
q169 0 169 -103v-9q0 -61 -64 -85q70 -26 70 -92v-14q0 -59 -41.5 -89t-133.5 -30z" />
    <glyph glyph-name="nine.den" horiz-adv-x="437" 
d="M249 284q0 33 -34 33q-32 0 -32 -33v-20q0 -33 32 -33q34 0 34 33v20zM144 148h-4q-55 0 -82.5 30.5t-27.5 82.5v22q0 66 41 99.5t134 33.5h17q180 0 180 -144v-126q0 -76 -42 -114t-133 -38h-18q-96 0 -132 33.5t-36 97.5v2h149v-2q0 -34 29 -34q18 0 24 8.5t6 25.5v63
q-33 -40 -105 -40z" />
    <glyph glyph-name="zero.sub" horiz-adv-x="486" 
d="M254 -149h-23q-192 0 -192 168v128q0 168 192 168h23q193 0 193 -168v-128q0 -168 -193 -168zM241 197q-34 0 -34 -46v-135q0 -46 34 -46q37 0 37 46v135q0 46 -37 46z" />
    <glyph glyph-name="one.sub" horiz-adv-x="322" 
d="M111 136h-87v115q50 0 75 14t36 46h142v-453h-166v278z" />
    <glyph glyph-name="two.sub" horiz-adv-x="443" 
d="M416 -143h-392v50q0 54 15 85.5t77 78.5l37.5 26t42.5 30q32 23 40.5 32.5t8.5 24.5q0 29 -32 29q-33 0 -33 -38v-22h-148v40q0 121 172 121h21q103 0 145 -33t42 -94v-5q0 -69 -71 -112q-15 -9 -31.5 -17.5t-36 -17.5l-28.5 -13q-82 -39 -82 -59h110v45h143v-151z" />
    <glyph glyph-name="three.sub" horiz-adv-x="449" 
d="M186 170h-147v24q0 56 34.5 88.5t132.5 32.5h22q101 0 140.5 -28.5t39.5 -80.5v-4q0 -37 -21.5 -55.5t-48.5 -22.5q79 -17 79 -104v-27q0 -142 -186 -142h-22q-105 0 -141 35t-36 99v26h155v-12q0 -34 33 -34q31 0 31 33v6q0 17 -6.5 23t-23.5 6h-85v113h84q16 0 22 6.5
t6 20.5v11q0 29 -31 29q-18 0 -24.5 -7t-6.5 -22v-14z" />
    <glyph glyph-name="four.sub" horiz-adv-x="425" 
d="M19 37q128 220 157 274h165v-255h65v-126h-65v-72h-158v72h-164v107zM183 56v131l-72 -131h72z" />
    <glyph glyph-name="five.sub" horiz-adv-x="457" 
d="M239 -149h-23q-179 0 -179 120v41h157v-16q0 -32 32 -32q30 0 30 32v48q0 33 -32 33q-29 0 -29 -33h-152v264h362v-108h-215v-70q41 46 110 46h6q58 0 88 -29.5t30 -77.5v-87q0 -61 -46.5 -96t-138.5 -35z" />
    <glyph glyph-name="six.sub" horiz-adv-x="481" 
d="M326 146h4q59 0 88.5 -31.5t29.5 -86.5v-25q0 -152 -195 -152h-20q-194 0 -194 158v141q0 83 45.5 124t145.5 41h20q104 0 145 -37.5t41 -107.5v-2h-164v2q0 20 -7 29t-26 9t-25.5 -9t-6.5 -29v-68q40 44 119 44zM207 -5q0 -35 36 -35t36 35v23q0 35 -36 35t-36 -35v-23z
" />
    <glyph glyph-name="seven.sub" horiz-adv-x="417" 
d="M32 309h356v-101l-21 -60q-21 -60 -31 -91q-30 -88 -30 -162v-37h-197v27q0 49 12 79t47 85q82 129 87 145q1 4 1 6h-84v-50h-140v159z" />
    <glyph glyph-name="eight.sub" horiz-adv-x="472" 
d="M440 -18q0 -65 -45.5 -98t-146.5 -33h-25q-101 0 -146 32.5t-45 98.5v15q0 70 76 101q-68 25 -68 94v10q0 113 183 113h25q185 0 185 -113v-10q0 -67 -70 -94q77 -30 77 -101v-15zM273 169v12q0 32 -38 32q-36 0 -36 -32v-13q0 -32 36 -32q38 0 38 33zM235 51
q-36 0 -36 -33v-24q0 -33 36 -33q38 0 38 33v24q0 33 -38 33z" />
    <glyph glyph-name="nine.sub" horiz-adv-x="481" 
d="M274 170q0 36 -37 36q-36 0 -36 -36v-22q0 -37 36 -37q37 0 37 37v22zM158 20h-4q-60 0 -90.5 33.5t-30.5 90.5v25q0 72 45.5 109t147.5 37h18q198 0 198 -158v-139q0 -84 -46 -125.5t-146 -41.5h-20q-106 0 -145.5 36.5t-39.5 107.5v2h164v-2q0 -38 32 -38q33 0 33 38
v69q-37 -44 -116 -44z" />
    <glyph glyph-name="zero.sup" horiz-adv-x="486" 
d="M254 299h-23q-192 0 -192 168v128q0 168 192 168h23q193 0 193 -168v-128q0 -168 -193 -168zM241 645q-34 0 -34 -46v-135q0 -46 34 -46q37 0 37 46v135q0 46 -37 46z" />
    <glyph glyph-name="one.sup" horiz-adv-x="322" 
d="M111 584h-87v115q50 0 75 14t36 46h142v-453h-166v278z" />
    <glyph glyph-name="two.sup" horiz-adv-x="443" 
d="M416 305h-392v50q0 54 15 85.5t77 78.5l37.5 26t42.5 30q32 23 40.5 32.5t8.5 24.5q0 29 -32 29q-33 0 -33 -38v-22h-148v40q0 121 172 121h21q103 0 145 -33t42 -94v-5q0 -69 -71 -112q-15 -9 -31.5 -17.5t-36 -17.5l-28.5 -13q-82 -39 -82 -59h110v45h143v-151z" />
    <glyph glyph-name="three.sup" horiz-adv-x="449" 
d="M186 618h-147v24q0 56 34.5 88.5t132.5 32.5h22q101 0 140.5 -28.5t39.5 -80.5v-4q0 -37 -21.5 -55.5t-48.5 -22.5q79 -17 79 -104v-27q0 -142 -186 -142h-22q-105 0 -141 35t-36 99v26h155v-12q0 -34 33 -34q31 0 31 33v6q0 17 -6.5 23t-23.5 6h-85v113h84q16 0 22 6.5
t6 20.5v11q0 29 -31 29q-18 0 -24.5 -7t-6.5 -22v-14z" />
    <glyph glyph-name="four.sup" horiz-adv-x="425" 
d="M19 485q128 220 157 274h165v-255h65v-126h-65v-72h-158v72h-164v107zM183 504v131l-72 -131h72z" />
    <glyph glyph-name="five.sup" horiz-adv-x="457" 
d="M239 299h-23q-179 0 -179 120v41h157v-16q0 -32 32 -32q30 0 30 32v48q0 33 -32 33q-29 0 -29 -33h-152v264h362v-108h-215v-70q41 46 110 46h6q58 0 88 -29.5t30 -77.5v-87q0 -61 -46.5 -96t-138.5 -35z" />
    <glyph glyph-name="six.sup" horiz-adv-x="481" 
d="M326 594h4q59 0 88.5 -31.5t29.5 -86.5v-25q0 -152 -195 -152h-20q-194 0 -194 158v141q0 83 45.5 124t145.5 41h20q104 0 145 -37.5t41 -107.5v-2h-164v2q0 20 -7 29t-26 9t-25.5 -9t-6.5 -29v-68q40 44 119 44zM207 443q0 -35 36 -35t36 35v23q0 35 -36 35t-36 -35v-23
z" />
    <glyph glyph-name="seven.sup" horiz-adv-x="417" 
d="M32 757h356v-101l-21 -60q-21 -60 -31 -91q-30 -88 -30 -162v-37h-197v27q0 49 12 79t47 85q82 129 87 145q1 4 1 6h-84v-50h-140v159z" />
    <glyph glyph-name="eight.sup" horiz-adv-x="472" 
d="M440 430q0 -65 -45.5 -98t-146.5 -33h-25q-101 0 -146 32.5t-45 98.5v15q0 70 76 101q-68 25 -68 94v10q0 113 183 113h25q185 0 185 -113v-10q0 -67 -70 -94q77 -30 77 -101v-15zM273 617v12q0 32 -38 32q-36 0 -36 -32v-13q0 -32 36 -32q38 0 38 33zM235 499
q-36 0 -36 -33v-24q0 -33 36 -33q38 0 38 33v24q0 33 -38 33z" />
    <glyph glyph-name="nine.sup" horiz-adv-x="481" 
d="M274 618q0 36 -37 36q-36 0 -36 -36v-22q0 -37 36 -37q37 0 37 37v22zM158 468h-4q-60 0 -90.5 33.5t-30.5 90.5v25q0 72 45.5 109t147.5 37h18q198 0 198 -158v-139q0 -84 -46 -125.5t-146 -41.5h-20q-106 0 -145.5 36.5t-39.5 107.5v2h164v-2q0 -38 32 -38q33 0 33 38
v69q-37 -44 -116 -44z" />
    <glyph glyph-name="space.tab" horiz-adv-x="250" 
 />
    <glyph glyph-name="comma.tab" horiz-adv-x="250" 
d="M184 -133h-111q30 76 36 133h-82v194h196v-149q0 -78 -39 -178z" />
    <glyph glyph-name="period.tab" horiz-adv-x="250" 
d="M223 194v-194h-196v194h196z" />
    <glyph glyph-name="colon.tab" horiz-adv-x="250" 
d="M223 491v-194h-196v194h196zM223 194v-194h-196v194h196z" />
    <glyph glyph-name="semicolon.tab" horiz-adv-x="250" 
d="M184 -133h-111q30 76 36 133h-82v194h196v-149q0 -78 -39 -178zM223 491v-194h-196v194h196z" />
    <glyph glyph-name="zero.lintab" 
d="M468 549v-353q0 -207 -206 -207h-24q-206 0 -206 207v353q0 206 206 206h24q107 0 156.5 -56.5t49.5 -149.5zM283 199v344q0 47 -33 47q-18 0 -25 -11.5t-7 -35.5v-344q0 -44 32 -44q33 0 33 44z" />
    <glyph glyph-name="one.lintab" 
d="M482 0h-451v169h123v333h-112v157q71 0 100.5 19.5t41.5 65.5h182v-575h116v-169z" />
    <glyph glyph-name="two.lintab" 
d="M482 0h-462v91q0 70 23 123t91 136l79 96q51 64 59 84q6 14 6 28v2q0 24 -8 35t-29 11t-28.5 -12t-7.5 -36v-65h-177v80q0 87 46 134.5t157 47.5h26q119 0 170.5 -48.5t51.5 -137.5v-10q0 -61 -17.5 -101t-60.5 -83l-106 -104q-87 -85 -87 -113h104v90h170v-248z" />
    <glyph glyph-name="three.lintab" 
d="M209 517h-182v51q0 42 7 71.5t26.5 57.5t60.5 42.5t103 14.5h28q66 0 110 -12t66 -37t30 -54.5t8 -71.5v-38q0 -96 -71 -114q81 -21 81 -132v-103q0 -203 -220 -203h-28q-64 0 -107 14.5t-64 43t-29 60t-8 76.5v71h190v-51q0 -16 1.5 -23.5t8 -13.5t20.5 -6q19 0 25 10.5
t6 32.5v57q0 23 -8 31.5t-29 8.5h-97v171h90q40 0 40 39v49q0 24 -5.5 33t-25.5 9q-19 0 -23 -8.5t-4 -33.5v-42z" />
    <glyph glyph-name="four.lintab" 
d="M21 290l186 459h203v-432h73v-181h-73v-136h-197v136h-192v154zM213 317v217l-84 -217h84z" />
    <glyph glyph-name="five.lintab" 
d="M215 324h-182v420h416v-166h-241v-113q53 67 133 67h7q70 0 97.5 -39.5t27.5 -114.5v-185q0 -204 -213 -204h-29q-62 0 -104 14t-63 41.5t-29 58.5t-8 73v84h188v-68q0 -44 29 -44q28 0 28 44v152q0 23 -5.5 34t-23.5 11t-23 -11t-5 -34v-20z" />
    <glyph glyph-name="six.lintab" 
d="M350 482h6q119 0 119 -153v-122q0 -105 -47.5 -161.5t-161.5 -56.5h-24q-116 0 -163 56t-47 162v327q0 112 46.5 165.5t160.5 53.5h25q115 0 157 -50t42 -152v-34h-182v37q0 22 -6 33t-24 11q-31 0 -31 -44v-141q9 13 15.5 20t23 21t39.5 21t52 7zM219 197q0 -49 35 -49
q34 0 34 49v98q0 49 -34 49q-35 0 -35 -49v-98z" />
    <glyph glyph-name="seven.lintab" 
d="M25 744h456v-143q-4 -17 -27.5 -103t-38.5 -151q-40 -175 -40 -278v-69h-250v48q0 71 15 131t58 149l30.5 64l25 52.5l19 40l14.5 31.5l10.5 23t7.5 18l4 12.5t2.5 11t0.5 9.5h-110v-97h-177v251z" />
    <glyph glyph-name="eight.lintab" 
d="M466 573v-23q0 -119 -67 -150q76 -35 76 -154v-58q0 -98 -47 -148.5t-163 -50.5h-30q-116 0 -163 50t-47 149v58q0 118 76 154q-67 32 -67 150v23q0 89 44 134.5t157 45.5h30q113 0 157 -45.5t44 -134.5zM285 505v54q0 25 -7.5 36t-27.5 11t-27.5 -11t-7.5 -36v-54
q0 -24 7 -35.5t28 -11.5t28 11t7 36zM285 198v78q0 27 -7.5 38t-27.5 11t-27.5 -11.5t-7.5 -37.5v-78q0 -26 7.5 -37.5t27.5 -11.5t27.5 11t7.5 38z" />
    <glyph glyph-name="nine.lintab" 
d="M281 547q0 48 -35 48q-34 0 -34 -48v-101q0 -47 34 -47q35 0 35 47v101zM158 261h-6q-64 0 -95.5 45t-31.5 118v125q0 101 48 153t161 52h24q116 0 163 -52.5t47 -158.5v-334q0 -111 -47 -165t-160 -54h-24q-116 0 -158 48t-42 153v35h182v-34q0 -25 6 -36t24 -11
t24.5 11t6.5 36v138q-47 -69 -122 -69z" />
    <glyph glyph-name="Euro.lintab" 
d="M257 -11q-107 0 -151.5 48.5t-44.5 144.5v103h-56v79h56v43h-56v77h56v79q0 95 45 143.5t152 48.5h34q103 0 146.5 -48t43.5 -140v-49h-179v45q0 41 -28 41q-17 0 -23 -10t-6 -31v-79h135v-77h-135v-43h135v-79h-135v-97q0 -21 6 -31t23 -10q28 0 28 41v61h179v-69
q0 -92 -40 -141.5t-150 -49.5h-35z" />
    <glyph glyph-name="yen.lintab" 
d="M147 0v187h-111v79h111v47h-111v77h92l-129 354h204l55 -238l54 238h189l-120 -354h95v-77h-112v-47h112v-79h-112v-187h-217z" />
    <glyph glyph-name="sterling.lintab" 
d="M479 244v-244h-463v147h5q82 0 82 88v5q0 22 -7 66h-80v116h60q-11 72 -11 120v29q0 88 46 136t153 48h25q57 0 95 -13.5t57 -40t26.5 -56t7.5 -71.5v-89h-167v75q0 42 -31 42t-31 -44v-21q0 -27 6 -115h159v-116h-152v-10q0 -109 -65 -146h121v94h164z" />
    <glyph glyph-name="dollar.lintab" 
d="M187 568q0 -39 41 -67v124q-41 -6 -41 -55v-2zM308 198q0 28 -9.5 44.5t-32.5 31.5v-143q42 6 42 61v6zM266 -75h-38v64q-210 0 -210 182v87h169v-70q0 -50 41 -57v168l-74 46q-68 43 -103 91t-35 122v18q0 85 54 132t158 47v57h38v-57q113 0 158 -45.5t45 -136.5v-46
h-162v34q0 57 -41 64v-149l84 -54q71 -47 103.5 -93.5t32.5 -121.5v-19q0 -88 -53.5 -143.5t-166.5 -55.5v-64z" />
    <glyph glyph-name="greater.lintab" 
d="M61 86v133l227 84l-227 84v133l378 -157v-120z" />
    <glyph glyph-name="less.lintab" 
d="M439 86l-378 157v120l378 157v-133l-227 -84l227 -84v-133z" />
    <glyph glyph-name="plus.lintab" 
d="M465 243h-148v-162h-134v162h-148v126h148v162h134v-162h148v-126z" />
    <glyph glyph-name="minus.lintab" 
d="M35 369h430v-126h-430v126z" />
    <glyph glyph-name="multiply.lintab" 
d="M372 95l-123 122l-121 -122l-89 86l122 123l-122 121l89 92l123 -122l121 122l89 -86l-123 -124l123 -122z" />
    <glyph glyph-name="divide.lintab" 
d="M331 567v-143h-162v143h162zM35 369h430v-126h-430v126zM331 185v-142h-162v142h162z" />
    <glyph glyph-name="equal.lintab" 
d="M40 462h420v-121h-420v121zM40 268h420v-121h-420v121z" />
    <glyph glyph-name="percent.lintab" 
d="M251 548q0 -105 -112 -105h-15q-112 0 -112 105v96q0 105 112 105h15q112 0 112 -105v-96zM397 744h84l-379 -744h-86zM132 524q16 0 16 23v99q0 23 -16 23t-16 -23v-99q0 -23 16 -23zM488 100q0 -105 -112 -105h-15q-112 0 -112 105v96q0 105 112 105h15q112 0 112 -105
v-96zM353 99q0 -23 16 -23t16 23v99q0 23 -16 23t-16 -23v-99z" />
    <glyph glyph-name="perthousand.lintab" 
d="M233 576q0 -105 -103 -105h-15q-57 0 -80 26.5t-23 78.5v68q0 105 103 105h15q103 0 103 -105v-68zM107 648v-75q0 -21 16 -21t16 21v75q0 21 -16 21t-16 -21zM386 584v-86l-372 -247v83zM253 100q0 -105 -103 -105h-15q-57 0 -80 26.5t-23 78.5v68q0 105 103 105h15
q103 0 103 -105v-68zM488 168v-68q0 -105 -101 -105h-15q-57 0 -79 26.5t-22 78.5v68q0 50 22.5 77.5t78.5 27.5h15q56 0 78.5 -27.5t22.5 -77.5zM364 95q0 -21 16 -21t16 21v79q0 21 -16 21t-16 -21v-79zM127 97q0 -21 16 -21t16 21v75q0 21 -16 21t-16 -21v-75z" />
    <glyph glyph-name="IJ.alt" horiz-adv-x="695" 
d="M257 744v-744h-212v744h212zM326 0v185h70q23 0 32.5 10t9.5 32v517h214v-570q0 -87 -40.5 -130.5t-128.5 -43.5h-157z" />
    <glyph glyph-name="a.alt2" horiz-adv-x="571" 
d="M285 126q40 0 40 52v194q0 53 -40 53q-39 0 -39 -53v-195q0 -51 39 -51zM325 560h204v-560h-202v61q-19 -27 -57 -49.5t-82 -22.5h-5q-63 0 -104 44t-41 109v278q0 64 38.5 105t99.5 41h6q81 0 143 -64v58z" />
    <glyph glyph-name="Eacute.alt" horiz-adv-x="472" 
d="M45 744h386v-173h-184v-99h178v-176h-178v-121h187v-175h-389v744zM148 789l52 140h188l-56 -140h-184z" />
    <glyph glyph-name="Ebreve.alt" horiz-adv-x="472" 
d="M45 744h386v-173h-184v-99h178v-176h-178v-121h187v-175h-389v744zM238 783q-78 0 -119.5 38.5t-41.5 101.5v6h130v-4q0 -36 33 -36t33 36v4h132v-6q0 -63 -41.5 -101.5t-119.5 -38.5h-6z" />
    <glyph glyph-name="Ecaron.alt" horiz-adv-x="472" 
d="M45 744h386v-173h-184v-99h178v-176h-178v-121h187v-175h-389v744zM136 789l-90 142h157l37 -63l37 63h155l-90 -142h-206z" />
    <glyph glyph-name="Ecircumflex.alt" horiz-adv-x="472" 
d="M45 744h386v-173h-184v-99h178v-176h-178v-121h187v-175h-389v744zM344 929l90 -142h-157l-37 63l-37 -63h-155l90 142h206z" />
    <glyph glyph-name="Edieresis.alt" horiz-adv-x="472" 
d="M45 744h386v-173h-184v-99h178v-176h-178v-121h187v-175h-389v744zM420 936v-147h-161v147h161zM219 936v-147h-161v147h161z" />
    <glyph glyph-name="Edotaccent.alt" horiz-adv-x="472" 
d="M45 744h386v-173h-184v-99h178v-176h-178v-121h187v-175h-389v744zM344 946v-157h-206v157h206z" />
    <glyph glyph-name="Egrave.alt" horiz-adv-x="472" 
d="M45 744h386v-173h-184v-99h178v-176h-178v-121h187v-175h-389v744zM332 789h-184l-56 140h188z" />
    <glyph glyph-name="Emacron.alt" horiz-adv-x="472" 
d="M45 744h386v-173h-184v-99h178v-176h-178v-121h187v-175h-389v744zM97 797v125h286v-125h-286z" />
    <glyph glyph-name="Eogonek.alt" horiz-adv-x="472" 
d="M172 -113v3q0 36 34 62t93 48h-254v744h386v-173h-184v-99h178v-176h-178v-121h187v-175h-52q-52 -44 -52 -66v-2q0 -21 34 -21h18v-97h-108q-102 0 -102 73z" />
    <glyph glyph-name="Jcircumflex.alt" horiz-adv-x="393" 
d="M24 0v185h70q23 0 32.5 10t9.5 32v517h214v-570q0 -87 -40.5 -130.5t-128.5 -43.5h-157zM343 929l90 -142h-157l-37 63l-37 -63h-155l90 142h206z" />
    <glyph glyph-name="aacute.alt" horiz-adv-x="536" 
d="M298 273q-43 -19 -55 -27q-26 -17 -26 -50v-36q0 -43 40 -43q19 0 30 12.5t11 30.5v113zM494 417v-259q0 -120 13 -153v-5h-196q-11 22 -11 64q-18 -25 -55 -48.5t-81 -23.5h-1q-64 0 -100 37t-36 96v72q0 58 27 90.5t86 50.5q26 8 78 21.5t66 17.5t14 23v8q0 23 -9 33.5
t-33 10.5h-1q-23 0 -32.5 -11t-9.5 -34v-25h-179v35q0 78 51.5 117t167.5 39h23q116 0 167 -38.5t51 -117.5zM170 606l57 160h179l-63 -160h-173z" />
    <glyph glyph-name="aacute.alt2" horiz-adv-x="571" 
d="M285 126q40 0 40 52v194q0 53 -40 53q-39 0 -39 -53v-195q0 -51 39 -51zM325 560h204v-560h-202v61q-19 -27 -57 -49.5t-82 -22.5h-5q-63 0 -104 44t-41 109v278q0 64 38.5 105t99.5 41h6q81 0 143 -64v58zM187 606l57 160h179l-63 -160h-173z" />
    <glyph glyph-name="abreve.alt" horiz-adv-x="536" 
d="M298 273q-43 -19 -55 -27q-26 -17 -26 -50v-36q0 -43 40 -43q19 0 30 12.5t11 30.5v113zM494 417v-259q0 -120 13 -153v-5h-196q-11 22 -11 64q-18 -25 -55 -48.5t-81 -23.5h-1q-64 0 -100 37t-36 96v72q0 58 27 90.5t86 50.5q26 8 78 21.5t66 17.5t14 23v8q0 23 -9 33.5
t-33 10.5h-1q-23 0 -32.5 -11t-9.5 -34v-25h-179v35q0 78 51.5 117t167.5 39h23q116 0 167 -38.5t51 -117.5zM255 603q-78 0 -118.5 39t-40.5 107v12h131v-8q0 -42 31 -42t31 42v8h131v-12q0 -68 -40.5 -107t-118.5 -39h-6z" />
    <glyph glyph-name="abreve.alt2" horiz-adv-x="571" 
d="M285 126q40 0 40 52v194q0 53 -40 53q-39 0 -39 -53v-195q0 -51 39 -51zM325 560h204v-560h-202v61q-19 -27 -57 -49.5t-82 -22.5h-5q-63 0 -104 44t-41 109v278q0 64 38.5 105t99.5 41h6q81 0 143 -64v58zM274 603q-78 0 -118.5 39t-40.5 107v12h131v-8q0 -42 31 -42
t31 42v8h131v-12q0 -68 -40.5 -107t-118.5 -39h-6z" />
    <glyph glyph-name="acircumflex.alt" horiz-adv-x="536" 
d="M298 273q-43 -19 -55 -27q-26 -17 -26 -50v-36q0 -43 40 -43q19 0 30 12.5t11 30.5v113zM494 417v-259q0 -120 13 -153v-5h-196q-11 22 -11 64q-18 -25 -55 -48.5t-81 -23.5h-1q-64 0 -100 37t-36 96v72q0 58 27 90.5t86 50.5q26 8 78 21.5t66 17.5t14 23v8q0 23 -9 33.5
t-33 10.5h-1q-23 0 -32.5 -11t-9.5 -34v-25h-179v35q0 78 51.5 117t167.5 39h23q116 0 167 -38.5t51 -117.5zM363 766l83 -161h-154l-36 79l-36 -79h-152l83 161h212z" />
    <glyph glyph-name="acircumflex.alt2" horiz-adv-x="571" 
d="M284 126q40 0 40 52v194q0 53 -40 53q-39 0 -39 -53v-195q0 -51 39 -51zM324 560h204v-560h-202v61q-19 -27 -57 -49.5t-82 -22.5h-5q-63 0 -104 44t-41 109v278q0 64 38.5 105t99.5 41h6q81 0 143 -64v58zM384 766l83 -161h-154l-36 79l-36 -79h-152l83 161h212z" />
    <glyph glyph-name="adieresis.alt" horiz-adv-x="536" 
d="M298 273q-43 -19 -55 -27q-26 -17 -26 -50v-36q0 -43 40 -43q19 0 30 12.5t11 30.5v113zM494 417v-259q0 -120 13 -153v-5h-196q-11 22 -11 64q-18 -25 -55 -48.5t-81 -23.5h-1q-64 0 -100 37t-36 96v72q0 58 27 90.5t86 50.5q26 8 78 21.5t66 17.5t14 23v8q0 23 -9 33.5
t-33 10.5h-1q-23 0 -32.5 -11t-9.5 -34v-25h-179v35q0 78 51.5 117t167.5 39h23q116 0 167 -38.5t51 -117.5zM442 753v-147h-161v147h161zM243 753v-147h-161v147h161z" />
    <glyph glyph-name="adieresis.alt2" horiz-adv-x="571" 
d="M285 126q40 0 40 52v194q0 53 -40 53q-39 0 -39 -53v-195q0 -51 39 -51zM325 560h204v-560h-202v61q-19 -27 -57 -49.5t-82 -22.5h-5q-63 0 -104 44t-41 109v278q0 64 38.5 105t99.5 41h6q81 0 143 -64v58zM459 753v-147h-161v147h161zM260 753v-147h-161v147h161z" />
    <glyph glyph-name="agrave.alt" horiz-adv-x="536" 
d="M298 273q-43 -19 -55 -27q-26 -17 -26 -50v-36q0 -43 40 -43q19 0 30 12.5t11 30.5v113zM494 417v-259q0 -120 13 -153v-5h-196q-11 22 -11 64q-18 -25 -55 -48.5t-81 -23.5h-1q-64 0 -100 37t-36 96v72q0 58 27 90.5t86 50.5q26 8 78 21.5t66 17.5t14 23v8q0 23 -9 33.5
t-33 10.5h-1q-23 0 -32.5 -11t-9.5 -34v-25h-179v35q0 78 51.5 117t167.5 39h23q116 0 167 -38.5t51 -117.5zM343 606h-173l-63 160h179z" />
    <glyph glyph-name="agrave.alt2" horiz-adv-x="571" 
d="M285 126q40 0 40 52v194q0 53 -40 53q-39 0 -39 -53v-195q0 -51 39 -51zM325 560h204v-560h-202v61q-19 -27 -57 -49.5t-82 -22.5h-5q-63 0 -104 44t-41 109v278q0 64 38.5 105t99.5 41h6q81 0 143 -64v58zM360 606h-173l-63 160h179z" />
    <glyph glyph-name="amacron.alt" horiz-adv-x="536" 
d="M298 273q-43 -19 -55 -27q-26 -17 -26 -50v-36q0 -43 40 -43q19 0 30 12.5t11 30.5v113zM494 417v-259q0 -120 13 -153v-5h-196q-11 22 -11 64q-18 -25 -55 -48.5t-81 -23.5h-1q-64 0 -100 37t-36 96v72q0 58 27 90.5t86 50.5q26 8 78 21.5t66 17.5t14 23v8q0 23 -9 33.5
t-33 10.5h-1q-23 0 -32.5 -11t-9.5 -34v-25h-179v35q0 78 51.5 117t167.5 39h23q116 0 167 -38.5t51 -117.5zM116 619v125h286v-125h-286z" />
    <glyph glyph-name="amacron.alt2" horiz-adv-x="571" 
d="M285 126q40 0 40 52v194q0 53 -40 53q-39 0 -39 -53v-195q0 -51 39 -51zM325 560h204v-560h-202v61q-19 -27 -57 -49.5t-82 -22.5h-5q-63 0 -104 44t-41 109v278q0 64 38.5 105t99.5 41h6q81 0 143 -64v58zM139 619v125h286v-125h-286z" />
    <glyph glyph-name="aogonek.alt" horiz-adv-x="536" 
d="M297 -113v3q0 36 34 62t93 48h-113q-11 22 -11 64q-18 -25 -55 -48.5t-81 -23.5h-1q-64 0 -100 37t-36 96v72q0 58 27 90.5t86 50.5q26 8 78 21.5t66 17.5t14 23v8q0 23 -9 33.5t-33 10.5h-1q-23 0 -32.5 -11t-9.5 -34v-25h-179v35q0 78 51.5 117t167.5 39h23
q116 0 167 -38.5t51 -117.5v-259q0 -120 13 -153v-5q-52 -44 -52 -66v-2q0 -21 34 -21h18v-97h-108q-102 0 -102 73zM298 273q-43 -19 -55 -27q-26 -17 -26 -50v-36q0 -43 40 -43q19 0 30 12.5t11 30.5v113z" />
    <glyph glyph-name="aogonek.alt2" horiz-adv-x="571" 
d="M319 -113v3q0 36 34 62t93 48h-119v61q-19 -27 -57 -49.5t-82 -22.5h-5q-63 0 -104 44t-41 109v278q0 64 38.5 105t99.5 41h6q81 0 143 -64v58h204v-560q-52 -44 -52 -66v-2q0 -21 34 -21h18v-97h-108q-102 0 -102 73zM285 126q40 0 40 52v194q0 53 -40 53q-39 0 -39 -53
v-195q0 -51 39 -51z" />
    <glyph glyph-name="aring.alt" horiz-adv-x="536" 
d="M298 273q-43 -19 -55 -27q-26 -17 -26 -50v-36q0 -43 40 -43q19 0 30 12.5t11 30.5v113zM494 417v-259q0 -120 13 -153v-5h-196q-11 22 -11 64q-18 -25 -55 -48.5t-81 -23.5h-1q-64 0 -100 37t-36 96v72q0 58 27 90.5t86 50.5q26 8 78 21.5t66 17.5t14 23v8q0 23 -9 33.5
t-33 10.5h-1q-23 0 -32.5 -11t-9.5 -34v-25h-179v35q0 78 51.5 117t167.5 39h23q116 0 167 -38.5t51 -117.5zM256 600q-51 0 -82 29.5t-31 77.5q0 49 30.5 77.5t82.5 28.5q51 0 82 -28.5t31 -77.5q0 -48 -31 -77.5t-82 -29.5zM256 662q19 0 31 12t12 33t-12 33t-31 12
t-31 -12t-12 -33t12 -33t31 -12z" />
    <glyph glyph-name="aring.alt2" horiz-adv-x="571" 
d="M285 126q40 0 40 52v194q0 53 -40 53q-39 0 -39 -53v-195q0 -51 39 -51zM325 560h204v-560h-202v61q-19 -27 -57 -49.5t-82 -22.5h-5q-63 0 -104 44t-41 109v278q0 64 38.5 105t99.5 41h6q81 0 143 -64v58zM273 600q-51 0 -82 29.5t-31 77.5q0 49 30.5 77.5t82.5 28.5
q51 0 82 -28.5t31 -77.5q0 -48 -31 -77.5t-82 -29.5zM273 662q19 0 31 12t12 33t-12 33t-31 12t-31 -12t-12 -33t12 -33t31 -12z" />
    <glyph glyph-name="aringacute.alt" horiz-adv-x="536" 
d="M298 273q-43 -19 -55 -27q-26 -17 -26 -50v-36q0 -43 40 -43q19 0 30 12.5t11 30.5v113zM494 417v-259q0 -120 13 -153v-5h-196q-11 22 -11 64q-18 -25 -55 -48.5t-81 -23.5h-1q-64 0 -100 37t-36 96v72q0 58 27 90.5t86 50.5q26 8 78 21.5t66 17.5t14 23v8q0 23 -9 33.5
t-33 10.5h-1q-23 0 -32.5 -11t-9.5 -34v-25h-179v35q0 78 51.5 117t167.5 39h23q116 0 167 -38.5t51 -117.5zM256 600q-51 0 -82 29.5t-31 77.5q0 49 30.5 77.5t82.5 28.5q51 0 82 -28.5t31 -77.5q0 -48 -31 -77.5t-82 -29.5zM256 662q19 0 31 12t12 33t-12 33t-31 12
t-31 -12t-12 -33t12 -33t31 -12zM170 840l57 160h179l-63 -160h-173z" />
    <glyph glyph-name="aringacute.alt2" horiz-adv-x="571" 
d="M285 126q40 0 40 52v194q0 53 -40 53q-39 0 -39 -53v-195q0 -51 39 -51zM325 560h204v-560h-202v61q-19 -27 -57 -49.5t-82 -22.5h-5q-63 0 -104 44t-41 109v278q0 64 38.5 105t99.5 41h6q81 0 143 -64v58zM273 600q-51 0 -82 29.5t-31 77.5q0 49 30.5 77.5t82.5 28.5
q51 0 82 -28.5t31 -77.5q0 -48 -31 -77.5t-82 -29.5zM273 662q19 0 31 12t12 33t-12 33t-31 12t-31 -12t-12 -33t12 -33t31 -12zM187 840l57 160h179l-63 -160h-173z" />
    <glyph glyph-name="atilde.alt" horiz-adv-x="536" 
d="M298 273q-43 -19 -55 -27q-26 -17 -26 -50v-36q0 -43 40 -43q19 0 30 12.5t11 30.5v113zM494 417v-259q0 -120 13 -153v-5h-196q-11 22 -11 64q-18 -25 -55 -48.5t-81 -23.5h-1q-64 0 -100 37t-36 96v72q0 58 27 90.5t86 50.5q26 8 78 21.5t66 17.5t14 23v8q0 23 -9 33.5
t-33 10.5h-1q-23 0 -32.5 -11t-9.5 -34v-25h-179v35q0 78 51.5 117t167.5 39h23q116 0 167 -38.5t51 -117.5zM421 774v-80q0 -39 -19 -62.5t-53 -23.5h-3q-32 0 -87 24q-41 18 -47 18q-9 0 -9 -14v-30h-111v80q0 38 19 62t53 24h3q34 0 86 -24q41 -19 48 -19q9 0 9 15v30
h111z" />
    <glyph glyph-name="atilde.alt2" horiz-adv-x="571" 
d="M285 126q40 0 40 52v194q0 53 -40 53q-39 0 -39 -53v-195q0 -51 39 -51zM325 560h204v-560h-202v61q-19 -27 -57 -49.5t-82 -22.5h-5q-63 0 -104 44t-41 109v278q0 64 38.5 105t99.5 41h6q81 0 143 -64v58zM445 774v-80q0 -39 -19 -62.5t-53 -23.5h-3q-32 0 -87 24
q-41 18 -47 18q-9 0 -9 -14v-30h-111v80q0 38 19 62t53 24h3q34 0 86 -24q41 -19 48 -19q9 0 9 15v30h111z" />
    <glyph glyph-name="racute.alt" horiz-adv-x="443" 
d="M246 560v-87q38 91 129 91h4q17 0 37 -4v-213q-35 7 -65 7h-7q-96 0 -96 -69v-285h-206v560h204zM172 606l57 160h179l-63 -160h-173z" />
    <glyph glyph-name="rcaron.alt" horiz-adv-x="443" 
d="M246 560v-87q38 91 129 91h4q17 0 37 -4v-213q-35 7 -65 7h-7q-96 0 -96 -69v-285h-206v560h204zM136 606l-84 160h154l36 -78l36 78h152l-84 -160h-210z" />
    <glyph glyph-name="rcommaaccent.alt" horiz-adv-x="443" 
d="M246 560v-87q38 91 129 91h4q17 0 37 -4v-213q-35 7 -65 7h-7q-96 0 -96 -69v-285h-206v560h204zM200 -266h-103q24 50 33 85h-76v135h182v-100q0 -51 -36 -120z" />
    <glyph glyph-name="space_uni0326.alt" horiz-adv-x="400" 
d="M142 830h110q-26 -53 -34 -85h75v-139h-186v102q0 52 35 122z" />
    <glyph glyph-name="ordfeminine.alt" horiz-adv-x="419" 
d="M233 530q-25 -10 -45 -22q-18 -10 -18 -36v-14q0 -32 30 -32q14 0 23.5 10.5t9.5 25.5v68zM234 392q-46 -60 -100 -60h-3q-45 0 -73 28.5t-28 71.5v41q0 40 18.5 62.5t59.5 35.5q17 5 62.5 17.5t47.5 13.5q15 4 15 26v1q0 31 -33 31q-31 0 -31 -31v-19h-133v18
q0 60 35 91t121 31h13q95 0 133 -29t38 -93v-166q0 -90 9 -117v-5h-141q-10 17 -10 52z" />
    <glyph glyph-name="ordfeminine.alt2" horiz-adv-x="435" 
d="M213 433q35 0 35 41v129q0 42 -35 42q-31 0 -31 -42v-129q0 -41 31 -41zM248 744h144v-404h-144v46q-41 -55 -106 -55h-2q-54 0 -80.5 34.5t-26.5 90.5v167q0 55 26.5 89.5t79.5 34.5h2q71 0 107 -53v50z" />
    <glyph glyph-name="caron.alt" horiz-adv-x="400" 
d="M127 606l11 157h136l-17 -157h-130z" />
    <glyph glyph-name="plus.uc" horiz-adv-x="512" 
d="M477 280h-153v-162h-136v162h-153v126h153v162h136v-162h153v-126z" />
    <glyph glyph-name="minus.uc" horiz-adv-x="492" 
d="M35 406h422v-126h-422v126z" />
    <glyph glyph-name="multiply.uc" horiz-adv-x="462" 
d="M353 132l-123 122l-121 -122l-89 86l122 123l-122 121l89 92l123 -122l121 122l89 -86l-123 -124l123 -122z" />
    <glyph glyph-name="divide.uc" horiz-adv-x="512" 
d="M337 604v-143h-162v143h162zM35 406h442v-126h-442v126zM337 222v-142h-162v142h162z" />
    <glyph glyph-name="equal.uc" horiz-adv-x="502" 
d="M40 499h422v-121h-422v121zM40 305h422v-121h-422v121z" />
    <glyph glyph-name="less.uc" horiz-adv-x="448" 
d="M413 123l-378 157v120l378 157v-133l-227 -84l227 -84v-133z" />
    <glyph glyph-name="greater.uc" horiz-adv-x="448" 
d="M35 123v133l227 84l-227 84v133l378 -157v-120z" />
    <glyph glyph-name="questiondown.uc" horiz-adv-x="510" 
d="M199 509h154v-30q0 -43 -10 -70.5t-41 -67.5l-45 -58q-20 -26 -26 -41.5t-6 -42.5v-26q0 -40 37 -40t37 41v81h180v-85q0 -84 -45.5 -131.5t-158.5 -47.5h-27q-117 0 -168.5 45t-51.5 133v18q0 57 16 95t53 78l72 77q19 21 24.5 33.5t5.5 36.5v2zM178 552v192h194v-192
h-194z" />
    <glyph glyph-name="exclamdown.uc" horiz-adv-x="290" 
d="M255 0h-220l55 509h110zM242 744v-192h-194v192h194z" />
    <glyph glyph-name="hyphen.uc" horiz-adv-x="327" 
d="M40 426h247v-172h-247v172z" />
    <glyph glyph-name="endash.uc" horiz-adv-x="569" 
d="M40 399h489v-115h-489v115z" />
    <glyph glyph-name="emdash.uc" horiz-adv-x="841" 
d="M40 399h761v-115h-761v115z" />
    <glyph glyph-name="guilsinglleft.uc" horiz-adv-x="313" 
d="M194 307l84 -184h-168l-70 139v90l70 139h168z" />
    <glyph glyph-name="guilsinglright.uc" horiz-adv-x="313" 
d="M119 307l-84 184h168l70 -139v-90l-70 -139h-168z" />
    <glyph glyph-name="guillemotleft.uc" horiz-adv-x="511" 
d="M184 307l74 -184h-156l-62 139v90l62 139h156zM402 307l74 -184h-158l-72 184l72 184h158z" />
    <glyph glyph-name="guillemotright.uc" horiz-adv-x="511" 
d="M109 307l-74 184h158l72 -184l-72 -184h-158zM327 307l-74 184h156l62 -139v-90l-62 -139h-156z" />
    <glyph glyph-name="parenleft.uc" horiz-adv-x="299" 
d="M25 367q0 76 12 144t37 129t41 93t45 83h124q-97 -244 -97 -449q0 -208 97 -449h-124q-28 49 -45 82t-41 93.5t-36.5 129t-12.5 144.5z" />
    <glyph glyph-name="parenright.uc" horiz-adv-x="299" 
d="M274 367q0 -76 -12.5 -144.5t-36.5 -129t-41 -93.5t-45 -82h-124q97 241 97 449q0 205 -97 449h124q29 -51 45 -83t41 -93t37 -129t12 -144z" />
    <glyph glyph-name="bracketleft.uc" horiz-adv-x="308" 
d="M42 -80v897h236v-129h-83v-639h83v-129h-236z" />
    <glyph glyph-name="bracketright.uc" horiz-adv-x="308" 
d="M30 -80v129h83v639h-83v129h236v-897h-236z" />
    <glyph glyph-name="braceleft.uc" horiz-adv-x="323" 
d="M293 -80h-102q-140 0 -140 112q0 34 30 120.5t30 114.5q0 19 -13 31t-38 12h-32v123h32q51 0 51 41q0 28 -30 113.5t-30 119.5q0 111 140 111h102v-123h-57q-38 0 -38 -30q0 -16 28 -88t28 -102q0 -83 -90 -103q90 -21 90 -106q0 -30 -28 -103.5t-28 -89.5q0 -30 38 -30
h57v-123z" />
    <glyph glyph-name="braceright.uc" horiz-adv-x="324" 
d="M133 -80h-103v123h58q38 0 38 30q0 16 -28 89.5t-28 103.5q0 85 90 106q-90 20 -90 103q0 30 28 102t28 88q0 30 -38 30h-58v123h103q140 0 140 -111q0 -34 -30 -119.5t-30 -113.5q0 -41 51 -41h32v-123h-32q-25 0 -38 -12t-13 -31q0 -28 30 -114.5t30 -120.5
q0 -112 -140 -112z" />
    <glyph glyph-name="slash.uc" horiz-adv-x="341" 
d="M322 816l-180 -897h-126l179 897h127z" />
    <glyph glyph-name="backslash.uc" horiz-adv-x="340" 
d="M324 -81h-126l-179 897h127z" />
    <glyph glyph-name="bar.uc" horiz-adv-x="255" 
d="M190 816v-898h-125v898h125z" />
    <glyph glyph-name="at.uc" horiz-adv-x="873" 
d="M680 73l54 -74q-37 -36 -108 -64t-178 -28h-6q-67 0 -122 10t-108.5 38.5t-90 74t-58.5 121t-22 175.5v35q0 206 102 315t301 109h1q186 0 287 -81t101 -267v-34q0 -313 -208 -313h-6q-44 0 -76 13.5t-44 27t-19 28.5q-57 -69 -128 -69h-4q-70 0 -104.5 43.5t-29.5 124.5
l11 191q9 147 127 147h4q84 0 130 -65l3 59h179l-25 -384q-2 -25 19 -25q31 0 51 58.5t20 163.5v31q0 67 -15.5 115.5t-40.5 76.5t-64 44.5t-77.5 21.5t-90.5 5h-1q-298 0 -298 -337v-34q0 -99 22.5 -166.5t65.5 -101.5t92 -47.5t116 -13.5h6q153 0 232 76zM467 250l12 184
q3 50 -36 50q-34 0 -37 -50l-11 -183q-4 -50 33 -50q36 0 39 49z" />
    <glyph glyph-name="grave.uc" horiz-adv-x="400" 
d="M320 789h-184l-56 140h188z" />
    <glyph glyph-name="dieresis.uc" horiz-adv-x="400" 
d="M381 936v-147h-161v147h161zM180 936v-147h-161v147h161z" />
    <glyph glyph-name="macron.uc" horiz-adv-x="400" 
d="M57 797v125h286v-125h-286z" />
    <glyph glyph-name="acute.uc" horiz-adv-x="400" 
d="M80 789l52 140h188l-56 -140h-184z" />
    <glyph glyph-name="circumflex.uc" horiz-adv-x="400" 
d="M303 929l90 -142h-157l-37 63l-37 -63h-155l90 142h206z" />
    <glyph glyph-name="caron.uc" horiz-adv-x="400" 
d="M97 789l-90 142h157l37 -63l37 63h155l-90 -142h-206z" />
    <glyph glyph-name="breve.uc" horiz-adv-x="400" 
d="M199 783q-78 0 -119.5 38.5t-41.5 101.5v6h130v-4q0 -36 33 -36t33 36v4h132v-6q0 -63 -41.5 -101.5t-119.5 -38.5h-6z" />
    <glyph glyph-name="dotaccent.uc" horiz-adv-x="400" 
d="M303 946v-157h-206v157h206z" />
    <glyph glyph-name="ring.uc" horiz-adv-x="400" 
d="M200 779q-51 0 -82 29.5t-31 77.5q0 49 30.5 77.5t82.5 28.5q51 0 82 -28.5t31 -77.5q0 -48 -31 -77.5t-82 -29.5zM200 841q19 0 31 12t12 33t-12 33t-31 12t-31 -12t-12 -33t12 -33t31 -12z" />
    <glyph glyph-name="tilde.uc" horiz-adv-x="400" 
d="M364 947v-70q0 -39 -19 -62.5t-54 -23.5h-3q-32 0 -87 24q-43 18 -48 18q-9 0 -9 -14v-30h-109v70q0 38 19.5 62t53.5 24h3q30 0 87 -25q43 -18 48 -18q9 0 9 14v31h109z" />
    <glyph glyph-name="hungarumlaut.uc" horiz-adv-x="400" 
d="M194 789l50 140h150l-52 -140h-148zM6 789l47 140h150l-50 -140h-147z" />
    <glyph glyph-name="emdash.altuc" horiz-adv-x="1602" 
d="M1562 399v-115h-1522v115h1522z" />
    <glyph glyph-name="f.short" horiz-adv-x="419" 
d="M397 757v-131h-52q-20 0 -27 -6.5t-7 -23.5v-36h86v-148h-86v-412h-203v412h-87v148h87v76q0 59 34.5 90t96.5 31h158z" />
    <glyph glyph-name="f_f.short" horiz-adv-x="772" 
d="M311 0h-203v412h-87v148h87v76q0 59 34.5 90t96.5 31h160v-131h-54q-20 0 -27 -6.5t-7 -23.5v-36h150v76q0 59 34.5 90t96.5 31h158v-131h-52q-20 0 -27 -6.5t-7 -23.5v-36h86v-148h-86v-412h-203v412h-150v-412z" />
    <glyph glyph-name="j.short" horiz-adv-x="291" 
d="M249 763v-157h-206v157h206zM2 -27h8q18 0 25.5 7t7.5 26v554h206v-620q0 -57 -28.5 -90.5t-88.5 -33.5h-130v157z" />
    <glyph glyph-name="divide.uctab" 
d="M331 604v-143h-162v143h162zM35 406h430v-126h-430v126zM331 222v-142h-162v142h162z" />
    <glyph glyph-name="equal.uctab" 
d="M40 499h420v-121h-420v121zM40 305h420v-121h-420v121z" />
    <glyph glyph-name="florin.tab" 
d="M467 336h-133l-44 -520h-193l41 520h-113v146h125l11 138q9 124 130 124h177v-146h-79q-19 0 -26 -7.5t-9 -24.5l-7 -84h120v-146z" />
    <glyph glyph-name="greater.uctab" 
d="M61 123v133l227 84l-227 84v133l378 -157v-120z" />
    <glyph glyph-name="less.uctab" 
d="M439 123l-378 157v120l378 157v-133l-227 -84l227 -84v-133z" />
    <glyph glyph-name="minus.uctab" 
d="M35 406h430v-126h-430v126z" />
    <glyph glyph-name="multiply.uctab" 
d="M372 132l-123 122l-121 -122l-89 86l122 123l-122 121l89 92l123 -122l121 122l89 -86l-123 -124l123 -122z" />
    <glyph glyph-name="plus.uctab" 
d="M465 280h-148v-162h-134v162h-148v126h148v162h134v-162h148v-126z" />
    </font>
</defs>
</svg>
